<?xml version="1.0" standalone="no"?>
 <!DOCTYPE svg PUBLIC "-//W3C//DTD SVG 1.1//EN" 
 "http://www.w3.org/Graphics/SVG/1.1/DTD/svg11.dtd"> 
<svg xmlns="http://www.w3.org/2000/svg" version="1.1" 
    width="29.7002cm" height="21.0007cm" viewBox="0 0 116930 82680 ">
<title>SVG Picture created as Skanas_frekvences_noteiksana-F.SilkS.svg date 2019/05/19 16:25:04 </title>
  <desc>Picture generated by PCBNEW </desc>
<g style="fill:#000000; fill-opacity:1;stroke:#000000; stroke-opacity:1;
stroke-linecap:round; stroke-linejoin:round; "
 transform="translate(0 0) scale(1 1)">
</g>
<g style="fill:#000000; fill-opacity:0.0; 
stroke:#000000; stroke-width:-0.000393701; stroke-opacity:1; 
stroke-linecap:round; stroke-linejoin:round;">
</g>
<g style="fill:#000000; fill-opacity:0.0; 
stroke:#000000; stroke-width:39.3701; stroke-opacity:1; 
stroke-linecap:round; stroke-linejoin:round;">
</g>
<g style="fill:#000000; fill-opacity:0.0; 
stroke:#000000; stroke-width:59.0551; stroke-opacity:1; 
stroke-linecap:round; stroke-linejoin:round;">
<rect x="69685.9" y="65357.2" width="42519.7" height="12598.4" rx="0" />
</g>
<g style="fill:#000000; fill-opacity:0.0; 
stroke:#000000; stroke-width:39.3701; stroke-opacity:1; 
stroke-linecap:round; stroke-linejoin:round;">
</g>
<g style="fill:#000000; fill-opacity:0.0; 
stroke:#000000; stroke-width:59.0551; stroke-opacity:1; 
stroke-linecap:round; stroke-linejoin:round;">
<rect x="3937.01" y="3937.01" width="109056" height="74806" rx="0" />
</g>
<g style="fill:#000000; fill-opacity:0.0; 
stroke:#000000; stroke-width:39.3701; stroke-opacity:1; 
stroke-linecap:round; stroke-linejoin:round;">
</g>
<g style="fill:#000000; fill-opacity:0.0; 
stroke:#000000; stroke-width:59.0551; stroke-opacity:1; 
stroke-linecap:round; stroke-linejoin:round;">
<rect x="4724.41" y="4724.41" width="107481" height="73231.2" rx="0" />
</g>
<g style="fill:#000000; fill-opacity:0.0; 
stroke:#000000; stroke-width:39.3701; stroke-opacity:1; 
stroke-linecap:round; stroke-linejoin:round;">
</g>
<g style="fill:#000000; fill-opacity:0.0; 
stroke:#000000; stroke-width:59.0551; stroke-opacity:1; 
stroke-linecap:round; stroke-linejoin:round;">
<path d="M23622 4724
L23622 3937
" />
</g>
<g style="fill:#000000; fill-opacity:0.0; 
stroke:#000000; stroke-width:39.3701; stroke-opacity:1; 
stroke-linecap:round; stroke-linejoin:round;">
</g>
<g style="fill:#000000; fill-opacity:0.0; 
stroke:#000000; stroke-width:59.0551; stroke-opacity:1; 
stroke-linecap:round; stroke-linejoin:round;">
<path d="M43307 4724
L43307 3937
" />
</g>
<g style="fill:#000000; fill-opacity:0.0; 
stroke:#000000; stroke-width:39.3701; stroke-opacity:1; 
stroke-linecap:round; stroke-linejoin:round;">
</g>
<g style="fill:#000000; fill-opacity:0.0; 
stroke:#000000; stroke-width:59.0551; stroke-opacity:1; 
stroke-linecap:round; stroke-linejoin:round;">
<path d="M62992 4724
L62992 3937
" />
</g>
<g style="fill:#000000; fill-opacity:0.0; 
stroke:#000000; stroke-width:39.3701; stroke-opacity:1; 
stroke-linecap:round; stroke-linejoin:round;">
</g>
<g style="fill:#000000; fill-opacity:0.0; 
stroke:#000000; stroke-width:59.0551; stroke-opacity:1; 
stroke-linecap:round; stroke-linejoin:round;">
<path d="M82677 4724
L82677 3937
" />
</g>
<g style="fill:#000000; fill-opacity:0.0; 
stroke:#000000; stroke-width:39.3701; stroke-opacity:1; 
stroke-linecap:round; stroke-linejoin:round;">
</g>
<g style="fill:#000000; fill-opacity:0.0; 
stroke:#000000; stroke-width:59.0551; stroke-opacity:1; 
stroke-linecap:round; stroke-linejoin:round;">
<path d="M102362 4724
L102362 3937
" />
</g>
<g style="fill:#000000; fill-opacity:0.0; 
stroke:#000000; stroke-width:39.3701; stroke-opacity:1; 
stroke-linecap:round; stroke-linejoin:round;">
</g>
<g style="fill:#000000; fill-opacity:0.0; 
stroke:#000000; stroke-width:59.0551; stroke-opacity:1; 
stroke-linecap:round; stroke-linejoin:round;">
<path d="M14199 4562
L13906 4562
" />
<path d="M14052 4562
L14052 4050
L14004 4123
L13955 4172
L13906 4196
" />
</g>
<g style="fill:#000000; fill-opacity:0.0; 
stroke:#000000; stroke-width:39.3701; stroke-opacity:1; 
stroke-linecap:round; stroke-linejoin:round;">
</g>
<g style="fill:#000000; fill-opacity:0.0; 
stroke:#000000; stroke-width:59.0551; stroke-opacity:1; 
stroke-linecap:round; stroke-linejoin:round;">
<path d="M33591 4099
L33615 4074
L33664 4050
L33786 4050
L33835 4074
L33859 4099
L33884 4147
L33884 4196
L33859 4269
L33567 4562
L33884 4562
" />
</g>
<g style="fill:#000000; fill-opacity:0.0; 
stroke:#000000; stroke-width:39.3701; stroke-opacity:1; 
stroke-linecap:round; stroke-linejoin:round;">
</g>
<g style="fill:#000000; fill-opacity:0.0; 
stroke:#000000; stroke-width:59.0551; stroke-opacity:1; 
stroke-linecap:round; stroke-linejoin:round;">
<path d="M53252 4050
L53569 4050
L53398 4245
L53471 4245
L53520 4269
L53544 4294
L53569 4342
L53569 4464
L53544 4513
L53520 4537
L53471 4562
L53325 4562
L53276 4537
L53252 4513
" />
</g>
<g style="fill:#000000; fill-opacity:0.0; 
stroke:#000000; stroke-width:39.3701; stroke-opacity:1; 
stroke-linecap:round; stroke-linejoin:round;">
</g>
<g style="fill:#000000; fill-opacity:0.0; 
stroke:#000000; stroke-width:59.0551; stroke-opacity:1; 
stroke-linecap:round; stroke-linejoin:round;">
<path d="M73205 4221
L73205 4562
" />
<path d="M73083 4026
L72961 4391
L73278 4391
" />
</g>
<g style="fill:#000000; fill-opacity:0.0; 
stroke:#000000; stroke-width:39.3701; stroke-opacity:1; 
stroke-linecap:round; stroke-linejoin:round;">
</g>
<g style="fill:#000000; fill-opacity:0.0; 
stroke:#000000; stroke-width:59.0551; stroke-opacity:1; 
stroke-linecap:round; stroke-linejoin:round;">
<path d="M92914 4050
L92671 4050
L92646 4294
L92671 4269
L92719 4245
L92841 4245
L92890 4269
L92914 4294
L92939 4342
L92939 4464
L92914 4513
L92890 4537
L92841 4562
L92719 4562
L92671 4537
L92646 4513
" />
</g>
<g style="fill:#000000; fill-opacity:0.0; 
stroke:#000000; stroke-width:39.3701; stroke-opacity:1; 
stroke-linecap:round; stroke-linejoin:round;">
</g>
<g style="fill:#000000; fill-opacity:0.0; 
stroke:#000000; stroke-width:59.0551; stroke-opacity:1; 
stroke-linecap:round; stroke-linejoin:round;">
<path d="M112575 4050
L112477 4050
L112429 4074
L112404 4099
L112356 4172
L112331 4269
L112331 4464
L112356 4513
L112380 4537
L112429 4562
L112526 4562
L112575 4537
L112599 4513
L112624 4464
L112624 4342
L112599 4294
L112575 4269
L112526 4245
L112429 4245
L112380 4269
L112356 4294
L112331 4342
" />
</g>
<g style="fill:#000000; fill-opacity:0.0; 
stroke:#000000; stroke-width:39.3701; stroke-opacity:1; 
stroke-linecap:round; stroke-linejoin:round;">
</g>
<g style="fill:#000000; fill-opacity:0.0; 
stroke:#000000; stroke-width:59.0551; stroke-opacity:1; 
stroke-linecap:round; stroke-linejoin:round;">
<path d="M23622 77955
L23622 78742
" />
</g>
<g style="fill:#000000; fill-opacity:0.0; 
stroke:#000000; stroke-width:39.3701; stroke-opacity:1; 
stroke-linecap:round; stroke-linejoin:round;">
</g>
<g style="fill:#000000; fill-opacity:0.0; 
stroke:#000000; stroke-width:59.0551; stroke-opacity:1; 
stroke-linecap:round; stroke-linejoin:round;">
<path d="M43307 77955
L43307 78742
" />
</g>
<g style="fill:#000000; fill-opacity:0.0; 
stroke:#000000; stroke-width:39.3701; stroke-opacity:1; 
stroke-linecap:round; stroke-linejoin:round;">
</g>
<g style="fill:#000000; fill-opacity:0.0; 
stroke:#000000; stroke-width:59.0551; stroke-opacity:1; 
stroke-linecap:round; stroke-linejoin:round;">
<path d="M62992 77955
L62992 78742
" />
</g>
<g style="fill:#000000; fill-opacity:0.0; 
stroke:#000000; stroke-width:39.3701; stroke-opacity:1; 
stroke-linecap:round; stroke-linejoin:round;">
</g>
<g style="fill:#000000; fill-opacity:0.0; 
stroke:#000000; stroke-width:59.0551; stroke-opacity:1; 
stroke-linecap:round; stroke-linejoin:round;">
<path d="M82677 77955
L82677 78742
" />
</g>
<g style="fill:#000000; fill-opacity:0.0; 
stroke:#000000; stroke-width:39.3701; stroke-opacity:1; 
stroke-linecap:round; stroke-linejoin:round;">
</g>
<g style="fill:#000000; fill-opacity:0.0; 
stroke:#000000; stroke-width:59.0551; stroke-opacity:1; 
stroke-linecap:round; stroke-linejoin:round;">
<path d="M102362 77955
L102362 78742
" />
</g>
<g style="fill:#000000; fill-opacity:0.0; 
stroke:#000000; stroke-width:39.3701; stroke-opacity:1; 
stroke-linecap:round; stroke-linejoin:round;">
</g>
<g style="fill:#000000; fill-opacity:0.0; 
stroke:#000000; stroke-width:59.0551; stroke-opacity:1; 
stroke-linecap:round; stroke-linejoin:round;">
<path d="M14199 78580
L13906 78580
" />
<path d="M14052 78580
L14052 78069
L14004 78142
L13955 78190
L13906 78215
" />
</g>
<g style="fill:#000000; fill-opacity:0.0; 
stroke:#000000; stroke-width:39.3701; stroke-opacity:1; 
stroke-linecap:round; stroke-linejoin:round;">
</g>
<g style="fill:#000000; fill-opacity:0.0; 
stroke:#000000; stroke-width:59.0551; stroke-opacity:1; 
stroke-linecap:round; stroke-linejoin:round;">
<path d="M33591 78117
L33615 78093
L33664 78069
L33786 78069
L33835 78093
L33859 78117
L33884 78166
L33884 78215
L33859 78288
L33567 78580
L33884 78580
" />
</g>
<g style="fill:#000000; fill-opacity:0.0; 
stroke:#000000; stroke-width:39.3701; stroke-opacity:1; 
stroke-linecap:round; stroke-linejoin:round;">
</g>
<g style="fill:#000000; fill-opacity:0.0; 
stroke:#000000; stroke-width:59.0551; stroke-opacity:1; 
stroke-linecap:round; stroke-linejoin:round;">
<path d="M53252 78069
L53569 78069
L53398 78263
L53471 78263
L53520 78288
L53544 78312
L53569 78361
L53569 78483
L53544 78532
L53520 78556
L53471 78580
L53325 78580
L53276 78556
L53252 78532
" />
</g>
<g style="fill:#000000; fill-opacity:0.0; 
stroke:#000000; stroke-width:39.3701; stroke-opacity:1; 
stroke-linecap:round; stroke-linejoin:round;">
</g>
<g style="fill:#000000; fill-opacity:0.0; 
stroke:#000000; stroke-width:59.0551; stroke-opacity:1; 
stroke-linecap:round; stroke-linejoin:round;">
<path d="M73205 78239
L73205 78580
" />
<path d="M73083 78044
L72961 78410
L73278 78410
" />
</g>
<g style="fill:#000000; fill-opacity:0.0; 
stroke:#000000; stroke-width:39.3701; stroke-opacity:1; 
stroke-linecap:round; stroke-linejoin:round;">
</g>
<g style="fill:#000000; fill-opacity:0.0; 
stroke:#000000; stroke-width:59.0551; stroke-opacity:1; 
stroke-linecap:round; stroke-linejoin:round;">
<path d="M92914 78069
L92671 78069
L92646 78312
L92671 78288
L92719 78263
L92841 78263
L92890 78288
L92914 78312
L92939 78361
L92939 78483
L92914 78532
L92890 78556
L92841 78580
L92719 78580
L92671 78556
L92646 78532
" />
</g>
<g style="fill:#000000; fill-opacity:0.0; 
stroke:#000000; stroke-width:39.3701; stroke-opacity:1; 
stroke-linecap:round; stroke-linejoin:round;">
</g>
<g style="fill:#000000; fill-opacity:0.0; 
stroke:#000000; stroke-width:59.0551; stroke-opacity:1; 
stroke-linecap:round; stroke-linejoin:round;">
<path d="M112575 78069
L112477 78069
L112429 78093
L112404 78117
L112356 78190
L112331 78288
L112331 78483
L112356 78532
L112380 78556
L112429 78580
L112526 78580
L112575 78556
L112599 78532
L112624 78483
L112624 78361
L112599 78312
L112575 78288
L112526 78263
L112429 78263
L112380 78288
L112356 78312
L112331 78361
" />
</g>
<g style="fill:#000000; fill-opacity:0.0; 
stroke:#000000; stroke-width:39.3701; stroke-opacity:1; 
stroke-linecap:round; stroke-linejoin:round;">
</g>
<g style="fill:#000000; fill-opacity:0.0; 
stroke:#000000; stroke-width:59.0551; stroke-opacity:1; 
stroke-linecap:round; stroke-linejoin:round;">
<path d="M3937 23622
L4724 23622
" />
</g>
<g style="fill:#000000; fill-opacity:0.0; 
stroke:#000000; stroke-width:39.3701; stroke-opacity:1; 
stroke-linecap:round; stroke-linejoin:round;">
</g>
<g style="fill:#000000; fill-opacity:0.0; 
stroke:#000000; stroke-width:59.0551; stroke-opacity:1; 
stroke-linecap:round; stroke-linejoin:round;">
<path d="M3937 43307
L4724 43307
" />
</g>
<g style="fill:#000000; fill-opacity:0.0; 
stroke:#000000; stroke-width:39.3701; stroke-opacity:1; 
stroke-linecap:round; stroke-linejoin:round;">
</g>
<g style="fill:#000000; fill-opacity:0.0; 
stroke:#000000; stroke-width:59.0551; stroke-opacity:1; 
stroke-linecap:round; stroke-linejoin:round;">
<path d="M3937 62992
L4724 62992
" />
</g>
<g style="fill:#000000; fill-opacity:0.0; 
stroke:#000000; stroke-width:39.3701; stroke-opacity:1; 
stroke-linecap:round; stroke-linejoin:round;">
</g>
<g style="fill:#000000; fill-opacity:0.0; 
stroke:#000000; stroke-width:59.0551; stroke-opacity:1; 
stroke-linecap:round; stroke-linejoin:round;">
<path d="M4208 13864
L4452 13864
" />
<path d="M4160 14011
L4330 13499
L4501 14011
" />
</g>
<g style="fill:#000000; fill-opacity:0.0; 
stroke:#000000; stroke-width:39.3701; stroke-opacity:1; 
stroke-linecap:round; stroke-linejoin:round;">
</g>
<g style="fill:#000000; fill-opacity:0.0; 
stroke:#000000; stroke-width:59.0551; stroke-opacity:1; 
stroke-linecap:round; stroke-linejoin:round;">
<path d="M4367 33428
L4440 33452
L4464 33476
L4489 33525
L4489 33598
L4464 33647
L4440 33671
L4391 33696
L4196 33696
L4196 33184
L4367 33184
L4416 33208
L4440 33233
L4464 33281
L4464 33330
L4440 33379
L4416 33403
L4367 33428
L4196 33428
" />
</g>
<g style="fill:#000000; fill-opacity:0.0; 
stroke:#000000; stroke-width:39.3701; stroke-opacity:1; 
stroke-linecap:round; stroke-linejoin:round;">
</g>
<g style="fill:#000000; fill-opacity:0.0; 
stroke:#000000; stroke-width:59.0551; stroke-opacity:1; 
stroke-linecap:round; stroke-linejoin:round;">
<path d="M4489 53332
L4464 53356
L4391 53381
L4342 53381
L4269 53356
L4221 53308
L4196 53259
L4172 53161
L4172 53088
L4196 52991
L4221 52942
L4269 52893
L4342 52869
L4391 52869
L4464 52893
L4489 52918
" />
</g>
<g style="fill:#000000; fill-opacity:0.0; 
stroke:#000000; stroke-width:39.3701; stroke-opacity:1; 
stroke-linecap:round; stroke-linejoin:round;">
</g>
<g style="fill:#000000; fill-opacity:0.0; 
stroke:#000000; stroke-width:59.0551; stroke-opacity:1; 
stroke-linecap:round; stroke-linejoin:round;">
<path d="M4196 73066
L4196 72554
L4318 72554
L4391 72578
L4440 72627
L4464 72676
L4489 72773
L4489 72846
L4464 72944
L4440 72993
L4391 73041
L4318 73066
L4196 73066
" />
</g>
<g style="fill:#000000; fill-opacity:0.0; 
stroke:#000000; stroke-width:39.3701; stroke-opacity:1; 
stroke-linecap:round; stroke-linejoin:round;">
</g>
<g style="fill:#000000; fill-opacity:0.0; 
stroke:#000000; stroke-width:59.0551; stroke-opacity:1; 
stroke-linecap:round; stroke-linejoin:round;">
<path d="M112992 23622
L112205 23622
" />
</g>
<g style="fill:#000000; fill-opacity:0.0; 
stroke:#000000; stroke-width:39.3701; stroke-opacity:1; 
stroke-linecap:round; stroke-linejoin:round;">
</g>
<g style="fill:#000000; fill-opacity:0.0; 
stroke:#000000; stroke-width:59.0551; stroke-opacity:1; 
stroke-linecap:round; stroke-linejoin:round;">
<path d="M112992 43307
L112205 43307
" />
</g>
<g style="fill:#000000; fill-opacity:0.0; 
stroke:#000000; stroke-width:39.3701; stroke-opacity:1; 
stroke-linecap:round; stroke-linejoin:round;">
</g>
<g style="fill:#000000; fill-opacity:0.0; 
stroke:#000000; stroke-width:59.0551; stroke-opacity:1; 
stroke-linecap:round; stroke-linejoin:round;">
<path d="M112992 62992
L112205 62992
" />
</g>
<g style="fill:#000000; fill-opacity:0.0; 
stroke:#000000; stroke-width:39.3701; stroke-opacity:1; 
stroke-linecap:round; stroke-linejoin:round;">
</g>
<g style="fill:#000000; fill-opacity:0.0; 
stroke:#000000; stroke-width:59.0551; stroke-opacity:1; 
stroke-linecap:round; stroke-linejoin:round;">
<path d="M112477 13864
L112721 13864
" />
<path d="M112428 14011
L112599 13499
L112769 14011
" />
</g>
<g style="fill:#000000; fill-opacity:0.0; 
stroke:#000000; stroke-width:39.3701; stroke-opacity:1; 
stroke-linecap:round; stroke-linejoin:round;">
</g>
<g style="fill:#000000; fill-opacity:0.0; 
stroke:#000000; stroke-width:59.0551; stroke-opacity:1; 
stroke-linecap:round; stroke-linejoin:round;">
<path d="M112635 33428
L112708 33452
L112733 33476
L112757 33525
L112757 33598
L112733 33647
L112708 33671
L112660 33696
L112465 33696
L112465 33184
L112635 33184
L112684 33208
L112708 33233
L112733 33281
L112733 33330
L112708 33379
L112684 33403
L112635 33428
L112465 33428
" />
</g>
<g style="fill:#000000; fill-opacity:0.0; 
stroke:#000000; stroke-width:39.3701; stroke-opacity:1; 
stroke-linecap:round; stroke-linejoin:round;">
</g>
<g style="fill:#000000; fill-opacity:0.0; 
stroke:#000000; stroke-width:59.0551; stroke-opacity:1; 
stroke-linecap:round; stroke-linejoin:round;">
<path d="M112757 53332
L112733 53356
L112660 53381
L112611 53381
L112538 53356
L112489 53308
L112465 53259
L112440 53161
L112440 53088
L112465 52991
L112489 52942
L112538 52893
L112611 52869
L112660 52869
L112733 52893
L112757 52918
" />
</g>
<g style="fill:#000000; fill-opacity:0.0; 
stroke:#000000; stroke-width:39.3701; stroke-opacity:1; 
stroke-linecap:round; stroke-linejoin:round;">
</g>
<g style="fill:#000000; fill-opacity:0.0; 
stroke:#000000; stroke-width:59.0551; stroke-opacity:1; 
stroke-linecap:round; stroke-linejoin:round;">
<path d="M112465 73066
L112465 72554
L112587 72554
L112660 72578
L112708 72627
L112733 72676
L112757 72773
L112757 72846
L112733 72944
L112708 72993
L112660 73041
L112587 73066
L112465 73066
" />
</g>
<g style="fill:#000000; fill-opacity:0.0; 
stroke:#000000; stroke-width:39.3701; stroke-opacity:1; 
stroke-linecap:round; stroke-linejoin:round;">
</g>
<g style="fill:#000000; fill-opacity:0.0; 
stroke:#000000; stroke-width:59.0551; stroke-opacity:1; 
stroke-linecap:round; stroke-linejoin:round;">
<path d="M78911 76293
L78911 75703
L79051 75703
L79136 75731
L79192 75787
L79220 75843
L79248 75956
L79248 76040
L79220 76153
L79192 76209
L79136 76265
L79051 76293
L78911 76293
" />
<path d="M79754 76293
L79754 75984
L79726 75928
L79670 75899
L79557 75899
L79501 75928
" />
<path d="M79754 76265
L79698 76293
L79557 76293
L79501 76265
L79473 76209
L79473 76153
L79501 76096
L79557 76068
L79698 76068
L79754 76040
" />
<path d="M79951 75899
L80176 75899
" />
<path d="M80036 75703
L80036 76209
L80064 76265
L80120 76293
L80176 76293
" />
<path d="M80598 76265
L80542 76293
L80429 76293
L80373 76265
L80345 76209
L80345 75984
L80373 75928
L80429 75899
L80542 75899
L80598 75928
L80626 75984
L80626 76040
L80345 76096
" />
<path d="M80879 76237
L80907 76265
L80879 76293
L80851 76265
L80879 76237
L80879 76293
" />
<path d="M80879 75928
L80907 75956
L80879 75984
L80851 75956
L80879 75928
L80879 75984
" />
<path d="M81582 75759
L81610 75731
L81667 75703
L81807 75703
L81863 75731
L81892 75759
L81920 75815
L81920 75871
L81892 75956
L81554 76293
L81920 76293
" />
<path d="M82285 75703
L82341 75703
L82398 75731
L82426 75759
L82454 75815
L82482 75928
L82482 76068
L82454 76181
L82426 76237
L82398 76265
L82341 76293
L82285 76293
L82229 76265
L82201 76237
L82173 76181
L82145 76068
L82145 75928
L82173 75815
L82201 75759
L82229 75731
L82285 75703
" />
<path d="M83045 76293
L82707 76293
" />
<path d="M82876 76293
L82876 75703
L82820 75787
L82763 75843
L82707 75871
" />
<path d="M83326 76293
L83438 76293
L83494 76265
L83523 76237
L83579 76153
L83607 76040
L83607 75815
L83579 75759
L83551 75731
L83494 75703
L83382 75703
L83326 75731
L83298 75759
L83269 75815
L83269 75956
L83298 76012
L83326 76040
L83382 76068
L83494 76068
L83551 76040
L83579 76012
L83607 75956
" />
<path d="M83860 76068
L84310 76068
" />
<path d="M84704 75703
L84760 75703
L84816 75731
L84844 75759
L84872 75815
L84901 75928
L84901 76068
L84872 76181
L84844 76237
L84816 76265
L84760 76293
L84704 76293
L84647 76265
L84619 76237
L84591 76181
L84563 76068
L84563 75928
L84591 75815
L84619 75759
L84647 75731
L84704 75703
" />
<path d="M85407 75899
L85407 76293
" />
<path d="M85266 75674
L85126 76096
L85491 76096
" />
<path d="M85716 76068
L86166 76068
" />
<path d="M86419 75759
L86447 75731
L86503 75703
L86644 75703
L86700 75731
L86728 75759
L86757 75815
L86757 75871
L86728 75956
L86391 76293
L86757 76293
" />
<path d="M87291 75703
L87010 75703
L86982 75984
L87010 75956
L87066 75928
L87206 75928
L87263 75956
L87291 75984
L87319 76040
L87319 76181
L87291 76237
L87263 76265
L87206 76293
L87066 76293
L87010 76265
L86982 76237
" />
</g>
<g style="fill:#000000; fill-opacity:0.0; 
stroke:#000000; stroke-width:39.3701; stroke-opacity:1; 
stroke-linecap:round; stroke-linejoin:round;">
</g>
<g style="fill:#000000; fill-opacity:0.0; 
stroke:#000000; stroke-width:59.0551; stroke-opacity:1; 
stroke-linecap:round; stroke-linejoin:round;">
<path d="M69685 76577
L112205 76577
" />
</g>
<g style="fill:#000000; fill-opacity:0.0; 
stroke:#000000; stroke-width:39.3701; stroke-opacity:1; 
stroke-linecap:round; stroke-linejoin:round;">
</g>
<g style="fill:#000000; fill-opacity:0.0; 
stroke:#000000; stroke-width:59.0551; stroke-opacity:1; 
stroke-linecap:round; stroke-linejoin:round;">
<path d="M70249 77395
L70249 76805
" />
<path d="M70587 77395
L70334 77058
" />
<path d="M70587 76805
L70249 77142
" />
<path d="M70840 77395
L70840 77002
" />
<path d="M70840 76805
L70812 76833
L70840 76861
L70868 76833
L70840 76805
L70840 76861
" />
<path d="M71458 77339
L71430 77367
L71346 77395
L71290 77395
L71205 77367
L71149 77311
L71121 77255
L71093 77142
L71093 77058
L71121 76946
L71149 76889
L71205 76833
L71290 76805
L71346 76805
L71430 76833
L71458 76861
" />
<path d="M71965 77395
L71965 77086
L71937 77030
L71880 77002
L71768 77002
L71712 77030
" />
<path d="M71965 77367
L71908 77395
L71768 77395
L71712 77367
L71683 77311
L71683 77255
L71712 77199
L71768 77171
L71908 77171
L71965 77142
" />
<path d="M72499 77395
L72499 76805
" />
<path d="M72499 77367
L72443 77395
L72330 77395
L72274 77367
L72246 77339
L72218 77283
L72218 77114
L72246 77058
L72274 77030
L72330 77002
L72443 77002
L72499 77030
" />
<path d="M73230 77086
L73427 77086
" />
<path d="M73511 77395
L73230 77395
L73230 76805
L73511 76805
" />
<path d="M73764 77339
L73793 77367
L73764 77395
L73736 77367
L73764 77339
L73764 77395
" />
<path d="M74046 77395
L74046 76805
L74186 76805
L74271 76833
L74327 76889
L74355 76946
L74383 77058
L74383 77142
L74355 77255
L74327 77311
L74271 77367
L74186 77395
L74046 77395
" />
<path d="M74636 77339
L74664 77367
L74636 77395
L74608 77367
L74636 77339
L74636 77395
" />
<path d="M74889 77227
L75171 77227
" />
<path d="M74833 77395
L75030 76805
L75227 77395
" />
<path d="M75424 77339
L75452 77367
L75424 77395
L75395 77367
L75424 77339
L75424 77395
" />
<path d="M76605 77002
L76605 77592
" />
<path d="M76605 77030
L76661 77002
L76773 77002
L76830 77030
L76858 77058
L76886 77114
L76886 77283
L76858 77339
L76830 77367
L76773 77395
L76661 77395
L76605 77367
" />
<path d="M77392 77367
L77336 77395
L77223 77395
L77167 77367
L77139 77339
L77111 77283
L77111 77114
L77139 77058
L77167 77030
L77223 77002
L77336 77002
L77392 77030
" />
<path d="M77645 77395
L77645 76805
" />
<path d="M77645 77030
L77701 77002
L77814 77002
L77870 77030
L77898 77058
L77926 77114
L77926 77283
L77898 77339
L77870 77367
L77814 77395
L77701 77395
L77645 77367
" />
<path d="M78180 77002
L78180 77395
" />
<path d="M78180 77058
L78208 77030
L78264 77002
L78348 77002
L78404 77030
L78433 77086
L78433 77395
" />
<path d="M78939 77367
L78883 77395
L78770 77395
L78714 77367
L78686 77311
L78686 77086
L78714 77030
L78770 77002
L78883 77002
L78939 77030
L78967 77086
L78967 77142
L78686 77199
" />
<path d="M79164 77002
L79276 77395
L79389 77114
L79501 77395
L79614 77002
" />
<path d="M80457 77620
L80429 77592
L80373 77508
L80345 77452
L80317 77367
L80289 77227
L80289 77114
L80317 76974
L80345 76889
L80373 76833
L80429 76749
L80457 76721
" />
<path d="M80964 76805
L80682 76805
L80654 77086
L80682 77058
L80739 77030
L80879 77030
L80935 77058
L80964 77086
L80992 77142
L80992 77283
L80964 77339
L80935 77367
L80879 77395
L80739 77395
L80682 77367
L80654 77339
" />
<path d="M81245 77339
L81273 77367
L81245 77395
L81217 77367
L81245 77339
L81245 77395
" />
<path d="M81638 76805
L81695 76805
L81751 76833
L81779 76861
L81807 76917
L81835 77030
L81835 77171
L81807 77283
L81779 77339
L81751 77367
L81695 77395
L81638 77395
L81582 77367
L81554 77339
L81526 77283
L81498 77171
L81498 77030
L81526 76917
L81554 76861
L81582 76833
L81638 76805
" />
<path d="M82088 77339
L82117 77367
L82088 77395
L82060 77367
L82088 77339
L82088 77395
" />
<path d="M82341 76861
L82370 76833
L82426 76805
L82566 76805
L82623 76833
L82651 76861
L82679 76917
L82679 76974
L82651 77058
L82313 77395
L82679 77395
" />
<path d="M82876 77620
L82904 77592
L82960 77508
L82988 77452
L83016 77367
L83045 77227
L83045 77114
L83016 76974
L82988 76889
L82960 76833
L82904 76749
L82876 76721
" />
<path d="M83326 77171
L83776 77171
" />
<path d="M84366 77395
L84029 77395
" />
<path d="M84197 77395
L84197 76805
L84141 76889
L84085 76946
L84029 76974
" />
</g>
<g style="fill:#000000; fill-opacity:0.0; 
stroke:#000000; stroke-width:39.3701; stroke-opacity:1; 
stroke-linecap:round; stroke-linejoin:round;">
</g>
<g style="fill:#000000; fill-opacity:0.0; 
stroke:#000000; stroke-width:59.0551; stroke-opacity:1; 
stroke-linecap:round; stroke-linejoin:round;">
<path d="M69685 75396
L112205 75396
" />
</g>
<g style="fill:#000000; fill-opacity:0.0; 
stroke:#000000; stroke-width:39.3701; stroke-opacity:1; 
stroke-linecap:round; stroke-linejoin:round;">
</g>
<g style="fill:#000000; fill-opacity:0.0; 
stroke:#000000; stroke-width:118.11; stroke-opacity:1; 
stroke-linecap:round; stroke-linejoin:round;">
<path d="M104099 76293
L103902 76012
" />
<path d="M103761 76293
L103761 75703
L103986 75703
L104042 75731
L104070 75759
L104099 75815
L104099 75899
L104070 75956
L104042 75984
L103986 76012
L103761 76012
" />
<path d="M104577 76265
L104520 76293
L104408 76293
L104352 76265
L104323 76209
L104323 75984
L104352 75928
L104408 75899
L104520 75899
L104577 75928
L104605 75984
L104605 76040
L104323 76096
" />
<path d="M104802 75899
L104942 76293
L105083 75899
" />
<path d="M105308 76237
L105336 76265
L105308 76293
L105280 76265
L105308 76237
L105308 76293
" />
<path d="M105308 75928
L105336 75956
L105308 75984
L105280 75956
L105308 75928
L105308 75984
" />
</g>
<g style="fill:#000000; fill-opacity:0.0; 
stroke:#000000; stroke-width:39.3701; stroke-opacity:1; 
stroke-linecap:round; stroke-linejoin:round;">
</g>
<g style="fill:#000000; fill-opacity:0.0; 
stroke:#000000; stroke-width:59.0551; stroke-opacity:1; 
stroke-linecap:round; stroke-linejoin:round;">
<path d="M70221 76265
L70305 76293
L70446 76293
L70502 76265
L70530 76237
L70559 76181
L70559 76124
L70530 76068
L70502 76040
L70446 76012
L70334 75984
L70277 75956
L70249 75928
L70221 75871
L70221 75815
L70249 75759
L70277 75731
L70334 75703
L70474 75703
L70559 75731
" />
<path d="M70812 76293
L70812 75899
" />
<path d="M70812 75703
L70784 75731
L70812 75759
L70840 75731
L70812 75703
L70812 75759
" />
<path d="M71037 75899
L71346 75899
L71037 76293
L71346 76293
" />
<path d="M71796 76265
L71740 76293
L71627 76293
L71571 76265
L71543 76209
L71543 75984
L71571 75928
L71627 75899
L71740 75899
L71796 75928
L71824 75984
L71824 76040
L71543 76096
" />
<path d="M72077 76237
L72105 76265
L72077 76293
L72049 76265
L72077 76237
L72077 76293
" />
<path d="M72077 75928
L72105 75956
L72077 75984
L72049 75956
L72077 75928
L72077 75984
" />
<path d="M72780 76124
L73061 76124
" />
<path d="M72724 76293
L72921 75703
L73118 76293
" />
<path d="M73568 75899
L73568 76293
" />
<path d="M73427 75674
L73286 76096
L73652 76096
" />
</g>
<g style="fill:#000000; fill-opacity:0.0; 
stroke:#000000; stroke-width:39.3701; stroke-opacity:1; 
stroke-linecap:round; stroke-linejoin:round;">
</g>
<g style="fill:#000000; fill-opacity:0.0; 
stroke:#000000; stroke-width:59.0551; stroke-opacity:1; 
stroke-linecap:round; stroke-linejoin:round;">
<path d="M103714 77395
L103714 76805
" />
<path d="M104248 77395
L104248 76805
" />
<path d="M104248 77367
L104192 77395
L104079 77395
L104023 77367
L103995 77339
L103967 77283
L103967 77114
L103995 77058
L104023 77030
L104079 77002
L104192 77002
L104248 77030
" />
<path d="M104529 77339
L104557 77367
L104529 77395
L104501 77367
L104529 77339
L104529 77395
" />
<path d="M104529 77030
L104557 77058
L104529 77086
L104501 77058
L104529 77030
L104529 77086
" />
<path d="M105570 77395
L105232 77395
" />
<path d="M105401 77395
L105401 76805
L105345 76889
L105289 76946
L105232 76974
" />
<path d="M106245 76777
L105739 77536
" />
<path d="M106751 77395
L106413 77395
" />
<path d="M106582 77395
L106582 76805
L106526 76889
L106470 76946
L106413 76974
" />
</g>
<g style="fill:#000000; fill-opacity:0.0; 
stroke:#000000; stroke-width:39.3701; stroke-opacity:1; 
stroke-linecap:round; stroke-linejoin:round;">
</g>
<g style="fill:#000000; fill-opacity:0.0; 
stroke:#000000; stroke-width:59.0551; stroke-opacity:1; 
stroke-linecap:round; stroke-linejoin:round;">
<path d="M69685 73821
L112205 73821
" />
</g>
<g style="fill:#000000; fill-opacity:0.0; 
stroke:#000000; stroke-width:39.3701; stroke-opacity:1; 
stroke-linecap:round; stroke-linejoin:round;">
</g>
<g style="fill:#000000; fill-opacity:0.0; 
stroke:#000000; stroke-width:157.48; stroke-opacity:1; 
stroke-linecap:round; stroke-linejoin:round;">
<path d="M70360 74099
L70810 74099
" />
<path d="M70486 74886
L70585 74099
" />
<path d="M70974 74886
L71039 74361
" />
<path d="M71072 74099
L71030 74136
L71063 74174
L71105 74136
L71072 74099
L71063 74174
" />
<path d="M71302 74361
L71602 74361
" />
<path d="M71447 74099
L71363 74774
L71391 74849
L71461 74886
L71536 74886
" />
<path d="M71911 74886
L71841 74849
L71813 74774
L71897 74099
" />
<path d="M72516 74849
L72436 74886
L72286 74886
L72216 74849
L72187 74774
L72225 74474
L72272 74399
L72352 74361
L72501 74361
L72572 74399
L72600 74474
L72591 74549
L72206 74624
" />
<path d="M72895 74811
L72928 74849
L72886 74886
L72853 74849
L72895 74811
L72886 74886
" />
<path d="M72947 74399
L72980 74436
L72937 74474
L72905 74436
L72947 74399
L72937 74474
" />
<path d="M73828 74849
L73936 74886
L74123 74886
L74203 74849
L74245 74811
L74292 74736
L74301 74661
L74273 74586
L74240 74549
L74170 74511
L74025 74474
L73954 74436
L73922 74399
L73894 74324
L73903 74249
L73950 74174
L73992 74136
L74072 74099
L74259 74099
L74367 74136
" />
<path d="M74611 74886
L74709 74099
" />
<path d="M74723 74586
L74911 74886
" />
<path d="M74976 74361
L74639 74661
" />
<path d="M75585 74886
L75637 74474
L75609 74399
L75539 74361
L75389 74361
L75309 74399
" />
<path d="M75590 74849
L75510 74886
L75323 74886
L75253 74849
L75225 74774
L75234 74699
L75281 74624
L75361 74586
L75548 74586
L75628 74549
" />
<path d="M76026 74361
L75960 74886
" />
<path d="M76017 74436
L76059 74399
L76139 74361
L76251 74361
L76321 74399
L76349 74474
L76298 74886
" />
<path d="M77010 74886
L77062 74474
L77034 74399
L76963 74361
L76813 74361
L76734 74399
" />
<path d="M77015 74849
L76935 74886
L76748 74886
L76678 74849
L76649 74774
L76659 74699
L76706 74624
L76785 74586
L76973 74586
L77052 74549
" />
<path d="M77352 74849
L77423 74886
L77573 74886
L77652 74849
L77699 74774
L77704 74736
L77676 74661
L77606 74624
L77493 74624
L77423 74586
L77395 74511
L77399 74474
L77446 74399
L77526 74361
L77638 74361
L77709 74399
" />
<path d="M78576 74361
L78876 74361
" />
<path d="M78623 74886
L78707 74211
L78754 74136
L78834 74099
L78909 74099
" />
<path d="M79073 74886
L79138 74361
" />
<path d="M79119 74511
L79166 74436
L79208 74399
L79288 74361
L79363 74361
" />
<path d="M79865 74849
L79785 74886
L79635 74886
L79565 74849
L79537 74774
L79574 74474
L79621 74399
L79701 74361
L79851 74361
L79921 74399
L79949 74474
L79940 74549
L79555 74624
" />
<path d="M80235 74886
L80333 74099
" />
<path d="M80347 74586
L80535 74886
" />
<path d="M80600 74361
L80263 74661
" />
<path d="M80863 74361
L80985 74886
L81238 74361
" />
<path d="M81777 74849
L81697 74886
L81547 74886
L81477 74849
L81449 74774
L81486 74474
L81533 74399
L81613 74361
L81763 74361
L81833 74399
L81861 74474
L81852 74549
L81468 74624
" />
<path d="M82213 74361
L82147 74886
" />
<path d="M82203 74436
L82246 74399
L82325 74361
L82438 74361
L82508 74399
L82536 74474
L82485 74886
" />
<path d="M83202 74849
L83122 74886
L82972 74886
L82902 74849
L82869 74811
L82841 74736
L82869 74511
L82916 74436
L82958 74399
L83038 74361
L83188 74361
L83258 74399
" />
<path d="M83839 74849
L83759 74886
L83609 74886
L83539 74849
L83511 74774
L83549 74474
L83595 74399
L83675 74361
L83825 74361
L83895 74399
L83924 74474
L83914 74549
L83530 74624
" />
<path d="M84177 74849
L84247 74886
L84397 74886
L84477 74849
L84523 74774
L84528 74736
L84500 74661
L84430 74624
L84317 74624
L84247 74586
L84219 74511
L84223 74474
L84270 74399
L84350 74361
L84462 74361
L84533 74399
" />
<path d="M85512 74361
L85447 74886
" />
<path d="M85503 74436
L85545 74399
L85625 74361
L85737 74361
L85808 74399
L85836 74474
L85784 74886
" />
<path d="M86272 74886
L86201 74849
L86169 74811
L86140 74736
L86169 74511
L86215 74436
L86258 74399
L86337 74361
L86450 74361
L86520 74399
L86553 74436
L86581 74511
L86553 74736
L86506 74811
L86464 74849
L86384 74886
L86272 74886
" />
<path d="M86825 74361
L87125 74361
" />
<path d="M86970 74099
L86886 74774
L86914 74849
L86984 74886
L87059 74886
" />
<path d="M87626 74849
L87546 74886
L87397 74886
L87326 74849
L87298 74774
L87336 74474
L87382 74399
L87462 74361
L87612 74361
L87682 74399
L87711 74474
L87701 74549
L87317 74624
" />
<path d="M87996 74886
L88062 74361
" />
<path d="M88095 74099
L88053 74136
L88085 74174
L88128 74136
L88095 74099
L88085 74174
" />
<path d="M88371 74886
L88470 74099
" />
<path d="M88484 74586
L88671 74886
" />
<path d="M88737 74361
L88400 74661
" />
<path d="M88976 74849
L89046 74886
L89196 74886
L89276 74849
L89323 74774
L89328 74736
L89299 74661
L89229 74624
L89117 74624
L89046 74586
L89018 74511
L89023 74474
L89070 74399
L89149 74361
L89262 74361
L89332 74399
" />
<path d="M89984 74886
L90035 74474
L90007 74399
L89937 74361
L89787 74361
L89707 74399
" />
<path d="M89988 74849
L89909 74886
L89721 74886
L89651 74849
L89623 74774
L89632 74699
L89679 74624
L89759 74586
L89946 74586
L90026 74549
" />
<path d="M90424 74361
L90359 74886
" />
<path d="M90415 74436
L90457 74399
L90537 74361
L90649 74361
L90720 74399
L90748 74474
L90696 74886
" />
<path d="M91409 74886
L91460 74474
L91432 74399
L91362 74361
L91212 74361
L91132 74399
" />
<path d="M91413 74849
L91334 74886
L91146 74886
L91076 74849
L91048 74774
L91057 74699
L91104 74624
L91184 74586
L91371 74586
L91451 74549
" />
</g>
<g style="fill:#000000; fill-opacity:0.0; 
stroke:#000000; stroke-width:39.3701; stroke-opacity:1; 
stroke-linecap:round; stroke-linejoin:round;">
</g>
<g style="fill:#000000; fill-opacity:0.0; 
stroke:#000000; stroke-width:59.0551; stroke-opacity:1; 
stroke-linecap:round; stroke-linejoin:round;">
<path d="M70446 73070
L70249 73070
" />
<path d="M70249 73380
L70249 72789
L70530 72789
" />
<path d="M70755 73380
L70755 72986
" />
<path d="M70755 72789
L70727 72817
L70755 72845
L70784 72817
L70755 72789
L70755 72845
" />
<path d="M71121 73380
L71065 73352
L71037 73295
L71037 72789
" />
<path d="M71571 73352
L71515 73380
L71402 73380
L71346 73352
L71318 73295
L71318 73070
L71346 73014
L71402 72986
L71515 72986
L71571 73014
L71599 73070
L71599 73127
L71318 73183
" />
<path d="M71852 73323
L71880 73352
L71852 73380
L71824 73352
L71852 73323
L71852 73380
" />
<path d="M71852 73014
L71880 73042
L71852 73070
L71824 73042
L71852 73014
L71852 73070
" />
<path d="M72555 73352
L72640 73380
L72780 73380
L72836 73352
L72865 73323
L72893 73267
L72893 73211
L72865 73155
L72836 73127
L72780 73099
L72668 73070
L72611 73042
L72583 73014
L72555 72958
L72555 72902
L72583 72845
L72611 72817
L72668 72789
L72808 72789
L72893 72817
" />
<path d="M73146 73380
L73146 72789
" />
<path d="M73202 73155
L73371 73380
" />
<path d="M73371 72986
L73146 73211
" />
<path d="M73877 73380
L73877 73070
L73849 73014
L73793 72986
L73680 72986
L73624 73014
" />
<path d="M73877 73352
L73821 73380
L73680 73380
L73624 73352
L73596 73295
L73596 73239
L73624 73183
L73680 73155
L73821 73155
L73877 73127
" />
<path d="M74158 72986
L74158 73380
" />
<path d="M74158 73042
L74186 73014
L74242 72986
L74327 72986
L74383 73014
L74411 73070
L74411 73380
" />
<path d="M74946 73380
L74946 73070
L74917 73014
L74861 72986
L74749 72986
L74692 73014
" />
<path d="M74946 73352
L74889 73380
L74749 73380
L74692 73352
L74664 73295
L74664 73239
L74692 73183
L74749 73155
L74889 73155
L74946 73127
" />
<path d="M75199 73352
L75255 73380
L75367 73380
L75424 73352
L75452 73295
L75452 73267
L75424 73211
L75367 73183
L75283 73183
L75227 73155
L75199 73099
L75199 73070
L75227 73014
L75283 72986
L75367 72986
L75424 73014
" />
<path d="M75564 73436
L76014 73436
" />
<path d="M76070 72986
L76295 72986
" />
<path d="M76155 73380
L76155 72874
L76183 72817
L76239 72789
L76295 72789
" />
<path d="M76492 73380
L76492 72986
" />
<path d="M76492 73099
L76520 73042
L76548 73014
L76605 72986
L76661 72986
" />
<path d="M77083 73352
L77027 73380
L76914 73380
L76858 73352
L76830 73295
L76830 73070
L76858 73014
L76914 72986
L77027 72986
L77083 73014
L77111 73070
L77111 73127
L76830 73183
" />
<path d="M77364 73380
L77364 72789
" />
<path d="M77420 73155
L77589 73380
" />
<path d="M77589 72986
L77364 73211
" />
<path d="M77786 72986
L77926 73380
L78067 72986
" />
<path d="M78517 73352
L78461 73380
L78348 73380
L78292 73352
L78264 73295
L78264 73070
L78292 73014
L78348 72986
L78461 72986
L78517 73014
L78545 73070
L78545 73127
L78264 73183
" />
<path d="M78798 72986
L78798 73380
" />
<path d="M78798 73042
L78826 73014
L78883 72986
L78967 72986
L79023 73014
L79051 73070
L79051 73380
" />
<path d="M79586 73352
L79529 73380
L79417 73380
L79361 73352
L79332 73323
L79304 73267
L79304 73099
L79332 73042
L79361 73014
L79417 72986
L79529 72986
L79586 73014
" />
<path d="M80064 73352
L80007 73380
L79895 73380
L79839 73352
L79811 73295
L79811 73070
L79839 73014
L79895 72986
L80007 72986
L80064 73014
L80092 73070
L80092 73127
L79811 73183
" />
<path d="M80317 73352
L80373 73380
L80485 73380
L80542 73352
L80570 73295
L80570 73267
L80542 73211
L80485 73183
L80401 73183
L80345 73155
L80317 73099
L80317 73070
L80345 73014
L80401 72986
L80485 72986
L80542 73014
" />
<path d="M80682 73436
L81132 73436
" />
<path d="M81273 72986
L81273 73380
" />
<path d="M81273 73042
L81301 73014
L81357 72986
L81442 72986
L81498 73014
L81526 73070
L81526 73380
" />
<path d="M81892 73380
L81835 73352
L81807 73323
L81779 73267
L81779 73099
L81807 73042
L81835 73014
L81892 72986
L81976 72986
L82032 73014
L82060 73042
L82088 73099
L82088 73267
L82060 73323
L82032 73352
L81976 73380
L81892 73380
" />
<path d="M82257 72986
L82482 72986
" />
<path d="M82341 72789
L82341 73295
L82370 73352
L82426 73380
L82482 73380
" />
<path d="M82904 73352
L82848 73380
L82735 73380
L82679 73352
L82651 73295
L82651 73070
L82679 73014
L82735 72986
L82848 72986
L82904 73014
L82932 73070
L82932 73127
L82651 73183
" />
<path d="M83185 73380
L83185 72986
" />
<path d="M83185 72789
L83157 72817
L83185 72845
L83213 72817
L83185 72789
L83185 72845
" />
<path d="M83466 73380
L83466 72789
" />
<path d="M83523 73155
L83691 73380
" />
<path d="M83691 72986
L83466 73211
" />
<path d="M83916 73352
L83973 73380
L84085 73380
L84141 73352
L84169 73295
L84169 73267
L84141 73211
L84085 73183
L84001 73183
L83944 73155
L83916 73099
L83916 73070
L83944 73014
L84001 72986
L84085 72986
L84141 73014
" />
<path d="M84676 73380
L84676 73070
L84647 73014
L84591 72986
L84479 72986
L84422 73014
" />
<path d="M84676 73352
L84619 73380
L84479 73380
L84422 73352
L84394 73295
L84394 73239
L84422 73183
L84479 73155
L84619 73155
L84676 73127
" />
<path d="M84957 72986
L84957 73380
" />
<path d="M84957 73042
L84985 73014
L85041 72986
L85126 72986
L85182 73014
L85210 73070
L85210 73380
" />
<path d="M85744 73380
L85744 73070
L85716 73014
L85660 72986
L85547 72986
L85491 73014
" />
<path d="M85744 73352
L85688 73380
L85547 73380
L85491 73352
L85463 73295
L85463 73239
L85491 73183
L85547 73155
L85688 73155
L85744 73127
" />
<path d="M86025 73323
L86054 73352
L86025 73380
L85997 73352
L86025 73323
L86025 73380
" />
<path d="M86307 73380
L86307 72789
" />
<path d="M86363 73155
L86532 73380
" />
<path d="M86532 72986
L86307 73211
" />
<path d="M86785 73380
L86785 72986
" />
<path d="M86785 72789
L86757 72817
L86785 72845
L86813 72817
L86785 72789
L86785 72845
" />
<path d="M87319 73352
L87263 73380
L87150 73380
L87094 73352
L87066 73323
L87038 73267
L87038 73099
L87066 73042
L87094 73014
L87150 72986
L87263 72986
L87319 73014
" />
<path d="M87825 73380
L87825 73070
L87797 73014
L87741 72986
L87628 72986
L87572 73014
" />
<path d="M87825 73352
L87769 73380
L87628 73380
L87572 73352
L87544 73295
L87544 73239
L87572 73183
L87628 73155
L87769 73155
L87825 73127
" />
<path d="M88359 73380
L88359 72789
" />
<path d="M88359 73352
L88303 73380
L88191 73380
L88135 73352
L88106 73323
L88078 73267
L88078 73099
L88106 73042
L88135 73014
L88191 72986
L88303 72986
L88359 73014
" />
<path d="M88500 73436
L88950 73436
" />
<path d="M89091 72986
L89091 73577
" />
<path d="M89091 73014
L89147 72986
L89259 72986
L89316 73014
L89344 73042
L89372 73099
L89372 73267
L89344 73323
L89316 73352
L89259 73380
L89147 73380
L89091 73352
" />
<path d="M89878 73352
L89822 73380
L89709 73380
L89653 73352
L89625 73323
L89597 73267
L89597 73099
L89625 73042
L89653 73014
L89709 72986
L89822 72986
L89878 73014
" />
<path d="M90131 73380
L90131 72789
" />
<path d="M90131 73014
L90187 72986
L90300 72986
L90356 73014
L90384 73042
L90412 73099
L90412 73267
L90384 73323
L90356 73352
L90300 73380
L90187 73380
L90131 73352
" />
</g>
<g style="fill:#000000; fill-opacity:0.0; 
stroke:#000000; stroke-width:39.3701; stroke-opacity:1; 
stroke-linecap:round; stroke-linejoin:round;">
</g>
<g style="fill:#000000; fill-opacity:0.0; 
stroke:#000000; stroke-width:59.0551; stroke-opacity:1; 
stroke-linecap:round; stroke-linejoin:round;">
<path d="M69685 71459
L112205 71459
" />
</g>
<g style="fill:#000000; fill-opacity:0.0; 
stroke:#000000; stroke-width:39.3701; stroke-opacity:1; 
stroke-linecap:round; stroke-linejoin:round;">
</g>
<g style="fill:#000000; fill-opacity:0.0; 
stroke:#000000; stroke-width:59.0551; stroke-opacity:1; 
stroke-linecap:round; stroke-linejoin:round;">
<path d="M70221 72289
L70305 72317
L70446 72317
L70502 72289
L70530 72260
L70559 72204
L70559 72148
L70530 72092
L70502 72064
L70446 72036
L70334 72007
L70277 71979
L70249 71951
L70221 71895
L70221 71839
L70249 71782
L70277 71754
L70334 71726
L70474 71726
L70559 71754
" />
<path d="M70812 72317
L70812 71726
" />
<path d="M71065 72317
L71065 72007
L71037 71951
L70980 71923
L70896 71923
L70840 71951
L70812 71979
" />
<path d="M71571 72289
L71515 72317
L71402 72317
L71346 72289
L71318 72232
L71318 72007
L71346 71951
L71402 71923
L71515 71923
L71571 71951
L71599 72007
L71599 72064
L71318 72120
" />
<path d="M72077 72289
L72021 72317
L71908 72317
L71852 72289
L71824 72232
L71824 72007
L71852 71951
L71908 71923
L72021 71923
L72077 71951
L72105 72007
L72105 72064
L71824 72120
" />
<path d="M72274 71923
L72499 71923
" />
<path d="M72358 71726
L72358 72232
L72386 72289
L72443 72317
L72499 72317
" />
<path d="M72696 72260
L72724 72289
L72696 72317
L72668 72289
L72696 72260
L72696 72317
" />
<path d="M72696 71951
L72724 71979
L72696 72007
L72668 71979
L72696 71951
L72696 72007
" />
</g>
<g style="fill:#000000; fill-opacity:0.0; 
stroke:#000000; stroke-width:39.3701; stroke-opacity:1; 
stroke-linecap:round; stroke-linejoin:round;">
</g>
<g style="fill:#000000; fill-opacity:0.0; 
stroke:#000000; stroke-width:118.11; stroke-opacity:1; 
stroke-linecap:round; stroke-linejoin:round;">
<path d="M70634 71136
L70437 70854
" />
<path d="M70296 71136
L70296 70545
L70521 70545
L70578 70573
L70606 70601
L70634 70658
L70634 70742
L70606 70798
L70578 70826
L70521 70854
L70296 70854
" />
<path d="M70971 71136
L70915 71108
L70887 71079
L70859 71023
L70859 70854
L70887 70798
L70915 70770
L70971 70742
L71056 70742
L71112 70770
L71140 70798
L71168 70854
L71168 71023
L71140 71079
L71112 71108
L71056 71136
L70971 71136
" />
<path d="M71421 71136
L71421 70545
" />
<path d="M71478 70911
L71646 71136
" />
<path d="M71646 70742
L71421 70967
" />
<path d="M71871 71108
L71928 71136
L72040 71136
L72096 71108
L72124 71051
L72124 71023
L72096 70967
L72040 70939
L71956 70939
L71899 70911
L71871 70854
L71871 70826
L71899 70770
L71956 70742
L72040 70742
L72096 70770
" />
<path d="M72462 71136
L72406 71108
L72377 71079
L72349 71023
L72349 70854
L72377 70798
L72406 70770
L72462 70742
L72546 70742
L72602 70770
L72631 70798
L72659 70854
L72659 71023
L72631 71079
L72602 71108
L72546 71136
L72462 71136
" />
<path d="M72996 71136
L72940 71108
L72912 71051
L72912 70545
" />
<path d="M73474 71136
L73474 70826
L73446 70770
L73390 70742
L73277 70742
L73221 70770
" />
<path d="M73474 71108
L73418 71136
L73277 71136
L73221 71108
L73193 71051
L73193 70995
L73221 70939
L73277 70911
L73418 70911
L73474 70883
" />
<path d="M73755 70742
L73755 71136
" />
<path d="M73755 70798
L73784 70770
L73840 70742
L73924 70742
L73980 70770
L74009 70826
L74009 71136
" />
<path d="M74543 71136
L74543 70826
L74515 70770
L74458 70742
L74346 70742
L74290 70770
" />
<path d="M74543 71108
L74487 71136
L74346 71136
L74290 71108
L74262 71051
L74262 70995
L74290 70939
L74346 70911
L74487 70911
L74543 70883
" />
<path d="M75246 70967
L75527 70967
" />
<path d="M75190 71136
L75386 70545
L75583 71136
" />
<path d="M75780 71136
L75780 70742
" />
<path d="M75780 70798
L75808 70770
L75865 70742
L75949 70742
L76005 70770
L76033 70826
L76033 71136
" />
<path d="M76033 70826
L76061 70770
L76118 70742
L76202 70742
L76258 70770
L76286 70826
L76286 71136
" />
<path d="M76821 71136
L76821 70826
L76793 70770
L76736 70742
L76624 70742
L76568 70770
" />
<path d="M76821 71108
L76764 71136
L76624 71136
L76568 71108
L76539 71051
L76539 70995
L76568 70939
L76624 70911
L76764 70911
L76821 70883
" />
<path d="M77102 71136
L77102 70742
" />
<path d="M77102 70854
L77130 70798
L77158 70770
L77214 70742
L77271 70742
" />
<path d="M77552 71136
L77496 71108
L77467 71079
L77439 71023
L77439 70854
L77467 70798
L77496 70770
L77552 70742
L77636 70742
L77692 70770
L77721 70798
L77749 70854
L77749 71023
L77721 71079
L77692 71108
L77636 71136
L77552 71136
" />
<path d="M77946 70742
L78086 71136
L78227 70742
" />
<path d="M78705 71136
L78705 70826
L78677 70770
L78620 70742
L78508 70742
L78452 70770
" />
<path d="M78705 71108
L78649 71136
L78508 71136
L78452 71108
L78424 71051
L78424 70995
L78452 70939
L78508 70911
L78649 70911
L78705 70883
" />
</g>
<g style="fill:#000000; fill-opacity:0.0; 
stroke:#000000; stroke-width:39.3701; stroke-opacity:1; 
stroke-linecap:round; stroke-linejoin:round;">
</g>
<g style="fill:#000000; fill-opacity:0.0; 
stroke:#000000; stroke-width:59.0551; stroke-opacity:1; 
stroke-linecap:round; stroke-linejoin:round;">
<path d="M70221 69420
L70249 69392
L70305 69364
L70446 69364
L70502 69392
L70530 69420
L70559 69476
L70559 69533
L70530 69617
L70193 69955
L70559 69955
" />
<path d="M70812 69898
L70840 69926
L70812 69955
L70784 69926
L70812 69898
L70812 69955
" />
<path d="M71543 69955
L71543 69364
" />
<path d="M71599 69730
L71768 69955
" />
<path d="M71768 69561
L71543 69786
" />
<path d="M72274 69561
L72274 69955
" />
<path d="M72021 69561
L72021 69870
L72049 69926
L72105 69955
L72190 69955
L72246 69926
L72274 69898
" />
<path d="M72555 69955
L72555 69561
" />
<path d="M72555 69673
L72583 69617
L72611 69589
L72668 69561
L72724 69561
" />
<path d="M72893 69926
L72949 69955
L73061 69955
L73118 69926
L73146 69870
L73146 69842
L73118 69786
L73061 69758
L72977 69758
L72921 69730
L72893 69673
L72893 69645
L72921 69589
L72977 69561
L73061 69561
L73118 69589
" />
<path d="M73652 69955
L73652 69645
L73624 69589
L73568 69561
L73455 69561
L73399 69589
" />
<path d="M73652 69926
L73596 69955
L73455 69955
L73399 69926
L73371 69870
L73371 69814
L73399 69758
L73455 69730
L73596 69730
L73652 69701
" />
<path d="M74355 69926
L74411 69955
L74524 69955
L74580 69926
L74608 69870
L74608 69842
L74580 69786
L74524 69758
L74439 69758
L74383 69730
L74355 69673
L74355 69645
L74383 69589
L74439 69561
L74524 69561
L74580 69589
" />
<path d="M74777 69561
L75002 69561
" />
<path d="M74861 69364
L74861 69870
L74889 69926
L74946 69955
L75002 69955
" />
<path d="M75452 69561
L75452 69955
" />
<path d="M75199 69561
L75199 69870
L75227 69926
L75283 69955
L75367 69955
L75424 69926
L75452 69898
" />
<path d="M75986 69955
L75986 69364
" />
<path d="M75986 69926
L75930 69955
L75817 69955
L75761 69926
L75733 69898
L75705 69842
L75705 69673
L75733 69617
L75761 69589
L75817 69561
L75930 69561
L75986 69589
" />
<path d="M76492 69926
L76436 69955
L76323 69955
L76267 69926
L76239 69870
L76239 69645
L76267 69589
L76323 69561
L76436 69561
L76492 69589
L76520 69645
L76520 69701
L76239 69758
" />
<path d="M76773 69561
L76773 69955
" />
<path d="M76773 69617
L76802 69589
L76858 69561
L76942 69561
L76998 69589
L77027 69645
L77027 69955
" />
<path d="M77223 69561
L77448 69561
" />
<path d="M77308 69364
L77308 69870
L77336 69926
L77392 69955
L77448 69955
" />
<path d="M77870 69926
L77814 69955
L77701 69955
L77645 69926
L77617 69870
L77617 69645
L77645 69589
L77701 69561
L77814 69561
L77870 69589
L77898 69645
L77898 69701
L77617 69758
" />
</g>
<g style="fill:#000000; fill-opacity:0.0; 
stroke:#000000; stroke-width:39.3701; stroke-opacity:1; 
stroke-linecap:round; stroke-linejoin:round;">
</g>
<g style="fill:#000000; fill-opacity:0.0; 
stroke:#000000; stroke-width:59.0551; stroke-opacity:1; 
stroke-linecap:round; stroke-linejoin:round;">
<path d="M70249 68773
L70249 68183
" />
<path d="M70530 68380
L70530 68773
" />
<path d="M70530 68436
L70559 68408
L70615 68380
L70699 68380
L70755 68408
L70784 68464
L70784 68773
" />
<path d="M70980 68380
L71205 68380
" />
<path d="M71065 68773
L71065 68267
L71093 68211
L71149 68183
L71205 68183
" />
<path d="M71487 68773
L71430 68745
L71402 68717
L71374 68661
L71374 68492
L71402 68436
L71430 68408
L71487 68380
L71571 68380
L71627 68408
L71655 68436
L71683 68492
L71683 68661
L71655 68717
L71627 68745
L71571 68773
L71487 68773
" />
<path d="M71937 68773
L71937 68380
" />
<path d="M71937 68492
L71965 68436
L71993 68408
L72049 68380
L72105 68380
" />
<path d="M72302 68773
L72302 68380
" />
<path d="M72302 68436
L72330 68408
L72386 68380
L72471 68380
L72527 68408
L72555 68464
L72555 68773
" />
<path d="M72555 68464
L72583 68408
L72640 68380
L72724 68380
L72780 68408
L72808 68464
L72808 68773
" />
<path d="M73343 68773
L73343 68464
L73314 68408
L73258 68380
L73146 68380
L73090 68408
" />
<path d="M73343 68745
L73286 68773
L73146 68773
L73090 68745
L73061 68689
L73061 68633
L73090 68577
L73146 68548
L73286 68548
L73343 68520
" />
<path d="M73061 68211
L73343 68211
" />
<path d="M73877 68745
L73821 68773
L73708 68773
L73652 68745
L73624 68717
L73596 68661
L73596 68492
L73624 68436
L73652 68408
L73708 68380
L73821 68380
L73877 68408
" />
<path d="M74130 68773
L74130 68380
" />
<path d="M74130 68183
L74102 68211
L74130 68239
L74158 68211
L74130 68183
L74130 68239
" />
<path d="M74411 68380
L74411 68886
L74383 68942
L74327 68970
L74299 68970
" />
<path d="M74411 68183
L74383 68211
L74411 68239
L74439 68211
L74411 68183
L74411 68239
" />
<path d="M74946 68773
L74946 68464
L74917 68408
L74861 68380
L74749 68380
L74692 68408
" />
<path d="M74946 68745
L74889 68773
L74749 68773
L74692 68745
L74664 68689
L74664 68633
L74692 68577
L74749 68548
L74889 68548
L74946 68520
" />
<path d="M75199 68745
L75255 68773
L75367 68773
L75424 68745
L75452 68689
L75452 68661
L75424 68605
L75367 68577
L75283 68577
L75227 68548
L75199 68492
L75199 68464
L75227 68408
L75283 68380
L75367 68380
L75424 68408
" />
<path d="M76070 68380
L76295 68380
" />
<path d="M76155 68183
L76155 68689
L76183 68745
L76239 68773
L76295 68773
" />
<path d="M76717 68745
L76661 68773
L76548 68773
L76492 68745
L76464 68689
L76464 68464
L76492 68408
L76548 68380
L76661 68380
L76717 68408
L76745 68464
L76745 68520
L76464 68577
" />
<path d="M76998 68773
L76998 68183
" />
<path d="M77251 68773
L77251 68464
L77223 68408
L77167 68380
L77083 68380
L77027 68408
L76998 68436
" />
<path d="M77533 68380
L77533 68773
" />
<path d="M77533 68436
L77561 68408
L77617 68380
L77701 68380
L77758 68408
L77786 68464
L77786 68773
" />
<path d="M78151 68773
L78095 68745
L78067 68717
L78039 68661
L78039 68492
L78067 68436
L78095 68408
L78151 68380
L78236 68380
L78292 68408
L78320 68436
L78348 68492
L78348 68661
L78320 68717
L78292 68745
L78236 68773
L78151 68773
" />
<path d="M78686 68773
L78629 68745
L78601 68689
L78601 68183
" />
<path d="M78995 68773
L78939 68745
L78911 68717
L78883 68661
L78883 68492
L78911 68436
L78939 68408
L78995 68380
L79079 68380
L79136 68408
L79164 68436
L79192 68492
L79192 68661
L79164 68717
L79136 68745
L79079 68773
L78995 68773
" />
<path d="M79698 68380
L79698 68858
L79670 68914
L79642 68942
L79586 68970
L79501 68970
L79445 68942
" />
<path d="M79698 68745
L79642 68773
L79529 68773
L79473 68745
L79445 68717
L79417 68661
L79417 68492
L79445 68436
L79473 68408
L79529 68380
L79642 68380
L79698 68408
" />
<path d="M79557 68211
L79501 68183
L79473 68127
L79501 68070
L79557 68042
L79642 68042
" />
<path d="M79979 68773
L79979 68380
" />
<path d="M79979 68183
L79951 68211
L79979 68239
L80007 68211
L79979 68183
L79979 68239
" />
<path d="M80260 68380
L80260 68886
L80232 68942
L80176 68970
L80148 68970
" />
<path d="M80260 68183
L80232 68211
L80260 68239
L80289 68211
L80260 68183
L80260 68239
" />
<path d="M80795 68380
L80795 68773
" />
<path d="M80542 68380
L80542 68689
L80570 68745
L80626 68773
L80710 68773
L80767 68745
L80795 68717
" />
<path d="M81442 68380
L81667 68380
" />
<path d="M81526 68773
L81526 68267
L81554 68211
L81610 68183
L81667 68183
" />
<path d="M82117 68773
L82117 68464
L82088 68408
L82032 68380
L81920 68380
L81863 68408
" />
<path d="M82117 68745
L82060 68773
L81920 68773
L81863 68745
L81835 68689
L81835 68633
L81863 68577
L81920 68548
L82060 68548
L82117 68520
" />
<path d="M82398 68773
L82398 68183
" />
<path d="M82454 68548
L82623 68773
" />
<path d="M82623 68380
L82398 68605
" />
<path d="M83129 68380
L83129 68773
" />
<path d="M82876 68380
L82876 68689
L82904 68745
L82960 68773
L83045 68773
L83101 68745
L83129 68717
" />
<path d="M83494 68773
L83438 68745
L83410 68689
L83410 68183
" />
<path d="M83635 68380
L83860 68380
" />
<path d="M83719 68183
L83719 68689
L83748 68745
L83804 68773
L83860 68773
" />
<path d="M84310 68773
L84310 68464
L84282 68408
L84226 68380
L84113 68380
L84057 68408
" />
<path d="M84310 68745
L84254 68773
L84113 68773
L84057 68745
L84029 68689
L84029 68633
L84057 68577
L84113 68548
L84254 68548
L84310 68520
" />
<path d="M84029 68211
L84310 68211
" />
<path d="M84507 68380
L84732 68380
" />
<path d="M84591 68183
L84591 68689
L84619 68745
L84676 68773
L84732 68773
" />
<path d="M85154 68745
L85097 68773
L84985 68773
L84929 68745
L84901 68689
L84901 68464
L84929 68408
L84985 68380
L85097 68380
L85154 68408
L85182 68464
L85182 68520
L84901 68577
" />
<path d="M85407 68745
L85463 68773
L85575 68773
L85632 68745
L85660 68689
L85660 68661
L85632 68605
L85575 68577
L85491 68577
L85435 68548
L85407 68492
L85407 68464
L85435 68408
L85491 68380
L85575 68380
L85632 68408
" />
<path d="M86363 68773
L86363 68183
" />
<path d="M86363 68408
L86419 68380
L86532 68380
L86588 68408
L86616 68436
L86644 68492
L86644 68661
L86616 68717
L86588 68745
L86532 68773
L86419 68773
L86363 68745
" />
<path d="M87150 68773
L87150 68464
L87122 68408
L87066 68380
L86953 68380
L86897 68408
" />
<path d="M87150 68745
L87094 68773
L86953 68773
L86897 68745
L86869 68689
L86869 68633
L86897 68577
L86953 68548
L87094 68548
L87150 68520
" />
<path d="M87431 68773
L87431 68183
" />
<path d="M87488 68548
L87656 68773
" />
<path d="M87656 68380
L87431 68605
" />
<path d="M88163 68773
L88163 68464
L88135 68408
L88078 68380
L87966 68380
L87910 68408
" />
<path d="M88163 68745
L88106 68773
L87966 68773
L87910 68745
L87881 68689
L87881 68633
L87910 68577
L87966 68548
L88106 68548
L88163 68520
" />
<path d="M88528 68773
L88472 68745
L88444 68689
L88444 68183
" />
<path d="M89006 68773
L89006 68464
L88978 68408
L88922 68380
L88809 68380
L88753 68408
" />
<path d="M89006 68745
L88950 68773
L88809 68773
L88753 68745
L88725 68689
L88725 68633
L88753 68577
L88809 68548
L88950 68548
L89006 68520
" />
<path d="M89541 68380
L89541 68773
" />
<path d="M89287 68380
L89287 68689
L89316 68745
L89372 68773
L89456 68773
L89512 68745
L89541 68717
" />
<path d="M89822 68773
L89822 68380
" />
<path d="M89822 68492
L89850 68436
L89878 68408
L89934 68380
L89991 68380
" />
<path d="M90440 68773
L90440 68464
L90412 68408
L90356 68380
L90244 68380
L90187 68408
" />
<path d="M90440 68745
L90384 68773
L90244 68773
L90187 68745
L90159 68689
L90159 68633
L90187 68577
L90244 68548
L90384 68548
L90440 68520
" />
<path d="M91144 68745
L91200 68773
L91312 68773
L91368 68745
L91397 68689
L91397 68661
L91368 68605
L91312 68577
L91228 68577
L91172 68548
L91144 68492
L91144 68464
L91172 68408
L91228 68380
L91312 68380
L91368 68408
" />
<path d="M91565 68380
L91790 68380
" />
<path d="M91650 68183
L91650 68689
L91678 68745
L91734 68773
L91790 68773
" />
<path d="M92240 68380
L92240 68773
" />
<path d="M91987 68380
L91987 68689
L92015 68745
L92072 68773
L92156 68773
L92212 68745
L92240 68717
" />
<path d="M92775 68773
L92775 68183
" />
<path d="M92775 68745
L92718 68773
L92606 68773
L92550 68745
L92521 68717
L92493 68661
L92493 68492
L92521 68436
L92550 68408
L92606 68380
L92718 68380
L92775 68408
" />
<path d="M93056 68773
L93056 68380
" />
<path d="M93056 68183
L93028 68211
L93056 68239
L93084 68211
L93056 68183
L93056 68239
" />
<path d="M93337 68380
L93337 68886
L93309 68942
L93253 68970
L93224 68970
" />
<path d="M93337 68183
L93309 68211
L93337 68239
L93365 68211
L93337 68183
L93337 68239
" />
<path d="M93871 68380
L93871 68773
" />
<path d="M93618 68380
L93618 68689
L93646 68745
L93703 68773
L93787 68773
L93843 68745
L93871 68717
" />
<path d="M94602 68380
L94602 68970
" />
<path d="M94602 68408
L94659 68380
L94771 68380
L94827 68408
L94856 68436
L94884 68492
L94884 68661
L94856 68717
L94827 68745
L94771 68773
L94659 68773
L94602 68745
" />
<path d="M95137 68773
L95137 68380
" />
<path d="M95137 68492
L95165 68436
L95193 68408
L95249 68380
L95305 68380
" />
<path d="M95587 68773
L95530 68745
L95502 68717
L95474 68661
L95474 68492
L95502 68436
L95530 68408
L95587 68380
L95671 68380
L95727 68408
L95755 68436
L95784 68492
L95784 68661
L95755 68717
L95727 68745
L95671 68773
L95587 68773
" />
<path d="M96290 68380
L96290 68858
L96262 68914
L96233 68942
L96177 68970
L96093 68970
L96037 68942
" />
<path d="M96290 68745
L96233 68773
L96121 68773
L96065 68745
L96037 68717
L96009 68661
L96009 68492
L96037 68436
L96065 68408
L96121 68380
L96233 68380
L96290 68408
" />
<path d="M96571 68773
L96571 68380
" />
<path d="M96571 68492
L96599 68436
L96627 68408
L96683 68380
L96740 68380
" />
<path d="M97190 68773
L97190 68464
L97162 68408
L97105 68380
L96993 68380
L96937 68408
" />
<path d="M97190 68745
L97133 68773
L96993 68773
L96937 68745
L96908 68689
L96908 68633
L96937 68577
L96993 68548
L97133 68548
L97190 68520
" />
<path d="M97471 68773
L97471 68380
" />
<path d="M97471 68436
L97499 68408
L97555 68380
L97640 68380
L97696 68408
L97724 68464
L97724 68773
" />
<path d="M97724 68464
L97752 68408
L97808 68380
L97893 68380
L97949 68408
L97977 68464
L97977 68773
" />
<path d="M98258 68773
L98258 68380
" />
<path d="M98258 68436
L98286 68408
L98343 68380
L98427 68380
L98483 68408
L98511 68464
L98511 68773
" />
<path d="M98511 68464
L98539 68408
L98596 68380
L98680 68380
L98736 68408
L98764 68464
L98764 68773
" />
<path d="M99299 68773
L99299 68464
L99271 68408
L99214 68380
L99102 68380
L99046 68408
" />
<path d="M99299 68745
L99242 68773
L99102 68773
L99046 68745
L99018 68689
L99018 68633
L99046 68577
L99102 68548
L99242 68548
L99299 68520
" />
<path d="M99552 68745
L99608 68773
L99721 68773
L99777 68745
L99805 68689
L99805 68661
L99777 68605
L99721 68577
L99636 68577
L99580 68548
L99552 68492
L99552 68464
L99580 68408
L99636 68380
L99721 68380
L99777 68408
" />
<path d="M100508 68745
L100508 68773
L100480 68830
L100452 68858
" />
<path d="M100733 68745
L100733 68773
L100705 68830
L100677 68858
" />
<path d="M100958 68464
L101155 68464
" />
<path d="M101239 68773
L100958 68773
L100958 68183
L101239 68183
" />
<path d="M101577 68773
L101520 68745
L101492 68689
L101492 68183
" />
<path d="M102027 68745
L101970 68773
L101858 68773
L101802 68745
L101773 68689
L101773 68464
L101802 68408
L101858 68380
L101970 68380
L102027 68408
L102055 68464
L102055 68520
L101773 68577
" />
<path d="M102308 68773
L102308 68183
" />
<path d="M102364 68548
L102533 68773
" />
<path d="M102533 68380
L102308 68605
" />
<path d="M102701 68380
L102926 68380
" />
<path d="M102786 68183
L102786 68689
L102814 68745
L102870 68773
L102926 68773
" />
<path d="M103123 68773
L103123 68380
" />
<path d="M103123 68492
L103151 68436
L103180 68408
L103236 68380
L103292 68380
" />
<path d="M103573 68773
L103517 68745
L103489 68717
L103461 68661
L103461 68492
L103489 68436
L103517 68408
L103573 68380
L103658 68380
L103714 68408
L103742 68436
L103770 68492
L103770 68661
L103742 68717
L103714 68745
L103658 68773
L103573 68773
" />
<path d="M104023 68380
L104023 68773
" />
<path d="M104023 68436
L104051 68408
L104108 68380
L104192 68380
L104248 68408
L104276 68464
L104276 68773
" />
<path d="M104557 68773
L104557 68380
" />
<path d="M104557 68183
L104529 68211
L104557 68239
L104586 68211
L104557 68183
L104557 68239
" />
<path d="M104839 68773
L104839 68183
" />
<path d="M104895 68548
L105064 68773
" />
<path d="M105064 68380
L104839 68605
" />
<path d="M105570 68773
L105570 68464
L105542 68408
L105485 68380
L105373 68380
L105317 68408
" />
<path d="M105570 68745
L105514 68773
L105373 68773
L105317 68745
L105289 68689
L105289 68633
L105317 68577
L105373 68548
L105514 68548
L105570 68520
" />
<path d="M105851 68183
L105851 68211
L105823 68267
L105795 68295
" />
<path d="M106076 68183
L106076 68211
L106048 68267
L106020 68295
" />
</g>
<g style="fill:#000000; fill-opacity:0.0; 
stroke:#000000; stroke-width:39.3701; stroke-opacity:1; 
stroke-linecap:round; stroke-linejoin:round;">
</g>
<g style="fill:#000000; fill-opacity:0.0; 
stroke:#000000; stroke-width:59.0551; stroke-opacity:1; 
stroke-linecap:round; stroke-linejoin:round;">
<path d="M70165 67002
L70362 67592
L70559 67002
" />
<path d="M70980 67564
L70924 67592
L70812 67592
L70755 67564
L70727 67508
L70727 67283
L70755 67227
L70812 67199
L70924 67199
L70980 67227
L71009 67283
L71009 67339
L70727 67395
" />
<path d="M71262 67199
L71262 67592
" />
<path d="M71262 67255
L71290 67227
L71346 67199
L71430 67199
L71487 67227
L71515 67283
L71515 67592
" />
<path d="M71712 67199
L71937 67199
" />
<path d="M71796 67002
L71796 67508
L71824 67564
L71880 67592
L71937 67592
" />
<path d="M72105 67564
L72162 67592
L72274 67592
L72330 67564
L72358 67508
L72358 67480
L72330 67424
L72274 67395
L72190 67395
L72133 67367
L72105 67311
L72105 67283
L72133 67227
L72190 67199
L72274 67199
L72330 67227
" />
<path d="M72611 67199
L72611 67789
" />
<path d="M72611 67227
L72668 67199
L72780 67199
L72836 67227
L72865 67255
L72893 67311
L72893 67480
L72865 67536
L72836 67564
L72780 67592
L72668 67592
L72611 67564
" />
<path d="M73146 67592
L73146 67199
" />
<path d="M73146 67002
L73118 67030
L73146 67058
L73174 67030
L73146 67002
L73146 67058
" />
<path d="M73511 67592
L73455 67564
L73427 67508
L73427 67002
" />
<path d="M73708 67564
L73764 67592
L73877 67592
L73933 67564
L73961 67508
L73961 67480
L73933 67424
L73877 67395
L73793 67395
L73736 67367
L73708 67311
L73708 67283
L73736 67227
L73793 67199
L73877 67199
L73933 67227
" />
<path d="M74636 67424
L74917 67424
" />
<path d="M74580 67592
L74777 67002
L74974 67592
" />
<path d="M75424 67199
L75424 67592
" />
<path d="M75171 67199
L75171 67508
L75199 67564
L75255 67592
L75339 67592
L75395 67564
L75424 67536
" />
<path d="M75958 67199
L75958 67677
L75930 67733
L75902 67761
L75845 67789
L75761 67789
L75705 67761
" />
<path d="M75958 67564
L75902 67592
L75789 67592
L75733 67564
L75705 67536
L75677 67480
L75677 67311
L75705 67255
L75733 67227
L75789 67199
L75902 67199
L75958 67227
" />
<path d="M76211 67564
L76267 67592
L76380 67592
L76436 67564
L76464 67508
L76464 67480
L76436 67424
L76380 67395
L76295 67395
L76239 67367
L76211 67311
L76211 67283
L76239 67227
L76295 67199
L76380 67199
L76436 67227
" />
<path d="M76633 67199
L76858 67199
" />
<path d="M76717 67002
L76717 67508
L76745 67564
L76802 67592
L76858 67592
" />
<path d="M77027 67564
L77083 67592
L77195 67592
L77251 67564
L77280 67508
L77280 67480
L77251 67424
L77195 67395
L77111 67395
L77055 67367
L77027 67311
L77027 67283
L77055 67227
L77111 67199
L77195 67199
L77251 67227
" />
<path d="M77533 67592
L77533 67002
" />
<path d="M77589 67367
L77758 67592
" />
<path d="M77758 67199
L77533 67424
" />
<path d="M78095 67592
L78039 67564
L78011 67536
L77983 67480
L77983 67311
L78011 67255
L78039 67227
L78095 67199
L78180 67199
L78236 67227
L78264 67255
L78292 67311
L78292 67480
L78264 67536
L78236 67564
L78180 67592
L78095 67592
" />
<path d="M78629 67592
L78573 67564
L78545 67508
L78545 67002
" />
<path d="M79108 67592
L79108 67283
L79079 67227
L79023 67199
L78911 67199
L78854 67227
" />
<path d="M79108 67564
L79051 67592
L78911 67592
L78854 67564
L78826 67508
L78826 67452
L78854 67395
L78911 67367
L79051 67367
L79108 67339
" />
<path d="M79361 67564
L79417 67592
L79529 67592
L79586 67564
L79614 67508
L79614 67480
L79586 67424
L79529 67395
L79445 67395
L79389 67367
L79361 67311
L79361 67283
L79389 67227
L79445 67199
L79529 67199
L79586 67227
" />
</g>
<g style="fill:#000000; fill-opacity:0.0; 
stroke:#000000; stroke-width:39.3701; stroke-opacity:1; 
stroke-linecap:round; stroke-linejoin:round;">
</g>
<g style="fill:#000000; fill-opacity:0.0; 
stroke:#000000; stroke-width:59.0551; stroke-opacity:1; 
stroke-linecap:round; stroke-linejoin:round;">
<path d="M70249 66411
L70249 65821
L70390 65821
L70474 65849
L70530 65905
L70559 65961
L70587 66074
L70587 66158
L70559 66271
L70530 66327
L70474 66383
L70390 66411
L70249 66411
" />
<path d="M71093 66411
L71093 66102
L71065 66046
L71009 66018
L70896 66018
L70840 66046
" />
<path d="M71093 66383
L71037 66411
L70896 66411
L70840 66383
L70812 66327
L70812 66271
L70840 66214
L70896 66186
L71037 66186
L71093 66158
" />
<path d="M71374 66411
L71374 66018
" />
<path d="M71374 66130
L71402 66074
L71430 66046
L71487 66018
L71543 66018
" />
<path d="M71740 66411
L71740 65821
" />
<path d="M71740 66046
L71796 66018
L71908 66018
L71965 66046
L71993 66074
L72021 66130
L72021 66299
L71993 66355
L71965 66383
L71908 66411
L71796 66411
L71740 66383
" />
<path d="M72527 66411
L72527 66102
L72499 66046
L72443 66018
L72330 66018
L72274 66046
" />
<path d="M72527 66383
L72471 66411
L72330 66411
L72274 66383
L72246 66327
L72246 66271
L72274 66214
L72330 66186
L72471 66186
L72527 66158
" />
<path d="M73258 66411
L73258 66018
" />
<path d="M73258 65821
L73230 65849
L73258 65877
L73286 65849
L73258 65821
L73258 65877
" />
<path d="M73483 66018
L73793 66018
L73483 66411
L73793 66411
" />
<path d="M74018 66018
L74018 66608
" />
<path d="M74018 66046
L74074 66018
L74186 66018
L74242 66046
L74271 66074
L74299 66130
L74299 66299
L74271 66355
L74242 66383
L74186 66411
L74074 66411
L74018 66383
" />
<path d="M74552 66411
L74552 66018
" />
<path d="M74552 65821
L74524 65849
L74552 65877
L74580 65849
L74552 65821
L74552 65877
" />
<path d="M74917 66411
L74861 66383
L74833 66327
L74833 65821
" />
<path d="M75395 66411
L75395 65821
" />
<path d="M75395 66383
L75339 66411
L75227 66411
L75171 66383
L75142 66355
L75114 66299
L75114 66130
L75142 66074
L75171 66046
L75227 66018
L75339 66018
L75395 66046
" />
<path d="M75677 66411
L75677 66018
" />
<path d="M75536 65849
L75817 65849
" />
<path d="M75874 66018
L76099 66018
" />
<path d="M75958 65821
L75958 66327
L75986 66383
L76042 66411
L76099 66411
" />
<path d="M76548 66411
L76548 66102
L76520 66046
L76464 66018
L76352 66018
L76295 66046
" />
<path d="M76548 66383
L76492 66411
L76352 66411
L76295 66383
L76267 66327
L76267 66271
L76295 66214
L76352 66186
L76492 66186
L76548 66158
" />
<path d="M76267 65849
L76548 65849
" />
<path d="M76830 66018
L76830 66524
L76802 66580
L76745 66608
L76717 66608
" />
<path d="M76830 65821
L76802 65849
L76830 65877
L76858 65849
L76830 65821
L76830 65877
" />
<path d="M77083 66383
L77139 66411
L77251 66411
L77308 66383
L77336 66327
L77336 66299
L77308 66242
L77251 66214
L77167 66214
L77111 66186
L77083 66130
L77083 66102
L77111 66046
L77167 66018
L77251 66018
L77308 66046
" />
<path d="M77589 66355
L77617 66383
L77589 66411
L77561 66383
L77589 66355
L77589 66411
" />
<path d="M77589 66046
L77617 66074
L77589 66102
L77561 66074
L77589 66046
L77589 66102
" />
</g>
<g style="fill:#000000; fill-opacity:0.0; 
stroke:#000000; stroke-width:39.3701; stroke-opacity:1; 
stroke-linecap:round; stroke-linejoin:round;">
</g>
<g style="fill:#000000; fill-opacity:0.0; 
stroke:#000000; stroke-width:59.0551; stroke-opacity:1; 
stroke-linecap:round; stroke-linejoin:round;">
<path d="M77559 75396
L77559 76577
" />
</g>
<g style="fill:#000000; fill-opacity:0.0; 
stroke:#000000; stroke-width:39.3701; stroke-opacity:1; 
stroke-linecap:round; stroke-linejoin:round;">
</g>
<g style="fill:#000000; fill-opacity:0.0; 
stroke:#000000; stroke-width:59.0551; stroke-opacity:1; 
stroke-linecap:round; stroke-linejoin:round;">
<path d="M102756 75396
L102756 77955
" />
</g>
<g style="fill:#008484; fill-opacity:0.0; 
stroke:#008484; stroke-width:59.0551; stroke-opacity:1; 
stroke-linecap:round; stroke-linejoin:round;">
</g>
<g style="fill:#008484; fill-opacity:0.0; 
stroke:#008484; stroke-width:47.2441; stroke-opacity:1; 
stroke-linecap:round; stroke-linejoin:round;">
<path d="M79351 32127
L79351 31824
" />
<path d="M79351 28946
L79351 29249
" />
<path d="M79890 31824
L79890 29249
" />
<path d="M78811 31824
L79890 31824
" />
<path d="M78811 29249
L78811 31824
" />
<path d="M79890 29249
L78811 29249
" />
<path d="M74591 31884
L75670 31884
" />
<path d="M75670 31884
L75670 29309
" />
<path d="M75670 29309
L74591 29309
" />
<path d="M74591 29309
L74591 31884
" />
<path d="M75131 32187
L75131 31884
" />
<path d="M75131 29006
L75131 29309
" />
<path d="M51451 30195
L51451 29924
" />
<path d="M51491 30195
L51451 30195
" />
<path d="M54058 30195
L54058 30097
" />
<path d="M54018 30195
L54058 30195
" />
<path d="M54018 30274
L54018 30195
" />
<path d="M53459 30195
L53459 30274
" />
<path d="M51967.6 27432.1 A515.748 515.748 0.0 0 0 51451.9 27947.9 " />
<path d="M54058.1 27947.9 A515.748 515.748 0.0 0 0 53542.4 27432.1 " />
<path d="M51967 27432
L52554 27432
" />
<path d="M51451 29514
L51451 27947
" />
<path d="M54058 27947
L54058 29341
" />
<path d="M52955 27432
L53542 27432
" />
<path d="M51491 30274
L51491 30195
" />
<path d="M52050 30274
L51491 30274
" />
<path d="M52050 30195
L52050 30274
" />
<path d="M53459 30195
L52050 30195
" />
<path d="M54018 30274
L53459 30274
" />
<path d="M51522 37388
L51522 39160
" />
<path d="M53097 36896
L52506 36896
" />
<path d="M54081 39160
L54081 37388
" />
<path d="M52506 39652
L53097 39652
" />
<path d="M51749 31347
L52273 31347
" />
<path d="M51749 31871
L51749 31347
" />
<path d="M52773 31347
L53796 31347
" />
<path d="M52773 32371
L52773 31347
" />
<path d="M51749 32371
L52773 32371
" />
<path d="M53796 31347
L53796 34394
" />
<path d="M51749 32371
L51749 34394
" />
<path d="M51749 34394
L53796 34394
" />
<path d="M72949 32179
L72949 31876
" />
<path d="M72949 28998
L72949 29301
" />
<path d="M73488 31876
L73488 29301
" />
<path d="M72409 31876
L73488 31876
" />
<path d="M72409 29301
L72409 31876
" />
<path d="M73488 29301
L72409 29301
" />
<path d="M70858 32895
L70858 31304
" />
<path d="M71977 32895
L71977 31304
" />
<path d="M70858 32895
L71105 32895
" />
<path d="M71730 32895
L71977 32895
" />
<path d="M70858 31304
L71105 31304
" />
<path d="M71730 31304
L71977 31304
" />
<path d="M55066 31901
L55066 32551
" />
<path d="M69113 31901
L55066 31901
" />
<path d="M69113 33988
L69113 31901
" />
<path d="M55066 33988
L69113 33988
" />
<path d="M55066 33338
L55066 33988
" />
<path d="M55066.4 33338.7 A393.701 393.701 0.0 0 0 55066.4 32551.3 " />
<path d="M77276 32187
L77276 31884
" />
<path d="M77276 29006
L77276 29309
" />
<path d="M77815 31884
L77815 29309
" />
<path d="M76736 31884
L77815 31884
" />
<path d="M76736 29309
L76736 31884
" />
<path d="M77815 29309
L76736 29309
" />
<path d="M80229 27280
L80229 27527
" />
<path d="M80229 26408
L80229 26655
" />
<path d="M78638 27280
L78638 27527
" />
<path d="M78638 26408
L78638 26655
" />
<path d="M78638 27527
L80229 27527
" />
<path d="M78638 26408
L80229 26408
" />
<path d="M54638 36681
L54638 36434
" />
<path d="M54638 37553
L54638 37306
" />
<path d="M56229 36681
L56229 36434
" />
<path d="M56229 37553
L56229 37306
" />
<path d="M56229 36434
L54638 36434
" />
<path d="M56229 37553
L54638 37553
" />
<path d="M58233 36227
L58233 35148
" />
<path d="M58233 35148
L55658 35148
" />
<path d="M55658 35148
L55658 36227
" />
<path d="M55658 36227
L58233 36227
" />
<path d="M58536 35688
L58233 35688
" />
<path d="M55355 35688
L55658 35688
" />
<path d="M68272 28212
L68272 29291
" />
<path d="M68272 29291
L70847 29291
" />
<path d="M70847 29291
L70847 28212
" />
<path d="M70847 28212
L68272 28212
" />
<path d="M67969 28752
L68272 28752
" />
<path d="M71150 28752
L70847 28752
" />
<path d="M59153 29563
L59153 30720
" />
<path d="M59153 30720
L61846 30720
" />
<path d="M61846 30720
L61846 29563
" />
<path d="M61846 29563
L59153 29563
" />
<path d="M58909 30142
L59153 30142
" />
<path d="M62090 30142
L61846 30142
" />
<path d="M63288 29831
L63288 29584
" />
<path d="M63288 30703
L63288 30456
" />
<path d="M64879 29831
L64879 29584
" />
<path d="M64879 30703
L64879 30456
" />
<path d="M64879 29584
L63288 29584
" />
<path d="M64879 30703
L63288 30703
" />
<path d="M86345 37373
L85578 37373
" />
<path d="M84704 37373
L83432 37373
" />
<path d="M82676 37089
L82676 36664
" />
<path d="M82676 35003
L82676 34578
" />
<path d="M84704 34294
L83432 34294
" />
<path d="M86345 34294
L85578 34294
" />
<path d="M82676 36664
L82507 36664
" />
<path d="M86345 34294
L86345 37373
" />
<path d="M62862 37047
L65322 37047
" />
<path d="M62862 39036
L65322 39036
" />
<path d="M62862.3 37047.9 A994.094 994.094 0.0 0 0 62862.3 39036.1 " />
<path d="M65322.9 39036.1 A994.094 994.094 0.0 0 0 65322.9 37047.9 " />
<path d="M63895 36060
L63895 36307
" />
<path d="M63895 35188
L63895 35435
" />
<path d="M62304 36060
L62304 36307
" />
<path d="M62304 35188
L62304 35435
" />
<path d="M62304 36307
L63895 36307
" />
<path d="M62304 35188
L63895 35188
" />
<path d="M65875 36297
L64284 36297
" />
<path d="M65875 35178
L64284 35178
" />
<path d="M65875 36297
L65875 36050
" />
<path d="M65875 35425
L65875 35178
" />
<path d="M64284 36297
L64284 36050
" />
<path d="M64284 35425
L64284 35178
" />
<path d="M57034 26930
L57034 26406
" />
<path d="M57034 26406
L57558 26406
" />
<path d="M58058 26406
L73081 26406
" />
<path d="M73081 27453
L73081 26406
" />
<path d="M58058 27453
L73081 27453
" />
<path d="M58058 27453
L58058 26406
" />
<path d="M60735 35166
L60735 36757
" />
<path d="M59616 35166
L59616 36757
" />
<path d="M60735 35166
L60488 35166
" />
<path d="M59863 35166
L59616 35166
" />
<path d="M60735 36757
L60488 36757
" />
<path d="M59863 36757
L59616 36757
" />
<path d="M61189 36757
L60942 36757
" />
<path d="M62061 36757
L61814 36757
" />
<path d="M61189 35166
L60942 35166
" />
<path d="M62061 35166
L61814 35166
" />
<path d="M60942 35166
L60942 36757
" />
<path d="M62061 35166
L62061 36757
" />
<path d="M83161 31809
L84240 31809
" />
<path d="M84240 31809
L84240 29234
" />
<path d="M84240 29234
L83161 29234
" />
<path d="M83161 29234
L83161 31809
" />
<path d="M83701 32112
L83701 31809
" />
<path d="M83701 28931
L83701 29234
" />
<path d="M80956 31794
L82035 31794
" />
<path d="M82035 31794
L82035 29219
" />
<path d="M82035 29219
L80956 29219
" />
<path d="M80956 29219
L80956 31794
" />
<path d="M81496 32097
L81496 31794
" />
<path d="M81496 28916
L81496 29219
" />
<circle cx="84920" cy="39100" r="492.52" /> 
<circle cx="84920" cy="26900" r="492.52" /> 
<circle cx="55400" cy="26900" r="492.52" /> 
<circle cx="55395" cy="39105" r="492.52" /> 
<path d="M74598 34539
L73007 34539
" />
<path d="M74598 33420
L73007 33420
" />
<path d="M74598 34539
L74598 34292
" />
<path d="M74598 33667
L74598 33420
" />
<path d="M73007 34539
L73007 34292
" />
<path d="M73007 33667
L73007 33420
" />
<path d="M76572 34297
L76572 34544
" />
<path d="M76572 33425
L76572 33672
" />
<path d="M74981 34297
L74981 34544
" />
<path d="M74981 33425
L74981 33672
" />
<path d="M74981 34544
L76572 34544
" />
<path d="M74981 33425
L76572 33425
" />
<path d="M78798.6 36261.3 A393.701 393.701 0.0 0 0 78798.6 37048.7 " />
<path d="M78798 36261
L78798 35611
" />
<path d="M78798 35611
L71751 35611
" />
<path d="M71751 35611
L71751 37698
" />
<path d="M71751 37698
L78798 37698
" />
<path d="M78798 37698
L78798 37048
" />
</g>
<g style="fill:#008484; fill-opacity:0.0; 
stroke:#008484; stroke-width:59.0551; stroke-opacity:1; 
stroke-linecap:round; stroke-linejoin:round;">
<path d="M78264 30599
L78133 30411
" />
<path d="M78039 30599
L78039 30205
L78189 30205
L78226 30224
L78245 30242
L78264 30280
L78264 30336
L78245 30374
L78226 30392
L78189 30411
L78039 30411
" />
<path d="M78395 30205
L78639 30205
L78508 30355
L78564 30355
L78601 30374
L78620 30392
L78639 30430
L78639 30524
L78620 30561
L78601 30580
L78564 30599
L78451 30599
L78414 30580
L78395 30561
" />
<path d="M73996 30614
L73865 30426
" />
<path d="M73771 30614
L73771 30220
L73921 30220
L73958 30239
L73977 30257
L73996 30295
L73996 30351
L73977 30389
L73958 30407
L73921 30426
L73771 30426
" />
<path d="M74352 30220
L74165 30220
L74146 30407
L74165 30389
L74202 30370
L74296 30370
L74333 30389
L74352 30407
L74371 30445
L74371 30539
L74352 30576
L74333 30595
L74296 30614
L74202 30614
L74165 30595
L74146 30576
" />
<path d="M85084 28476
L85084 28082
L85215 28363
L85346 28082
L85346 28476
" />
<path d="M85534 28476
L85534 28082
" />
<path d="M85759 28476
L85590 28251
" />
<path d="M85759 28082
L85534 28307
" />
<path d="M86134 28476
L85909 28476
" />
<path d="M86021 28476
L86021 28082
L85984 28138
L85946 28176
L85909 28194
" />
<path d="M52527 27002
L52396 26814
" />
<path d="M52302 27002
L52302 26608
L52452 26608
L52490 26627
L52508 26645
L52527 26683
L52527 26739
L52508 26777
L52490 26795
L52452 26814
L52302 26814
" />
<path d="M52640 26608
L52771 27002
L52902 26608
" />
<path d="M53240 27002
L53015 27002
" />
<path d="M53127 27002
L53127 26608
L53090 26664
L53052 26702
L53015 26720
" />
<path d="M52273 36092
L52329 36111
L52423 36111
L52460 36092
L52479 36073
L52498 36036
L52498 35998
L52479 35961
L52460 35942
L52423 35923
L52348 35904
L52310 35886
L52291 35867
L52273 35829
L52273 35792
L52291 35754
L52310 35736
L52348 35717
L52441 35717
L52498 35736
" />
<path d="M52629 35717
L52723 36111
L52798 35829
L52872 36111
L52966 35717
" />
<path d="M53322 36111
L53097 36111
" />
<path d="M53210 36111
L53210 35717
L53172 35773
L53135 35811
L53097 35829
" />
<path d="M52605 30543
L52605 30824
L52587 30880
L52549 30918
L52493 30937
L52455 30937
" />
<path d="M52774 30580
L52793 30562
L52830 30543
L52924 30543
L52961 30562
L52980 30580
L52999 30618
L52999 30655
L52980 30712
L52755 30937
L52999 30937
" />
<path d="M71811 30619
L71680 30431
" />
<path d="M71586 30619
L71586 30225
L71736 30225
L71773 30244
L71792 30262
L71811 30300
L71811 30356
L71792 30394
L71773 30412
L71736 30431
L71586 30431
" />
<path d="M72148 30225
L72073 30225
L72036 30244
L72017 30262
L71980 30319
L71961 30394
L71961 30544
L71980 30581
L71998 30600
L72036 30619
L72111 30619
L72148 30600
L72167 30581
L72186 30544
L72186 30450
L72167 30412
L72148 30394
L72111 30375
L72036 30375
L71998 30394
L71980 30412
L71961 30450
" />
<path d="M70290 32821
L70271 32840
L70215 32859
L70177 32859
L70121 32840
L70084 32802
L70065 32765
L70046 32690
L70046 32634
L70065 32559
L70084 32521
L70121 32484
L70177 32465
L70215 32465
L70271 32484
L70290 32502
" />
<path d="M70627 32465
L70552 32465
L70515 32484
L70496 32502
L70459 32559
L70440 32634
L70440 32784
L70459 32821
L70477 32840
L70515 32859
L70590 32859
L70627 32840
L70646 32821
L70665 32784
L70665 32690
L70646 32652
L70627 32634
L70590 32615
L70515 32615
L70477 32634
L70459 32652
L70440 32690
" />
<path d="M55323 30289
L55323 30608
L55341 30645
L55360 30664
L55398 30683
L55473 30683
L55510 30664
L55529 30645
L55548 30608
L55548 30289
" />
<path d="M55716 30326
L55735 30308
L55772 30289
L55866 30289
L55904 30308
L55922 30326
L55941 30364
L55941 30401
L55922 30458
L55697 30683
L55941 30683
" />
<path d="M76160 30603
L76029 30415
" />
<path d="M75935 30603
L75935 30209
L76085 30209
L76122 30228
L76141 30246
L76160 30284
L76160 30340
L76141 30378
L76122 30396
L76085 30415
L75935 30415
" />
<path d="M76310 30246
L76329 30228
L76366 30209
L76460 30209
L76497 30228
L76516 30246
L76535 30284
L76535 30321
L76516 30378
L76291 30603
L76535 30603
" />
<path d="M77927 27108
L77908 27126
L77852 27145
L77814 27145
L77758 27126
L77720 27089
L77702 27051
L77683 26976
L77683 26920
L77702 26845
L77720 26808
L77758 26770
L77814 26752
L77852 26752
L77908 26770
L77927 26789
" />
<path d="M78302 27145
L78077 27145
" />
<path d="M78189 27145
L78189 26752
L78152 26808
L78114 26845
L78077 26864
" />
<path d="M55294 38097
L55275 38116
L55219 38135
L55181 38135
L55125 38116
L55088 38078
L55069 38041
L55050 37966
L55050 37910
L55069 37835
L55088 37797
L55125 37760
L55181 37741
L55219 37741
L55275 37760
L55294 37778
" />
<path d="M55519 37910
L55481 37891
L55463 37872
L55444 37835
L55444 37816
L55463 37778
L55481 37760
L55519 37741
L55594 37741
L55631 37760
L55650 37778
L55669 37816
L55669 37835
L55650 37872
L55631 37891
L55594 37910
L55519 37910
L55481 37928
L55463 37947
L55444 37985
L55444 38060
L55463 38097
L55481 38116
L55519 38135
L55594 38135
L55631 38116
L55650 38097
L55669 38060
L55669 37985
L55650 37947
L55631 37928
L55594 37910
" />
<path d="M56852 36811
L56721 36623
" />
<path d="M56627 36811
L56627 36417
L56777 36417
L56814 36436
L56833 36454
L56852 36492
L56852 36548
L56833 36586
L56814 36604
L56777 36623
L56627 36623
" />
<path d="M57077 36586
L57039 36567
L57021 36548
L57002 36511
L57002 36492
L57021 36454
L57039 36436
L57077 36417
L57152 36417
L57189 36436
L57208 36454
L57227 36492
L57227 36511
L57208 36548
L57189 36567
L57152 36586
L57077 36586
L57039 36604
L57021 36623
L57002 36661
L57002 36736
L57021 36773
L57039 36792
L57077 36811
L57152 36811
L57189 36792
L57208 36773
L57227 36736
L57227 36661
L57208 36623
L57189 36604
L57152 36586
" />
<path d="M66578 28957
L66447 28769
" />
<path d="M66353 28957
L66353 28563
L66503 28563
L66540 28582
L66559 28600
L66578 28638
L66578 28694
L66559 28732
L66540 28750
L66503 28769
L66353 28769
" />
<path d="M66709 28563
L66972 28563
L66803 28957
" />
<path d="M60471 29351
L60283 29351
L60283 28957
" />
<path d="M60808 29351
L60583 29351
" />
<path d="M60696 29351
L60696 28957
L60658 29013
L60621 29051
L60583 29069
" />
<path d="M63922 29313
L63903 29332
L63847 29351
L63809 29351
L63753 29332
L63716 29294
L63697 29257
L63678 29182
L63678 29126
L63697 29051
L63716 29013
L63753 28976
L63809 28957
L63847 28957
L63903 28976
L63922 28994
" />
<path d="M64053 28957
L64297 28957
L64166 29107
L64222 29107
L64259 29126
L64278 29144
L64297 29182
L64297 29276
L64278 29313
L64259 29332
L64222 29351
L64109 29351
L64072 29332
L64053 29313
" />
<path d="M83959 33320
L83959 33601
L83941 33657
L83903 33695
L83847 33714
L83809 33714
" />
<path d="M84353 33714
L84128 33714
" />
<path d="M84240 33714
L84240 33320
L84203 33376
L84165 33414
L84128 33432
" />
<path d="M63898 39433
L63898 39621
" />
<path d="M63767 39227
L63898 39433
L64029 39227
" />
<path d="M64367 39621
L64142 39621
" />
<path d="M64254 39621
L64254 39227
L64217 39283
L64179 39321
L64142 39339
" />
<path d="M63022 36788
L63003 36807
L62947 36826
L62909 36826
L62853 36807
L62815 36769
L62797 36732
L62778 36657
L62778 36601
L62797 36526
L62815 36488
L62853 36451
L62909 36432
L62947 36432
L63003 36451
L63022 36469
" />
<path d="M63378 36432
L63190 36432
L63172 36619
L63190 36601
L63228 36582
L63322 36582
L63359 36601
L63378 36619
L63397 36657
L63397 36751
L63378 36788
L63359 36807
L63322 36826
L63228 36826
L63190 36807
L63172 36788
" />
<path d="M65026 36764
L65007 36783
L64951 36802
L64914 36802
L64857 36783
L64820 36745
L64801 36708
L64782 36633
L64782 36577
L64801 36502
L64820 36464
L64857 36427
L64914 36408
L64951 36408
L65007 36427
L65026 36445
" />
<path d="M65157 36408
L65420 36408
L65251 36802
" />
<path d="M56392 26707
L56392 26988
L56374 27044
L56336 27082
L56280 27101
L56242 27101
" />
<path d="M56542 26707
L56786 26707
L56655 26857
L56711 26857
L56748 26876
L56767 26894
L56786 26932
L56786 27026
L56767 27063
L56748 27082
L56711 27101
L56598 27101
L56561 27082
L56542 27063
" />
<path d="M60094 37458
L60075 37477
L60019 37496
L59981 37496
L59925 37477
L59888 37439
L59869 37402
L59850 37327
L59850 37271
L59869 37196
L59888 37158
L59925 37121
L59981 37102
L60019 37102
L60075 37121
L60094 37139
" />
<path d="M60431 37233
L60431 37496
" />
<path d="M60338 37083
L60244 37364
L60488 37364
" />
<path d="M61379 37465
L61360 37484
L61304 37503
L61266 37503
L61210 37484
L61173 37446
L61154 37409
L61135 37334
L61135 37278
L61154 37203
L61173 37165
L61210 37128
L61266 37109
L61304 37109
L61360 37128
L61379 37146
" />
<path d="M61529 37146
L61548 37128
L61585 37109
L61679 37109
L61716 37128
L61735 37146
L61754 37184
L61754 37221
L61735 37278
L61510 37503
L61754 37503
" />
<path d="M82573 30608
L82442 30420
" />
<path d="M82348 30608
L82348 30214
L82498 30214
L82535 30233
L82554 30251
L82573 30289
L82573 30345
L82554 30383
L82535 30401
L82498 30420
L82348 30420
" />
<path d="M82910 30345
L82910 30608
" />
<path d="M82817 30195
L82723 30476
L82967 30476
" />
<path d="M80381 30587
L80250 30399
" />
<path d="M80156 30587
L80156 30193
L80306 30193
L80343 30212
L80362 30230
L80381 30268
L80381 30324
L80362 30362
L80343 30380
L80306 30399
L80156 30399
" />
<path d="M80756 30587
L80531 30587
" />
<path d="M80643 30587
L80643 30193
L80606 30249
L80568 30287
L80531 30305
" />
<path d="M72309 34120
L72290 34139
L72234 34158
L72196 34158
L72140 34139
L72103 34101
L72084 34064
L72065 33989
L72065 33933
L72084 33858
L72103 33820
L72140 33783
L72196 33764
L72234 33764
L72290 33783
L72309 33801
" />
<path d="M72496 34158
L72571 34158
L72609 34139
L72628 34120
L72665 34064
L72684 33989
L72684 33839
L72665 33801
L72646 33783
L72609 33764
L72534 33764
L72496 33783
L72478 33801
L72459 33839
L72459 33933
L72478 33970
L72496 33989
L72534 34008
L72609 34008
L72646 33989
L72665 33970
L72684 33933
" />
<path d="M77101 34180
L77083 34199
L77026 34218
L76989 34218
L76933 34199
L76895 34161
L76876 34124
L76858 34049
L76858 33993
L76876 33918
L76895 33880
L76933 33843
L76989 33824
L77026 33824
L77083 33843
L77101 33861
" />
<path d="M77476 34218
L77251 34218
" />
<path d="M77364 34218
L77364 33824
L77326 33880
L77289 33918
L77251 33936
" />
<path d="M77720 33824
L77758 33824
L77795 33843
L77814 33861
L77833 33899
L77851 33974
L77851 34068
L77833 34143
L77814 34180
L77795 34199
L77758 34218
L77720 34218
L77683 34199
L77664 34180
L77645 34143
L77626 34068
L77626 33974
L77645 33899
L77664 33861
L77683 33843
L77720 33824
" />
<path d="M79240 36509
L79240 36828
L79258 36865
L79277 36884
L79315 36903
L79390 36903
L79427 36884
L79446 36865
L79465 36828
L79465 36509
" />
<path d="M79858 36903
L79633 36903
" />
<path d="M79746 36903
L79746 36509
L79708 36565
L79671 36603
L79633 36621
" />
</g>
<g style="fill:#000000; fill-opacity:0.0; 
stroke:#000000; stroke-width:59.0551; stroke-opacity:1; 
stroke-linecap:round; stroke-linejoin:round;">
</g>
<g style="fill:#C2C200; fill-opacity:0.0; 
stroke:#C2C200; stroke-width:59.0551; stroke-opacity:1; 
stroke-linecap:round; stroke-linejoin:round;">
<path d="M50787 25196
L86614 25196
" />
<path d="M86614 40748
L86614 25196
" />
<path d="M50787 40748
L86614 40748
" />
<path d="M50787 25196
L50787 40748
" />
</g> 
</svg>
