G04 #@! TF.GenerationSoftware,KiCad,Pcbnew,(5.0.2)-1*
G04 #@! TF.CreationDate,2019-05-19T15:52:53+03:00*
G04 #@! TF.ProjectId,Skanas_frekvences_noteiksana,536b616e-6173-45f6-9672-656b76656e63,rev?*
G04 #@! TF.SameCoordinates,Original*
G04 #@! TF.FileFunction,Legend,Top*
G04 #@! TF.FilePolarity,Positive*
%FSLAX46Y46*%
G04 Gerber Fmt 4.6, Leading zero omitted, Abs format (unit mm)*
G04 Created by KiCad (PCBNEW (5.0.2)-1) date 5/19/2019 15:52:53*
%MOMM*%
%LPD*%
G01*
G04 APERTURE LIST*
%ADD10C,0.120000*%
%ADD11C,0.150000*%
G04 APERTURE END LIST*
D10*
G04 #@! TO.C,R3*
X201551540Y-81603980D02*
X201551540Y-80833980D01*
X201551540Y-73523980D02*
X201551540Y-74293980D01*
X202921540Y-80833980D02*
X202921540Y-74293980D01*
X200181540Y-80833980D02*
X202921540Y-80833980D01*
X200181540Y-74293980D02*
X200181540Y-80833980D01*
X202921540Y-74293980D02*
X200181540Y-74293980D01*
G04 #@! TO.C,R5*
X189462740Y-80986380D02*
X192202740Y-80986380D01*
X192202740Y-80986380D02*
X192202740Y-74446380D01*
X192202740Y-74446380D02*
X189462740Y-74446380D01*
X189462740Y-74446380D02*
X189462740Y-80986380D01*
X190832740Y-81756380D02*
X190832740Y-80986380D01*
X190832740Y-73676380D02*
X190832740Y-74446380D01*
G04 #@! TO.C,RV1*
X130687700Y-76697540D02*
X130687700Y-76007540D01*
X130787700Y-76697540D02*
X130687700Y-76697540D01*
X137307700Y-76697540D02*
X137307700Y-76447540D01*
X137207700Y-76697540D02*
X137307700Y-76697540D01*
X137207700Y-76897540D02*
X137207700Y-76697540D01*
X135787700Y-76697540D02*
X135787700Y-76897540D01*
X130687700Y-70987540D02*
G75*
G02X131997700Y-69677540I1310000J0D01*
G01*
X135997700Y-69677540D02*
G75*
G02X137307700Y-70987540I0J-1310000D01*
G01*
X131997700Y-69677540D02*
X133487700Y-69677540D01*
X130687700Y-74967540D02*
X130687700Y-70987540D01*
X137307700Y-70987540D02*
X137307700Y-74527540D01*
X134507700Y-69677540D02*
X135997700Y-69677540D01*
X130787700Y-76897540D02*
X130787700Y-76697540D01*
X132207700Y-76897540D02*
X130787700Y-76897540D01*
X132207700Y-76697540D02*
X132207700Y-76897540D01*
X135787700Y-76697540D02*
X132207700Y-76697540D01*
X137207700Y-76897540D02*
X135787700Y-76897540D01*
G04 #@! TO.C,SW1*
X130867520Y-94967300D02*
X130867520Y-99467300D01*
X134867520Y-93717300D02*
X133367520Y-93717300D01*
X137367520Y-99467300D02*
X137367520Y-94967300D01*
X133367520Y-100717300D02*
X134867520Y-100717300D01*
G04 #@! TO.C,J2*
X131443420Y-79622340D02*
X132773420Y-79622340D01*
X131443420Y-80952340D02*
X131443420Y-79622340D01*
X134043420Y-79622340D02*
X136643420Y-79622340D01*
X134043420Y-82222340D02*
X134043420Y-79622340D01*
X131443420Y-82222340D02*
X134043420Y-82222340D01*
X136643420Y-79622340D02*
X136643420Y-87362340D01*
X131443420Y-82222340D02*
X131443420Y-87362340D01*
X131443420Y-87362340D02*
X136643420Y-87362340D01*
G04 #@! TO.C,R6*
X185290460Y-81736060D02*
X185290460Y-80966060D01*
X185290460Y-73656060D02*
X185290460Y-74426060D01*
X186660460Y-80966060D02*
X186660460Y-74426060D01*
X183920460Y-80966060D02*
X186660460Y-80966060D01*
X183920460Y-74426060D02*
X183920460Y-80966060D01*
X186660460Y-74426060D02*
X183920460Y-74426060D01*
G04 #@! TO.C,C6*
X179981720Y-83553680D02*
X179981720Y-79513680D01*
X182821720Y-83553680D02*
X182821720Y-79513680D01*
X179981720Y-83553680D02*
X180606720Y-83553680D01*
X182196720Y-83553680D02*
X182821720Y-83553680D01*
X179981720Y-79513680D02*
X180606720Y-79513680D01*
X182196720Y-79513680D02*
X182821720Y-79513680D01*
G04 #@! TO.C,U2*
X139868600Y-81030300D02*
X139868600Y-82680300D01*
X175548600Y-81030300D02*
X139868600Y-81030300D01*
X175548600Y-86330300D02*
X175548600Y-81030300D01*
X139868600Y-86330300D02*
X175548600Y-86330300D01*
X139868600Y-84680300D02*
X139868600Y-86330300D01*
X139868600Y-82680300D02*
G75*
G02X139868600Y-84680300I0J-1000000D01*
G01*
G04 #@! TO.C,R2*
X196281040Y-81756380D02*
X196281040Y-80986380D01*
X196281040Y-73676380D02*
X196281040Y-74446380D01*
X197651040Y-80986380D02*
X197651040Y-74446380D01*
X194911040Y-80986380D02*
X197651040Y-80986380D01*
X194911040Y-74446380D02*
X194911040Y-80986380D01*
X197651040Y-74446380D02*
X194911040Y-74446380D01*
G04 #@! TO.C,C1*
X203782680Y-69293720D02*
X203782680Y-69918720D01*
X203782680Y-67078720D02*
X203782680Y-67703720D01*
X199742680Y-69293720D02*
X199742680Y-69918720D01*
X199742680Y-67078720D02*
X199742680Y-67703720D01*
X199742680Y-69918720D02*
X203782680Y-69918720D01*
X199742680Y-67078720D02*
X203782680Y-67078720D01*
G04 #@! TO.C,C8*
X138782040Y-93169760D02*
X138782040Y-92544760D01*
X138782040Y-95384760D02*
X138782040Y-94759760D01*
X142822040Y-93169760D02*
X142822040Y-92544760D01*
X142822040Y-95384760D02*
X142822040Y-94759760D01*
X142822040Y-92544760D02*
X138782040Y-92544760D01*
X142822040Y-95384760D02*
X138782040Y-95384760D01*
G04 #@! TO.C,R8*
X147912840Y-92017520D02*
X147912840Y-89277520D01*
X147912840Y-89277520D02*
X141372840Y-89277520D01*
X141372840Y-89277520D02*
X141372840Y-92017520D01*
X141372840Y-92017520D02*
X147912840Y-92017520D01*
X148682840Y-90647520D02*
X147912840Y-90647520D01*
X140602840Y-90647520D02*
X141372840Y-90647520D01*
G04 #@! TO.C,R7*
X173412400Y-71660080D02*
X173412400Y-74400080D01*
X173412400Y-74400080D02*
X179952400Y-74400080D01*
X179952400Y-74400080D02*
X179952400Y-71660080D01*
X179952400Y-71660080D02*
X173412400Y-71660080D01*
X172642400Y-73030080D02*
X173412400Y-73030080D01*
X180722400Y-73030080D02*
X179952400Y-73030080D01*
G04 #@! TO.C,L1*
X150250000Y-75090680D02*
X150250000Y-78030680D01*
X150250000Y-78030680D02*
X157090000Y-78030680D01*
X157090000Y-78030680D02*
X157090000Y-75090680D01*
X157090000Y-75090680D02*
X150250000Y-75090680D01*
X149630000Y-76560680D02*
X150250000Y-76560680D01*
X157710000Y-76560680D02*
X157090000Y-76560680D01*
G04 #@! TO.C,C3*
X160753680Y-75770760D02*
X160753680Y-75145760D01*
X160753680Y-77985760D02*
X160753680Y-77360760D01*
X164793680Y-75770760D02*
X164793680Y-75145760D01*
X164793680Y-77985760D02*
X164793680Y-77360760D01*
X164793680Y-75145760D02*
X160753680Y-75145760D01*
X164793680Y-77985760D02*
X160753680Y-77985760D01*
G04 #@! TO.C,J1*
X219318260Y-94928360D02*
X217368260Y-94928360D01*
X215148260Y-94928360D02*
X211918260Y-94928360D01*
X209998260Y-94208360D02*
X209998260Y-93128360D01*
X209998260Y-88908360D02*
X209998260Y-87828360D01*
X215148260Y-87108360D02*
X211918260Y-87108360D01*
X219318260Y-87108360D02*
X217368260Y-87108360D01*
X209998260Y-93128360D02*
X209568260Y-93128360D01*
X219318260Y-87108360D02*
X219318260Y-94928360D01*
G04 #@! TO.C,Y1*
X159670120Y-94101680D02*
X165920120Y-94101680D01*
X159670120Y-99151680D02*
X165920120Y-99151680D01*
X159670120Y-99151680D02*
G75*
G02X159670120Y-94101680I0J2525000D01*
G01*
X165920120Y-99151680D02*
G75*
G03X165920120Y-94101680I0J2525000D01*
G01*
G04 #@! TO.C,C5*
X162293680Y-91594920D02*
X162293680Y-92219920D01*
X162293680Y-89379920D02*
X162293680Y-90004920D01*
X158253680Y-91594920D02*
X158253680Y-92219920D01*
X158253680Y-89379920D02*
X158253680Y-90004920D01*
X158253680Y-92219920D02*
X162293680Y-92219920D01*
X158253680Y-89379920D02*
X162293680Y-89379920D01*
G04 #@! TO.C,C7*
X167323520Y-92194520D02*
X163283520Y-92194520D01*
X167323520Y-89354520D02*
X163283520Y-89354520D01*
X167323520Y-92194520D02*
X167323520Y-91569520D01*
X167323520Y-89979520D02*
X167323520Y-89354520D01*
X163283520Y-92194520D02*
X163283520Y-91569520D01*
X163283520Y-89979520D02*
X163283520Y-89354520D01*
G04 #@! TO.C,J3*
X144867320Y-68402200D02*
X144867320Y-67072200D01*
X144867320Y-67072200D02*
X146197320Y-67072200D01*
X147467320Y-67072200D02*
X185627320Y-67072200D01*
X185627320Y-69732200D02*
X185627320Y-67072200D01*
X147467320Y-69732200D02*
X185627320Y-69732200D01*
X147467320Y-69732200D02*
X147467320Y-67072200D01*
G04 #@! TO.C,C4*
X154267040Y-89323800D02*
X154267040Y-93363800D01*
X151427040Y-89323800D02*
X151427040Y-93363800D01*
X154267040Y-89323800D02*
X153642040Y-89323800D01*
X152052040Y-89323800D02*
X151427040Y-89323800D01*
X154267040Y-93363800D02*
X153642040Y-93363800D01*
X152052040Y-93363800D02*
X151427040Y-93363800D01*
G04 #@! TO.C,C2*
X155420080Y-93363800D02*
X154795080Y-93363800D01*
X157635080Y-93363800D02*
X157010080Y-93363800D01*
X155420080Y-89323800D02*
X154795080Y-89323800D01*
X157635080Y-89323800D02*
X157010080Y-89323800D01*
X154795080Y-89323800D02*
X154795080Y-93363800D01*
X157635080Y-89323800D02*
X157635080Y-93363800D01*
G04 #@! TO.C,R4*
X211230540Y-80795880D02*
X213970540Y-80795880D01*
X213970540Y-80795880D02*
X213970540Y-74255880D01*
X213970540Y-74255880D02*
X211230540Y-74255880D01*
X211230540Y-74255880D02*
X211230540Y-80795880D01*
X212600540Y-81565880D02*
X212600540Y-80795880D01*
X212600540Y-73485880D02*
X212600540Y-74255880D01*
G04 #@! TO.C,R1*
X205629840Y-80757780D02*
X208369840Y-80757780D01*
X208369840Y-80757780D02*
X208369840Y-74217780D01*
X208369840Y-74217780D02*
X205629840Y-74217780D01*
X205629840Y-74217780D02*
X205629840Y-80757780D01*
X206999840Y-81527780D02*
X206999840Y-80757780D01*
X206999840Y-73447780D02*
X206999840Y-74217780D01*
G04 #@! TO.C,*
X216947800Y-99314000D02*
G75*
G03X216947800Y-99314000I-1251000J0D01*
G01*
X216947800Y-68326000D02*
G75*
G03X216947800Y-68326000I-1251000J0D01*
G01*
X141967000Y-68326000D02*
G75*
G03X141967000Y-68326000I-1251000J0D01*
G01*
X141954300Y-99326700D02*
G75*
G03X141954300Y-99326700I-1251000J0D01*
G01*
G04 #@! TO.C,C9*
X189479300Y-87729200D02*
X185439300Y-87729200D01*
X189479300Y-84889200D02*
X185439300Y-84889200D01*
X189479300Y-87729200D02*
X189479300Y-87104200D01*
X189479300Y-85514200D02*
X189479300Y-84889200D01*
X185439300Y-87729200D02*
X185439300Y-87104200D01*
X185439300Y-85514200D02*
X185439300Y-84889200D01*
G04 #@! TO.C,C10*
X194493900Y-87116900D02*
X194493900Y-87741900D01*
X194493900Y-84901900D02*
X194493900Y-85526900D01*
X190453900Y-87116900D02*
X190453900Y-87741900D01*
X190453900Y-84901900D02*
X190453900Y-85526900D01*
X190453900Y-87741900D02*
X194493900Y-87741900D01*
X190453900Y-84901900D02*
X194493900Y-84901900D01*
G04 #@! TO.C,U1*
X200148500Y-94103700D02*
G75*
G02X200148500Y-92103700I0J1000000D01*
G01*
X200148500Y-92103700D02*
X200148500Y-90453700D01*
X200148500Y-90453700D02*
X182248500Y-90453700D01*
X182248500Y-90453700D02*
X182248500Y-95753700D01*
X182248500Y-95753700D02*
X200148500Y-95753700D01*
X200148500Y-95753700D02*
X200148500Y-94103700D01*
G04 #@! TO.C,R3*
D11*
X198791533Y-77721720D02*
X198458200Y-77245530D01*
X198220104Y-77721720D02*
X198220104Y-76721720D01*
X198601057Y-76721720D01*
X198696295Y-76769340D01*
X198743914Y-76816959D01*
X198791533Y-76912197D01*
X198791533Y-77055054D01*
X198743914Y-77150292D01*
X198696295Y-77197911D01*
X198601057Y-77245530D01*
X198220104Y-77245530D01*
X199124866Y-76721720D02*
X199743914Y-76721720D01*
X199410580Y-77102673D01*
X199553438Y-77102673D01*
X199648676Y-77150292D01*
X199696295Y-77197911D01*
X199743914Y-77293149D01*
X199743914Y-77531244D01*
X199696295Y-77626482D01*
X199648676Y-77674101D01*
X199553438Y-77721720D01*
X199267723Y-77721720D01*
X199172485Y-77674101D01*
X199124866Y-77626482D01*
G04 #@! TO.C,R5*
X187950813Y-77759820D02*
X187617480Y-77283630D01*
X187379384Y-77759820D02*
X187379384Y-76759820D01*
X187760337Y-76759820D01*
X187855575Y-76807440D01*
X187903194Y-76855059D01*
X187950813Y-76950297D01*
X187950813Y-77093154D01*
X187903194Y-77188392D01*
X187855575Y-77236011D01*
X187760337Y-77283630D01*
X187379384Y-77283630D01*
X188855575Y-76759820D02*
X188379384Y-76759820D01*
X188331765Y-77236011D01*
X188379384Y-77188392D01*
X188474622Y-77140773D01*
X188712718Y-77140773D01*
X188807956Y-77188392D01*
X188855575Y-77236011D01*
X188903194Y-77331249D01*
X188903194Y-77569344D01*
X188855575Y-77664582D01*
X188807956Y-77712201D01*
X188712718Y-77759820D01*
X188474622Y-77759820D01*
X188379384Y-77712201D01*
X188331765Y-77664582D01*
G04 #@! TO.C,MK1*
X216114476Y-72329300D02*
X216114476Y-71329300D01*
X216447809Y-72043586D01*
X216781142Y-71329300D01*
X216781142Y-72329300D01*
X217257333Y-72329300D02*
X217257333Y-71329300D01*
X217828761Y-72329300D02*
X217400190Y-71757872D01*
X217828761Y-71329300D02*
X217257333Y-71900729D01*
X218781142Y-72329300D02*
X218209714Y-72329300D01*
X218495428Y-72329300D02*
X218495428Y-71329300D01*
X218400190Y-71472158D01*
X218304952Y-71567396D01*
X218209714Y-71615015D01*
G04 #@! TO.C,RV1*
X133420241Y-68585340D02*
X133086908Y-68109150D01*
X132848813Y-68585340D02*
X132848813Y-67585340D01*
X133229765Y-67585340D01*
X133325003Y-67632960D01*
X133372622Y-67680579D01*
X133420241Y-67775817D01*
X133420241Y-67918674D01*
X133372622Y-68013912D01*
X133325003Y-68061531D01*
X133229765Y-68109150D01*
X132848813Y-68109150D01*
X133705956Y-67585340D02*
X134039289Y-68585340D01*
X134372622Y-67585340D01*
X135229765Y-68585340D02*
X134658337Y-68585340D01*
X134944051Y-68585340D02*
X134944051Y-67585340D01*
X134848813Y-67728198D01*
X134753575Y-67823436D01*
X134658337Y-67871055D01*
G04 #@! TO.C,SW1*
X132773586Y-91674581D02*
X132916443Y-91722200D01*
X133154539Y-91722200D01*
X133249777Y-91674581D01*
X133297396Y-91626962D01*
X133345015Y-91531724D01*
X133345015Y-91436486D01*
X133297396Y-91341248D01*
X133249777Y-91293629D01*
X133154539Y-91246010D01*
X132964062Y-91198391D01*
X132868824Y-91150772D01*
X132821205Y-91103153D01*
X132773586Y-91007915D01*
X132773586Y-90912677D01*
X132821205Y-90817439D01*
X132868824Y-90769820D01*
X132964062Y-90722200D01*
X133202158Y-90722200D01*
X133345015Y-90769820D01*
X133678348Y-90722200D02*
X133916443Y-91722200D01*
X134106920Y-91007915D01*
X134297396Y-91722200D01*
X134535491Y-90722200D01*
X135440253Y-91722200D02*
X134868824Y-91722200D01*
X135154539Y-91722200D02*
X135154539Y-90722200D01*
X135059300Y-90865058D01*
X134964062Y-90960296D01*
X134868824Y-91007915D01*
G04 #@! TO.C,J2*
X133618646Y-77580240D02*
X133618646Y-78294526D01*
X133571027Y-78437383D01*
X133475789Y-78532621D01*
X133332932Y-78580240D01*
X133237694Y-78580240D01*
X134047218Y-77675479D02*
X134094837Y-77627860D01*
X134190075Y-77580240D01*
X134428170Y-77580240D01*
X134523408Y-77627860D01*
X134571027Y-77675479D01*
X134618646Y-77770717D01*
X134618646Y-77865955D01*
X134571027Y-78008812D01*
X133999599Y-78580240D01*
X134618646Y-78580240D01*
G04 #@! TO.C,R6*
X182400913Y-77772520D02*
X182067580Y-77296330D01*
X181829484Y-77772520D02*
X181829484Y-76772520D01*
X182210437Y-76772520D01*
X182305675Y-76820140D01*
X182353294Y-76867759D01*
X182400913Y-76962997D01*
X182400913Y-77105854D01*
X182353294Y-77201092D01*
X182305675Y-77248711D01*
X182210437Y-77296330D01*
X181829484Y-77296330D01*
X183258056Y-76772520D02*
X183067580Y-76772520D01*
X182972341Y-76820140D01*
X182924722Y-76867759D01*
X182829484Y-77010616D01*
X182781865Y-77201092D01*
X182781865Y-77582044D01*
X182829484Y-77677282D01*
X182877103Y-77724901D01*
X182972341Y-77772520D01*
X183162818Y-77772520D01*
X183258056Y-77724901D01*
X183305675Y-77677282D01*
X183353294Y-77582044D01*
X183353294Y-77343949D01*
X183305675Y-77248711D01*
X183258056Y-77201092D01*
X183162818Y-77153473D01*
X182972341Y-77153473D01*
X182877103Y-77201092D01*
X182829484Y-77248711D01*
X182781865Y-77343949D01*
G04 #@! TO.C,C6*
X178537573Y-83366882D02*
X178489954Y-83414501D01*
X178347097Y-83462120D01*
X178251859Y-83462120D01*
X178109001Y-83414501D01*
X178013763Y-83319263D01*
X177966144Y-83224025D01*
X177918525Y-83033549D01*
X177918525Y-82890692D01*
X177966144Y-82700216D01*
X178013763Y-82604978D01*
X178109001Y-82509740D01*
X178251859Y-82462120D01*
X178347097Y-82462120D01*
X178489954Y-82509740D01*
X178537573Y-82557359D01*
X179394716Y-82462120D02*
X179204240Y-82462120D01*
X179109001Y-82509740D01*
X179061382Y-82557359D01*
X178966144Y-82700216D01*
X178918525Y-82890692D01*
X178918525Y-83271644D01*
X178966144Y-83366882D01*
X179013763Y-83414501D01*
X179109001Y-83462120D01*
X179299478Y-83462120D01*
X179394716Y-83414501D01*
X179442335Y-83366882D01*
X179489954Y-83271644D01*
X179489954Y-83033549D01*
X179442335Y-82938311D01*
X179394716Y-82890692D01*
X179299478Y-82843073D01*
X179109001Y-82843073D01*
X179013763Y-82890692D01*
X178966144Y-82938311D01*
X178918525Y-83033549D01*
G04 #@! TO.C,U2*
X140520515Y-76935080D02*
X140520515Y-77744604D01*
X140568134Y-77839842D01*
X140615753Y-77887461D01*
X140710991Y-77935080D01*
X140901467Y-77935080D01*
X140996705Y-77887461D01*
X141044324Y-77839842D01*
X141091943Y-77744604D01*
X141091943Y-76935080D01*
X141520515Y-77030319D02*
X141568134Y-76982700D01*
X141663372Y-76935080D01*
X141901467Y-76935080D01*
X141996705Y-76982700D01*
X142044324Y-77030319D01*
X142091943Y-77125557D01*
X142091943Y-77220795D01*
X142044324Y-77363652D01*
X141472896Y-77935080D01*
X142091943Y-77935080D01*
G04 #@! TO.C,R2*
X193447373Y-77731880D02*
X193114040Y-77255690D01*
X192875944Y-77731880D02*
X192875944Y-76731880D01*
X193256897Y-76731880D01*
X193352135Y-76779500D01*
X193399754Y-76827119D01*
X193447373Y-76922357D01*
X193447373Y-77065214D01*
X193399754Y-77160452D01*
X193352135Y-77208071D01*
X193256897Y-77255690D01*
X192875944Y-77255690D01*
X193828325Y-76827119D02*
X193875944Y-76779500D01*
X193971182Y-76731880D01*
X194209278Y-76731880D01*
X194304516Y-76779500D01*
X194352135Y-76827119D01*
X194399754Y-76922357D01*
X194399754Y-77017595D01*
X194352135Y-77160452D01*
X193780706Y-77731880D01*
X194399754Y-77731880D01*
G04 #@! TO.C,C1*
X197935013Y-68854862D02*
X197887394Y-68902481D01*
X197744537Y-68950100D01*
X197649299Y-68950100D01*
X197506441Y-68902481D01*
X197411203Y-68807243D01*
X197363584Y-68712005D01*
X197315965Y-68521529D01*
X197315965Y-68378672D01*
X197363584Y-68188196D01*
X197411203Y-68092958D01*
X197506441Y-67997720D01*
X197649299Y-67950100D01*
X197744537Y-67950100D01*
X197887394Y-67997720D01*
X197935013Y-68045339D01*
X198887394Y-68950100D02*
X198315965Y-68950100D01*
X198601680Y-68950100D02*
X198601680Y-67950100D01*
X198506441Y-68092958D01*
X198411203Y-68188196D01*
X198315965Y-68235815D01*
G04 #@! TO.C,C8*
X140447733Y-96767922D02*
X140400114Y-96815541D01*
X140257257Y-96863160D01*
X140162019Y-96863160D01*
X140019161Y-96815541D01*
X139923923Y-96720303D01*
X139876304Y-96625065D01*
X139828685Y-96434589D01*
X139828685Y-96291732D01*
X139876304Y-96101256D01*
X139923923Y-96006018D01*
X140019161Y-95910780D01*
X140162019Y-95863160D01*
X140257257Y-95863160D01*
X140400114Y-95910780D01*
X140447733Y-95958399D01*
X141019161Y-96291732D02*
X140923923Y-96244113D01*
X140876304Y-96196494D01*
X140828685Y-96101256D01*
X140828685Y-96053637D01*
X140876304Y-95958399D01*
X140923923Y-95910780D01*
X141019161Y-95863160D01*
X141209638Y-95863160D01*
X141304876Y-95910780D01*
X141352495Y-95958399D01*
X141400114Y-96053637D01*
X141400114Y-96101256D01*
X141352495Y-96196494D01*
X141304876Y-96244113D01*
X141209638Y-96291732D01*
X141019161Y-96291732D01*
X140923923Y-96339351D01*
X140876304Y-96386970D01*
X140828685Y-96482208D01*
X140828685Y-96672684D01*
X140876304Y-96767922D01*
X140923923Y-96815541D01*
X141019161Y-96863160D01*
X141209638Y-96863160D01*
X141304876Y-96815541D01*
X141352495Y-96767922D01*
X141400114Y-96672684D01*
X141400114Y-96482208D01*
X141352495Y-96386970D01*
X141304876Y-96339351D01*
X141209638Y-96291732D01*
G04 #@! TO.C,R8*
X144405053Y-93500200D02*
X144071720Y-93024010D01*
X143833624Y-93500200D02*
X143833624Y-92500200D01*
X144214577Y-92500200D01*
X144309815Y-92547820D01*
X144357434Y-92595439D01*
X144405053Y-92690677D01*
X144405053Y-92833534D01*
X144357434Y-92928772D01*
X144309815Y-92976391D01*
X144214577Y-93024010D01*
X143833624Y-93024010D01*
X144976481Y-92928772D02*
X144881243Y-92881153D01*
X144833624Y-92833534D01*
X144786005Y-92738296D01*
X144786005Y-92690677D01*
X144833624Y-92595439D01*
X144881243Y-92547820D01*
X144976481Y-92500200D01*
X145166958Y-92500200D01*
X145262196Y-92547820D01*
X145309815Y-92595439D01*
X145357434Y-92690677D01*
X145357434Y-92738296D01*
X145309815Y-92833534D01*
X145262196Y-92881153D01*
X145166958Y-92928772D01*
X144976481Y-92928772D01*
X144881243Y-92976391D01*
X144833624Y-93024010D01*
X144786005Y-93119248D01*
X144786005Y-93309724D01*
X144833624Y-93404962D01*
X144881243Y-93452581D01*
X144976481Y-93500200D01*
X145166958Y-93500200D01*
X145262196Y-93452581D01*
X145309815Y-93404962D01*
X145357434Y-93309724D01*
X145357434Y-93119248D01*
X145309815Y-93024010D01*
X145262196Y-92976391D01*
X145166958Y-92928772D01*
G04 #@! TO.C,R7*
X169109093Y-73551040D02*
X168775760Y-73074850D01*
X168537664Y-73551040D02*
X168537664Y-72551040D01*
X168918617Y-72551040D01*
X169013855Y-72598660D01*
X169061474Y-72646279D01*
X169109093Y-72741517D01*
X169109093Y-72884374D01*
X169061474Y-72979612D01*
X169013855Y-73027231D01*
X168918617Y-73074850D01*
X168537664Y-73074850D01*
X169442426Y-72551040D02*
X170109093Y-72551040D01*
X169680521Y-73551040D01*
G04 #@! TO.C,L1*
X153597313Y-74551800D02*
X153121122Y-74551800D01*
X153121122Y-73551800D01*
X154454456Y-74551800D02*
X153883027Y-74551800D01*
X154168741Y-74551800D02*
X154168741Y-73551800D01*
X154073503Y-73694658D01*
X153978265Y-73789896D01*
X153883027Y-73837515D01*
G04 #@! TO.C,C3*
X162362853Y-74456562D02*
X162315234Y-74504181D01*
X162172377Y-74551800D01*
X162077139Y-74551800D01*
X161934281Y-74504181D01*
X161839043Y-74408943D01*
X161791424Y-74313705D01*
X161743805Y-74123229D01*
X161743805Y-73980372D01*
X161791424Y-73789896D01*
X161839043Y-73694658D01*
X161934281Y-73599420D01*
X162077139Y-73551800D01*
X162172377Y-73551800D01*
X162315234Y-73599420D01*
X162362853Y-73647039D01*
X162696186Y-73551800D02*
X163315234Y-73551800D01*
X162981900Y-73932753D01*
X163124758Y-73932753D01*
X163219996Y-73980372D01*
X163267615Y-74027991D01*
X163315234Y-74123229D01*
X163315234Y-74361324D01*
X163267615Y-74456562D01*
X163219996Y-74504181D01*
X163124758Y-74551800D01*
X162839043Y-74551800D01*
X162743805Y-74504181D01*
X162696186Y-74456562D01*
G04 #@! TO.C,J1*
X213257806Y-84633820D02*
X213257806Y-85348106D01*
X213210187Y-85490963D01*
X213114949Y-85586201D01*
X212972092Y-85633820D01*
X212876854Y-85633820D01*
X214257806Y-85633820D02*
X213686378Y-85633820D01*
X213972092Y-85633820D02*
X213972092Y-84633820D01*
X213876854Y-84776678D01*
X213781616Y-84871916D01*
X213686378Y-84919535D01*
G04 #@! TO.C,Y1*
X162302249Y-100161410D02*
X162302249Y-100637600D01*
X161968916Y-99637600D02*
X162302249Y-100161410D01*
X162635582Y-99637600D01*
X163492725Y-100637600D02*
X162921297Y-100637600D01*
X163207011Y-100637600D02*
X163207011Y-99637600D01*
X163111773Y-99780458D01*
X163016535Y-99875696D01*
X162921297Y-99923315D01*
G04 #@! TO.C,C5*
X160076213Y-93443062D02*
X160028594Y-93490681D01*
X159885737Y-93538300D01*
X159790499Y-93538300D01*
X159647641Y-93490681D01*
X159552403Y-93395443D01*
X159504784Y-93300205D01*
X159457165Y-93109729D01*
X159457165Y-92966872D01*
X159504784Y-92776396D01*
X159552403Y-92681158D01*
X159647641Y-92585920D01*
X159790499Y-92538300D01*
X159885737Y-92538300D01*
X160028594Y-92585920D01*
X160076213Y-92633539D01*
X160980975Y-92538300D02*
X160504784Y-92538300D01*
X160457165Y-93014491D01*
X160504784Y-92966872D01*
X160600022Y-92919253D01*
X160838118Y-92919253D01*
X160933356Y-92966872D01*
X160980975Y-93014491D01*
X161028594Y-93109729D01*
X161028594Y-93347824D01*
X160980975Y-93443062D01*
X160933356Y-93490681D01*
X160838118Y-93538300D01*
X160600022Y-93538300D01*
X160504784Y-93490681D01*
X160457165Y-93443062D01*
G04 #@! TO.C,C7*
X165167653Y-93382102D02*
X165120034Y-93429721D01*
X164977177Y-93477340D01*
X164881939Y-93477340D01*
X164739081Y-93429721D01*
X164643843Y-93334483D01*
X164596224Y-93239245D01*
X164548605Y-93048769D01*
X164548605Y-92905912D01*
X164596224Y-92715436D01*
X164643843Y-92620198D01*
X164739081Y-92524960D01*
X164881939Y-92477340D01*
X164977177Y-92477340D01*
X165120034Y-92524960D01*
X165167653Y-92572579D01*
X165500986Y-92477340D02*
X166167653Y-92477340D01*
X165739081Y-93477340D01*
G04 #@! TO.C,J3*
X143237626Y-67836800D02*
X143237626Y-68551086D01*
X143190007Y-68693943D01*
X143094769Y-68789181D01*
X142951912Y-68836800D01*
X142856674Y-68836800D01*
X143618579Y-67836800D02*
X144237626Y-67836800D01*
X143904293Y-68217753D01*
X144047150Y-68217753D01*
X144142388Y-68265372D01*
X144190007Y-68312991D01*
X144237626Y-68408229D01*
X144237626Y-68646324D01*
X144190007Y-68741562D01*
X144142388Y-68789181D01*
X144047150Y-68836800D01*
X143761436Y-68836800D01*
X143666198Y-68789181D01*
X143618579Y-68741562D01*
G04 #@! TO.C,C4*
X152639733Y-95144862D02*
X152592114Y-95192481D01*
X152449257Y-95240100D01*
X152354019Y-95240100D01*
X152211161Y-95192481D01*
X152115923Y-95097243D01*
X152068304Y-95002005D01*
X152020685Y-94811529D01*
X152020685Y-94668672D01*
X152068304Y-94478196D01*
X152115923Y-94382958D01*
X152211161Y-94287720D01*
X152354019Y-94240100D01*
X152449257Y-94240100D01*
X152592114Y-94287720D01*
X152639733Y-94335339D01*
X153496876Y-94573434D02*
X153496876Y-95240100D01*
X153258780Y-94192481D02*
X153020685Y-94906767D01*
X153639733Y-94906767D01*
G04 #@! TO.C,C2*
X155903633Y-95162642D02*
X155856014Y-95210261D01*
X155713157Y-95257880D01*
X155617919Y-95257880D01*
X155475061Y-95210261D01*
X155379823Y-95115023D01*
X155332204Y-95019785D01*
X155284585Y-94829309D01*
X155284585Y-94686452D01*
X155332204Y-94495976D01*
X155379823Y-94400738D01*
X155475061Y-94305500D01*
X155617919Y-94257880D01*
X155713157Y-94257880D01*
X155856014Y-94305500D01*
X155903633Y-94353119D01*
X156284585Y-94353119D02*
X156332204Y-94305500D01*
X156427442Y-94257880D01*
X156665538Y-94257880D01*
X156760776Y-94305500D01*
X156808395Y-94353119D01*
X156856014Y-94448357D01*
X156856014Y-94543595D01*
X156808395Y-94686452D01*
X156236966Y-95257880D01*
X156856014Y-95257880D01*
G04 #@! TO.C,R4*
X209736393Y-77744580D02*
X209403060Y-77268390D01*
X209164964Y-77744580D02*
X209164964Y-76744580D01*
X209545917Y-76744580D01*
X209641155Y-76792200D01*
X209688774Y-76839819D01*
X209736393Y-76935057D01*
X209736393Y-77077914D01*
X209688774Y-77173152D01*
X209641155Y-77220771D01*
X209545917Y-77268390D01*
X209164964Y-77268390D01*
X210593536Y-77077914D02*
X210593536Y-77744580D01*
X210355440Y-76696961D02*
X210117345Y-77411247D01*
X210736393Y-77411247D01*
G04 #@! TO.C,R1*
X204168713Y-77691240D02*
X203835380Y-77215050D01*
X203597284Y-77691240D02*
X203597284Y-76691240D01*
X203978237Y-76691240D01*
X204073475Y-76738860D01*
X204121094Y-76786479D01*
X204168713Y-76881717D01*
X204168713Y-77024574D01*
X204121094Y-77119812D01*
X204073475Y-77167431D01*
X203978237Y-77215050D01*
X203597284Y-77215050D01*
X205121094Y-77691240D02*
X204549665Y-77691240D01*
X204835380Y-77691240D02*
X204835380Y-76691240D01*
X204740141Y-76834098D01*
X204644903Y-76929336D01*
X204549665Y-76976955D01*
G04 #@! TO.C,*
G04 #@! TO.C,C9*
X183665833Y-86666342D02*
X183618214Y-86713961D01*
X183475357Y-86761580D01*
X183380119Y-86761580D01*
X183237261Y-86713961D01*
X183142023Y-86618723D01*
X183094404Y-86523485D01*
X183046785Y-86333009D01*
X183046785Y-86190152D01*
X183094404Y-85999676D01*
X183142023Y-85904438D01*
X183237261Y-85809200D01*
X183380119Y-85761580D01*
X183475357Y-85761580D01*
X183618214Y-85809200D01*
X183665833Y-85856819D01*
X184142023Y-86761580D02*
X184332500Y-86761580D01*
X184427738Y-86713961D01*
X184475357Y-86666342D01*
X184570595Y-86523485D01*
X184618214Y-86333009D01*
X184618214Y-85952057D01*
X184570595Y-85856819D01*
X184522976Y-85809200D01*
X184427738Y-85761580D01*
X184237261Y-85761580D01*
X184142023Y-85809200D01*
X184094404Y-85856819D01*
X184046785Y-85952057D01*
X184046785Y-86190152D01*
X184094404Y-86285390D01*
X184142023Y-86333009D01*
X184237261Y-86380628D01*
X184427738Y-86380628D01*
X184522976Y-86333009D01*
X184570595Y-86285390D01*
X184618214Y-86190152D01*
G04 #@! TO.C,C10*
X195838842Y-86818742D02*
X195791223Y-86866361D01*
X195648366Y-86913980D01*
X195553128Y-86913980D01*
X195410271Y-86866361D01*
X195315033Y-86771123D01*
X195267414Y-86675885D01*
X195219795Y-86485409D01*
X195219795Y-86342552D01*
X195267414Y-86152076D01*
X195315033Y-86056838D01*
X195410271Y-85961600D01*
X195553128Y-85913980D01*
X195648366Y-85913980D01*
X195791223Y-85961600D01*
X195838842Y-86009219D01*
X196791223Y-86913980D02*
X196219795Y-86913980D01*
X196505509Y-86913980D02*
X196505509Y-85913980D01*
X196410271Y-86056838D01*
X196315033Y-86152076D01*
X196219795Y-86199695D01*
X197410271Y-85913980D02*
X197505509Y-85913980D01*
X197600747Y-85961600D01*
X197648366Y-86009219D01*
X197695985Y-86104457D01*
X197743604Y-86294933D01*
X197743604Y-86533028D01*
X197695985Y-86723504D01*
X197648366Y-86818742D01*
X197600747Y-86866361D01*
X197505509Y-86913980D01*
X197410271Y-86913980D01*
X197315033Y-86866361D01*
X197267414Y-86818742D01*
X197219795Y-86723504D01*
X197172176Y-86533028D01*
X197172176Y-86294933D01*
X197219795Y-86104457D01*
X197267414Y-86009219D01*
X197315033Y-85961600D01*
X197410271Y-85913980D01*
G04 #@! TO.C,U1*
X201269695Y-92733880D02*
X201269695Y-93543404D01*
X201317314Y-93638642D01*
X201364933Y-93686261D01*
X201460171Y-93733880D01*
X201650647Y-93733880D01*
X201745885Y-93686261D01*
X201793504Y-93638642D01*
X201841123Y-93543404D01*
X201841123Y-92733880D01*
X202841123Y-93733880D02*
X202269695Y-93733880D01*
X202555409Y-93733880D02*
X202555409Y-92733880D01*
X202460171Y-92876738D01*
X202364933Y-92971976D01*
X202269695Y-93019595D01*
G04 #@! TD*
M02*
