M48
;DRILL file {KiCad (5.0.2)-1} date 5/19/2019 15:53:01
;FORMAT={-:-/ absolute / metric / decimal}
FMAT,2
METRIC,TZ
T1C0.400
T2C0.800
T3C1.000
T4C1.100
T5C2.500
%
G90
G05
T1
X159.184Y-84.709
X207.688Y-89.403
T2
X196.281Y-72.636
X196.281Y-82.796
X139.552Y-93.965
X142.052Y-93.965
X160.345Y-96.627
X165.245Y-96.627
X191.224Y-86.322
X193.724Y-86.322
X164.054Y-90.775
X166.554Y-90.775
X159.024Y-90.8
X161.524Y-90.8
X148.59Y-76.561
X158.75Y-76.561
X156.215Y-90.094
X156.215Y-92.594
X207.Y-72.408
X207.Y-82.568
X200.513Y-68.499
X203.013Y-68.499
X186.209Y-86.309
X188.709Y-86.309
X161.524Y-76.566
X164.024Y-76.566
X212.601Y-72.446
X212.601Y-82.606
X201.552Y-72.484
X201.552Y-82.644
X183.578Y-89.294
X183.578Y-96.914
X186.118Y-89.294
X186.118Y-96.914
X188.659Y-89.294
X188.659Y-96.914
X191.198Y-89.294
X191.198Y-96.914
X193.738Y-89.294
X193.738Y-96.914
X196.278Y-89.294
X196.278Y-96.914
X198.819Y-89.294
X198.819Y-96.914
X190.833Y-72.636
X190.833Y-82.796
X152.847Y-90.094
X152.847Y-92.594
X185.29Y-72.616
X185.29Y-82.776
X171.602Y-73.03
X181.762Y-73.03
X181.402Y-80.284
X181.402Y-82.784
X141.199Y-79.87
X141.199Y-87.49
X143.739Y-79.87
X143.739Y-87.49
X146.279Y-79.87
X146.279Y-87.49
X148.819Y-79.87
X148.819Y-87.49
X151.359Y-79.87
X151.359Y-87.49
X153.899Y-79.87
X153.899Y-87.49
X156.439Y-79.87
X156.439Y-87.49
X158.979Y-79.87
X158.979Y-87.49
X161.519Y-79.87
X161.519Y-87.49
X164.059Y-79.87
X164.059Y-87.49
X166.599Y-79.87
X166.599Y-87.49
X169.139Y-79.87
X169.139Y-87.49
X171.679Y-79.87
X171.679Y-87.49
X174.219Y-79.87
X174.219Y-87.49
X139.563Y-90.648
X149.723Y-90.648
T3
X217.451Y-76.449
X217.451Y-78.949
X131.498Y-75.488
X133.998Y-70.488
X136.498Y-75.488
X146.197Y-68.402
X148.737Y-68.402
X151.277Y-68.402
X153.817Y-68.402
X156.357Y-68.402
X158.897Y-68.402
X161.437Y-68.402
X163.977Y-68.402
X166.517Y-68.402
X169.057Y-68.402
X171.597Y-68.402
X174.137Y-68.402
X176.677Y-68.402
X179.217Y-68.402
X181.757Y-68.402
X184.297Y-68.402
X132.773Y-80.952
X132.773Y-83.492
X132.773Y-86.032
X135.313Y-80.952
X135.313Y-83.492
X135.313Y-86.032
T4
X131.868Y-93.967
X131.868Y-100.467
X136.368Y-93.967
X136.368Y-100.467
T5
X215.697Y-99.314
X140.716Y-68.326
X140.703Y-99.327
X215.697Y-68.326
T0
M30
