G04 #@! TF.GenerationSoftware,KiCad,Pcbnew,(5.0.2)-1*
G04 #@! TF.CreationDate,2019-05-19T15:52:53+03:00*
G04 #@! TF.ProjectId,Skanas_frekvences_noteiksana,536b616e-6173-45f6-9672-656b76656e63,rev?*
G04 #@! TF.SameCoordinates,Original*
G04 #@! TF.FileFunction,Soldermask,Bot*
G04 #@! TF.FilePolarity,Negative*
%FSLAX46Y46*%
G04 Gerber Fmt 4.6, Leading zero omitted, Abs format (unit mm)*
G04 Created by KiCad (PCBNEW (5.0.2)-1) date 5/19/2019 15:52:53*
%MOMM*%
%LPD*%
G01*
G04 APERTURE LIST*
%ADD10C,0.100000*%
G04 APERTURE END LIST*
D10*
G36*
X136674085Y-99456689D02*
X136865354Y-99535915D01*
X137037496Y-99650937D01*
X137183883Y-99797324D01*
X137298905Y-99969466D01*
X137378131Y-100160735D01*
X137418520Y-100363784D01*
X137418520Y-100570816D01*
X137378131Y-100773865D01*
X137298905Y-100965134D01*
X137183883Y-101137276D01*
X137037496Y-101283663D01*
X136865354Y-101398685D01*
X136674085Y-101477911D01*
X136471036Y-101518300D01*
X136264004Y-101518300D01*
X136060955Y-101477911D01*
X135869686Y-101398685D01*
X135697544Y-101283663D01*
X135551157Y-101137276D01*
X135436135Y-100965134D01*
X135356909Y-100773865D01*
X135316520Y-100570816D01*
X135316520Y-100363784D01*
X135356909Y-100160735D01*
X135436135Y-99969466D01*
X135551157Y-99797324D01*
X135697544Y-99650937D01*
X135869686Y-99535915D01*
X136060955Y-99456689D01*
X136264004Y-99416300D01*
X136471036Y-99416300D01*
X136674085Y-99456689D01*
X136674085Y-99456689D01*
G37*
G36*
X132174085Y-99456689D02*
X132365354Y-99535915D01*
X132537496Y-99650937D01*
X132683883Y-99797324D01*
X132798905Y-99969466D01*
X132878131Y-100160735D01*
X132918520Y-100363784D01*
X132918520Y-100570816D01*
X132878131Y-100773865D01*
X132798905Y-100965134D01*
X132683883Y-101137276D01*
X132537496Y-101283663D01*
X132365354Y-101398685D01*
X132174085Y-101477911D01*
X131971036Y-101518300D01*
X131764004Y-101518300D01*
X131560955Y-101477911D01*
X131369686Y-101398685D01*
X131197544Y-101283663D01*
X131051157Y-101137276D01*
X130936135Y-100965134D01*
X130856909Y-100773865D01*
X130816520Y-100570816D01*
X130816520Y-100363784D01*
X130856909Y-100160735D01*
X130936135Y-99969466D01*
X131051157Y-99797324D01*
X131197544Y-99650937D01*
X131369686Y-99535915D01*
X131560955Y-99456689D01*
X131764004Y-99416300D01*
X131971036Y-99416300D01*
X132174085Y-99456689D01*
X132174085Y-99456689D01*
G37*
G36*
X141055827Y-97815436D02*
X141155710Y-97835304D01*
X141437974Y-97952221D01*
X141692005Y-98121959D01*
X141908041Y-98337995D01*
X142077779Y-98592026D01*
X142194696Y-98874290D01*
X142194696Y-98874291D01*
X142254300Y-99173938D01*
X142254300Y-99479462D01*
X142220192Y-99650935D01*
X142194696Y-99779110D01*
X142077779Y-100061374D01*
X141908041Y-100315405D01*
X141692005Y-100531441D01*
X141437974Y-100701179D01*
X141155710Y-100818096D01*
X141055827Y-100837964D01*
X140856062Y-100877700D01*
X140550538Y-100877700D01*
X140350773Y-100837964D01*
X140250890Y-100818096D01*
X139968626Y-100701179D01*
X139714595Y-100531441D01*
X139498559Y-100315405D01*
X139328821Y-100061374D01*
X139211904Y-99779110D01*
X139186408Y-99650935D01*
X139152300Y-99479462D01*
X139152300Y-99173938D01*
X139211904Y-98874291D01*
X139211904Y-98874290D01*
X139328821Y-98592026D01*
X139498559Y-98337995D01*
X139714595Y-98121959D01*
X139968626Y-97952221D01*
X140250890Y-97835304D01*
X140350773Y-97815436D01*
X140550538Y-97775700D01*
X140856062Y-97775700D01*
X141055827Y-97815436D01*
X141055827Y-97815436D01*
G37*
G36*
X216049327Y-97802736D02*
X216149210Y-97822604D01*
X216431474Y-97939521D01*
X216685505Y-98109259D01*
X216901541Y-98325295D01*
X217071279Y-98579326D01*
X217076539Y-98592026D01*
X217188196Y-98861591D01*
X217247800Y-99161238D01*
X217247800Y-99466762D01*
X217234044Y-99535915D01*
X217188196Y-99766410D01*
X217071279Y-100048674D01*
X216901541Y-100302705D01*
X216685505Y-100518741D01*
X216431474Y-100688479D01*
X216149210Y-100805396D01*
X216049327Y-100825264D01*
X215849562Y-100865000D01*
X215544038Y-100865000D01*
X215344273Y-100825264D01*
X215244390Y-100805396D01*
X214962126Y-100688479D01*
X214708095Y-100518741D01*
X214492059Y-100302705D01*
X214322321Y-100048674D01*
X214205404Y-99766410D01*
X214159556Y-99535915D01*
X214145800Y-99466762D01*
X214145800Y-99161238D01*
X214205404Y-98861591D01*
X214317061Y-98592026D01*
X214322321Y-98579326D01*
X214492059Y-98325295D01*
X214708095Y-98109259D01*
X214962126Y-97939521D01*
X215244390Y-97822604D01*
X215344273Y-97802736D01*
X215544038Y-97763000D01*
X215849562Y-97763000D01*
X216049327Y-97802736D01*
X216049327Y-97802736D01*
G37*
G36*
X198985321Y-96075013D02*
X198985324Y-96075014D01*
X198985325Y-96075014D01*
X199145739Y-96123675D01*
X199145741Y-96123676D01*
X199145744Y-96123677D01*
X199293578Y-96202695D01*
X199423159Y-96309041D01*
X199529505Y-96438622D01*
X199608523Y-96586456D01*
X199657187Y-96746879D01*
X199673617Y-96913700D01*
X199657187Y-97080521D01*
X199608523Y-97240944D01*
X199529505Y-97388778D01*
X199423159Y-97518359D01*
X199293578Y-97624705D01*
X199145744Y-97703723D01*
X199145741Y-97703724D01*
X199145739Y-97703725D01*
X198985325Y-97752386D01*
X198985324Y-97752386D01*
X198985321Y-97752387D01*
X198860304Y-97764700D01*
X198776696Y-97764700D01*
X198651679Y-97752387D01*
X198651676Y-97752386D01*
X198651675Y-97752386D01*
X198491261Y-97703725D01*
X198491259Y-97703724D01*
X198491256Y-97703723D01*
X198343422Y-97624705D01*
X198213841Y-97518359D01*
X198107495Y-97388778D01*
X198028477Y-97240944D01*
X197979813Y-97080521D01*
X197963383Y-96913700D01*
X197979813Y-96746879D01*
X198028477Y-96586456D01*
X198107495Y-96438622D01*
X198213841Y-96309041D01*
X198343422Y-96202695D01*
X198491256Y-96123677D01*
X198491259Y-96123676D01*
X198491261Y-96123675D01*
X198651675Y-96075014D01*
X198651676Y-96075014D01*
X198651679Y-96075013D01*
X198776696Y-96062700D01*
X198860304Y-96062700D01*
X198985321Y-96075013D01*
X198985321Y-96075013D01*
G37*
G36*
X196445321Y-96075013D02*
X196445324Y-96075014D01*
X196445325Y-96075014D01*
X196605739Y-96123675D01*
X196605741Y-96123676D01*
X196605744Y-96123677D01*
X196753578Y-96202695D01*
X196883159Y-96309041D01*
X196989505Y-96438622D01*
X197068523Y-96586456D01*
X197117187Y-96746879D01*
X197133617Y-96913700D01*
X197117187Y-97080521D01*
X197068523Y-97240944D01*
X196989505Y-97388778D01*
X196883159Y-97518359D01*
X196753578Y-97624705D01*
X196605744Y-97703723D01*
X196605741Y-97703724D01*
X196605739Y-97703725D01*
X196445325Y-97752386D01*
X196445324Y-97752386D01*
X196445321Y-97752387D01*
X196320304Y-97764700D01*
X196236696Y-97764700D01*
X196111679Y-97752387D01*
X196111676Y-97752386D01*
X196111675Y-97752386D01*
X195951261Y-97703725D01*
X195951259Y-97703724D01*
X195951256Y-97703723D01*
X195803422Y-97624705D01*
X195673841Y-97518359D01*
X195567495Y-97388778D01*
X195488477Y-97240944D01*
X195439813Y-97080521D01*
X195423383Y-96913700D01*
X195439813Y-96746879D01*
X195488477Y-96586456D01*
X195567495Y-96438622D01*
X195673841Y-96309041D01*
X195803422Y-96202695D01*
X195951256Y-96123677D01*
X195951259Y-96123676D01*
X195951261Y-96123675D01*
X196111675Y-96075014D01*
X196111676Y-96075014D01*
X196111679Y-96075013D01*
X196236696Y-96062700D01*
X196320304Y-96062700D01*
X196445321Y-96075013D01*
X196445321Y-96075013D01*
G37*
G36*
X193905321Y-96075013D02*
X193905324Y-96075014D01*
X193905325Y-96075014D01*
X194065739Y-96123675D01*
X194065741Y-96123676D01*
X194065744Y-96123677D01*
X194213578Y-96202695D01*
X194343159Y-96309041D01*
X194449505Y-96438622D01*
X194528523Y-96586456D01*
X194577187Y-96746879D01*
X194593617Y-96913700D01*
X194577187Y-97080521D01*
X194528523Y-97240944D01*
X194449505Y-97388778D01*
X194343159Y-97518359D01*
X194213578Y-97624705D01*
X194065744Y-97703723D01*
X194065741Y-97703724D01*
X194065739Y-97703725D01*
X193905325Y-97752386D01*
X193905324Y-97752386D01*
X193905321Y-97752387D01*
X193780304Y-97764700D01*
X193696696Y-97764700D01*
X193571679Y-97752387D01*
X193571676Y-97752386D01*
X193571675Y-97752386D01*
X193411261Y-97703725D01*
X193411259Y-97703724D01*
X193411256Y-97703723D01*
X193263422Y-97624705D01*
X193133841Y-97518359D01*
X193027495Y-97388778D01*
X192948477Y-97240944D01*
X192899813Y-97080521D01*
X192883383Y-96913700D01*
X192899813Y-96746879D01*
X192948477Y-96586456D01*
X193027495Y-96438622D01*
X193133841Y-96309041D01*
X193263422Y-96202695D01*
X193411256Y-96123677D01*
X193411259Y-96123676D01*
X193411261Y-96123675D01*
X193571675Y-96075014D01*
X193571676Y-96075014D01*
X193571679Y-96075013D01*
X193696696Y-96062700D01*
X193780304Y-96062700D01*
X193905321Y-96075013D01*
X193905321Y-96075013D01*
G37*
G36*
X191365321Y-96075013D02*
X191365324Y-96075014D01*
X191365325Y-96075014D01*
X191525739Y-96123675D01*
X191525741Y-96123676D01*
X191525744Y-96123677D01*
X191673578Y-96202695D01*
X191803159Y-96309041D01*
X191909505Y-96438622D01*
X191988523Y-96586456D01*
X192037187Y-96746879D01*
X192053617Y-96913700D01*
X192037187Y-97080521D01*
X191988523Y-97240944D01*
X191909505Y-97388778D01*
X191803159Y-97518359D01*
X191673578Y-97624705D01*
X191525744Y-97703723D01*
X191525741Y-97703724D01*
X191525739Y-97703725D01*
X191365325Y-97752386D01*
X191365324Y-97752386D01*
X191365321Y-97752387D01*
X191240304Y-97764700D01*
X191156696Y-97764700D01*
X191031679Y-97752387D01*
X191031676Y-97752386D01*
X191031675Y-97752386D01*
X190871261Y-97703725D01*
X190871259Y-97703724D01*
X190871256Y-97703723D01*
X190723422Y-97624705D01*
X190593841Y-97518359D01*
X190487495Y-97388778D01*
X190408477Y-97240944D01*
X190359813Y-97080521D01*
X190343383Y-96913700D01*
X190359813Y-96746879D01*
X190408477Y-96586456D01*
X190487495Y-96438622D01*
X190593841Y-96309041D01*
X190723422Y-96202695D01*
X190871256Y-96123677D01*
X190871259Y-96123676D01*
X190871261Y-96123675D01*
X191031675Y-96075014D01*
X191031676Y-96075014D01*
X191031679Y-96075013D01*
X191156696Y-96062700D01*
X191240304Y-96062700D01*
X191365321Y-96075013D01*
X191365321Y-96075013D01*
G37*
G36*
X188825321Y-96075013D02*
X188825324Y-96075014D01*
X188825325Y-96075014D01*
X188985739Y-96123675D01*
X188985741Y-96123676D01*
X188985744Y-96123677D01*
X189133578Y-96202695D01*
X189263159Y-96309041D01*
X189369505Y-96438622D01*
X189448523Y-96586456D01*
X189497187Y-96746879D01*
X189513617Y-96913700D01*
X189497187Y-97080521D01*
X189448523Y-97240944D01*
X189369505Y-97388778D01*
X189263159Y-97518359D01*
X189133578Y-97624705D01*
X188985744Y-97703723D01*
X188985741Y-97703724D01*
X188985739Y-97703725D01*
X188825325Y-97752386D01*
X188825324Y-97752386D01*
X188825321Y-97752387D01*
X188700304Y-97764700D01*
X188616696Y-97764700D01*
X188491679Y-97752387D01*
X188491676Y-97752386D01*
X188491675Y-97752386D01*
X188331261Y-97703725D01*
X188331259Y-97703724D01*
X188331256Y-97703723D01*
X188183422Y-97624705D01*
X188053841Y-97518359D01*
X187947495Y-97388778D01*
X187868477Y-97240944D01*
X187819813Y-97080521D01*
X187803383Y-96913700D01*
X187819813Y-96746879D01*
X187868477Y-96586456D01*
X187947495Y-96438622D01*
X188053841Y-96309041D01*
X188183422Y-96202695D01*
X188331256Y-96123677D01*
X188331259Y-96123676D01*
X188331261Y-96123675D01*
X188491675Y-96075014D01*
X188491676Y-96075014D01*
X188491679Y-96075013D01*
X188616696Y-96062700D01*
X188700304Y-96062700D01*
X188825321Y-96075013D01*
X188825321Y-96075013D01*
G37*
G36*
X186285321Y-96075013D02*
X186285324Y-96075014D01*
X186285325Y-96075014D01*
X186445739Y-96123675D01*
X186445741Y-96123676D01*
X186445744Y-96123677D01*
X186593578Y-96202695D01*
X186723159Y-96309041D01*
X186829505Y-96438622D01*
X186908523Y-96586456D01*
X186957187Y-96746879D01*
X186973617Y-96913700D01*
X186957187Y-97080521D01*
X186908523Y-97240944D01*
X186829505Y-97388778D01*
X186723159Y-97518359D01*
X186593578Y-97624705D01*
X186445744Y-97703723D01*
X186445741Y-97703724D01*
X186445739Y-97703725D01*
X186285325Y-97752386D01*
X186285324Y-97752386D01*
X186285321Y-97752387D01*
X186160304Y-97764700D01*
X186076696Y-97764700D01*
X185951679Y-97752387D01*
X185951676Y-97752386D01*
X185951675Y-97752386D01*
X185791261Y-97703725D01*
X185791259Y-97703724D01*
X185791256Y-97703723D01*
X185643422Y-97624705D01*
X185513841Y-97518359D01*
X185407495Y-97388778D01*
X185328477Y-97240944D01*
X185279813Y-97080521D01*
X185263383Y-96913700D01*
X185279813Y-96746879D01*
X185328477Y-96586456D01*
X185407495Y-96438622D01*
X185513841Y-96309041D01*
X185643422Y-96202695D01*
X185791256Y-96123677D01*
X185791259Y-96123676D01*
X185791261Y-96123675D01*
X185951675Y-96075014D01*
X185951676Y-96075014D01*
X185951679Y-96075013D01*
X186076696Y-96062700D01*
X186160304Y-96062700D01*
X186285321Y-96075013D01*
X186285321Y-96075013D01*
G37*
G36*
X183745321Y-96075013D02*
X183745324Y-96075014D01*
X183745325Y-96075014D01*
X183905739Y-96123675D01*
X183905741Y-96123676D01*
X183905744Y-96123677D01*
X184053578Y-96202695D01*
X184183159Y-96309041D01*
X184289505Y-96438622D01*
X184368523Y-96586456D01*
X184417187Y-96746879D01*
X184433617Y-96913700D01*
X184417187Y-97080521D01*
X184368523Y-97240944D01*
X184289505Y-97388778D01*
X184183159Y-97518359D01*
X184053578Y-97624705D01*
X183905744Y-97703723D01*
X183905741Y-97703724D01*
X183905739Y-97703725D01*
X183745325Y-97752386D01*
X183745324Y-97752386D01*
X183745321Y-97752387D01*
X183620304Y-97764700D01*
X183536696Y-97764700D01*
X183411679Y-97752387D01*
X183411676Y-97752386D01*
X183411675Y-97752386D01*
X183251261Y-97703725D01*
X183251259Y-97703724D01*
X183251256Y-97703723D01*
X183103422Y-97624705D01*
X182973841Y-97518359D01*
X182867495Y-97388778D01*
X182788477Y-97240944D01*
X182739813Y-97080521D01*
X182723383Y-96913700D01*
X182739813Y-96746879D01*
X182788477Y-96586456D01*
X182867495Y-96438622D01*
X182973841Y-96309041D01*
X183103422Y-96202695D01*
X183251256Y-96123677D01*
X183251259Y-96123676D01*
X183251261Y-96123675D01*
X183411675Y-96075014D01*
X183411676Y-96075014D01*
X183411679Y-96075013D01*
X183536696Y-96062700D01*
X183620304Y-96062700D01*
X183745321Y-96075013D01*
X183745321Y-96075013D01*
G37*
G36*
X160578763Y-95856461D02*
X160724535Y-95916842D01*
X160855731Y-96004504D01*
X160967296Y-96116069D01*
X161054958Y-96247265D01*
X161115339Y-96393037D01*
X161146120Y-96547787D01*
X161146120Y-96705573D01*
X161115339Y-96860323D01*
X161054958Y-97006095D01*
X160967296Y-97137291D01*
X160855731Y-97248856D01*
X160724535Y-97336518D01*
X160578763Y-97396899D01*
X160424013Y-97427680D01*
X160266227Y-97427680D01*
X160111477Y-97396899D01*
X159965705Y-97336518D01*
X159834509Y-97248856D01*
X159722944Y-97137291D01*
X159635282Y-97006095D01*
X159574901Y-96860323D01*
X159544120Y-96705573D01*
X159544120Y-96547787D01*
X159574901Y-96393037D01*
X159635282Y-96247265D01*
X159722944Y-96116069D01*
X159834509Y-96004504D01*
X159965705Y-95916842D01*
X160111477Y-95856461D01*
X160266227Y-95825680D01*
X160424013Y-95825680D01*
X160578763Y-95856461D01*
X160578763Y-95856461D01*
G37*
G36*
X165478763Y-95856461D02*
X165624535Y-95916842D01*
X165755731Y-96004504D01*
X165867296Y-96116069D01*
X165954958Y-96247265D01*
X166015339Y-96393037D01*
X166046120Y-96547787D01*
X166046120Y-96705573D01*
X166015339Y-96860323D01*
X165954958Y-97006095D01*
X165867296Y-97137291D01*
X165755731Y-97248856D01*
X165624535Y-97336518D01*
X165478763Y-97396899D01*
X165324013Y-97427680D01*
X165166227Y-97427680D01*
X165011477Y-97396899D01*
X164865705Y-97336518D01*
X164734509Y-97248856D01*
X164622944Y-97137291D01*
X164535282Y-97006095D01*
X164474901Y-96860323D01*
X164444120Y-96705573D01*
X164444120Y-96547787D01*
X164474901Y-96393037D01*
X164535282Y-96247265D01*
X164622944Y-96116069D01*
X164734509Y-96004504D01*
X164865705Y-95916842D01*
X165011477Y-95856461D01*
X165166227Y-95825680D01*
X165324013Y-95825680D01*
X165478763Y-95856461D01*
X165478763Y-95856461D01*
G37*
G36*
X136674085Y-92956689D02*
X136865354Y-93035915D01*
X137037496Y-93150937D01*
X137183883Y-93297324D01*
X137298905Y-93469466D01*
X137378131Y-93660735D01*
X137418520Y-93863784D01*
X137418520Y-94070816D01*
X137378131Y-94273865D01*
X137298905Y-94465134D01*
X137183883Y-94637276D01*
X137037496Y-94783663D01*
X136865354Y-94898685D01*
X136674085Y-94977911D01*
X136471036Y-95018300D01*
X136264004Y-95018300D01*
X136060955Y-94977911D01*
X135869686Y-94898685D01*
X135697544Y-94783663D01*
X135551157Y-94637276D01*
X135436135Y-94465134D01*
X135356909Y-94273865D01*
X135316520Y-94070816D01*
X135316520Y-93863784D01*
X135356909Y-93660735D01*
X135436135Y-93469466D01*
X135551157Y-93297324D01*
X135697544Y-93150937D01*
X135869686Y-93035915D01*
X136060955Y-92956689D01*
X136264004Y-92916300D01*
X136471036Y-92916300D01*
X136674085Y-92956689D01*
X136674085Y-92956689D01*
G37*
G36*
X132174085Y-92956689D02*
X132365354Y-93035915D01*
X132537496Y-93150937D01*
X132683883Y-93297324D01*
X132798905Y-93469466D01*
X132878131Y-93660735D01*
X132918520Y-93863784D01*
X132918520Y-94070816D01*
X132878131Y-94273865D01*
X132798905Y-94465134D01*
X132683883Y-94637276D01*
X132537496Y-94783663D01*
X132365354Y-94898685D01*
X132174085Y-94977911D01*
X131971036Y-95018300D01*
X131764004Y-95018300D01*
X131560955Y-94977911D01*
X131369686Y-94898685D01*
X131197544Y-94783663D01*
X131051157Y-94637276D01*
X130936135Y-94465134D01*
X130856909Y-94273865D01*
X130816520Y-94070816D01*
X130816520Y-93863784D01*
X130856909Y-93660735D01*
X130936135Y-93469466D01*
X131051157Y-93297324D01*
X131197544Y-93150937D01*
X131369686Y-93035915D01*
X131560955Y-92956689D01*
X131764004Y-92916300D01*
X131971036Y-92916300D01*
X132174085Y-92956689D01*
X132174085Y-92956689D01*
G37*
G36*
X139800268Y-93146463D02*
X139955140Y-93210613D01*
X140094521Y-93303745D01*
X140213055Y-93422279D01*
X140306187Y-93561660D01*
X140370337Y-93716532D01*
X140403040Y-93880944D01*
X140403040Y-94048576D01*
X140370337Y-94212988D01*
X140306187Y-94367860D01*
X140213055Y-94507241D01*
X140094521Y-94625775D01*
X139955140Y-94718907D01*
X139800268Y-94783057D01*
X139635856Y-94815760D01*
X139468224Y-94815760D01*
X139303812Y-94783057D01*
X139148940Y-94718907D01*
X139009559Y-94625775D01*
X138891025Y-94507241D01*
X138797893Y-94367860D01*
X138733743Y-94212988D01*
X138701040Y-94048576D01*
X138701040Y-93880944D01*
X138733743Y-93716532D01*
X138797893Y-93561660D01*
X138891025Y-93422279D01*
X139009559Y-93303745D01*
X139148940Y-93210613D01*
X139303812Y-93146463D01*
X139468224Y-93113760D01*
X139635856Y-93113760D01*
X139800268Y-93146463D01*
X139800268Y-93146463D01*
G37*
G36*
X142300268Y-93146463D02*
X142455140Y-93210613D01*
X142594521Y-93303745D01*
X142713055Y-93422279D01*
X142806187Y-93561660D01*
X142870337Y-93716532D01*
X142903040Y-93880944D01*
X142903040Y-94048576D01*
X142870337Y-94212988D01*
X142806187Y-94367860D01*
X142713055Y-94507241D01*
X142594521Y-94625775D01*
X142455140Y-94718907D01*
X142300268Y-94783057D01*
X142135856Y-94815760D01*
X141968224Y-94815760D01*
X141803812Y-94783057D01*
X141648940Y-94718907D01*
X141509559Y-94625775D01*
X141391025Y-94507241D01*
X141297893Y-94367860D01*
X141233743Y-94212988D01*
X141201040Y-94048576D01*
X141201040Y-93880944D01*
X141233743Y-93716532D01*
X141297893Y-93561660D01*
X141391025Y-93422279D01*
X141509559Y-93303745D01*
X141648940Y-93210613D01*
X141803812Y-93146463D01*
X141968224Y-93113760D01*
X142135856Y-93113760D01*
X142300268Y-93146463D01*
X142300268Y-93146463D01*
G37*
G36*
X213568981Y-92688534D02*
X213669255Y-92730069D01*
X213759505Y-92790372D01*
X213836248Y-92867115D01*
X213896551Y-92957365D01*
X213938086Y-93057639D01*
X213959260Y-93164090D01*
X213959260Y-93272630D01*
X213938086Y-93379081D01*
X213896551Y-93479355D01*
X213836248Y-93569605D01*
X213759505Y-93646348D01*
X213669255Y-93706651D01*
X213568981Y-93748186D01*
X213462530Y-93769360D01*
X213353990Y-93769360D01*
X213247539Y-93748186D01*
X213147265Y-93706651D01*
X213057015Y-93646348D01*
X212980272Y-93569605D01*
X212919969Y-93479355D01*
X212878434Y-93379081D01*
X212857260Y-93272630D01*
X212857260Y-93164090D01*
X212878434Y-93057639D01*
X212919969Y-92957365D01*
X212980272Y-92867115D01*
X213057015Y-92790372D01*
X213147265Y-92730069D01*
X213247539Y-92688534D01*
X213353990Y-92667360D01*
X213462530Y-92667360D01*
X213568981Y-92688534D01*
X213568981Y-92688534D01*
G37*
G36*
X156463308Y-91775503D02*
X156618180Y-91839653D01*
X156757561Y-91932785D01*
X156876095Y-92051319D01*
X156969227Y-92190700D01*
X157033377Y-92345572D01*
X157066080Y-92509984D01*
X157066080Y-92677616D01*
X157033377Y-92842028D01*
X156969227Y-92996900D01*
X156876095Y-93136281D01*
X156757561Y-93254815D01*
X156618180Y-93347947D01*
X156463308Y-93412097D01*
X156298896Y-93444800D01*
X156131264Y-93444800D01*
X155966852Y-93412097D01*
X155811980Y-93347947D01*
X155672599Y-93254815D01*
X155554065Y-93136281D01*
X155460933Y-92996900D01*
X155396783Y-92842028D01*
X155364080Y-92677616D01*
X155364080Y-92509984D01*
X155396783Y-92345572D01*
X155460933Y-92190700D01*
X155554065Y-92051319D01*
X155672599Y-91932785D01*
X155811980Y-91839653D01*
X155966852Y-91775503D01*
X156131264Y-91742800D01*
X156298896Y-91742800D01*
X156463308Y-91775503D01*
X156463308Y-91775503D01*
G37*
G36*
X153095268Y-91775503D02*
X153250140Y-91839653D01*
X153389521Y-91932785D01*
X153508055Y-92051319D01*
X153601187Y-92190700D01*
X153665337Y-92345572D01*
X153698040Y-92509984D01*
X153698040Y-92677616D01*
X153665337Y-92842028D01*
X153601187Y-92996900D01*
X153508055Y-93136281D01*
X153389521Y-93254815D01*
X153250140Y-93347947D01*
X153095268Y-93412097D01*
X152930856Y-93444800D01*
X152763224Y-93444800D01*
X152598812Y-93412097D01*
X152443940Y-93347947D01*
X152304559Y-93254815D01*
X152186025Y-93136281D01*
X152092893Y-92996900D01*
X152028743Y-92842028D01*
X151996040Y-92677616D01*
X151996040Y-92509984D01*
X152028743Y-92345572D01*
X152092893Y-92190700D01*
X152186025Y-92051319D01*
X152304559Y-91932785D01*
X152443940Y-91839653D01*
X152598812Y-91775503D01*
X152763224Y-91742800D01*
X152930856Y-91742800D01*
X153095268Y-91775503D01*
X153095268Y-91775503D01*
G37*
G36*
X161771908Y-89981623D02*
X161926780Y-90045773D01*
X162066161Y-90138905D01*
X162184695Y-90257439D01*
X162277827Y-90396820D01*
X162341977Y-90551692D01*
X162374680Y-90716104D01*
X162374680Y-90883736D01*
X162341977Y-91048148D01*
X162277827Y-91203020D01*
X162184695Y-91342401D01*
X162066161Y-91460935D01*
X161926780Y-91554067D01*
X161771908Y-91618217D01*
X161607496Y-91650920D01*
X161439864Y-91650920D01*
X161275452Y-91618217D01*
X161120580Y-91554067D01*
X160981199Y-91460935D01*
X160862665Y-91342401D01*
X160769533Y-91203020D01*
X160705383Y-91048148D01*
X160672680Y-90883736D01*
X160672680Y-90716104D01*
X160705383Y-90551692D01*
X160769533Y-90396820D01*
X160862665Y-90257439D01*
X160981199Y-90138905D01*
X161120580Y-90045773D01*
X161275452Y-89981623D01*
X161439864Y-89948920D01*
X161607496Y-89948920D01*
X161771908Y-89981623D01*
X161771908Y-89981623D01*
G37*
G36*
X159271908Y-89981623D02*
X159426780Y-90045773D01*
X159566161Y-90138905D01*
X159684695Y-90257439D01*
X159777827Y-90396820D01*
X159841977Y-90551692D01*
X159874680Y-90716104D01*
X159874680Y-90883736D01*
X159841977Y-91048148D01*
X159777827Y-91203020D01*
X159684695Y-91342401D01*
X159566161Y-91460935D01*
X159426780Y-91554067D01*
X159271908Y-91618217D01*
X159107496Y-91650920D01*
X158939864Y-91650920D01*
X158775452Y-91618217D01*
X158620580Y-91554067D01*
X158481199Y-91460935D01*
X158362665Y-91342401D01*
X158269533Y-91203020D01*
X158205383Y-91048148D01*
X158172680Y-90883736D01*
X158172680Y-90716104D01*
X158205383Y-90551692D01*
X158269533Y-90396820D01*
X158362665Y-90257439D01*
X158481199Y-90138905D01*
X158620580Y-90045773D01*
X158775452Y-89981623D01*
X158939864Y-89948920D01*
X159107496Y-89948920D01*
X159271908Y-89981623D01*
X159271908Y-89981623D01*
G37*
G36*
X164301748Y-89956223D02*
X164456620Y-90020373D01*
X164596001Y-90113505D01*
X164714535Y-90232039D01*
X164807667Y-90371420D01*
X164871817Y-90526292D01*
X164904520Y-90690704D01*
X164904520Y-90858336D01*
X164871817Y-91022748D01*
X164807667Y-91177620D01*
X164714535Y-91317001D01*
X164596001Y-91435535D01*
X164456620Y-91528667D01*
X164301748Y-91592817D01*
X164137336Y-91625520D01*
X163969704Y-91625520D01*
X163805292Y-91592817D01*
X163650420Y-91528667D01*
X163511039Y-91435535D01*
X163392505Y-91317001D01*
X163299373Y-91177620D01*
X163235223Y-91022748D01*
X163202520Y-90858336D01*
X163202520Y-90690704D01*
X163235223Y-90526292D01*
X163299373Y-90371420D01*
X163392505Y-90232039D01*
X163511039Y-90113505D01*
X163650420Y-90020373D01*
X163805292Y-89956223D01*
X163969704Y-89923520D01*
X164137336Y-89923520D01*
X164301748Y-89956223D01*
X164301748Y-89956223D01*
G37*
G36*
X166801748Y-89956223D02*
X166956620Y-90020373D01*
X167096001Y-90113505D01*
X167214535Y-90232039D01*
X167307667Y-90371420D01*
X167371817Y-90526292D01*
X167404520Y-90690704D01*
X167404520Y-90858336D01*
X167371817Y-91022748D01*
X167307667Y-91177620D01*
X167214535Y-91317001D01*
X167096001Y-91435535D01*
X166956620Y-91528667D01*
X166801748Y-91592817D01*
X166637336Y-91625520D01*
X166469704Y-91625520D01*
X166305292Y-91592817D01*
X166150420Y-91528667D01*
X166011039Y-91435535D01*
X165892505Y-91317001D01*
X165799373Y-91177620D01*
X165735223Y-91022748D01*
X165702520Y-90858336D01*
X165702520Y-90690704D01*
X165735223Y-90526292D01*
X165799373Y-90371420D01*
X165892505Y-90232039D01*
X166011039Y-90113505D01*
X166150420Y-90020373D01*
X166305292Y-89956223D01*
X166469704Y-89923520D01*
X166637336Y-89923520D01*
X166801748Y-89956223D01*
X166801748Y-89956223D01*
G37*
G36*
X139729661Y-89808833D02*
X139729664Y-89808834D01*
X139729665Y-89808834D01*
X139890079Y-89857495D01*
X139890081Y-89857496D01*
X139890084Y-89857497D01*
X140037918Y-89936515D01*
X140167499Y-90042861D01*
X140273845Y-90172442D01*
X140352863Y-90320276D01*
X140352864Y-90320279D01*
X140352865Y-90320281D01*
X140401526Y-90480695D01*
X140401527Y-90480699D01*
X140417957Y-90647520D01*
X140401527Y-90814341D01*
X140401526Y-90814344D01*
X140401526Y-90814345D01*
X140371874Y-90912096D01*
X140352863Y-90974764D01*
X140273845Y-91122598D01*
X140167499Y-91252179D01*
X140037918Y-91358525D01*
X139890084Y-91437543D01*
X139890081Y-91437544D01*
X139890079Y-91437545D01*
X139729665Y-91486206D01*
X139729664Y-91486206D01*
X139729661Y-91486207D01*
X139604644Y-91498520D01*
X139521036Y-91498520D01*
X139396019Y-91486207D01*
X139396016Y-91486206D01*
X139396015Y-91486206D01*
X139235601Y-91437545D01*
X139235599Y-91437544D01*
X139235596Y-91437543D01*
X139087762Y-91358525D01*
X138958181Y-91252179D01*
X138851835Y-91122598D01*
X138772817Y-90974764D01*
X138753807Y-90912096D01*
X138724154Y-90814345D01*
X138724154Y-90814344D01*
X138724153Y-90814341D01*
X138707723Y-90647520D01*
X138724153Y-90480699D01*
X138724154Y-90480695D01*
X138772815Y-90320281D01*
X138772816Y-90320279D01*
X138772817Y-90320276D01*
X138851835Y-90172442D01*
X138958181Y-90042861D01*
X139087762Y-89936515D01*
X139235596Y-89857497D01*
X139235599Y-89857496D01*
X139235601Y-89857495D01*
X139396015Y-89808834D01*
X139396016Y-89808834D01*
X139396019Y-89808833D01*
X139521036Y-89796520D01*
X139604644Y-89796520D01*
X139729661Y-89808833D01*
X139729661Y-89808833D01*
G37*
G36*
X149971068Y-89829223D02*
X150125940Y-89893373D01*
X150265321Y-89986505D01*
X150383855Y-90105039D01*
X150476987Y-90244420D01*
X150541137Y-90399292D01*
X150573840Y-90563704D01*
X150573840Y-90731336D01*
X150541137Y-90895748D01*
X150476987Y-91050620D01*
X150383855Y-91190001D01*
X150265321Y-91308535D01*
X150125940Y-91401667D01*
X149971068Y-91465817D01*
X149806656Y-91498520D01*
X149639024Y-91498520D01*
X149474612Y-91465817D01*
X149319740Y-91401667D01*
X149180359Y-91308535D01*
X149061825Y-91190001D01*
X148968693Y-91050620D01*
X148904543Y-90895748D01*
X148871840Y-90731336D01*
X148871840Y-90563704D01*
X148904543Y-90399292D01*
X148968693Y-90244420D01*
X149061825Y-90105039D01*
X149180359Y-89986505D01*
X149319740Y-89893373D01*
X149474612Y-89829223D01*
X149639024Y-89796520D01*
X149806656Y-89796520D01*
X149971068Y-89829223D01*
X149971068Y-89829223D01*
G37*
G36*
X153095268Y-89275503D02*
X153250140Y-89339653D01*
X153389521Y-89432785D01*
X153508055Y-89551319D01*
X153601187Y-89690700D01*
X153665337Y-89845572D01*
X153698040Y-90009984D01*
X153698040Y-90177616D01*
X153665337Y-90342028D01*
X153601187Y-90496900D01*
X153508055Y-90636281D01*
X153389521Y-90754815D01*
X153250140Y-90847947D01*
X153095268Y-90912097D01*
X152930856Y-90944800D01*
X152763224Y-90944800D01*
X152598812Y-90912097D01*
X152443940Y-90847947D01*
X152304559Y-90754815D01*
X152186025Y-90636281D01*
X152092893Y-90496900D01*
X152028743Y-90342028D01*
X151996040Y-90177616D01*
X151996040Y-90009984D01*
X152028743Y-89845572D01*
X152092893Y-89690700D01*
X152186025Y-89551319D01*
X152304559Y-89432785D01*
X152443940Y-89339653D01*
X152598812Y-89275503D01*
X152763224Y-89242800D01*
X152930856Y-89242800D01*
X153095268Y-89275503D01*
X153095268Y-89275503D01*
G37*
G36*
X156463308Y-89275503D02*
X156618180Y-89339653D01*
X156757561Y-89432785D01*
X156876095Y-89551319D01*
X156969227Y-89690700D01*
X157033377Y-89845572D01*
X157066080Y-90009984D01*
X157066080Y-90177616D01*
X157033377Y-90342028D01*
X156969227Y-90496900D01*
X156876095Y-90636281D01*
X156757561Y-90754815D01*
X156618180Y-90847947D01*
X156463308Y-90912097D01*
X156298896Y-90944800D01*
X156131264Y-90944800D01*
X155966852Y-90912097D01*
X155811980Y-90847947D01*
X155672599Y-90754815D01*
X155554065Y-90636281D01*
X155460933Y-90496900D01*
X155396783Y-90342028D01*
X155364080Y-90177616D01*
X155364080Y-90009984D01*
X155396783Y-89845572D01*
X155460933Y-89690700D01*
X155554065Y-89551319D01*
X155672599Y-89432785D01*
X155811980Y-89339653D01*
X155966852Y-89275503D01*
X156131264Y-89242800D01*
X156298896Y-89242800D01*
X156463308Y-89275503D01*
X156463308Y-89275503D01*
G37*
G36*
X186285321Y-88455013D02*
X186285324Y-88455014D01*
X186285325Y-88455014D01*
X186445739Y-88503675D01*
X186445741Y-88503676D01*
X186445744Y-88503677D01*
X186593578Y-88582695D01*
X186723159Y-88689041D01*
X186829505Y-88818622D01*
X186908523Y-88966456D01*
X186957187Y-89126879D01*
X186973617Y-89293700D01*
X186957187Y-89460521D01*
X186908523Y-89620944D01*
X186829505Y-89768778D01*
X186723159Y-89898359D01*
X186593578Y-90004705D01*
X186445744Y-90083723D01*
X186445741Y-90083724D01*
X186445739Y-90083725D01*
X186285325Y-90132386D01*
X186285324Y-90132386D01*
X186285321Y-90132387D01*
X186160304Y-90144700D01*
X186076696Y-90144700D01*
X185951679Y-90132387D01*
X185951676Y-90132386D01*
X185951675Y-90132386D01*
X185791261Y-90083725D01*
X185791259Y-90083724D01*
X185791256Y-90083723D01*
X185643422Y-90004705D01*
X185513841Y-89898359D01*
X185407495Y-89768778D01*
X185328477Y-89620944D01*
X185279813Y-89460521D01*
X185263383Y-89293700D01*
X185279813Y-89126879D01*
X185328477Y-88966456D01*
X185407495Y-88818622D01*
X185513841Y-88689041D01*
X185643422Y-88582695D01*
X185791256Y-88503677D01*
X185791259Y-88503676D01*
X185791261Y-88503675D01*
X185951675Y-88455014D01*
X185951676Y-88455014D01*
X185951679Y-88455013D01*
X186076696Y-88442700D01*
X186160304Y-88442700D01*
X186285321Y-88455013D01*
X186285321Y-88455013D01*
G37*
G36*
X199669500Y-90144700D02*
X197967500Y-90144700D01*
X197967500Y-88442700D01*
X199669500Y-88442700D01*
X199669500Y-90144700D01*
X199669500Y-90144700D01*
G37*
G36*
X191365321Y-88455013D02*
X191365324Y-88455014D01*
X191365325Y-88455014D01*
X191525739Y-88503675D01*
X191525741Y-88503676D01*
X191525744Y-88503677D01*
X191673578Y-88582695D01*
X191803159Y-88689041D01*
X191909505Y-88818622D01*
X191988523Y-88966456D01*
X192037187Y-89126879D01*
X192053617Y-89293700D01*
X192037187Y-89460521D01*
X191988523Y-89620944D01*
X191909505Y-89768778D01*
X191803159Y-89898359D01*
X191673578Y-90004705D01*
X191525744Y-90083723D01*
X191525741Y-90083724D01*
X191525739Y-90083725D01*
X191365325Y-90132386D01*
X191365324Y-90132386D01*
X191365321Y-90132387D01*
X191240304Y-90144700D01*
X191156696Y-90144700D01*
X191031679Y-90132387D01*
X191031676Y-90132386D01*
X191031675Y-90132386D01*
X190871261Y-90083725D01*
X190871259Y-90083724D01*
X190871256Y-90083723D01*
X190723422Y-90004705D01*
X190593841Y-89898359D01*
X190487495Y-89768778D01*
X190408477Y-89620944D01*
X190359813Y-89460521D01*
X190343383Y-89293700D01*
X190359813Y-89126879D01*
X190408477Y-88966456D01*
X190487495Y-88818622D01*
X190593841Y-88689041D01*
X190723422Y-88582695D01*
X190871256Y-88503677D01*
X190871259Y-88503676D01*
X190871261Y-88503675D01*
X191031675Y-88455014D01*
X191031676Y-88455014D01*
X191031679Y-88455013D01*
X191156696Y-88442700D01*
X191240304Y-88442700D01*
X191365321Y-88455013D01*
X191365321Y-88455013D01*
G37*
G36*
X196445321Y-88455013D02*
X196445324Y-88455014D01*
X196445325Y-88455014D01*
X196605739Y-88503675D01*
X196605741Y-88503676D01*
X196605744Y-88503677D01*
X196753578Y-88582695D01*
X196883159Y-88689041D01*
X196989505Y-88818622D01*
X197068523Y-88966456D01*
X197117187Y-89126879D01*
X197133617Y-89293700D01*
X197117187Y-89460521D01*
X197068523Y-89620944D01*
X196989505Y-89768778D01*
X196883159Y-89898359D01*
X196753578Y-90004705D01*
X196605744Y-90083723D01*
X196605741Y-90083724D01*
X196605739Y-90083725D01*
X196445325Y-90132386D01*
X196445324Y-90132386D01*
X196445321Y-90132387D01*
X196320304Y-90144700D01*
X196236696Y-90144700D01*
X196111679Y-90132387D01*
X196111676Y-90132386D01*
X196111675Y-90132386D01*
X195951261Y-90083725D01*
X195951259Y-90083724D01*
X195951256Y-90083723D01*
X195803422Y-90004705D01*
X195673841Y-89898359D01*
X195567495Y-89768778D01*
X195488477Y-89620944D01*
X195439813Y-89460521D01*
X195423383Y-89293700D01*
X195439813Y-89126879D01*
X195488477Y-88966456D01*
X195567495Y-88818622D01*
X195673841Y-88689041D01*
X195803422Y-88582695D01*
X195951256Y-88503677D01*
X195951259Y-88503676D01*
X195951261Y-88503675D01*
X196111675Y-88455014D01*
X196111676Y-88455014D01*
X196111679Y-88455013D01*
X196236696Y-88442700D01*
X196320304Y-88442700D01*
X196445321Y-88455013D01*
X196445321Y-88455013D01*
G37*
G36*
X188825321Y-88455013D02*
X188825324Y-88455014D01*
X188825325Y-88455014D01*
X188985739Y-88503675D01*
X188985741Y-88503676D01*
X188985744Y-88503677D01*
X189133578Y-88582695D01*
X189263159Y-88689041D01*
X189369505Y-88818622D01*
X189448523Y-88966456D01*
X189497187Y-89126879D01*
X189513617Y-89293700D01*
X189497187Y-89460521D01*
X189448523Y-89620944D01*
X189369505Y-89768778D01*
X189263159Y-89898359D01*
X189133578Y-90004705D01*
X188985744Y-90083723D01*
X188985741Y-90083724D01*
X188985739Y-90083725D01*
X188825325Y-90132386D01*
X188825324Y-90132386D01*
X188825321Y-90132387D01*
X188700304Y-90144700D01*
X188616696Y-90144700D01*
X188491679Y-90132387D01*
X188491676Y-90132386D01*
X188491675Y-90132386D01*
X188331261Y-90083725D01*
X188331259Y-90083724D01*
X188331256Y-90083723D01*
X188183422Y-90004705D01*
X188053841Y-89898359D01*
X187947495Y-89768778D01*
X187868477Y-89620944D01*
X187819813Y-89460521D01*
X187803383Y-89293700D01*
X187819813Y-89126879D01*
X187868477Y-88966456D01*
X187947495Y-88818622D01*
X188053841Y-88689041D01*
X188183422Y-88582695D01*
X188331256Y-88503677D01*
X188331259Y-88503676D01*
X188331261Y-88503675D01*
X188491675Y-88455014D01*
X188491676Y-88455014D01*
X188491679Y-88455013D01*
X188616696Y-88442700D01*
X188700304Y-88442700D01*
X188825321Y-88455013D01*
X188825321Y-88455013D01*
G37*
G36*
X183745321Y-88455013D02*
X183745324Y-88455014D01*
X183745325Y-88455014D01*
X183905739Y-88503675D01*
X183905741Y-88503676D01*
X183905744Y-88503677D01*
X184053578Y-88582695D01*
X184183159Y-88689041D01*
X184289505Y-88818622D01*
X184368523Y-88966456D01*
X184417187Y-89126879D01*
X184433617Y-89293700D01*
X184417187Y-89460521D01*
X184368523Y-89620944D01*
X184289505Y-89768778D01*
X184183159Y-89898359D01*
X184053578Y-90004705D01*
X183905744Y-90083723D01*
X183905741Y-90083724D01*
X183905739Y-90083725D01*
X183745325Y-90132386D01*
X183745324Y-90132386D01*
X183745321Y-90132387D01*
X183620304Y-90144700D01*
X183536696Y-90144700D01*
X183411679Y-90132387D01*
X183411676Y-90132386D01*
X183411675Y-90132386D01*
X183251261Y-90083725D01*
X183251259Y-90083724D01*
X183251256Y-90083723D01*
X183103422Y-90004705D01*
X182973841Y-89898359D01*
X182867495Y-89768778D01*
X182788477Y-89620944D01*
X182739813Y-89460521D01*
X182723383Y-89293700D01*
X182739813Y-89126879D01*
X182788477Y-88966456D01*
X182867495Y-88818622D01*
X182973841Y-88689041D01*
X183103422Y-88582695D01*
X183251256Y-88503677D01*
X183251259Y-88503676D01*
X183251261Y-88503675D01*
X183411675Y-88455014D01*
X183411676Y-88455014D01*
X183411679Y-88455013D01*
X183536696Y-88442700D01*
X183620304Y-88442700D01*
X183745321Y-88455013D01*
X183745321Y-88455013D01*
G37*
G36*
X193905321Y-88455013D02*
X193905324Y-88455014D01*
X193905325Y-88455014D01*
X194065739Y-88503675D01*
X194065741Y-88503676D01*
X194065744Y-88503677D01*
X194213578Y-88582695D01*
X194343159Y-88689041D01*
X194449505Y-88818622D01*
X194528523Y-88966456D01*
X194577187Y-89126879D01*
X194593617Y-89293700D01*
X194577187Y-89460521D01*
X194528523Y-89620944D01*
X194449505Y-89768778D01*
X194343159Y-89898359D01*
X194213578Y-90004705D01*
X194065744Y-90083723D01*
X194065741Y-90083724D01*
X194065739Y-90083725D01*
X193905325Y-90132386D01*
X193905324Y-90132386D01*
X193905321Y-90132387D01*
X193780304Y-90144700D01*
X193696696Y-90144700D01*
X193571679Y-90132387D01*
X193571676Y-90132386D01*
X193571675Y-90132386D01*
X193411261Y-90083725D01*
X193411259Y-90083724D01*
X193411256Y-90083723D01*
X193263422Y-90004705D01*
X193133841Y-89898359D01*
X193027495Y-89768778D01*
X192948477Y-89620944D01*
X192899813Y-89460521D01*
X192883383Y-89293700D01*
X192899813Y-89126879D01*
X192948477Y-88966456D01*
X193027495Y-88818622D01*
X193133841Y-88689041D01*
X193263422Y-88582695D01*
X193411256Y-88503677D01*
X193411259Y-88503676D01*
X193411261Y-88503675D01*
X193571675Y-88455014D01*
X193571676Y-88455014D01*
X193571679Y-88455013D01*
X193696696Y-88442700D01*
X193780304Y-88442700D01*
X193905321Y-88455013D01*
X193905321Y-88455013D01*
G37*
G36*
X213568981Y-88288534D02*
X213669255Y-88330069D01*
X213759505Y-88390372D01*
X213836248Y-88467115D01*
X213896551Y-88557365D01*
X213938086Y-88657639D01*
X213959260Y-88764090D01*
X213959260Y-88872630D01*
X213938086Y-88979081D01*
X213896551Y-89079355D01*
X213836248Y-89169605D01*
X213759505Y-89246348D01*
X213669255Y-89306651D01*
X213568981Y-89348186D01*
X213462530Y-89369360D01*
X213353990Y-89369360D01*
X213247539Y-89348186D01*
X213147265Y-89306651D01*
X213057015Y-89246348D01*
X212980272Y-89169605D01*
X212919969Y-89079355D01*
X212878434Y-88979081D01*
X212857260Y-88872630D01*
X212857260Y-88764090D01*
X212878434Y-88657639D01*
X212919969Y-88557365D01*
X212980272Y-88467115D01*
X213057015Y-88390372D01*
X213147265Y-88330069D01*
X213247539Y-88288534D01*
X213353990Y-88267360D01*
X213462530Y-88267360D01*
X213568981Y-88288534D01*
X213568981Y-88288534D01*
G37*
G36*
X148985421Y-86651613D02*
X148985424Y-86651614D01*
X148985425Y-86651614D01*
X149145839Y-86700275D01*
X149145841Y-86700276D01*
X149145844Y-86700277D01*
X149293678Y-86779295D01*
X149423259Y-86885641D01*
X149529605Y-87015222D01*
X149608623Y-87163056D01*
X149608624Y-87163059D01*
X149608625Y-87163061D01*
X149657286Y-87323475D01*
X149657287Y-87323479D01*
X149673717Y-87490300D01*
X149657287Y-87657121D01*
X149608623Y-87817544D01*
X149529605Y-87965378D01*
X149423259Y-88094959D01*
X149293678Y-88201305D01*
X149145844Y-88280323D01*
X149145841Y-88280324D01*
X149145839Y-88280325D01*
X148985425Y-88328986D01*
X148985424Y-88328986D01*
X148985421Y-88328987D01*
X148860404Y-88341300D01*
X148776796Y-88341300D01*
X148651779Y-88328987D01*
X148651776Y-88328986D01*
X148651775Y-88328986D01*
X148491361Y-88280325D01*
X148491359Y-88280324D01*
X148491356Y-88280323D01*
X148343522Y-88201305D01*
X148213941Y-88094959D01*
X148107595Y-87965378D01*
X148028577Y-87817544D01*
X147979913Y-87657121D01*
X147963483Y-87490300D01*
X147979913Y-87323479D01*
X147979914Y-87323475D01*
X148028575Y-87163061D01*
X148028576Y-87163059D01*
X148028577Y-87163056D01*
X148107595Y-87015222D01*
X148213941Y-86885641D01*
X148343522Y-86779295D01*
X148491356Y-86700277D01*
X148491359Y-86700276D01*
X148491361Y-86700275D01*
X148651775Y-86651614D01*
X148651776Y-86651614D01*
X148651779Y-86651613D01*
X148776796Y-86639300D01*
X148860404Y-86639300D01*
X148985421Y-86651613D01*
X148985421Y-86651613D01*
G37*
G36*
X174385421Y-86651613D02*
X174385424Y-86651614D01*
X174385425Y-86651614D01*
X174545839Y-86700275D01*
X174545841Y-86700276D01*
X174545844Y-86700277D01*
X174693678Y-86779295D01*
X174823259Y-86885641D01*
X174929605Y-87015222D01*
X175008623Y-87163056D01*
X175008624Y-87163059D01*
X175008625Y-87163061D01*
X175057286Y-87323475D01*
X175057287Y-87323479D01*
X175073717Y-87490300D01*
X175057287Y-87657121D01*
X175008623Y-87817544D01*
X174929605Y-87965378D01*
X174823259Y-88094959D01*
X174693678Y-88201305D01*
X174545844Y-88280323D01*
X174545841Y-88280324D01*
X174545839Y-88280325D01*
X174385425Y-88328986D01*
X174385424Y-88328986D01*
X174385421Y-88328987D01*
X174260404Y-88341300D01*
X174176796Y-88341300D01*
X174051779Y-88328987D01*
X174051776Y-88328986D01*
X174051775Y-88328986D01*
X173891361Y-88280325D01*
X173891359Y-88280324D01*
X173891356Y-88280323D01*
X173743522Y-88201305D01*
X173613941Y-88094959D01*
X173507595Y-87965378D01*
X173428577Y-87817544D01*
X173379913Y-87657121D01*
X173363483Y-87490300D01*
X173379913Y-87323479D01*
X173379914Y-87323475D01*
X173428575Y-87163061D01*
X173428576Y-87163059D01*
X173428577Y-87163056D01*
X173507595Y-87015222D01*
X173613941Y-86885641D01*
X173743522Y-86779295D01*
X173891356Y-86700277D01*
X173891359Y-86700276D01*
X173891361Y-86700275D01*
X174051775Y-86651614D01*
X174051776Y-86651614D01*
X174051779Y-86651613D01*
X174176796Y-86639300D01*
X174260404Y-86639300D01*
X174385421Y-86651613D01*
X174385421Y-86651613D01*
G37*
G36*
X142049600Y-88341300D02*
X140347600Y-88341300D01*
X140347600Y-86639300D01*
X142049600Y-86639300D01*
X142049600Y-88341300D01*
X142049600Y-88341300D01*
G37*
G36*
X143905421Y-86651613D02*
X143905424Y-86651614D01*
X143905425Y-86651614D01*
X144065839Y-86700275D01*
X144065841Y-86700276D01*
X144065844Y-86700277D01*
X144213678Y-86779295D01*
X144343259Y-86885641D01*
X144449605Y-87015222D01*
X144528623Y-87163056D01*
X144528624Y-87163059D01*
X144528625Y-87163061D01*
X144577286Y-87323475D01*
X144577287Y-87323479D01*
X144593717Y-87490300D01*
X144577287Y-87657121D01*
X144528623Y-87817544D01*
X144449605Y-87965378D01*
X144343259Y-88094959D01*
X144213678Y-88201305D01*
X144065844Y-88280323D01*
X144065841Y-88280324D01*
X144065839Y-88280325D01*
X143905425Y-88328986D01*
X143905424Y-88328986D01*
X143905421Y-88328987D01*
X143780404Y-88341300D01*
X143696796Y-88341300D01*
X143571779Y-88328987D01*
X143571776Y-88328986D01*
X143571775Y-88328986D01*
X143411361Y-88280325D01*
X143411359Y-88280324D01*
X143411356Y-88280323D01*
X143263522Y-88201305D01*
X143133941Y-88094959D01*
X143027595Y-87965378D01*
X142948577Y-87817544D01*
X142899913Y-87657121D01*
X142883483Y-87490300D01*
X142899913Y-87323479D01*
X142899914Y-87323475D01*
X142948575Y-87163061D01*
X142948576Y-87163059D01*
X142948577Y-87163056D01*
X143027595Y-87015222D01*
X143133941Y-86885641D01*
X143263522Y-86779295D01*
X143411356Y-86700277D01*
X143411359Y-86700276D01*
X143411361Y-86700275D01*
X143571775Y-86651614D01*
X143571776Y-86651614D01*
X143571779Y-86651613D01*
X143696796Y-86639300D01*
X143780404Y-86639300D01*
X143905421Y-86651613D01*
X143905421Y-86651613D01*
G37*
G36*
X146445421Y-86651613D02*
X146445424Y-86651614D01*
X146445425Y-86651614D01*
X146605839Y-86700275D01*
X146605841Y-86700276D01*
X146605844Y-86700277D01*
X146753678Y-86779295D01*
X146883259Y-86885641D01*
X146989605Y-87015222D01*
X147068623Y-87163056D01*
X147068624Y-87163059D01*
X147068625Y-87163061D01*
X147117286Y-87323475D01*
X147117287Y-87323479D01*
X147133717Y-87490300D01*
X147117287Y-87657121D01*
X147068623Y-87817544D01*
X146989605Y-87965378D01*
X146883259Y-88094959D01*
X146753678Y-88201305D01*
X146605844Y-88280323D01*
X146605841Y-88280324D01*
X146605839Y-88280325D01*
X146445425Y-88328986D01*
X146445424Y-88328986D01*
X146445421Y-88328987D01*
X146320404Y-88341300D01*
X146236796Y-88341300D01*
X146111779Y-88328987D01*
X146111776Y-88328986D01*
X146111775Y-88328986D01*
X145951361Y-88280325D01*
X145951359Y-88280324D01*
X145951356Y-88280323D01*
X145803522Y-88201305D01*
X145673941Y-88094959D01*
X145567595Y-87965378D01*
X145488577Y-87817544D01*
X145439913Y-87657121D01*
X145423483Y-87490300D01*
X145439913Y-87323479D01*
X145439914Y-87323475D01*
X145488575Y-87163061D01*
X145488576Y-87163059D01*
X145488577Y-87163056D01*
X145567595Y-87015222D01*
X145673941Y-86885641D01*
X145803522Y-86779295D01*
X145951356Y-86700277D01*
X145951359Y-86700276D01*
X145951361Y-86700275D01*
X146111775Y-86651614D01*
X146111776Y-86651614D01*
X146111779Y-86651613D01*
X146236796Y-86639300D01*
X146320404Y-86639300D01*
X146445421Y-86651613D01*
X146445421Y-86651613D01*
G37*
G36*
X151525421Y-86651613D02*
X151525424Y-86651614D01*
X151525425Y-86651614D01*
X151685839Y-86700275D01*
X151685841Y-86700276D01*
X151685844Y-86700277D01*
X151833678Y-86779295D01*
X151963259Y-86885641D01*
X152069605Y-87015222D01*
X152148623Y-87163056D01*
X152148624Y-87163059D01*
X152148625Y-87163061D01*
X152197286Y-87323475D01*
X152197287Y-87323479D01*
X152213717Y-87490300D01*
X152197287Y-87657121D01*
X152148623Y-87817544D01*
X152069605Y-87965378D01*
X151963259Y-88094959D01*
X151833678Y-88201305D01*
X151685844Y-88280323D01*
X151685841Y-88280324D01*
X151685839Y-88280325D01*
X151525425Y-88328986D01*
X151525424Y-88328986D01*
X151525421Y-88328987D01*
X151400404Y-88341300D01*
X151316796Y-88341300D01*
X151191779Y-88328987D01*
X151191776Y-88328986D01*
X151191775Y-88328986D01*
X151031361Y-88280325D01*
X151031359Y-88280324D01*
X151031356Y-88280323D01*
X150883522Y-88201305D01*
X150753941Y-88094959D01*
X150647595Y-87965378D01*
X150568577Y-87817544D01*
X150519913Y-87657121D01*
X150503483Y-87490300D01*
X150519913Y-87323479D01*
X150519914Y-87323475D01*
X150568575Y-87163061D01*
X150568576Y-87163059D01*
X150568577Y-87163056D01*
X150647595Y-87015222D01*
X150753941Y-86885641D01*
X150883522Y-86779295D01*
X151031356Y-86700277D01*
X151031359Y-86700276D01*
X151031361Y-86700275D01*
X151191775Y-86651614D01*
X151191776Y-86651614D01*
X151191779Y-86651613D01*
X151316796Y-86639300D01*
X151400404Y-86639300D01*
X151525421Y-86651613D01*
X151525421Y-86651613D01*
G37*
G36*
X154065421Y-86651613D02*
X154065424Y-86651614D01*
X154065425Y-86651614D01*
X154225839Y-86700275D01*
X154225841Y-86700276D01*
X154225844Y-86700277D01*
X154373678Y-86779295D01*
X154503259Y-86885641D01*
X154609605Y-87015222D01*
X154688623Y-87163056D01*
X154688624Y-87163059D01*
X154688625Y-87163061D01*
X154737286Y-87323475D01*
X154737287Y-87323479D01*
X154753717Y-87490300D01*
X154737287Y-87657121D01*
X154688623Y-87817544D01*
X154609605Y-87965378D01*
X154503259Y-88094959D01*
X154373678Y-88201305D01*
X154225844Y-88280323D01*
X154225841Y-88280324D01*
X154225839Y-88280325D01*
X154065425Y-88328986D01*
X154065424Y-88328986D01*
X154065421Y-88328987D01*
X153940404Y-88341300D01*
X153856796Y-88341300D01*
X153731779Y-88328987D01*
X153731776Y-88328986D01*
X153731775Y-88328986D01*
X153571361Y-88280325D01*
X153571359Y-88280324D01*
X153571356Y-88280323D01*
X153423522Y-88201305D01*
X153293941Y-88094959D01*
X153187595Y-87965378D01*
X153108577Y-87817544D01*
X153059913Y-87657121D01*
X153043483Y-87490300D01*
X153059913Y-87323479D01*
X153059914Y-87323475D01*
X153108575Y-87163061D01*
X153108576Y-87163059D01*
X153108577Y-87163056D01*
X153187595Y-87015222D01*
X153293941Y-86885641D01*
X153423522Y-86779295D01*
X153571356Y-86700277D01*
X153571359Y-86700276D01*
X153571361Y-86700275D01*
X153731775Y-86651614D01*
X153731776Y-86651614D01*
X153731779Y-86651613D01*
X153856796Y-86639300D01*
X153940404Y-86639300D01*
X154065421Y-86651613D01*
X154065421Y-86651613D01*
G37*
G36*
X156605421Y-86651613D02*
X156605424Y-86651614D01*
X156605425Y-86651614D01*
X156765839Y-86700275D01*
X156765841Y-86700276D01*
X156765844Y-86700277D01*
X156913678Y-86779295D01*
X157043259Y-86885641D01*
X157149605Y-87015222D01*
X157228623Y-87163056D01*
X157228624Y-87163059D01*
X157228625Y-87163061D01*
X157277286Y-87323475D01*
X157277287Y-87323479D01*
X157293717Y-87490300D01*
X157277287Y-87657121D01*
X157228623Y-87817544D01*
X157149605Y-87965378D01*
X157043259Y-88094959D01*
X156913678Y-88201305D01*
X156765844Y-88280323D01*
X156765841Y-88280324D01*
X156765839Y-88280325D01*
X156605425Y-88328986D01*
X156605424Y-88328986D01*
X156605421Y-88328987D01*
X156480404Y-88341300D01*
X156396796Y-88341300D01*
X156271779Y-88328987D01*
X156271776Y-88328986D01*
X156271775Y-88328986D01*
X156111361Y-88280325D01*
X156111359Y-88280324D01*
X156111356Y-88280323D01*
X155963522Y-88201305D01*
X155833941Y-88094959D01*
X155727595Y-87965378D01*
X155648577Y-87817544D01*
X155599913Y-87657121D01*
X155583483Y-87490300D01*
X155599913Y-87323479D01*
X155599914Y-87323475D01*
X155648575Y-87163061D01*
X155648576Y-87163059D01*
X155648577Y-87163056D01*
X155727595Y-87015222D01*
X155833941Y-86885641D01*
X155963522Y-86779295D01*
X156111356Y-86700277D01*
X156111359Y-86700276D01*
X156111361Y-86700275D01*
X156271775Y-86651614D01*
X156271776Y-86651614D01*
X156271779Y-86651613D01*
X156396796Y-86639300D01*
X156480404Y-86639300D01*
X156605421Y-86651613D01*
X156605421Y-86651613D01*
G37*
G36*
X159145421Y-86651613D02*
X159145424Y-86651614D01*
X159145425Y-86651614D01*
X159305839Y-86700275D01*
X159305841Y-86700276D01*
X159305844Y-86700277D01*
X159453678Y-86779295D01*
X159583259Y-86885641D01*
X159689605Y-87015222D01*
X159768623Y-87163056D01*
X159768624Y-87163059D01*
X159768625Y-87163061D01*
X159817286Y-87323475D01*
X159817287Y-87323479D01*
X159833717Y-87490300D01*
X159817287Y-87657121D01*
X159768623Y-87817544D01*
X159689605Y-87965378D01*
X159583259Y-88094959D01*
X159453678Y-88201305D01*
X159305844Y-88280323D01*
X159305841Y-88280324D01*
X159305839Y-88280325D01*
X159145425Y-88328986D01*
X159145424Y-88328986D01*
X159145421Y-88328987D01*
X159020404Y-88341300D01*
X158936796Y-88341300D01*
X158811779Y-88328987D01*
X158811776Y-88328986D01*
X158811775Y-88328986D01*
X158651361Y-88280325D01*
X158651359Y-88280324D01*
X158651356Y-88280323D01*
X158503522Y-88201305D01*
X158373941Y-88094959D01*
X158267595Y-87965378D01*
X158188577Y-87817544D01*
X158139913Y-87657121D01*
X158123483Y-87490300D01*
X158139913Y-87323479D01*
X158139914Y-87323475D01*
X158188575Y-87163061D01*
X158188576Y-87163059D01*
X158188577Y-87163056D01*
X158267595Y-87015222D01*
X158373941Y-86885641D01*
X158503522Y-86779295D01*
X158651356Y-86700277D01*
X158651359Y-86700276D01*
X158651361Y-86700275D01*
X158811775Y-86651614D01*
X158811776Y-86651614D01*
X158811779Y-86651613D01*
X158936796Y-86639300D01*
X159020404Y-86639300D01*
X159145421Y-86651613D01*
X159145421Y-86651613D01*
G37*
G36*
X164225421Y-86651613D02*
X164225424Y-86651614D01*
X164225425Y-86651614D01*
X164385839Y-86700275D01*
X164385841Y-86700276D01*
X164385844Y-86700277D01*
X164533678Y-86779295D01*
X164663259Y-86885641D01*
X164769605Y-87015222D01*
X164848623Y-87163056D01*
X164848624Y-87163059D01*
X164848625Y-87163061D01*
X164897286Y-87323475D01*
X164897287Y-87323479D01*
X164913717Y-87490300D01*
X164897287Y-87657121D01*
X164848623Y-87817544D01*
X164769605Y-87965378D01*
X164663259Y-88094959D01*
X164533678Y-88201305D01*
X164385844Y-88280323D01*
X164385841Y-88280324D01*
X164385839Y-88280325D01*
X164225425Y-88328986D01*
X164225424Y-88328986D01*
X164225421Y-88328987D01*
X164100404Y-88341300D01*
X164016796Y-88341300D01*
X163891779Y-88328987D01*
X163891776Y-88328986D01*
X163891775Y-88328986D01*
X163731361Y-88280325D01*
X163731359Y-88280324D01*
X163731356Y-88280323D01*
X163583522Y-88201305D01*
X163453941Y-88094959D01*
X163347595Y-87965378D01*
X163268577Y-87817544D01*
X163219913Y-87657121D01*
X163203483Y-87490300D01*
X163219913Y-87323479D01*
X163219914Y-87323475D01*
X163268575Y-87163061D01*
X163268576Y-87163059D01*
X163268577Y-87163056D01*
X163347595Y-87015222D01*
X163453941Y-86885641D01*
X163583522Y-86779295D01*
X163731356Y-86700277D01*
X163731359Y-86700276D01*
X163731361Y-86700275D01*
X163891775Y-86651614D01*
X163891776Y-86651614D01*
X163891779Y-86651613D01*
X164016796Y-86639300D01*
X164100404Y-86639300D01*
X164225421Y-86651613D01*
X164225421Y-86651613D01*
G37*
G36*
X166765421Y-86651613D02*
X166765424Y-86651614D01*
X166765425Y-86651614D01*
X166925839Y-86700275D01*
X166925841Y-86700276D01*
X166925844Y-86700277D01*
X167073678Y-86779295D01*
X167203259Y-86885641D01*
X167309605Y-87015222D01*
X167388623Y-87163056D01*
X167388624Y-87163059D01*
X167388625Y-87163061D01*
X167437286Y-87323475D01*
X167437287Y-87323479D01*
X167453717Y-87490300D01*
X167437287Y-87657121D01*
X167388623Y-87817544D01*
X167309605Y-87965378D01*
X167203259Y-88094959D01*
X167073678Y-88201305D01*
X166925844Y-88280323D01*
X166925841Y-88280324D01*
X166925839Y-88280325D01*
X166765425Y-88328986D01*
X166765424Y-88328986D01*
X166765421Y-88328987D01*
X166640404Y-88341300D01*
X166556796Y-88341300D01*
X166431779Y-88328987D01*
X166431776Y-88328986D01*
X166431775Y-88328986D01*
X166271361Y-88280325D01*
X166271359Y-88280324D01*
X166271356Y-88280323D01*
X166123522Y-88201305D01*
X165993941Y-88094959D01*
X165887595Y-87965378D01*
X165808577Y-87817544D01*
X165759913Y-87657121D01*
X165743483Y-87490300D01*
X165759913Y-87323479D01*
X165759914Y-87323475D01*
X165808575Y-87163061D01*
X165808576Y-87163059D01*
X165808577Y-87163056D01*
X165887595Y-87015222D01*
X165993941Y-86885641D01*
X166123522Y-86779295D01*
X166271356Y-86700277D01*
X166271359Y-86700276D01*
X166271361Y-86700275D01*
X166431775Y-86651614D01*
X166431776Y-86651614D01*
X166431779Y-86651613D01*
X166556796Y-86639300D01*
X166640404Y-86639300D01*
X166765421Y-86651613D01*
X166765421Y-86651613D01*
G37*
G36*
X169305421Y-86651613D02*
X169305424Y-86651614D01*
X169305425Y-86651614D01*
X169465839Y-86700275D01*
X169465841Y-86700276D01*
X169465844Y-86700277D01*
X169613678Y-86779295D01*
X169743259Y-86885641D01*
X169849605Y-87015222D01*
X169928623Y-87163056D01*
X169928624Y-87163059D01*
X169928625Y-87163061D01*
X169977286Y-87323475D01*
X169977287Y-87323479D01*
X169993717Y-87490300D01*
X169977287Y-87657121D01*
X169928623Y-87817544D01*
X169849605Y-87965378D01*
X169743259Y-88094959D01*
X169613678Y-88201305D01*
X169465844Y-88280323D01*
X169465841Y-88280324D01*
X169465839Y-88280325D01*
X169305425Y-88328986D01*
X169305424Y-88328986D01*
X169305421Y-88328987D01*
X169180404Y-88341300D01*
X169096796Y-88341300D01*
X168971779Y-88328987D01*
X168971776Y-88328986D01*
X168971775Y-88328986D01*
X168811361Y-88280325D01*
X168811359Y-88280324D01*
X168811356Y-88280323D01*
X168663522Y-88201305D01*
X168533941Y-88094959D01*
X168427595Y-87965378D01*
X168348577Y-87817544D01*
X168299913Y-87657121D01*
X168283483Y-87490300D01*
X168299913Y-87323479D01*
X168299914Y-87323475D01*
X168348575Y-87163061D01*
X168348576Y-87163059D01*
X168348577Y-87163056D01*
X168427595Y-87015222D01*
X168533941Y-86885641D01*
X168663522Y-86779295D01*
X168811356Y-86700277D01*
X168811359Y-86700276D01*
X168811361Y-86700275D01*
X168971775Y-86651614D01*
X168971776Y-86651614D01*
X168971779Y-86651613D01*
X169096796Y-86639300D01*
X169180404Y-86639300D01*
X169305421Y-86651613D01*
X169305421Y-86651613D01*
G37*
G36*
X171845421Y-86651613D02*
X171845424Y-86651614D01*
X171845425Y-86651614D01*
X172005839Y-86700275D01*
X172005841Y-86700276D01*
X172005844Y-86700277D01*
X172153678Y-86779295D01*
X172283259Y-86885641D01*
X172389605Y-87015222D01*
X172468623Y-87163056D01*
X172468624Y-87163059D01*
X172468625Y-87163061D01*
X172517286Y-87323475D01*
X172517287Y-87323479D01*
X172533717Y-87490300D01*
X172517287Y-87657121D01*
X172468623Y-87817544D01*
X172389605Y-87965378D01*
X172283259Y-88094959D01*
X172153678Y-88201305D01*
X172005844Y-88280323D01*
X172005841Y-88280324D01*
X172005839Y-88280325D01*
X171845425Y-88328986D01*
X171845424Y-88328986D01*
X171845421Y-88328987D01*
X171720404Y-88341300D01*
X171636796Y-88341300D01*
X171511779Y-88328987D01*
X171511776Y-88328986D01*
X171511775Y-88328986D01*
X171351361Y-88280325D01*
X171351359Y-88280324D01*
X171351356Y-88280323D01*
X171203522Y-88201305D01*
X171073941Y-88094959D01*
X170967595Y-87965378D01*
X170888577Y-87817544D01*
X170839913Y-87657121D01*
X170823483Y-87490300D01*
X170839913Y-87323479D01*
X170839914Y-87323475D01*
X170888575Y-87163061D01*
X170888576Y-87163059D01*
X170888577Y-87163056D01*
X170967595Y-87015222D01*
X171073941Y-86885641D01*
X171203522Y-86779295D01*
X171351356Y-86700277D01*
X171351359Y-86700276D01*
X171351361Y-86700275D01*
X171511775Y-86651614D01*
X171511776Y-86651614D01*
X171511779Y-86651613D01*
X171636796Y-86639300D01*
X171720404Y-86639300D01*
X171845421Y-86651613D01*
X171845421Y-86651613D01*
G37*
G36*
X161685421Y-86651613D02*
X161685424Y-86651614D01*
X161685425Y-86651614D01*
X161845839Y-86700275D01*
X161845841Y-86700276D01*
X161845844Y-86700277D01*
X161993678Y-86779295D01*
X162123259Y-86885641D01*
X162229605Y-87015222D01*
X162308623Y-87163056D01*
X162308624Y-87163059D01*
X162308625Y-87163061D01*
X162357286Y-87323475D01*
X162357287Y-87323479D01*
X162373717Y-87490300D01*
X162357287Y-87657121D01*
X162308623Y-87817544D01*
X162229605Y-87965378D01*
X162123259Y-88094959D01*
X161993678Y-88201305D01*
X161845844Y-88280323D01*
X161845841Y-88280324D01*
X161845839Y-88280325D01*
X161685425Y-88328986D01*
X161685424Y-88328986D01*
X161685421Y-88328987D01*
X161560404Y-88341300D01*
X161476796Y-88341300D01*
X161351779Y-88328987D01*
X161351776Y-88328986D01*
X161351775Y-88328986D01*
X161191361Y-88280325D01*
X161191359Y-88280324D01*
X161191356Y-88280323D01*
X161043522Y-88201305D01*
X160913941Y-88094959D01*
X160807595Y-87965378D01*
X160728577Y-87817544D01*
X160679913Y-87657121D01*
X160663483Y-87490300D01*
X160679913Y-87323479D01*
X160679914Y-87323475D01*
X160728575Y-87163061D01*
X160728576Y-87163059D01*
X160728577Y-87163056D01*
X160807595Y-87015222D01*
X160913941Y-86885641D01*
X161043522Y-86779295D01*
X161191356Y-86700277D01*
X161191359Y-86700276D01*
X161191361Y-86700275D01*
X161351775Y-86651614D01*
X161351776Y-86651614D01*
X161351779Y-86651613D01*
X161476796Y-86639300D01*
X161560404Y-86639300D01*
X161685421Y-86651613D01*
X161685421Y-86651613D01*
G37*
G36*
X191472128Y-85503603D02*
X191627000Y-85567753D01*
X191766381Y-85660885D01*
X191884915Y-85779419D01*
X191978047Y-85918800D01*
X192042197Y-86073672D01*
X192074900Y-86238084D01*
X192074900Y-86405716D01*
X192042197Y-86570128D01*
X191978047Y-86725000D01*
X191884915Y-86864381D01*
X191766381Y-86982915D01*
X191627000Y-87076047D01*
X191472128Y-87140197D01*
X191307716Y-87172900D01*
X191140084Y-87172900D01*
X190975672Y-87140197D01*
X190820800Y-87076047D01*
X190681419Y-86982915D01*
X190562885Y-86864381D01*
X190469753Y-86725000D01*
X190405603Y-86570128D01*
X190372900Y-86405716D01*
X190372900Y-86238084D01*
X190405603Y-86073672D01*
X190469753Y-85918800D01*
X190562885Y-85779419D01*
X190681419Y-85660885D01*
X190820800Y-85567753D01*
X190975672Y-85503603D01*
X191140084Y-85470900D01*
X191307716Y-85470900D01*
X191472128Y-85503603D01*
X191472128Y-85503603D01*
G37*
G36*
X193972128Y-85503603D02*
X194127000Y-85567753D01*
X194266381Y-85660885D01*
X194384915Y-85779419D01*
X194478047Y-85918800D01*
X194542197Y-86073672D01*
X194574900Y-86238084D01*
X194574900Y-86405716D01*
X194542197Y-86570128D01*
X194478047Y-86725000D01*
X194384915Y-86864381D01*
X194266381Y-86982915D01*
X194127000Y-87076047D01*
X193972128Y-87140197D01*
X193807716Y-87172900D01*
X193640084Y-87172900D01*
X193475672Y-87140197D01*
X193320800Y-87076047D01*
X193181419Y-86982915D01*
X193062885Y-86864381D01*
X192969753Y-86725000D01*
X192905603Y-86570128D01*
X192872900Y-86405716D01*
X192872900Y-86238084D01*
X192905603Y-86073672D01*
X192969753Y-85918800D01*
X193062885Y-85779419D01*
X193181419Y-85660885D01*
X193320800Y-85567753D01*
X193475672Y-85503603D01*
X193640084Y-85470900D01*
X193807716Y-85470900D01*
X193972128Y-85503603D01*
X193972128Y-85503603D01*
G37*
G36*
X188957528Y-85490903D02*
X189112400Y-85555053D01*
X189251781Y-85648185D01*
X189370315Y-85766719D01*
X189463447Y-85906100D01*
X189527597Y-86060972D01*
X189560300Y-86225384D01*
X189560300Y-86393016D01*
X189527597Y-86557428D01*
X189463447Y-86712300D01*
X189370315Y-86851681D01*
X189251781Y-86970215D01*
X189112400Y-87063347D01*
X188957528Y-87127497D01*
X188793116Y-87160200D01*
X188625484Y-87160200D01*
X188461072Y-87127497D01*
X188306200Y-87063347D01*
X188166819Y-86970215D01*
X188048285Y-86851681D01*
X187955153Y-86712300D01*
X187891003Y-86557428D01*
X187858300Y-86393016D01*
X187858300Y-86225384D01*
X187891003Y-86060972D01*
X187955153Y-85906100D01*
X188048285Y-85766719D01*
X188166819Y-85648185D01*
X188306200Y-85555053D01*
X188461072Y-85490903D01*
X188625484Y-85458200D01*
X188793116Y-85458200D01*
X188957528Y-85490903D01*
X188957528Y-85490903D01*
G37*
G36*
X186457528Y-85490903D02*
X186612400Y-85555053D01*
X186751781Y-85648185D01*
X186870315Y-85766719D01*
X186963447Y-85906100D01*
X187027597Y-86060972D01*
X187060300Y-86225384D01*
X187060300Y-86393016D01*
X187027597Y-86557428D01*
X186963447Y-86712300D01*
X186870315Y-86851681D01*
X186751781Y-86970215D01*
X186612400Y-87063347D01*
X186457528Y-87127497D01*
X186293116Y-87160200D01*
X186125484Y-87160200D01*
X185961072Y-87127497D01*
X185806200Y-87063347D01*
X185666819Y-86970215D01*
X185548285Y-86851681D01*
X185455153Y-86712300D01*
X185391003Y-86557428D01*
X185358300Y-86393016D01*
X185358300Y-86225384D01*
X185391003Y-86060972D01*
X185455153Y-85906100D01*
X185548285Y-85766719D01*
X185666819Y-85648185D01*
X185806200Y-85555053D01*
X185961072Y-85490903D01*
X186125484Y-85458200D01*
X186293116Y-85458200D01*
X186457528Y-85490903D01*
X186457528Y-85490903D01*
G37*
G36*
X135423863Y-85137859D02*
X135490047Y-85144377D01*
X135603273Y-85178724D01*
X135659887Y-85195897D01*
X135798507Y-85269992D01*
X135816411Y-85279562D01*
X135852149Y-85308892D01*
X135953606Y-85392154D01*
X136018230Y-85470900D01*
X136066198Y-85529349D01*
X136066199Y-85529351D01*
X136149863Y-85685873D01*
X136149863Y-85685874D01*
X136201383Y-85855713D01*
X136218779Y-86032340D01*
X136201383Y-86208967D01*
X136192550Y-86238084D01*
X136149863Y-86378807D01*
X136075768Y-86517427D01*
X136066198Y-86535331D01*
X136048063Y-86557428D01*
X135953606Y-86672526D01*
X135852149Y-86755788D01*
X135816411Y-86785118D01*
X135816409Y-86785119D01*
X135659887Y-86868783D01*
X135604313Y-86885641D01*
X135490047Y-86920303D01*
X135423863Y-86926821D01*
X135357680Y-86933340D01*
X135269160Y-86933340D01*
X135202977Y-86926821D01*
X135136793Y-86920303D01*
X135022527Y-86885641D01*
X134966953Y-86868783D01*
X134810431Y-86785119D01*
X134810429Y-86785118D01*
X134774691Y-86755788D01*
X134673234Y-86672526D01*
X134578777Y-86557428D01*
X134560642Y-86535331D01*
X134551072Y-86517427D01*
X134476977Y-86378807D01*
X134434290Y-86238084D01*
X134425457Y-86208967D01*
X134408061Y-86032340D01*
X134425457Y-85855713D01*
X134476977Y-85685874D01*
X134476977Y-85685873D01*
X134560641Y-85529351D01*
X134560642Y-85529349D01*
X134608610Y-85470900D01*
X134673234Y-85392154D01*
X134774691Y-85308892D01*
X134810429Y-85279562D01*
X134828333Y-85269992D01*
X134966953Y-85195897D01*
X135023567Y-85178724D01*
X135136793Y-85144377D01*
X135202977Y-85137859D01*
X135269160Y-85131340D01*
X135357680Y-85131340D01*
X135423863Y-85137859D01*
X135423863Y-85137859D01*
G37*
G36*
X132883863Y-85137859D02*
X132950047Y-85144377D01*
X133063273Y-85178724D01*
X133119887Y-85195897D01*
X133258507Y-85269992D01*
X133276411Y-85279562D01*
X133312149Y-85308892D01*
X133413606Y-85392154D01*
X133478230Y-85470900D01*
X133526198Y-85529349D01*
X133526199Y-85529351D01*
X133609863Y-85685873D01*
X133609863Y-85685874D01*
X133661383Y-85855713D01*
X133678779Y-86032340D01*
X133661383Y-86208967D01*
X133652550Y-86238084D01*
X133609863Y-86378807D01*
X133535768Y-86517427D01*
X133526198Y-86535331D01*
X133508063Y-86557428D01*
X133413606Y-86672526D01*
X133312149Y-86755788D01*
X133276411Y-86785118D01*
X133276409Y-86785119D01*
X133119887Y-86868783D01*
X133064313Y-86885641D01*
X132950047Y-86920303D01*
X132883863Y-86926821D01*
X132817680Y-86933340D01*
X132729160Y-86933340D01*
X132662977Y-86926821D01*
X132596793Y-86920303D01*
X132482527Y-86885641D01*
X132426953Y-86868783D01*
X132270431Y-86785119D01*
X132270429Y-86785118D01*
X132234691Y-86755788D01*
X132133234Y-86672526D01*
X132038777Y-86557428D01*
X132020642Y-86535331D01*
X132011072Y-86517427D01*
X131936977Y-86378807D01*
X131894290Y-86238084D01*
X131885457Y-86208967D01*
X131868061Y-86032340D01*
X131885457Y-85855713D01*
X131936977Y-85685874D01*
X131936977Y-85685873D01*
X132020641Y-85529351D01*
X132020642Y-85529349D01*
X132068610Y-85470900D01*
X132133234Y-85392154D01*
X132234691Y-85308892D01*
X132270429Y-85279562D01*
X132288333Y-85269992D01*
X132426953Y-85195897D01*
X132483567Y-85178724D01*
X132596793Y-85144377D01*
X132662977Y-85137859D01*
X132729160Y-85131340D01*
X132817680Y-85131340D01*
X132883863Y-85137859D01*
X132883863Y-85137859D01*
G37*
G36*
X135423862Y-82597858D02*
X135490047Y-82604377D01*
X135573061Y-82629559D01*
X135659887Y-82655897D01*
X135742142Y-82699864D01*
X135816411Y-82739562D01*
X135852149Y-82768892D01*
X135953606Y-82852154D01*
X136028066Y-82942885D01*
X136066198Y-82989349D01*
X136066199Y-82989351D01*
X136149863Y-83145873D01*
X136162272Y-83186780D01*
X136201383Y-83315713D01*
X136218779Y-83492340D01*
X136201383Y-83668967D01*
X136167036Y-83782193D01*
X136149863Y-83838807D01*
X136075768Y-83977427D01*
X136066198Y-83995331D01*
X136036868Y-84031069D01*
X135953606Y-84132526D01*
X135852149Y-84215788D01*
X135816411Y-84245118D01*
X135816409Y-84245119D01*
X135659887Y-84328783D01*
X135603273Y-84345956D01*
X135490047Y-84380303D01*
X135423862Y-84386822D01*
X135357680Y-84393340D01*
X135269160Y-84393340D01*
X135202978Y-84386822D01*
X135136793Y-84380303D01*
X135023567Y-84345956D01*
X134966953Y-84328783D01*
X134810431Y-84245119D01*
X134810429Y-84245118D01*
X134774691Y-84215788D01*
X134673234Y-84132526D01*
X134589972Y-84031069D01*
X134560642Y-83995331D01*
X134551072Y-83977427D01*
X134476977Y-83838807D01*
X134459804Y-83782193D01*
X134425457Y-83668967D01*
X134408061Y-83492340D01*
X134425457Y-83315713D01*
X134464568Y-83186780D01*
X134476977Y-83145873D01*
X134560641Y-82989351D01*
X134560642Y-82989349D01*
X134598774Y-82942885D01*
X134673234Y-82852154D01*
X134774691Y-82768892D01*
X134810429Y-82739562D01*
X134884698Y-82699864D01*
X134966953Y-82655897D01*
X135053779Y-82629559D01*
X135136793Y-82604377D01*
X135202978Y-82597858D01*
X135269160Y-82591340D01*
X135357680Y-82591340D01*
X135423862Y-82597858D01*
X135423862Y-82597858D01*
G37*
G36*
X132883862Y-82597858D02*
X132950047Y-82604377D01*
X133033061Y-82629559D01*
X133119887Y-82655897D01*
X133202142Y-82699864D01*
X133276411Y-82739562D01*
X133312149Y-82768892D01*
X133413606Y-82852154D01*
X133488066Y-82942885D01*
X133526198Y-82989349D01*
X133526199Y-82989351D01*
X133609863Y-83145873D01*
X133622272Y-83186780D01*
X133661383Y-83315713D01*
X133678779Y-83492340D01*
X133661383Y-83668967D01*
X133627036Y-83782193D01*
X133609863Y-83838807D01*
X133535768Y-83977427D01*
X133526198Y-83995331D01*
X133496868Y-84031069D01*
X133413606Y-84132526D01*
X133312149Y-84215788D01*
X133276411Y-84245118D01*
X133276409Y-84245119D01*
X133119887Y-84328783D01*
X133063273Y-84345956D01*
X132950047Y-84380303D01*
X132883862Y-84386822D01*
X132817680Y-84393340D01*
X132729160Y-84393340D01*
X132662978Y-84386822D01*
X132596793Y-84380303D01*
X132483567Y-84345956D01*
X132426953Y-84328783D01*
X132270431Y-84245119D01*
X132270429Y-84245118D01*
X132234691Y-84215788D01*
X132133234Y-84132526D01*
X132049972Y-84031069D01*
X132020642Y-83995331D01*
X132011072Y-83977427D01*
X131936977Y-83838807D01*
X131919804Y-83782193D01*
X131885457Y-83668967D01*
X131868061Y-83492340D01*
X131885457Y-83315713D01*
X131924568Y-83186780D01*
X131936977Y-83145873D01*
X132020641Y-82989351D01*
X132020642Y-82989349D01*
X132058774Y-82942885D01*
X132133234Y-82852154D01*
X132234691Y-82768892D01*
X132270429Y-82739562D01*
X132344698Y-82699864D01*
X132426953Y-82655897D01*
X132513779Y-82629559D01*
X132596793Y-82604377D01*
X132662978Y-82597858D01*
X132729160Y-82591340D01*
X132817680Y-82591340D01*
X132883862Y-82597858D01*
X132883862Y-82597858D01*
G37*
G36*
X196447861Y-81957693D02*
X196447864Y-81957694D01*
X196447865Y-81957694D01*
X196608279Y-82006355D01*
X196608281Y-82006356D01*
X196608284Y-82006357D01*
X196756118Y-82085375D01*
X196885699Y-82191721D01*
X196992045Y-82321302D01*
X197071063Y-82469136D01*
X197071064Y-82469139D01*
X197071065Y-82469141D01*
X197112088Y-82604377D01*
X197119727Y-82629559D01*
X197136157Y-82796380D01*
X197119727Y-82963201D01*
X197119726Y-82963204D01*
X197119726Y-82963205D01*
X197072449Y-83119058D01*
X197071063Y-83123624D01*
X196992045Y-83271458D01*
X196885699Y-83401039D01*
X196756118Y-83507385D01*
X196608284Y-83586403D01*
X196608281Y-83586404D01*
X196608279Y-83586405D01*
X196447865Y-83635066D01*
X196447864Y-83635066D01*
X196447861Y-83635067D01*
X196322844Y-83647380D01*
X196239236Y-83647380D01*
X196114219Y-83635067D01*
X196114216Y-83635066D01*
X196114215Y-83635066D01*
X195953801Y-83586405D01*
X195953799Y-83586404D01*
X195953796Y-83586403D01*
X195805962Y-83507385D01*
X195676381Y-83401039D01*
X195570035Y-83271458D01*
X195491017Y-83123624D01*
X195489632Y-83119058D01*
X195442354Y-82963205D01*
X195442354Y-82963204D01*
X195442353Y-82963201D01*
X195425923Y-82796380D01*
X195442353Y-82629559D01*
X195449992Y-82604377D01*
X195491015Y-82469141D01*
X195491016Y-82469139D01*
X195491017Y-82469136D01*
X195570035Y-82321302D01*
X195676381Y-82191721D01*
X195805962Y-82085375D01*
X195953796Y-82006357D01*
X195953799Y-82006356D01*
X195953801Y-82006355D01*
X196114215Y-81957694D01*
X196114216Y-81957694D01*
X196114219Y-81957693D01*
X196239236Y-81945380D01*
X196322844Y-81945380D01*
X196447861Y-81957693D01*
X196447861Y-81957693D01*
G37*
G36*
X191080968Y-81978083D02*
X191235840Y-82042233D01*
X191375221Y-82135365D01*
X191493755Y-82253899D01*
X191586887Y-82393280D01*
X191651037Y-82548152D01*
X191683740Y-82712564D01*
X191683740Y-82880196D01*
X191651037Y-83044608D01*
X191586887Y-83199480D01*
X191493755Y-83338861D01*
X191375221Y-83457395D01*
X191235840Y-83550527D01*
X191080968Y-83614677D01*
X190916556Y-83647380D01*
X190748924Y-83647380D01*
X190584512Y-83614677D01*
X190429640Y-83550527D01*
X190290259Y-83457395D01*
X190171725Y-83338861D01*
X190078593Y-83199480D01*
X190014443Y-83044608D01*
X189981740Y-82880196D01*
X189981740Y-82712564D01*
X190014443Y-82548152D01*
X190078593Y-82393280D01*
X190171725Y-82253899D01*
X190290259Y-82135365D01*
X190429640Y-82042233D01*
X190584512Y-81978083D01*
X190748924Y-81945380D01*
X190916556Y-81945380D01*
X191080968Y-81978083D01*
X191080968Y-81978083D01*
G37*
G36*
X181649948Y-81965383D02*
X181804820Y-82029533D01*
X181944201Y-82122665D01*
X182062735Y-82241199D01*
X182155867Y-82380580D01*
X182220017Y-82535452D01*
X182252720Y-82699864D01*
X182252720Y-82867496D01*
X182220017Y-83031908D01*
X182155867Y-83186780D01*
X182062735Y-83326161D01*
X181944201Y-83444695D01*
X181804820Y-83537827D01*
X181649948Y-83601977D01*
X181485536Y-83634680D01*
X181317904Y-83634680D01*
X181153492Y-83601977D01*
X180998620Y-83537827D01*
X180859239Y-83444695D01*
X180740705Y-83326161D01*
X180647573Y-83186780D01*
X180583423Y-83031908D01*
X180550720Y-82867496D01*
X180550720Y-82699864D01*
X180583423Y-82535452D01*
X180647573Y-82380580D01*
X180740705Y-82241199D01*
X180859239Y-82122665D01*
X180998620Y-82029533D01*
X181153492Y-81965383D01*
X181317904Y-81932680D01*
X181485536Y-81932680D01*
X181649948Y-81965383D01*
X181649948Y-81965383D01*
G37*
G36*
X185457281Y-81937373D02*
X185457284Y-81937374D01*
X185457285Y-81937374D01*
X185617699Y-81986035D01*
X185617701Y-81986036D01*
X185617704Y-81986037D01*
X185765538Y-82065055D01*
X185895119Y-82171401D01*
X186001465Y-82300982D01*
X186080483Y-82448816D01*
X186080484Y-82448819D01*
X186080485Y-82448821D01*
X186127672Y-82604377D01*
X186129147Y-82609239D01*
X186145577Y-82776060D01*
X186129147Y-82942881D01*
X186129146Y-82942884D01*
X186129146Y-82942885D01*
X186098289Y-83044608D01*
X186080483Y-83103304D01*
X186001465Y-83251138D01*
X185895119Y-83380719D01*
X185765538Y-83487065D01*
X185617704Y-83566083D01*
X185617701Y-83566084D01*
X185617699Y-83566085D01*
X185457285Y-83614746D01*
X185457284Y-83614746D01*
X185457281Y-83614747D01*
X185332264Y-83627060D01*
X185248656Y-83627060D01*
X185123639Y-83614747D01*
X185123636Y-83614746D01*
X185123635Y-83614746D01*
X184963221Y-83566085D01*
X184963219Y-83566084D01*
X184963216Y-83566083D01*
X184815382Y-83487065D01*
X184685801Y-83380719D01*
X184579455Y-83251138D01*
X184500437Y-83103304D01*
X184482632Y-83044608D01*
X184451774Y-82942885D01*
X184451774Y-82942884D01*
X184451773Y-82942881D01*
X184435343Y-82776060D01*
X184451773Y-82609239D01*
X184453248Y-82604377D01*
X184500435Y-82448821D01*
X184500436Y-82448819D01*
X184500437Y-82448816D01*
X184579455Y-82300982D01*
X184685801Y-82171401D01*
X184815382Y-82065055D01*
X184963216Y-81986037D01*
X184963219Y-81986036D01*
X184963221Y-81986035D01*
X185123635Y-81937374D01*
X185123636Y-81937374D01*
X185123639Y-81937373D01*
X185248656Y-81925060D01*
X185332264Y-81925060D01*
X185457281Y-81937373D01*
X185457281Y-81937373D01*
G37*
G36*
X201718361Y-81805293D02*
X201718364Y-81805294D01*
X201718365Y-81805294D01*
X201878779Y-81853955D01*
X201878781Y-81853956D01*
X201878784Y-81853957D01*
X202026618Y-81932975D01*
X202156199Y-82039321D01*
X202262545Y-82168902D01*
X202341563Y-82316736D01*
X202341564Y-82316739D01*
X202341565Y-82316741D01*
X202381629Y-82448816D01*
X202390227Y-82477159D01*
X202406657Y-82643980D01*
X202390227Y-82810801D01*
X202390226Y-82810804D01*
X202390226Y-82810805D01*
X202341668Y-82970880D01*
X202341563Y-82971224D01*
X202262545Y-83119058D01*
X202156199Y-83248639D01*
X202026618Y-83354985D01*
X201878784Y-83434003D01*
X201878781Y-83434004D01*
X201878779Y-83434005D01*
X201718365Y-83482666D01*
X201718364Y-83482666D01*
X201718361Y-83482667D01*
X201593344Y-83494980D01*
X201509736Y-83494980D01*
X201384719Y-83482667D01*
X201384716Y-83482666D01*
X201384715Y-83482666D01*
X201224301Y-83434005D01*
X201224299Y-83434004D01*
X201224296Y-83434003D01*
X201076462Y-83354985D01*
X200946881Y-83248639D01*
X200840535Y-83119058D01*
X200761517Y-82971224D01*
X200761413Y-82970880D01*
X200712854Y-82810805D01*
X200712854Y-82810804D01*
X200712853Y-82810801D01*
X200696423Y-82643980D01*
X200712853Y-82477159D01*
X200721451Y-82448816D01*
X200761515Y-82316741D01*
X200761516Y-82316739D01*
X200761517Y-82316736D01*
X200840535Y-82168902D01*
X200946881Y-82039321D01*
X201076462Y-81932975D01*
X201224296Y-81853957D01*
X201224299Y-81853956D01*
X201224301Y-81853955D01*
X201384715Y-81805294D01*
X201384716Y-81805294D01*
X201384719Y-81805293D01*
X201509736Y-81792980D01*
X201593344Y-81792980D01*
X201718361Y-81805293D01*
X201718361Y-81805293D01*
G37*
G36*
X212848768Y-81787583D02*
X213003640Y-81851733D01*
X213143021Y-81944865D01*
X213261555Y-82063399D01*
X213354687Y-82202780D01*
X213418837Y-82357652D01*
X213451540Y-82522064D01*
X213451540Y-82689696D01*
X213418837Y-82854108D01*
X213354687Y-83008980D01*
X213261555Y-83148361D01*
X213143021Y-83266895D01*
X213003640Y-83360027D01*
X212848768Y-83424177D01*
X212684356Y-83456880D01*
X212516724Y-83456880D01*
X212352312Y-83424177D01*
X212197440Y-83360027D01*
X212058059Y-83266895D01*
X211939525Y-83148361D01*
X211846393Y-83008980D01*
X211782243Y-82854108D01*
X211749540Y-82689696D01*
X211749540Y-82522064D01*
X211782243Y-82357652D01*
X211846393Y-82202780D01*
X211939525Y-82063399D01*
X212058059Y-81944865D01*
X212197440Y-81851733D01*
X212352312Y-81787583D01*
X212516724Y-81754880D01*
X212684356Y-81754880D01*
X212848768Y-81787583D01*
X212848768Y-81787583D01*
G37*
G36*
X207248068Y-81749483D02*
X207402940Y-81813633D01*
X207542321Y-81906765D01*
X207660855Y-82025299D01*
X207753987Y-82164680D01*
X207818137Y-82319552D01*
X207850840Y-82483964D01*
X207850840Y-82651596D01*
X207818137Y-82816008D01*
X207753987Y-82970880D01*
X207660855Y-83110261D01*
X207542321Y-83228795D01*
X207402940Y-83321927D01*
X207248068Y-83386077D01*
X207083656Y-83418780D01*
X206916024Y-83418780D01*
X206751612Y-83386077D01*
X206596740Y-83321927D01*
X206457359Y-83228795D01*
X206338825Y-83110261D01*
X206245693Y-82970880D01*
X206181543Y-82816008D01*
X206148840Y-82651596D01*
X206148840Y-82483964D01*
X206181543Y-82319552D01*
X206245693Y-82164680D01*
X206338825Y-82025299D01*
X206457359Y-81906765D01*
X206596740Y-81813633D01*
X206751612Y-81749483D01*
X206916024Y-81716780D01*
X207083656Y-81716780D01*
X207248068Y-81749483D01*
X207248068Y-81749483D01*
G37*
G36*
X135423863Y-80057859D02*
X135490047Y-80064377D01*
X135603273Y-80098724D01*
X135659887Y-80115897D01*
X135798507Y-80189992D01*
X135816411Y-80199562D01*
X135852149Y-80228892D01*
X135953606Y-80312154D01*
X135999023Y-80367496D01*
X136066198Y-80449349D01*
X136066199Y-80449351D01*
X136149863Y-80605873D01*
X136167036Y-80662487D01*
X136201383Y-80775713D01*
X136218779Y-80952340D01*
X136201383Y-81128967D01*
X136167036Y-81242193D01*
X136149863Y-81298807D01*
X136075768Y-81437427D01*
X136066198Y-81455331D01*
X136036868Y-81491069D01*
X135953606Y-81592526D01*
X135852149Y-81675788D01*
X135816411Y-81705118D01*
X135816409Y-81705119D01*
X135659887Y-81788783D01*
X135605460Y-81805293D01*
X135490047Y-81840303D01*
X135423863Y-81846821D01*
X135357680Y-81853340D01*
X135269160Y-81853340D01*
X135202977Y-81846821D01*
X135136793Y-81840303D01*
X135021380Y-81805293D01*
X134966953Y-81788783D01*
X134810431Y-81705119D01*
X134810429Y-81705118D01*
X134774691Y-81675788D01*
X134673234Y-81592526D01*
X134589972Y-81491069D01*
X134560642Y-81455331D01*
X134551072Y-81437427D01*
X134476977Y-81298807D01*
X134459804Y-81242193D01*
X134425457Y-81128967D01*
X134408061Y-80952340D01*
X134425457Y-80775713D01*
X134459804Y-80662487D01*
X134476977Y-80605873D01*
X134560641Y-80449351D01*
X134560642Y-80449349D01*
X134627817Y-80367496D01*
X134673234Y-80312154D01*
X134774691Y-80228892D01*
X134810429Y-80199562D01*
X134828333Y-80189992D01*
X134966953Y-80115897D01*
X135023567Y-80098724D01*
X135136793Y-80064377D01*
X135202977Y-80057859D01*
X135269160Y-80051340D01*
X135357680Y-80051340D01*
X135423863Y-80057859D01*
X135423863Y-80057859D01*
G37*
G36*
X133674420Y-81853340D02*
X131872420Y-81853340D01*
X131872420Y-80051340D01*
X133674420Y-80051340D01*
X133674420Y-81853340D01*
X133674420Y-81853340D01*
G37*
G36*
X181649948Y-79465383D02*
X181804820Y-79529533D01*
X181944201Y-79622665D01*
X182062735Y-79741199D01*
X182155867Y-79880580D01*
X182220017Y-80035452D01*
X182252720Y-80199864D01*
X182252720Y-80367496D01*
X182220017Y-80531908D01*
X182155867Y-80686780D01*
X182062735Y-80826161D01*
X181944201Y-80944695D01*
X181804820Y-81037827D01*
X181649948Y-81101977D01*
X181485536Y-81134680D01*
X181317904Y-81134680D01*
X181153492Y-81101977D01*
X180998620Y-81037827D01*
X180859239Y-80944695D01*
X180740705Y-80826161D01*
X180647573Y-80686780D01*
X180583423Y-80531908D01*
X180550720Y-80367496D01*
X180550720Y-80199864D01*
X180583423Y-80035452D01*
X180647573Y-79880580D01*
X180740705Y-79741199D01*
X180859239Y-79622665D01*
X180998620Y-79529533D01*
X181153492Y-79465383D01*
X181317904Y-79432680D01*
X181485536Y-79432680D01*
X181649948Y-79465383D01*
X181649948Y-79465383D01*
G37*
G36*
X164225421Y-79031613D02*
X164225424Y-79031614D01*
X164225425Y-79031614D01*
X164385839Y-79080275D01*
X164385841Y-79080276D01*
X164385844Y-79080277D01*
X164533678Y-79159295D01*
X164663259Y-79265641D01*
X164769605Y-79395222D01*
X164848623Y-79543056D01*
X164848624Y-79543059D01*
X164848625Y-79543061D01*
X164872773Y-79622666D01*
X164897287Y-79703479D01*
X164913717Y-79870300D01*
X164897287Y-80037121D01*
X164897286Y-80037124D01*
X164897286Y-80037125D01*
X164873391Y-80115897D01*
X164848623Y-80197544D01*
X164769605Y-80345378D01*
X164663259Y-80474959D01*
X164533678Y-80581305D01*
X164385844Y-80660323D01*
X164385841Y-80660324D01*
X164385839Y-80660325D01*
X164225425Y-80708986D01*
X164225424Y-80708986D01*
X164225421Y-80708987D01*
X164100404Y-80721300D01*
X164016796Y-80721300D01*
X163891779Y-80708987D01*
X163891776Y-80708986D01*
X163891775Y-80708986D01*
X163731361Y-80660325D01*
X163731359Y-80660324D01*
X163731356Y-80660323D01*
X163583522Y-80581305D01*
X163453941Y-80474959D01*
X163347595Y-80345378D01*
X163268577Y-80197544D01*
X163243810Y-80115897D01*
X163219914Y-80037125D01*
X163219914Y-80037124D01*
X163219913Y-80037121D01*
X163203483Y-79870300D01*
X163219913Y-79703479D01*
X163244427Y-79622666D01*
X163268575Y-79543061D01*
X163268576Y-79543059D01*
X163268577Y-79543056D01*
X163347595Y-79395222D01*
X163453941Y-79265641D01*
X163583522Y-79159295D01*
X163731356Y-79080277D01*
X163731359Y-79080276D01*
X163731361Y-79080275D01*
X163891775Y-79031614D01*
X163891776Y-79031614D01*
X163891779Y-79031613D01*
X164016796Y-79019300D01*
X164100404Y-79019300D01*
X164225421Y-79031613D01*
X164225421Y-79031613D01*
G37*
G36*
X146445421Y-79031613D02*
X146445424Y-79031614D01*
X146445425Y-79031614D01*
X146605839Y-79080275D01*
X146605841Y-79080276D01*
X146605844Y-79080277D01*
X146753678Y-79159295D01*
X146883259Y-79265641D01*
X146989605Y-79395222D01*
X147068623Y-79543056D01*
X147068624Y-79543059D01*
X147068625Y-79543061D01*
X147092773Y-79622666D01*
X147117287Y-79703479D01*
X147133717Y-79870300D01*
X147117287Y-80037121D01*
X147117286Y-80037124D01*
X147117286Y-80037125D01*
X147093391Y-80115897D01*
X147068623Y-80197544D01*
X146989605Y-80345378D01*
X146883259Y-80474959D01*
X146753678Y-80581305D01*
X146605844Y-80660323D01*
X146605841Y-80660324D01*
X146605839Y-80660325D01*
X146445425Y-80708986D01*
X146445424Y-80708986D01*
X146445421Y-80708987D01*
X146320404Y-80721300D01*
X146236796Y-80721300D01*
X146111779Y-80708987D01*
X146111776Y-80708986D01*
X146111775Y-80708986D01*
X145951361Y-80660325D01*
X145951359Y-80660324D01*
X145951356Y-80660323D01*
X145803522Y-80581305D01*
X145673941Y-80474959D01*
X145567595Y-80345378D01*
X145488577Y-80197544D01*
X145463810Y-80115897D01*
X145439914Y-80037125D01*
X145439914Y-80037124D01*
X145439913Y-80037121D01*
X145423483Y-79870300D01*
X145439913Y-79703479D01*
X145464427Y-79622666D01*
X145488575Y-79543061D01*
X145488576Y-79543059D01*
X145488577Y-79543056D01*
X145567595Y-79395222D01*
X145673941Y-79265641D01*
X145803522Y-79159295D01*
X145951356Y-79080277D01*
X145951359Y-79080276D01*
X145951361Y-79080275D01*
X146111775Y-79031614D01*
X146111776Y-79031614D01*
X146111779Y-79031613D01*
X146236796Y-79019300D01*
X146320404Y-79019300D01*
X146445421Y-79031613D01*
X146445421Y-79031613D01*
G37*
G36*
X143905421Y-79031613D02*
X143905424Y-79031614D01*
X143905425Y-79031614D01*
X144065839Y-79080275D01*
X144065841Y-79080276D01*
X144065844Y-79080277D01*
X144213678Y-79159295D01*
X144343259Y-79265641D01*
X144449605Y-79395222D01*
X144528623Y-79543056D01*
X144528624Y-79543059D01*
X144528625Y-79543061D01*
X144552773Y-79622666D01*
X144577287Y-79703479D01*
X144593717Y-79870300D01*
X144577287Y-80037121D01*
X144577286Y-80037124D01*
X144577286Y-80037125D01*
X144553391Y-80115897D01*
X144528623Y-80197544D01*
X144449605Y-80345378D01*
X144343259Y-80474959D01*
X144213678Y-80581305D01*
X144065844Y-80660323D01*
X144065841Y-80660324D01*
X144065839Y-80660325D01*
X143905425Y-80708986D01*
X143905424Y-80708986D01*
X143905421Y-80708987D01*
X143780404Y-80721300D01*
X143696796Y-80721300D01*
X143571779Y-80708987D01*
X143571776Y-80708986D01*
X143571775Y-80708986D01*
X143411361Y-80660325D01*
X143411359Y-80660324D01*
X143411356Y-80660323D01*
X143263522Y-80581305D01*
X143133941Y-80474959D01*
X143027595Y-80345378D01*
X142948577Y-80197544D01*
X142923810Y-80115897D01*
X142899914Y-80037125D01*
X142899914Y-80037124D01*
X142899913Y-80037121D01*
X142883483Y-79870300D01*
X142899913Y-79703479D01*
X142924427Y-79622666D01*
X142948575Y-79543061D01*
X142948576Y-79543059D01*
X142948577Y-79543056D01*
X143027595Y-79395222D01*
X143133941Y-79265641D01*
X143263522Y-79159295D01*
X143411356Y-79080277D01*
X143411359Y-79080276D01*
X143411361Y-79080275D01*
X143571775Y-79031614D01*
X143571776Y-79031614D01*
X143571779Y-79031613D01*
X143696796Y-79019300D01*
X143780404Y-79019300D01*
X143905421Y-79031613D01*
X143905421Y-79031613D01*
G37*
G36*
X141365421Y-79031613D02*
X141365424Y-79031614D01*
X141365425Y-79031614D01*
X141525839Y-79080275D01*
X141525841Y-79080276D01*
X141525844Y-79080277D01*
X141673678Y-79159295D01*
X141803259Y-79265641D01*
X141909605Y-79395222D01*
X141988623Y-79543056D01*
X141988624Y-79543059D01*
X141988625Y-79543061D01*
X142012773Y-79622666D01*
X142037287Y-79703479D01*
X142053717Y-79870300D01*
X142037287Y-80037121D01*
X142037286Y-80037124D01*
X142037286Y-80037125D01*
X142013391Y-80115897D01*
X141988623Y-80197544D01*
X141909605Y-80345378D01*
X141803259Y-80474959D01*
X141673678Y-80581305D01*
X141525844Y-80660323D01*
X141525841Y-80660324D01*
X141525839Y-80660325D01*
X141365425Y-80708986D01*
X141365424Y-80708986D01*
X141365421Y-80708987D01*
X141240404Y-80721300D01*
X141156796Y-80721300D01*
X141031779Y-80708987D01*
X141031776Y-80708986D01*
X141031775Y-80708986D01*
X140871361Y-80660325D01*
X140871359Y-80660324D01*
X140871356Y-80660323D01*
X140723522Y-80581305D01*
X140593941Y-80474959D01*
X140487595Y-80345378D01*
X140408577Y-80197544D01*
X140383810Y-80115897D01*
X140359914Y-80037125D01*
X140359914Y-80037124D01*
X140359913Y-80037121D01*
X140343483Y-79870300D01*
X140359913Y-79703479D01*
X140384427Y-79622666D01*
X140408575Y-79543061D01*
X140408576Y-79543059D01*
X140408577Y-79543056D01*
X140487595Y-79395222D01*
X140593941Y-79265641D01*
X140723522Y-79159295D01*
X140871356Y-79080277D01*
X140871359Y-79080276D01*
X140871361Y-79080275D01*
X141031775Y-79031614D01*
X141031776Y-79031614D01*
X141031779Y-79031613D01*
X141156796Y-79019300D01*
X141240404Y-79019300D01*
X141365421Y-79031613D01*
X141365421Y-79031613D01*
G37*
G36*
X148985421Y-79031613D02*
X148985424Y-79031614D01*
X148985425Y-79031614D01*
X149145839Y-79080275D01*
X149145841Y-79080276D01*
X149145844Y-79080277D01*
X149293678Y-79159295D01*
X149423259Y-79265641D01*
X149529605Y-79395222D01*
X149608623Y-79543056D01*
X149608624Y-79543059D01*
X149608625Y-79543061D01*
X149632773Y-79622666D01*
X149657287Y-79703479D01*
X149673717Y-79870300D01*
X149657287Y-80037121D01*
X149657286Y-80037124D01*
X149657286Y-80037125D01*
X149633391Y-80115897D01*
X149608623Y-80197544D01*
X149529605Y-80345378D01*
X149423259Y-80474959D01*
X149293678Y-80581305D01*
X149145844Y-80660323D01*
X149145841Y-80660324D01*
X149145839Y-80660325D01*
X148985425Y-80708986D01*
X148985424Y-80708986D01*
X148985421Y-80708987D01*
X148860404Y-80721300D01*
X148776796Y-80721300D01*
X148651779Y-80708987D01*
X148651776Y-80708986D01*
X148651775Y-80708986D01*
X148491361Y-80660325D01*
X148491359Y-80660324D01*
X148491356Y-80660323D01*
X148343522Y-80581305D01*
X148213941Y-80474959D01*
X148107595Y-80345378D01*
X148028577Y-80197544D01*
X148003810Y-80115897D01*
X147979914Y-80037125D01*
X147979914Y-80037124D01*
X147979913Y-80037121D01*
X147963483Y-79870300D01*
X147979913Y-79703479D01*
X148004427Y-79622666D01*
X148028575Y-79543061D01*
X148028576Y-79543059D01*
X148028577Y-79543056D01*
X148107595Y-79395222D01*
X148213941Y-79265641D01*
X148343522Y-79159295D01*
X148491356Y-79080277D01*
X148491359Y-79080276D01*
X148491361Y-79080275D01*
X148651775Y-79031614D01*
X148651776Y-79031614D01*
X148651779Y-79031613D01*
X148776796Y-79019300D01*
X148860404Y-79019300D01*
X148985421Y-79031613D01*
X148985421Y-79031613D01*
G37*
G36*
X174385421Y-79031613D02*
X174385424Y-79031614D01*
X174385425Y-79031614D01*
X174545839Y-79080275D01*
X174545841Y-79080276D01*
X174545844Y-79080277D01*
X174693678Y-79159295D01*
X174823259Y-79265641D01*
X174929605Y-79395222D01*
X175008623Y-79543056D01*
X175008624Y-79543059D01*
X175008625Y-79543061D01*
X175032773Y-79622666D01*
X175057287Y-79703479D01*
X175073717Y-79870300D01*
X175057287Y-80037121D01*
X175057286Y-80037124D01*
X175057286Y-80037125D01*
X175033391Y-80115897D01*
X175008623Y-80197544D01*
X174929605Y-80345378D01*
X174823259Y-80474959D01*
X174693678Y-80581305D01*
X174545844Y-80660323D01*
X174545841Y-80660324D01*
X174545839Y-80660325D01*
X174385425Y-80708986D01*
X174385424Y-80708986D01*
X174385421Y-80708987D01*
X174260404Y-80721300D01*
X174176796Y-80721300D01*
X174051779Y-80708987D01*
X174051776Y-80708986D01*
X174051775Y-80708986D01*
X173891361Y-80660325D01*
X173891359Y-80660324D01*
X173891356Y-80660323D01*
X173743522Y-80581305D01*
X173613941Y-80474959D01*
X173507595Y-80345378D01*
X173428577Y-80197544D01*
X173403810Y-80115897D01*
X173379914Y-80037125D01*
X173379914Y-80037124D01*
X173379913Y-80037121D01*
X173363483Y-79870300D01*
X173379913Y-79703479D01*
X173404427Y-79622666D01*
X173428575Y-79543061D01*
X173428576Y-79543059D01*
X173428577Y-79543056D01*
X173507595Y-79395222D01*
X173613941Y-79265641D01*
X173743522Y-79159295D01*
X173891356Y-79080277D01*
X173891359Y-79080276D01*
X173891361Y-79080275D01*
X174051775Y-79031614D01*
X174051776Y-79031614D01*
X174051779Y-79031613D01*
X174176796Y-79019300D01*
X174260404Y-79019300D01*
X174385421Y-79031613D01*
X174385421Y-79031613D01*
G37*
G36*
X166765421Y-79031613D02*
X166765424Y-79031614D01*
X166765425Y-79031614D01*
X166925839Y-79080275D01*
X166925841Y-79080276D01*
X166925844Y-79080277D01*
X167073678Y-79159295D01*
X167203259Y-79265641D01*
X167309605Y-79395222D01*
X167388623Y-79543056D01*
X167388624Y-79543059D01*
X167388625Y-79543061D01*
X167412773Y-79622666D01*
X167437287Y-79703479D01*
X167453717Y-79870300D01*
X167437287Y-80037121D01*
X167437286Y-80037124D01*
X167437286Y-80037125D01*
X167413391Y-80115897D01*
X167388623Y-80197544D01*
X167309605Y-80345378D01*
X167203259Y-80474959D01*
X167073678Y-80581305D01*
X166925844Y-80660323D01*
X166925841Y-80660324D01*
X166925839Y-80660325D01*
X166765425Y-80708986D01*
X166765424Y-80708986D01*
X166765421Y-80708987D01*
X166640404Y-80721300D01*
X166556796Y-80721300D01*
X166431779Y-80708987D01*
X166431776Y-80708986D01*
X166431775Y-80708986D01*
X166271361Y-80660325D01*
X166271359Y-80660324D01*
X166271356Y-80660323D01*
X166123522Y-80581305D01*
X165993941Y-80474959D01*
X165887595Y-80345378D01*
X165808577Y-80197544D01*
X165783810Y-80115897D01*
X165759914Y-80037125D01*
X165759914Y-80037124D01*
X165759913Y-80037121D01*
X165743483Y-79870300D01*
X165759913Y-79703479D01*
X165784427Y-79622666D01*
X165808575Y-79543061D01*
X165808576Y-79543059D01*
X165808577Y-79543056D01*
X165887595Y-79395222D01*
X165993941Y-79265641D01*
X166123522Y-79159295D01*
X166271356Y-79080277D01*
X166271359Y-79080276D01*
X166271361Y-79080275D01*
X166431775Y-79031614D01*
X166431776Y-79031614D01*
X166431779Y-79031613D01*
X166556796Y-79019300D01*
X166640404Y-79019300D01*
X166765421Y-79031613D01*
X166765421Y-79031613D01*
G37*
G36*
X161685421Y-79031613D02*
X161685424Y-79031614D01*
X161685425Y-79031614D01*
X161845839Y-79080275D01*
X161845841Y-79080276D01*
X161845844Y-79080277D01*
X161993678Y-79159295D01*
X162123259Y-79265641D01*
X162229605Y-79395222D01*
X162308623Y-79543056D01*
X162308624Y-79543059D01*
X162308625Y-79543061D01*
X162332773Y-79622666D01*
X162357287Y-79703479D01*
X162373717Y-79870300D01*
X162357287Y-80037121D01*
X162357286Y-80037124D01*
X162357286Y-80037125D01*
X162333391Y-80115897D01*
X162308623Y-80197544D01*
X162229605Y-80345378D01*
X162123259Y-80474959D01*
X161993678Y-80581305D01*
X161845844Y-80660323D01*
X161845841Y-80660324D01*
X161845839Y-80660325D01*
X161685425Y-80708986D01*
X161685424Y-80708986D01*
X161685421Y-80708987D01*
X161560404Y-80721300D01*
X161476796Y-80721300D01*
X161351779Y-80708987D01*
X161351776Y-80708986D01*
X161351775Y-80708986D01*
X161191361Y-80660325D01*
X161191359Y-80660324D01*
X161191356Y-80660323D01*
X161043522Y-80581305D01*
X160913941Y-80474959D01*
X160807595Y-80345378D01*
X160728577Y-80197544D01*
X160703810Y-80115897D01*
X160679914Y-80037125D01*
X160679914Y-80037124D01*
X160679913Y-80037121D01*
X160663483Y-79870300D01*
X160679913Y-79703479D01*
X160704427Y-79622666D01*
X160728575Y-79543061D01*
X160728576Y-79543059D01*
X160728577Y-79543056D01*
X160807595Y-79395222D01*
X160913941Y-79265641D01*
X161043522Y-79159295D01*
X161191356Y-79080277D01*
X161191359Y-79080276D01*
X161191361Y-79080275D01*
X161351775Y-79031614D01*
X161351776Y-79031614D01*
X161351779Y-79031613D01*
X161476796Y-79019300D01*
X161560404Y-79019300D01*
X161685421Y-79031613D01*
X161685421Y-79031613D01*
G37*
G36*
X154065421Y-79031613D02*
X154065424Y-79031614D01*
X154065425Y-79031614D01*
X154225839Y-79080275D01*
X154225841Y-79080276D01*
X154225844Y-79080277D01*
X154373678Y-79159295D01*
X154503259Y-79265641D01*
X154609605Y-79395222D01*
X154688623Y-79543056D01*
X154688624Y-79543059D01*
X154688625Y-79543061D01*
X154712773Y-79622666D01*
X154737287Y-79703479D01*
X154753717Y-79870300D01*
X154737287Y-80037121D01*
X154737286Y-80037124D01*
X154737286Y-80037125D01*
X154713391Y-80115897D01*
X154688623Y-80197544D01*
X154609605Y-80345378D01*
X154503259Y-80474959D01*
X154373678Y-80581305D01*
X154225844Y-80660323D01*
X154225841Y-80660324D01*
X154225839Y-80660325D01*
X154065425Y-80708986D01*
X154065424Y-80708986D01*
X154065421Y-80708987D01*
X153940404Y-80721300D01*
X153856796Y-80721300D01*
X153731779Y-80708987D01*
X153731776Y-80708986D01*
X153731775Y-80708986D01*
X153571361Y-80660325D01*
X153571359Y-80660324D01*
X153571356Y-80660323D01*
X153423522Y-80581305D01*
X153293941Y-80474959D01*
X153187595Y-80345378D01*
X153108577Y-80197544D01*
X153083810Y-80115897D01*
X153059914Y-80037125D01*
X153059914Y-80037124D01*
X153059913Y-80037121D01*
X153043483Y-79870300D01*
X153059913Y-79703479D01*
X153084427Y-79622666D01*
X153108575Y-79543061D01*
X153108576Y-79543059D01*
X153108577Y-79543056D01*
X153187595Y-79395222D01*
X153293941Y-79265641D01*
X153423522Y-79159295D01*
X153571356Y-79080277D01*
X153571359Y-79080276D01*
X153571361Y-79080275D01*
X153731775Y-79031614D01*
X153731776Y-79031614D01*
X153731779Y-79031613D01*
X153856796Y-79019300D01*
X153940404Y-79019300D01*
X154065421Y-79031613D01*
X154065421Y-79031613D01*
G37*
G36*
X159145421Y-79031613D02*
X159145424Y-79031614D01*
X159145425Y-79031614D01*
X159305839Y-79080275D01*
X159305841Y-79080276D01*
X159305844Y-79080277D01*
X159453678Y-79159295D01*
X159583259Y-79265641D01*
X159689605Y-79395222D01*
X159768623Y-79543056D01*
X159768624Y-79543059D01*
X159768625Y-79543061D01*
X159792773Y-79622666D01*
X159817287Y-79703479D01*
X159833717Y-79870300D01*
X159817287Y-80037121D01*
X159817286Y-80037124D01*
X159817286Y-80037125D01*
X159793391Y-80115897D01*
X159768623Y-80197544D01*
X159689605Y-80345378D01*
X159583259Y-80474959D01*
X159453678Y-80581305D01*
X159305844Y-80660323D01*
X159305841Y-80660324D01*
X159305839Y-80660325D01*
X159145425Y-80708986D01*
X159145424Y-80708986D01*
X159145421Y-80708987D01*
X159020404Y-80721300D01*
X158936796Y-80721300D01*
X158811779Y-80708987D01*
X158811776Y-80708986D01*
X158811775Y-80708986D01*
X158651361Y-80660325D01*
X158651359Y-80660324D01*
X158651356Y-80660323D01*
X158503522Y-80581305D01*
X158373941Y-80474959D01*
X158267595Y-80345378D01*
X158188577Y-80197544D01*
X158163810Y-80115897D01*
X158139914Y-80037125D01*
X158139914Y-80037124D01*
X158139913Y-80037121D01*
X158123483Y-79870300D01*
X158139913Y-79703479D01*
X158164427Y-79622666D01*
X158188575Y-79543061D01*
X158188576Y-79543059D01*
X158188577Y-79543056D01*
X158267595Y-79395222D01*
X158373941Y-79265641D01*
X158503522Y-79159295D01*
X158651356Y-79080277D01*
X158651359Y-79080276D01*
X158651361Y-79080275D01*
X158811775Y-79031614D01*
X158811776Y-79031614D01*
X158811779Y-79031613D01*
X158936796Y-79019300D01*
X159020404Y-79019300D01*
X159145421Y-79031613D01*
X159145421Y-79031613D01*
G37*
G36*
X151525421Y-79031613D02*
X151525424Y-79031614D01*
X151525425Y-79031614D01*
X151685839Y-79080275D01*
X151685841Y-79080276D01*
X151685844Y-79080277D01*
X151833678Y-79159295D01*
X151963259Y-79265641D01*
X152069605Y-79395222D01*
X152148623Y-79543056D01*
X152148624Y-79543059D01*
X152148625Y-79543061D01*
X152172773Y-79622666D01*
X152197287Y-79703479D01*
X152213717Y-79870300D01*
X152197287Y-80037121D01*
X152197286Y-80037124D01*
X152197286Y-80037125D01*
X152173391Y-80115897D01*
X152148623Y-80197544D01*
X152069605Y-80345378D01*
X151963259Y-80474959D01*
X151833678Y-80581305D01*
X151685844Y-80660323D01*
X151685841Y-80660324D01*
X151685839Y-80660325D01*
X151525425Y-80708986D01*
X151525424Y-80708986D01*
X151525421Y-80708987D01*
X151400404Y-80721300D01*
X151316796Y-80721300D01*
X151191779Y-80708987D01*
X151191776Y-80708986D01*
X151191775Y-80708986D01*
X151031361Y-80660325D01*
X151031359Y-80660324D01*
X151031356Y-80660323D01*
X150883522Y-80581305D01*
X150753941Y-80474959D01*
X150647595Y-80345378D01*
X150568577Y-80197544D01*
X150543810Y-80115897D01*
X150519914Y-80037125D01*
X150519914Y-80037124D01*
X150519913Y-80037121D01*
X150503483Y-79870300D01*
X150519913Y-79703479D01*
X150544427Y-79622666D01*
X150568575Y-79543061D01*
X150568576Y-79543059D01*
X150568577Y-79543056D01*
X150647595Y-79395222D01*
X150753941Y-79265641D01*
X150883522Y-79159295D01*
X151031356Y-79080277D01*
X151031359Y-79080276D01*
X151031361Y-79080275D01*
X151191775Y-79031614D01*
X151191776Y-79031614D01*
X151191779Y-79031613D01*
X151316796Y-79019300D01*
X151400404Y-79019300D01*
X151525421Y-79031613D01*
X151525421Y-79031613D01*
G37*
G36*
X156605421Y-79031613D02*
X156605424Y-79031614D01*
X156605425Y-79031614D01*
X156765839Y-79080275D01*
X156765841Y-79080276D01*
X156765844Y-79080277D01*
X156913678Y-79159295D01*
X157043259Y-79265641D01*
X157149605Y-79395222D01*
X157228623Y-79543056D01*
X157228624Y-79543059D01*
X157228625Y-79543061D01*
X157252773Y-79622666D01*
X157277287Y-79703479D01*
X157293717Y-79870300D01*
X157277287Y-80037121D01*
X157277286Y-80037124D01*
X157277286Y-80037125D01*
X157253391Y-80115897D01*
X157228623Y-80197544D01*
X157149605Y-80345378D01*
X157043259Y-80474959D01*
X156913678Y-80581305D01*
X156765844Y-80660323D01*
X156765841Y-80660324D01*
X156765839Y-80660325D01*
X156605425Y-80708986D01*
X156605424Y-80708986D01*
X156605421Y-80708987D01*
X156480404Y-80721300D01*
X156396796Y-80721300D01*
X156271779Y-80708987D01*
X156271776Y-80708986D01*
X156271775Y-80708986D01*
X156111361Y-80660325D01*
X156111359Y-80660324D01*
X156111356Y-80660323D01*
X155963522Y-80581305D01*
X155833941Y-80474959D01*
X155727595Y-80345378D01*
X155648577Y-80197544D01*
X155623810Y-80115897D01*
X155599914Y-80037125D01*
X155599914Y-80037124D01*
X155599913Y-80037121D01*
X155583483Y-79870300D01*
X155599913Y-79703479D01*
X155624427Y-79622666D01*
X155648575Y-79543061D01*
X155648576Y-79543059D01*
X155648577Y-79543056D01*
X155727595Y-79395222D01*
X155833941Y-79265641D01*
X155963522Y-79159295D01*
X156111356Y-79080277D01*
X156111359Y-79080276D01*
X156111361Y-79080275D01*
X156271775Y-79031614D01*
X156271776Y-79031614D01*
X156271779Y-79031613D01*
X156396796Y-79019300D01*
X156480404Y-79019300D01*
X156605421Y-79031613D01*
X156605421Y-79031613D01*
G37*
G36*
X169305421Y-79031613D02*
X169305424Y-79031614D01*
X169305425Y-79031614D01*
X169465839Y-79080275D01*
X169465841Y-79080276D01*
X169465844Y-79080277D01*
X169613678Y-79159295D01*
X169743259Y-79265641D01*
X169849605Y-79395222D01*
X169928623Y-79543056D01*
X169928624Y-79543059D01*
X169928625Y-79543061D01*
X169952773Y-79622666D01*
X169977287Y-79703479D01*
X169993717Y-79870300D01*
X169977287Y-80037121D01*
X169977286Y-80037124D01*
X169977286Y-80037125D01*
X169953391Y-80115897D01*
X169928623Y-80197544D01*
X169849605Y-80345378D01*
X169743259Y-80474959D01*
X169613678Y-80581305D01*
X169465844Y-80660323D01*
X169465841Y-80660324D01*
X169465839Y-80660325D01*
X169305425Y-80708986D01*
X169305424Y-80708986D01*
X169305421Y-80708987D01*
X169180404Y-80721300D01*
X169096796Y-80721300D01*
X168971779Y-80708987D01*
X168971776Y-80708986D01*
X168971775Y-80708986D01*
X168811361Y-80660325D01*
X168811359Y-80660324D01*
X168811356Y-80660323D01*
X168663522Y-80581305D01*
X168533941Y-80474959D01*
X168427595Y-80345378D01*
X168348577Y-80197544D01*
X168323810Y-80115897D01*
X168299914Y-80037125D01*
X168299914Y-80037124D01*
X168299913Y-80037121D01*
X168283483Y-79870300D01*
X168299913Y-79703479D01*
X168324427Y-79622666D01*
X168348575Y-79543061D01*
X168348576Y-79543059D01*
X168348577Y-79543056D01*
X168427595Y-79395222D01*
X168533941Y-79265641D01*
X168663522Y-79159295D01*
X168811356Y-79080277D01*
X168811359Y-79080276D01*
X168811361Y-79080275D01*
X168971775Y-79031614D01*
X168971776Y-79031614D01*
X168971779Y-79031613D01*
X169096796Y-79019300D01*
X169180404Y-79019300D01*
X169305421Y-79031613D01*
X169305421Y-79031613D01*
G37*
G36*
X171845421Y-79031613D02*
X171845424Y-79031614D01*
X171845425Y-79031614D01*
X172005839Y-79080275D01*
X172005841Y-79080276D01*
X172005844Y-79080277D01*
X172153678Y-79159295D01*
X172283259Y-79265641D01*
X172389605Y-79395222D01*
X172468623Y-79543056D01*
X172468624Y-79543059D01*
X172468625Y-79543061D01*
X172492773Y-79622666D01*
X172517287Y-79703479D01*
X172533717Y-79870300D01*
X172517287Y-80037121D01*
X172517286Y-80037124D01*
X172517286Y-80037125D01*
X172493391Y-80115897D01*
X172468623Y-80197544D01*
X172389605Y-80345378D01*
X172283259Y-80474959D01*
X172153678Y-80581305D01*
X172005844Y-80660323D01*
X172005841Y-80660324D01*
X172005839Y-80660325D01*
X171845425Y-80708986D01*
X171845424Y-80708986D01*
X171845421Y-80708987D01*
X171720404Y-80721300D01*
X171636796Y-80721300D01*
X171511779Y-80708987D01*
X171511776Y-80708986D01*
X171511775Y-80708986D01*
X171351361Y-80660325D01*
X171351359Y-80660324D01*
X171351356Y-80660323D01*
X171203522Y-80581305D01*
X171073941Y-80474959D01*
X170967595Y-80345378D01*
X170888577Y-80197544D01*
X170863810Y-80115897D01*
X170839914Y-80037125D01*
X170839914Y-80037124D01*
X170839913Y-80037121D01*
X170823483Y-79870300D01*
X170839913Y-79703479D01*
X170864427Y-79622666D01*
X170888575Y-79543061D01*
X170888576Y-79543059D01*
X170888577Y-79543056D01*
X170967595Y-79395222D01*
X171073941Y-79265641D01*
X171203522Y-79159295D01*
X171351356Y-79080277D01*
X171351359Y-79080276D01*
X171351361Y-79080275D01*
X171511775Y-79031614D01*
X171511776Y-79031614D01*
X171511779Y-79031613D01*
X171636796Y-79019300D01*
X171720404Y-79019300D01*
X171845421Y-79031613D01*
X171845421Y-79031613D01*
G37*
G36*
X218263920Y-79761600D02*
X216637920Y-79761600D01*
X216637920Y-78135600D01*
X218263920Y-78135600D01*
X218263920Y-79761600D01*
X218263920Y-79761600D01*
G37*
G36*
X164271908Y-75747463D02*
X164426780Y-75811613D01*
X164566161Y-75904745D01*
X164684695Y-76023279D01*
X164777827Y-76162660D01*
X164841977Y-76317532D01*
X164874680Y-76481944D01*
X164874680Y-76649576D01*
X164841977Y-76813988D01*
X164777827Y-76968860D01*
X164684695Y-77108241D01*
X164566161Y-77226775D01*
X164426780Y-77319907D01*
X164271908Y-77384057D01*
X164107496Y-77416760D01*
X163939864Y-77416760D01*
X163775452Y-77384057D01*
X163620580Y-77319907D01*
X163481199Y-77226775D01*
X163362665Y-77108241D01*
X163269533Y-76968860D01*
X163205383Y-76813988D01*
X163172680Y-76649576D01*
X163172680Y-76481944D01*
X163205383Y-76317532D01*
X163269533Y-76162660D01*
X163362665Y-76023279D01*
X163481199Y-75904745D01*
X163620580Y-75811613D01*
X163775452Y-75747463D01*
X163939864Y-75714760D01*
X164107496Y-75714760D01*
X164271908Y-75747463D01*
X164271908Y-75747463D01*
G37*
G36*
X161771908Y-75747463D02*
X161926780Y-75811613D01*
X162066161Y-75904745D01*
X162184695Y-76023279D01*
X162277827Y-76162660D01*
X162341977Y-76317532D01*
X162374680Y-76481944D01*
X162374680Y-76649576D01*
X162341977Y-76813988D01*
X162277827Y-76968860D01*
X162184695Y-77108241D01*
X162066161Y-77226775D01*
X161926780Y-77319907D01*
X161771908Y-77384057D01*
X161607496Y-77416760D01*
X161439864Y-77416760D01*
X161275452Y-77384057D01*
X161120580Y-77319907D01*
X160981199Y-77226775D01*
X160862665Y-77108241D01*
X160769533Y-76968860D01*
X160705383Y-76813988D01*
X160672680Y-76649576D01*
X160672680Y-76481944D01*
X160705383Y-76317532D01*
X160769533Y-76162660D01*
X160862665Y-76023279D01*
X160981199Y-75904745D01*
X161120580Y-75811613D01*
X161275452Y-75747463D01*
X161439864Y-75714760D01*
X161607496Y-75714760D01*
X161771908Y-75747463D01*
X161771908Y-75747463D01*
G37*
G36*
X148838228Y-75742383D02*
X148993100Y-75806533D01*
X149132481Y-75899665D01*
X149251015Y-76018199D01*
X149344147Y-76157580D01*
X149408297Y-76312452D01*
X149441000Y-76476864D01*
X149441000Y-76644496D01*
X149408297Y-76808908D01*
X149344147Y-76963780D01*
X149251015Y-77103161D01*
X149132481Y-77221695D01*
X148993100Y-77314827D01*
X148838228Y-77378977D01*
X148673816Y-77411680D01*
X148506184Y-77411680D01*
X148341772Y-77378977D01*
X148186900Y-77314827D01*
X148047519Y-77221695D01*
X147928985Y-77103161D01*
X147835853Y-76963780D01*
X147771703Y-76808908D01*
X147739000Y-76644496D01*
X147739000Y-76476864D01*
X147771703Y-76312452D01*
X147835853Y-76157580D01*
X147928985Y-76018199D01*
X148047519Y-75899665D01*
X148186900Y-75806533D01*
X148341772Y-75742383D01*
X148506184Y-75709680D01*
X148673816Y-75709680D01*
X148838228Y-75742383D01*
X148838228Y-75742383D01*
G37*
G36*
X158916821Y-75721993D02*
X158916824Y-75721994D01*
X158916825Y-75721994D01*
X159077239Y-75770655D01*
X159077241Y-75770656D01*
X159077244Y-75770657D01*
X159225078Y-75849675D01*
X159354659Y-75956021D01*
X159461005Y-76085602D01*
X159540023Y-76233436D01*
X159540024Y-76233439D01*
X159540025Y-76233441D01*
X159588686Y-76393855D01*
X159588687Y-76393859D01*
X159605117Y-76560680D01*
X159588687Y-76727501D01*
X159588686Y-76727504D01*
X159588686Y-76727505D01*
X159556472Y-76833702D01*
X159540023Y-76887924D01*
X159461005Y-77035758D01*
X159354659Y-77165339D01*
X159225078Y-77271685D01*
X159077244Y-77350703D01*
X159077241Y-77350704D01*
X159077239Y-77350705D01*
X158916825Y-77399366D01*
X158916824Y-77399366D01*
X158916821Y-77399367D01*
X158791804Y-77411680D01*
X158708196Y-77411680D01*
X158583179Y-77399367D01*
X158583176Y-77399366D01*
X158583175Y-77399366D01*
X158422761Y-77350705D01*
X158422759Y-77350704D01*
X158422756Y-77350703D01*
X158274922Y-77271685D01*
X158145341Y-77165339D01*
X158038995Y-77035758D01*
X157959977Y-76887924D01*
X157943529Y-76833702D01*
X157911314Y-76727505D01*
X157911314Y-76727504D01*
X157911313Y-76727501D01*
X157894883Y-76560680D01*
X157911313Y-76393859D01*
X157911314Y-76393855D01*
X157959975Y-76233441D01*
X157959976Y-76233439D01*
X157959977Y-76233436D01*
X158038995Y-76085602D01*
X158145341Y-75956021D01*
X158274922Y-75849675D01*
X158422756Y-75770657D01*
X158422759Y-75770656D01*
X158422761Y-75770655D01*
X158583175Y-75721994D01*
X158583176Y-75721994D01*
X158583179Y-75721993D01*
X158708196Y-75709680D01*
X158791804Y-75709680D01*
X158916821Y-75721993D01*
X158916821Y-75721993D01*
G37*
G36*
X217688062Y-75666842D02*
X217836022Y-75728130D01*
X217864956Y-75747463D01*
X217960964Y-75811613D01*
X217969178Y-75817102D01*
X218082418Y-75930342D01*
X218171390Y-76063498D01*
X218232678Y-76211458D01*
X218263920Y-76368525D01*
X218263920Y-76528675D01*
X218232678Y-76685742D01*
X218171390Y-76833702D01*
X218082418Y-76966858D01*
X217969178Y-77080098D01*
X217836022Y-77169070D01*
X217688062Y-77230358D01*
X217530995Y-77261600D01*
X217370845Y-77261600D01*
X217213778Y-77230358D01*
X217065818Y-77169070D01*
X216932662Y-77080098D01*
X216819422Y-76966858D01*
X216730450Y-76833702D01*
X216669162Y-76685742D01*
X216637920Y-76528675D01*
X216637920Y-76368525D01*
X216669162Y-76211458D01*
X216730450Y-76063498D01*
X216819422Y-75930342D01*
X216932662Y-75817102D01*
X216940877Y-75811613D01*
X217036884Y-75747463D01*
X217065818Y-75728130D01*
X217213778Y-75666842D01*
X217370845Y-75635600D01*
X217530995Y-75635600D01*
X217688062Y-75666842D01*
X217688062Y-75666842D01*
G37*
G36*
X131738635Y-74693282D02*
X131888958Y-74755548D01*
X132024245Y-74845944D01*
X132139296Y-74960995D01*
X132229692Y-75096282D01*
X132291958Y-75246605D01*
X132323700Y-75406186D01*
X132323700Y-75568894D01*
X132291958Y-75728475D01*
X132229692Y-75878798D01*
X132139296Y-76014085D01*
X132024245Y-76129136D01*
X131888958Y-76219532D01*
X131738635Y-76281798D01*
X131579054Y-76313540D01*
X131416346Y-76313540D01*
X131256765Y-76281798D01*
X131106442Y-76219532D01*
X130971155Y-76129136D01*
X130856104Y-76014085D01*
X130765708Y-75878798D01*
X130703442Y-75728475D01*
X130671700Y-75568894D01*
X130671700Y-75406186D01*
X130703442Y-75246605D01*
X130765708Y-75096282D01*
X130856104Y-74960995D01*
X130971155Y-74845944D01*
X131106442Y-74755548D01*
X131256765Y-74693282D01*
X131416346Y-74661540D01*
X131579054Y-74661540D01*
X131738635Y-74693282D01*
X131738635Y-74693282D01*
G37*
G36*
X137323700Y-76313540D02*
X135671700Y-76313540D01*
X135671700Y-74661540D01*
X137323700Y-74661540D01*
X137323700Y-76313540D01*
X137323700Y-76313540D01*
G37*
G36*
X171850628Y-72211783D02*
X172005500Y-72275933D01*
X172144881Y-72369065D01*
X172263415Y-72487599D01*
X172356547Y-72626980D01*
X172420697Y-72781852D01*
X172453400Y-72946264D01*
X172453400Y-73113896D01*
X172420697Y-73278308D01*
X172356547Y-73433180D01*
X172263415Y-73572561D01*
X172144881Y-73691095D01*
X172005500Y-73784227D01*
X171850628Y-73848377D01*
X171686216Y-73881080D01*
X171518584Y-73881080D01*
X171354172Y-73848377D01*
X171199300Y-73784227D01*
X171059919Y-73691095D01*
X170941385Y-73572561D01*
X170848253Y-73433180D01*
X170784103Y-73278308D01*
X170751400Y-73113896D01*
X170751400Y-72946264D01*
X170784103Y-72781852D01*
X170848253Y-72626980D01*
X170941385Y-72487599D01*
X171059919Y-72369065D01*
X171199300Y-72275933D01*
X171354172Y-72211783D01*
X171518584Y-72179080D01*
X171686216Y-72179080D01*
X171850628Y-72211783D01*
X171850628Y-72211783D01*
G37*
G36*
X181929221Y-72191393D02*
X181929224Y-72191394D01*
X181929225Y-72191394D01*
X182089639Y-72240055D01*
X182089641Y-72240056D01*
X182089644Y-72240057D01*
X182237478Y-72319075D01*
X182367059Y-72425421D01*
X182473405Y-72555002D01*
X182552423Y-72702836D01*
X182552424Y-72702839D01*
X182552425Y-72702841D01*
X182582869Y-72803201D01*
X182601087Y-72863259D01*
X182617517Y-73030080D01*
X182601087Y-73196901D01*
X182601086Y-73196904D01*
X182601086Y-73196905D01*
X182555439Y-73347384D01*
X182552423Y-73357324D01*
X182473405Y-73505158D01*
X182367059Y-73634739D01*
X182237478Y-73741085D01*
X182089644Y-73820103D01*
X182089641Y-73820104D01*
X182089639Y-73820105D01*
X181929225Y-73868766D01*
X181929224Y-73868766D01*
X181929221Y-73868767D01*
X181804204Y-73881080D01*
X181720596Y-73881080D01*
X181595579Y-73868767D01*
X181595576Y-73868766D01*
X181595575Y-73868766D01*
X181435161Y-73820105D01*
X181435159Y-73820104D01*
X181435156Y-73820103D01*
X181287322Y-73741085D01*
X181157741Y-73634739D01*
X181051395Y-73505158D01*
X180972377Y-73357324D01*
X180969362Y-73347384D01*
X180923714Y-73196905D01*
X180923714Y-73196904D01*
X180923713Y-73196901D01*
X180907283Y-73030080D01*
X180923713Y-72863259D01*
X180941931Y-72803201D01*
X180972375Y-72702841D01*
X180972376Y-72702839D01*
X180972377Y-72702836D01*
X181051395Y-72555002D01*
X181157741Y-72425421D01*
X181287322Y-72319075D01*
X181435156Y-72240057D01*
X181435159Y-72240056D01*
X181435161Y-72240055D01*
X181595575Y-72191394D01*
X181595576Y-72191394D01*
X181595579Y-72191393D01*
X181720596Y-72179080D01*
X181804204Y-72179080D01*
X181929221Y-72191393D01*
X181929221Y-72191393D01*
G37*
G36*
X196529268Y-71818083D02*
X196684140Y-71882233D01*
X196823521Y-71975365D01*
X196942055Y-72093899D01*
X197035187Y-72233280D01*
X197099337Y-72388152D01*
X197132040Y-72552564D01*
X197132040Y-72720196D01*
X197099337Y-72884608D01*
X197035187Y-73039480D01*
X196942055Y-73178861D01*
X196823521Y-73297395D01*
X196684140Y-73390527D01*
X196529268Y-73454677D01*
X196364856Y-73487380D01*
X196197224Y-73487380D01*
X196032812Y-73454677D01*
X195877940Y-73390527D01*
X195738559Y-73297395D01*
X195620025Y-73178861D01*
X195526893Y-73039480D01*
X195462743Y-72884608D01*
X195430040Y-72720196D01*
X195430040Y-72552564D01*
X195462743Y-72388152D01*
X195526893Y-72233280D01*
X195620025Y-72093899D01*
X195738559Y-71975365D01*
X195877940Y-71882233D01*
X196032812Y-71818083D01*
X196197224Y-71785380D01*
X196364856Y-71785380D01*
X196529268Y-71818083D01*
X196529268Y-71818083D01*
G37*
G36*
X190999561Y-71797693D02*
X190999564Y-71797694D01*
X190999565Y-71797694D01*
X191159979Y-71846355D01*
X191159981Y-71846356D01*
X191159984Y-71846357D01*
X191307818Y-71925375D01*
X191437399Y-72031721D01*
X191543745Y-72161302D01*
X191622763Y-72309136D01*
X191622764Y-72309139D01*
X191622765Y-72309141D01*
X191658038Y-72425421D01*
X191671427Y-72469559D01*
X191687857Y-72636380D01*
X191671427Y-72803201D01*
X191671426Y-72803204D01*
X191671426Y-72803205D01*
X191628030Y-72946264D01*
X191622763Y-72963624D01*
X191543745Y-73111458D01*
X191437399Y-73241039D01*
X191307818Y-73347385D01*
X191159984Y-73426403D01*
X191159981Y-73426404D01*
X191159979Y-73426405D01*
X190999565Y-73475066D01*
X190999564Y-73475066D01*
X190999561Y-73475067D01*
X190874544Y-73487380D01*
X190790936Y-73487380D01*
X190665919Y-73475067D01*
X190665916Y-73475066D01*
X190665915Y-73475066D01*
X190505501Y-73426405D01*
X190505499Y-73426404D01*
X190505496Y-73426403D01*
X190357662Y-73347385D01*
X190228081Y-73241039D01*
X190121735Y-73111458D01*
X190042717Y-72963624D01*
X190037451Y-72946264D01*
X189994054Y-72803205D01*
X189994054Y-72803204D01*
X189994053Y-72803201D01*
X189977623Y-72636380D01*
X189994053Y-72469559D01*
X190007442Y-72425421D01*
X190042715Y-72309141D01*
X190042716Y-72309139D01*
X190042717Y-72309136D01*
X190121735Y-72161302D01*
X190228081Y-72031721D01*
X190357662Y-71925375D01*
X190505496Y-71846357D01*
X190505499Y-71846356D01*
X190505501Y-71846355D01*
X190665915Y-71797694D01*
X190665916Y-71797694D01*
X190665919Y-71797693D01*
X190790936Y-71785380D01*
X190874544Y-71785380D01*
X190999561Y-71797693D01*
X190999561Y-71797693D01*
G37*
G36*
X185538688Y-71797763D02*
X185693560Y-71861913D01*
X185832941Y-71955045D01*
X185951475Y-72073579D01*
X186044607Y-72212960D01*
X186108757Y-72367832D01*
X186141460Y-72532244D01*
X186141460Y-72699876D01*
X186108757Y-72864288D01*
X186044607Y-73019160D01*
X185951475Y-73158541D01*
X185832941Y-73277075D01*
X185693560Y-73370207D01*
X185538688Y-73434357D01*
X185374276Y-73467060D01*
X185206644Y-73467060D01*
X185042232Y-73434357D01*
X184887360Y-73370207D01*
X184747979Y-73277075D01*
X184629445Y-73158541D01*
X184536313Y-73019160D01*
X184472163Y-72864288D01*
X184439460Y-72699876D01*
X184439460Y-72532244D01*
X184472163Y-72367832D01*
X184536313Y-72212960D01*
X184629445Y-72073579D01*
X184747979Y-71955045D01*
X184887360Y-71861913D01*
X185042232Y-71797763D01*
X185206644Y-71765060D01*
X185374276Y-71765060D01*
X185538688Y-71797763D01*
X185538688Y-71797763D01*
G37*
G36*
X201799768Y-71665683D02*
X201954640Y-71729833D01*
X202094021Y-71822965D01*
X202212555Y-71941499D01*
X202305687Y-72080880D01*
X202369837Y-72235752D01*
X202402540Y-72400164D01*
X202402540Y-72567796D01*
X202369837Y-72732208D01*
X202305687Y-72887080D01*
X202212555Y-73026461D01*
X202094021Y-73144995D01*
X201954640Y-73238127D01*
X201799768Y-73302277D01*
X201635356Y-73334980D01*
X201467724Y-73334980D01*
X201303312Y-73302277D01*
X201148440Y-73238127D01*
X201009059Y-73144995D01*
X200890525Y-73026461D01*
X200797393Y-72887080D01*
X200733243Y-72732208D01*
X200700540Y-72567796D01*
X200700540Y-72400164D01*
X200733243Y-72235752D01*
X200797393Y-72080880D01*
X200890525Y-71941499D01*
X201009059Y-71822965D01*
X201148440Y-71729833D01*
X201303312Y-71665683D01*
X201467724Y-71632980D01*
X201635356Y-71632980D01*
X201799768Y-71665683D01*
X201799768Y-71665683D01*
G37*
G36*
X212767361Y-71607193D02*
X212767364Y-71607194D01*
X212767365Y-71607194D01*
X212927779Y-71655855D01*
X212927781Y-71655856D01*
X212927784Y-71655857D01*
X213075618Y-71734875D01*
X213205199Y-71841221D01*
X213311545Y-71970802D01*
X213390563Y-72118636D01*
X213390564Y-72118639D01*
X213390565Y-72118641D01*
X213438279Y-72275933D01*
X213439227Y-72279059D01*
X213455657Y-72445880D01*
X213439227Y-72612701D01*
X213439226Y-72612704D01*
X213439226Y-72612705D01*
X213411884Y-72702841D01*
X213390563Y-72773124D01*
X213311545Y-72920958D01*
X213205199Y-73050539D01*
X213075618Y-73156885D01*
X212927784Y-73235903D01*
X212927781Y-73235904D01*
X212927779Y-73235905D01*
X212767365Y-73284566D01*
X212767364Y-73284566D01*
X212767361Y-73284567D01*
X212642344Y-73296880D01*
X212558736Y-73296880D01*
X212433719Y-73284567D01*
X212433716Y-73284566D01*
X212433715Y-73284566D01*
X212273301Y-73235905D01*
X212273299Y-73235904D01*
X212273296Y-73235903D01*
X212125462Y-73156885D01*
X211995881Y-73050539D01*
X211889535Y-72920958D01*
X211810517Y-72773124D01*
X211789197Y-72702841D01*
X211761854Y-72612705D01*
X211761854Y-72612704D01*
X211761853Y-72612701D01*
X211745423Y-72445880D01*
X211761853Y-72279059D01*
X211762801Y-72275933D01*
X211810515Y-72118641D01*
X211810516Y-72118639D01*
X211810517Y-72118636D01*
X211889535Y-71970802D01*
X211995881Y-71841221D01*
X212125462Y-71734875D01*
X212273296Y-71655857D01*
X212273299Y-71655856D01*
X212273301Y-71655855D01*
X212433715Y-71607194D01*
X212433716Y-71607194D01*
X212433719Y-71607193D01*
X212558736Y-71594880D01*
X212642344Y-71594880D01*
X212767361Y-71607193D01*
X212767361Y-71607193D01*
G37*
G36*
X207166661Y-71569093D02*
X207166664Y-71569094D01*
X207166665Y-71569094D01*
X207327079Y-71617755D01*
X207327081Y-71617756D01*
X207327084Y-71617757D01*
X207474918Y-71696775D01*
X207604499Y-71803121D01*
X207710845Y-71932702D01*
X207789863Y-72080536D01*
X207789864Y-72080539D01*
X207789865Y-72080541D01*
X207838526Y-72240955D01*
X207838527Y-72240959D01*
X207854957Y-72407780D01*
X207838527Y-72574601D01*
X207838526Y-72574604D01*
X207838526Y-72574605D01*
X207790718Y-72732208D01*
X207789863Y-72735024D01*
X207710845Y-72882858D01*
X207604499Y-73012439D01*
X207474918Y-73118785D01*
X207327084Y-73197803D01*
X207327081Y-73197804D01*
X207327079Y-73197805D01*
X207166665Y-73246466D01*
X207166664Y-73246466D01*
X207166661Y-73246467D01*
X207041644Y-73258780D01*
X206958036Y-73258780D01*
X206833019Y-73246467D01*
X206833016Y-73246466D01*
X206833015Y-73246466D01*
X206672601Y-73197805D01*
X206672599Y-73197804D01*
X206672596Y-73197803D01*
X206524762Y-73118785D01*
X206395181Y-73012439D01*
X206288835Y-72882858D01*
X206209817Y-72735024D01*
X206208963Y-72732208D01*
X206161154Y-72574605D01*
X206161154Y-72574604D01*
X206161153Y-72574601D01*
X206144723Y-72407780D01*
X206161153Y-72240959D01*
X206161154Y-72240955D01*
X206209815Y-72080541D01*
X206209816Y-72080539D01*
X206209817Y-72080536D01*
X206288835Y-71932702D01*
X206395181Y-71803121D01*
X206524762Y-71696775D01*
X206672596Y-71617757D01*
X206672599Y-71617756D01*
X206672601Y-71617755D01*
X206833015Y-71569094D01*
X206833016Y-71569094D01*
X206833019Y-71569093D01*
X206958036Y-71556780D01*
X207041644Y-71556780D01*
X207166661Y-71569093D01*
X207166661Y-71569093D01*
G37*
G36*
X134238635Y-69693282D02*
X134388958Y-69755548D01*
X134524245Y-69845944D01*
X134639296Y-69960995D01*
X134729692Y-70096282D01*
X134791958Y-70246605D01*
X134823700Y-70406186D01*
X134823700Y-70568894D01*
X134791958Y-70728475D01*
X134729692Y-70878798D01*
X134639296Y-71014085D01*
X134524245Y-71129136D01*
X134388958Y-71219532D01*
X134238635Y-71281798D01*
X134079054Y-71313540D01*
X133916346Y-71313540D01*
X133756765Y-71281798D01*
X133606442Y-71219532D01*
X133471155Y-71129136D01*
X133356104Y-71014085D01*
X133265708Y-70878798D01*
X133203442Y-70728475D01*
X133171700Y-70568894D01*
X133171700Y-70406186D01*
X133203442Y-70246605D01*
X133265708Y-70096282D01*
X133356104Y-69960995D01*
X133471155Y-69845944D01*
X133606442Y-69755548D01*
X133756765Y-69693282D01*
X133916346Y-69661540D01*
X134079054Y-69661540D01*
X134238635Y-69693282D01*
X134238635Y-69693282D01*
G37*
G36*
X141068527Y-66814736D02*
X141168410Y-66834604D01*
X141450674Y-66951521D01*
X141704705Y-67121259D01*
X141920741Y-67337295D01*
X142090479Y-67591326D01*
X142161180Y-67762015D01*
X142207396Y-67873591D01*
X142267000Y-68173238D01*
X142267000Y-68478762D01*
X142246358Y-68582536D01*
X142207396Y-68778410D01*
X142090479Y-69060674D01*
X141920741Y-69314705D01*
X141704705Y-69530741D01*
X141450674Y-69700479D01*
X141168410Y-69817396D01*
X141068527Y-69837264D01*
X140868762Y-69877000D01*
X140563238Y-69877000D01*
X140363473Y-69837264D01*
X140263590Y-69817396D01*
X139981326Y-69700479D01*
X139727295Y-69530741D01*
X139511259Y-69314705D01*
X139341521Y-69060674D01*
X139224604Y-68778410D01*
X139185642Y-68582536D01*
X139165000Y-68478762D01*
X139165000Y-68173238D01*
X139224604Y-67873591D01*
X139270820Y-67762015D01*
X139341521Y-67591326D01*
X139511259Y-67337295D01*
X139727295Y-67121259D01*
X139981326Y-66951521D01*
X140263590Y-66834604D01*
X140363473Y-66814736D01*
X140563238Y-66775000D01*
X140868762Y-66775000D01*
X141068527Y-66814736D01*
X141068527Y-66814736D01*
G37*
G36*
X216049327Y-66814736D02*
X216149210Y-66834604D01*
X216431474Y-66951521D01*
X216685505Y-67121259D01*
X216901541Y-67337295D01*
X217071279Y-67591326D01*
X217141980Y-67762015D01*
X217188196Y-67873591D01*
X217247800Y-68173238D01*
X217247800Y-68478762D01*
X217227158Y-68582536D01*
X217188196Y-68778410D01*
X217071279Y-69060674D01*
X216901541Y-69314705D01*
X216685505Y-69530741D01*
X216431474Y-69700479D01*
X216149210Y-69817396D01*
X216049327Y-69837264D01*
X215849562Y-69877000D01*
X215544038Y-69877000D01*
X215344273Y-69837264D01*
X215244390Y-69817396D01*
X214962126Y-69700479D01*
X214708095Y-69530741D01*
X214492059Y-69314705D01*
X214322321Y-69060674D01*
X214205404Y-68778410D01*
X214166442Y-68582536D01*
X214145800Y-68478762D01*
X214145800Y-68173238D01*
X214205404Y-67873591D01*
X214251620Y-67762015D01*
X214322321Y-67591326D01*
X214492059Y-67337295D01*
X214708095Y-67121259D01*
X214962126Y-66951521D01*
X215244390Y-66834604D01*
X215344273Y-66814736D01*
X215544038Y-66775000D01*
X215849562Y-66775000D01*
X216049327Y-66814736D01*
X216049327Y-66814736D01*
G37*
G36*
X200760908Y-67680423D02*
X200915780Y-67744573D01*
X201055161Y-67837705D01*
X201173695Y-67956239D01*
X201266827Y-68095620D01*
X201330977Y-68250492D01*
X201363680Y-68414904D01*
X201363680Y-68582536D01*
X201330977Y-68746948D01*
X201266827Y-68901820D01*
X201173695Y-69041201D01*
X201055161Y-69159735D01*
X200915780Y-69252867D01*
X200760908Y-69317017D01*
X200596496Y-69349720D01*
X200428864Y-69349720D01*
X200264452Y-69317017D01*
X200109580Y-69252867D01*
X199970199Y-69159735D01*
X199851665Y-69041201D01*
X199758533Y-68901820D01*
X199694383Y-68746948D01*
X199661680Y-68582536D01*
X199661680Y-68414904D01*
X199694383Y-68250492D01*
X199758533Y-68095620D01*
X199851665Y-67956239D01*
X199970199Y-67837705D01*
X200109580Y-67744573D01*
X200264452Y-67680423D01*
X200428864Y-67647720D01*
X200596496Y-67647720D01*
X200760908Y-67680423D01*
X200760908Y-67680423D01*
G37*
G36*
X203260908Y-67680423D02*
X203415780Y-67744573D01*
X203555161Y-67837705D01*
X203673695Y-67956239D01*
X203766827Y-68095620D01*
X203830977Y-68250492D01*
X203863680Y-68414904D01*
X203863680Y-68582536D01*
X203830977Y-68746948D01*
X203766827Y-68901820D01*
X203673695Y-69041201D01*
X203555161Y-69159735D01*
X203415780Y-69252867D01*
X203260908Y-69317017D01*
X203096496Y-69349720D01*
X202928864Y-69349720D01*
X202764452Y-69317017D01*
X202609580Y-69252867D01*
X202470199Y-69159735D01*
X202351665Y-69041201D01*
X202258533Y-68901820D01*
X202194383Y-68746948D01*
X202161680Y-68582536D01*
X202161680Y-68414904D01*
X202194383Y-68250492D01*
X202258533Y-68095620D01*
X202351665Y-67956239D01*
X202470199Y-67837705D01*
X202609580Y-67744573D01*
X202764452Y-67680423D01*
X202928864Y-67647720D01*
X203096496Y-67647720D01*
X203260908Y-67680423D01*
X203260908Y-67680423D01*
G37*
G36*
X147098320Y-69303200D02*
X145296320Y-69303200D01*
X145296320Y-67501200D01*
X147098320Y-67501200D01*
X147098320Y-69303200D01*
X147098320Y-69303200D01*
G37*
G36*
X184407762Y-67507718D02*
X184473947Y-67514237D01*
X184587173Y-67548584D01*
X184643787Y-67565757D01*
X184691626Y-67591328D01*
X184800311Y-67649422D01*
X184836049Y-67678752D01*
X184937506Y-67762014D01*
X185020768Y-67863471D01*
X185050098Y-67899209D01*
X185050099Y-67899211D01*
X185133763Y-68055733D01*
X185133763Y-68055734D01*
X185185283Y-68225573D01*
X185202679Y-68402200D01*
X185185283Y-68578827D01*
X185150936Y-68692053D01*
X185133763Y-68748667D01*
X185059668Y-68887287D01*
X185050098Y-68905191D01*
X185020768Y-68940929D01*
X184937506Y-69042386D01*
X184836049Y-69125648D01*
X184800311Y-69154978D01*
X184800309Y-69154979D01*
X184643787Y-69238643D01*
X184596899Y-69252866D01*
X184473947Y-69290163D01*
X184407762Y-69296682D01*
X184341580Y-69303200D01*
X184253060Y-69303200D01*
X184186878Y-69296682D01*
X184120693Y-69290163D01*
X183997741Y-69252866D01*
X183950853Y-69238643D01*
X183794331Y-69154979D01*
X183794329Y-69154978D01*
X183758591Y-69125648D01*
X183657134Y-69042386D01*
X183573872Y-68940929D01*
X183544542Y-68905191D01*
X183534972Y-68887287D01*
X183460877Y-68748667D01*
X183443704Y-68692053D01*
X183409357Y-68578827D01*
X183391961Y-68402200D01*
X183409357Y-68225573D01*
X183460877Y-68055734D01*
X183460877Y-68055733D01*
X183544541Y-67899211D01*
X183544542Y-67899209D01*
X183573872Y-67863471D01*
X183657134Y-67762014D01*
X183758591Y-67678752D01*
X183794329Y-67649422D01*
X183903014Y-67591328D01*
X183950853Y-67565757D01*
X184007467Y-67548584D01*
X184120693Y-67514237D01*
X184186878Y-67507718D01*
X184253060Y-67501200D01*
X184341580Y-67501200D01*
X184407762Y-67507718D01*
X184407762Y-67507718D01*
G37*
G36*
X181867762Y-67507718D02*
X181933947Y-67514237D01*
X182047173Y-67548584D01*
X182103787Y-67565757D01*
X182151626Y-67591328D01*
X182260311Y-67649422D01*
X182296049Y-67678752D01*
X182397506Y-67762014D01*
X182480768Y-67863471D01*
X182510098Y-67899209D01*
X182510099Y-67899211D01*
X182593763Y-68055733D01*
X182593763Y-68055734D01*
X182645283Y-68225573D01*
X182662679Y-68402200D01*
X182645283Y-68578827D01*
X182610936Y-68692053D01*
X182593763Y-68748667D01*
X182519668Y-68887287D01*
X182510098Y-68905191D01*
X182480768Y-68940929D01*
X182397506Y-69042386D01*
X182296049Y-69125648D01*
X182260311Y-69154978D01*
X182260309Y-69154979D01*
X182103787Y-69238643D01*
X182056899Y-69252866D01*
X181933947Y-69290163D01*
X181867762Y-69296682D01*
X181801580Y-69303200D01*
X181713060Y-69303200D01*
X181646878Y-69296682D01*
X181580693Y-69290163D01*
X181457741Y-69252866D01*
X181410853Y-69238643D01*
X181254331Y-69154979D01*
X181254329Y-69154978D01*
X181218591Y-69125648D01*
X181117134Y-69042386D01*
X181033872Y-68940929D01*
X181004542Y-68905191D01*
X180994972Y-68887287D01*
X180920877Y-68748667D01*
X180903704Y-68692053D01*
X180869357Y-68578827D01*
X180851961Y-68402200D01*
X180869357Y-68225573D01*
X180920877Y-68055734D01*
X180920877Y-68055733D01*
X181004541Y-67899211D01*
X181004542Y-67899209D01*
X181033872Y-67863471D01*
X181117134Y-67762014D01*
X181218591Y-67678752D01*
X181254329Y-67649422D01*
X181363014Y-67591328D01*
X181410853Y-67565757D01*
X181467467Y-67548584D01*
X181580693Y-67514237D01*
X181646878Y-67507718D01*
X181713060Y-67501200D01*
X181801580Y-67501200D01*
X181867762Y-67507718D01*
X181867762Y-67507718D01*
G37*
G36*
X179327762Y-67507718D02*
X179393947Y-67514237D01*
X179507173Y-67548584D01*
X179563787Y-67565757D01*
X179611626Y-67591328D01*
X179720311Y-67649422D01*
X179756049Y-67678752D01*
X179857506Y-67762014D01*
X179940768Y-67863471D01*
X179970098Y-67899209D01*
X179970099Y-67899211D01*
X180053763Y-68055733D01*
X180053763Y-68055734D01*
X180105283Y-68225573D01*
X180122679Y-68402200D01*
X180105283Y-68578827D01*
X180070936Y-68692053D01*
X180053763Y-68748667D01*
X179979668Y-68887287D01*
X179970098Y-68905191D01*
X179940768Y-68940929D01*
X179857506Y-69042386D01*
X179756049Y-69125648D01*
X179720311Y-69154978D01*
X179720309Y-69154979D01*
X179563787Y-69238643D01*
X179516899Y-69252866D01*
X179393947Y-69290163D01*
X179327762Y-69296682D01*
X179261580Y-69303200D01*
X179173060Y-69303200D01*
X179106878Y-69296682D01*
X179040693Y-69290163D01*
X178917741Y-69252866D01*
X178870853Y-69238643D01*
X178714331Y-69154979D01*
X178714329Y-69154978D01*
X178678591Y-69125648D01*
X178577134Y-69042386D01*
X178493872Y-68940929D01*
X178464542Y-68905191D01*
X178454972Y-68887287D01*
X178380877Y-68748667D01*
X178363704Y-68692053D01*
X178329357Y-68578827D01*
X178311961Y-68402200D01*
X178329357Y-68225573D01*
X178380877Y-68055734D01*
X178380877Y-68055733D01*
X178464541Y-67899211D01*
X178464542Y-67899209D01*
X178493872Y-67863471D01*
X178577134Y-67762014D01*
X178678591Y-67678752D01*
X178714329Y-67649422D01*
X178823014Y-67591328D01*
X178870853Y-67565757D01*
X178927467Y-67548584D01*
X179040693Y-67514237D01*
X179106878Y-67507718D01*
X179173060Y-67501200D01*
X179261580Y-67501200D01*
X179327762Y-67507718D01*
X179327762Y-67507718D01*
G37*
G36*
X176787762Y-67507718D02*
X176853947Y-67514237D01*
X176967173Y-67548584D01*
X177023787Y-67565757D01*
X177071626Y-67591328D01*
X177180311Y-67649422D01*
X177216049Y-67678752D01*
X177317506Y-67762014D01*
X177400768Y-67863471D01*
X177430098Y-67899209D01*
X177430099Y-67899211D01*
X177513763Y-68055733D01*
X177513763Y-68055734D01*
X177565283Y-68225573D01*
X177582679Y-68402200D01*
X177565283Y-68578827D01*
X177530936Y-68692053D01*
X177513763Y-68748667D01*
X177439668Y-68887287D01*
X177430098Y-68905191D01*
X177400768Y-68940929D01*
X177317506Y-69042386D01*
X177216049Y-69125648D01*
X177180311Y-69154978D01*
X177180309Y-69154979D01*
X177023787Y-69238643D01*
X176976899Y-69252866D01*
X176853947Y-69290163D01*
X176787762Y-69296682D01*
X176721580Y-69303200D01*
X176633060Y-69303200D01*
X176566878Y-69296682D01*
X176500693Y-69290163D01*
X176377741Y-69252866D01*
X176330853Y-69238643D01*
X176174331Y-69154979D01*
X176174329Y-69154978D01*
X176138591Y-69125648D01*
X176037134Y-69042386D01*
X175953872Y-68940929D01*
X175924542Y-68905191D01*
X175914972Y-68887287D01*
X175840877Y-68748667D01*
X175823704Y-68692053D01*
X175789357Y-68578827D01*
X175771961Y-68402200D01*
X175789357Y-68225573D01*
X175840877Y-68055734D01*
X175840877Y-68055733D01*
X175924541Y-67899211D01*
X175924542Y-67899209D01*
X175953872Y-67863471D01*
X176037134Y-67762014D01*
X176138591Y-67678752D01*
X176174329Y-67649422D01*
X176283014Y-67591328D01*
X176330853Y-67565757D01*
X176387467Y-67548584D01*
X176500693Y-67514237D01*
X176566878Y-67507718D01*
X176633060Y-67501200D01*
X176721580Y-67501200D01*
X176787762Y-67507718D01*
X176787762Y-67507718D01*
G37*
G36*
X174247762Y-67507718D02*
X174313947Y-67514237D01*
X174427173Y-67548584D01*
X174483787Y-67565757D01*
X174531626Y-67591328D01*
X174640311Y-67649422D01*
X174676049Y-67678752D01*
X174777506Y-67762014D01*
X174860768Y-67863471D01*
X174890098Y-67899209D01*
X174890099Y-67899211D01*
X174973763Y-68055733D01*
X174973763Y-68055734D01*
X175025283Y-68225573D01*
X175042679Y-68402200D01*
X175025283Y-68578827D01*
X174990936Y-68692053D01*
X174973763Y-68748667D01*
X174899668Y-68887287D01*
X174890098Y-68905191D01*
X174860768Y-68940929D01*
X174777506Y-69042386D01*
X174676049Y-69125648D01*
X174640311Y-69154978D01*
X174640309Y-69154979D01*
X174483787Y-69238643D01*
X174436899Y-69252866D01*
X174313947Y-69290163D01*
X174247762Y-69296682D01*
X174181580Y-69303200D01*
X174093060Y-69303200D01*
X174026878Y-69296682D01*
X173960693Y-69290163D01*
X173837741Y-69252866D01*
X173790853Y-69238643D01*
X173634331Y-69154979D01*
X173634329Y-69154978D01*
X173598591Y-69125648D01*
X173497134Y-69042386D01*
X173413872Y-68940929D01*
X173384542Y-68905191D01*
X173374972Y-68887287D01*
X173300877Y-68748667D01*
X173283704Y-68692053D01*
X173249357Y-68578827D01*
X173231961Y-68402200D01*
X173249357Y-68225573D01*
X173300877Y-68055734D01*
X173300877Y-68055733D01*
X173384541Y-67899211D01*
X173384542Y-67899209D01*
X173413872Y-67863471D01*
X173497134Y-67762014D01*
X173598591Y-67678752D01*
X173634329Y-67649422D01*
X173743014Y-67591328D01*
X173790853Y-67565757D01*
X173847467Y-67548584D01*
X173960693Y-67514237D01*
X174026878Y-67507718D01*
X174093060Y-67501200D01*
X174181580Y-67501200D01*
X174247762Y-67507718D01*
X174247762Y-67507718D01*
G37*
G36*
X171707762Y-67507718D02*
X171773947Y-67514237D01*
X171887173Y-67548584D01*
X171943787Y-67565757D01*
X171991626Y-67591328D01*
X172100311Y-67649422D01*
X172136049Y-67678752D01*
X172237506Y-67762014D01*
X172320768Y-67863471D01*
X172350098Y-67899209D01*
X172350099Y-67899211D01*
X172433763Y-68055733D01*
X172433763Y-68055734D01*
X172485283Y-68225573D01*
X172502679Y-68402200D01*
X172485283Y-68578827D01*
X172450936Y-68692053D01*
X172433763Y-68748667D01*
X172359668Y-68887287D01*
X172350098Y-68905191D01*
X172320768Y-68940929D01*
X172237506Y-69042386D01*
X172136049Y-69125648D01*
X172100311Y-69154978D01*
X172100309Y-69154979D01*
X171943787Y-69238643D01*
X171896899Y-69252866D01*
X171773947Y-69290163D01*
X171707762Y-69296682D01*
X171641580Y-69303200D01*
X171553060Y-69303200D01*
X171486878Y-69296682D01*
X171420693Y-69290163D01*
X171297741Y-69252866D01*
X171250853Y-69238643D01*
X171094331Y-69154979D01*
X171094329Y-69154978D01*
X171058591Y-69125648D01*
X170957134Y-69042386D01*
X170873872Y-68940929D01*
X170844542Y-68905191D01*
X170834972Y-68887287D01*
X170760877Y-68748667D01*
X170743704Y-68692053D01*
X170709357Y-68578827D01*
X170691961Y-68402200D01*
X170709357Y-68225573D01*
X170760877Y-68055734D01*
X170760877Y-68055733D01*
X170844541Y-67899211D01*
X170844542Y-67899209D01*
X170873872Y-67863471D01*
X170957134Y-67762014D01*
X171058591Y-67678752D01*
X171094329Y-67649422D01*
X171203014Y-67591328D01*
X171250853Y-67565757D01*
X171307467Y-67548584D01*
X171420693Y-67514237D01*
X171486878Y-67507718D01*
X171553060Y-67501200D01*
X171641580Y-67501200D01*
X171707762Y-67507718D01*
X171707762Y-67507718D01*
G37*
G36*
X169167762Y-67507718D02*
X169233947Y-67514237D01*
X169347173Y-67548584D01*
X169403787Y-67565757D01*
X169451626Y-67591328D01*
X169560311Y-67649422D01*
X169596049Y-67678752D01*
X169697506Y-67762014D01*
X169780768Y-67863471D01*
X169810098Y-67899209D01*
X169810099Y-67899211D01*
X169893763Y-68055733D01*
X169893763Y-68055734D01*
X169945283Y-68225573D01*
X169962679Y-68402200D01*
X169945283Y-68578827D01*
X169910936Y-68692053D01*
X169893763Y-68748667D01*
X169819668Y-68887287D01*
X169810098Y-68905191D01*
X169780768Y-68940929D01*
X169697506Y-69042386D01*
X169596049Y-69125648D01*
X169560311Y-69154978D01*
X169560309Y-69154979D01*
X169403787Y-69238643D01*
X169356899Y-69252866D01*
X169233947Y-69290163D01*
X169167762Y-69296682D01*
X169101580Y-69303200D01*
X169013060Y-69303200D01*
X168946878Y-69296682D01*
X168880693Y-69290163D01*
X168757741Y-69252866D01*
X168710853Y-69238643D01*
X168554331Y-69154979D01*
X168554329Y-69154978D01*
X168518591Y-69125648D01*
X168417134Y-69042386D01*
X168333872Y-68940929D01*
X168304542Y-68905191D01*
X168294972Y-68887287D01*
X168220877Y-68748667D01*
X168203704Y-68692053D01*
X168169357Y-68578827D01*
X168151961Y-68402200D01*
X168169357Y-68225573D01*
X168220877Y-68055734D01*
X168220877Y-68055733D01*
X168304541Y-67899211D01*
X168304542Y-67899209D01*
X168333872Y-67863471D01*
X168417134Y-67762014D01*
X168518591Y-67678752D01*
X168554329Y-67649422D01*
X168663014Y-67591328D01*
X168710853Y-67565757D01*
X168767467Y-67548584D01*
X168880693Y-67514237D01*
X168946878Y-67507718D01*
X169013060Y-67501200D01*
X169101580Y-67501200D01*
X169167762Y-67507718D01*
X169167762Y-67507718D01*
G37*
G36*
X166627762Y-67507718D02*
X166693947Y-67514237D01*
X166807173Y-67548584D01*
X166863787Y-67565757D01*
X166911626Y-67591328D01*
X167020311Y-67649422D01*
X167056049Y-67678752D01*
X167157506Y-67762014D01*
X167240768Y-67863471D01*
X167270098Y-67899209D01*
X167270099Y-67899211D01*
X167353763Y-68055733D01*
X167353763Y-68055734D01*
X167405283Y-68225573D01*
X167422679Y-68402200D01*
X167405283Y-68578827D01*
X167370936Y-68692053D01*
X167353763Y-68748667D01*
X167279668Y-68887287D01*
X167270098Y-68905191D01*
X167240768Y-68940929D01*
X167157506Y-69042386D01*
X167056049Y-69125648D01*
X167020311Y-69154978D01*
X167020309Y-69154979D01*
X166863787Y-69238643D01*
X166816899Y-69252866D01*
X166693947Y-69290163D01*
X166627762Y-69296682D01*
X166561580Y-69303200D01*
X166473060Y-69303200D01*
X166406878Y-69296682D01*
X166340693Y-69290163D01*
X166217741Y-69252866D01*
X166170853Y-69238643D01*
X166014331Y-69154979D01*
X166014329Y-69154978D01*
X165978591Y-69125648D01*
X165877134Y-69042386D01*
X165793872Y-68940929D01*
X165764542Y-68905191D01*
X165754972Y-68887287D01*
X165680877Y-68748667D01*
X165663704Y-68692053D01*
X165629357Y-68578827D01*
X165611961Y-68402200D01*
X165629357Y-68225573D01*
X165680877Y-68055734D01*
X165680877Y-68055733D01*
X165764541Y-67899211D01*
X165764542Y-67899209D01*
X165793872Y-67863471D01*
X165877134Y-67762014D01*
X165978591Y-67678752D01*
X166014329Y-67649422D01*
X166123014Y-67591328D01*
X166170853Y-67565757D01*
X166227467Y-67548584D01*
X166340693Y-67514237D01*
X166406878Y-67507718D01*
X166473060Y-67501200D01*
X166561580Y-67501200D01*
X166627762Y-67507718D01*
X166627762Y-67507718D01*
G37*
G36*
X164087762Y-67507718D02*
X164153947Y-67514237D01*
X164267173Y-67548584D01*
X164323787Y-67565757D01*
X164371626Y-67591328D01*
X164480311Y-67649422D01*
X164516049Y-67678752D01*
X164617506Y-67762014D01*
X164700768Y-67863471D01*
X164730098Y-67899209D01*
X164730099Y-67899211D01*
X164813763Y-68055733D01*
X164813763Y-68055734D01*
X164865283Y-68225573D01*
X164882679Y-68402200D01*
X164865283Y-68578827D01*
X164830936Y-68692053D01*
X164813763Y-68748667D01*
X164739668Y-68887287D01*
X164730098Y-68905191D01*
X164700768Y-68940929D01*
X164617506Y-69042386D01*
X164516049Y-69125648D01*
X164480311Y-69154978D01*
X164480309Y-69154979D01*
X164323787Y-69238643D01*
X164276899Y-69252866D01*
X164153947Y-69290163D01*
X164087762Y-69296682D01*
X164021580Y-69303200D01*
X163933060Y-69303200D01*
X163866878Y-69296682D01*
X163800693Y-69290163D01*
X163677741Y-69252866D01*
X163630853Y-69238643D01*
X163474331Y-69154979D01*
X163474329Y-69154978D01*
X163438591Y-69125648D01*
X163337134Y-69042386D01*
X163253872Y-68940929D01*
X163224542Y-68905191D01*
X163214972Y-68887287D01*
X163140877Y-68748667D01*
X163123704Y-68692053D01*
X163089357Y-68578827D01*
X163071961Y-68402200D01*
X163089357Y-68225573D01*
X163140877Y-68055734D01*
X163140877Y-68055733D01*
X163224541Y-67899211D01*
X163224542Y-67899209D01*
X163253872Y-67863471D01*
X163337134Y-67762014D01*
X163438591Y-67678752D01*
X163474329Y-67649422D01*
X163583014Y-67591328D01*
X163630853Y-67565757D01*
X163687467Y-67548584D01*
X163800693Y-67514237D01*
X163866878Y-67507718D01*
X163933060Y-67501200D01*
X164021580Y-67501200D01*
X164087762Y-67507718D01*
X164087762Y-67507718D01*
G37*
G36*
X161547762Y-67507718D02*
X161613947Y-67514237D01*
X161727173Y-67548584D01*
X161783787Y-67565757D01*
X161831626Y-67591328D01*
X161940311Y-67649422D01*
X161976049Y-67678752D01*
X162077506Y-67762014D01*
X162160768Y-67863471D01*
X162190098Y-67899209D01*
X162190099Y-67899211D01*
X162273763Y-68055733D01*
X162273763Y-68055734D01*
X162325283Y-68225573D01*
X162342679Y-68402200D01*
X162325283Y-68578827D01*
X162290936Y-68692053D01*
X162273763Y-68748667D01*
X162199668Y-68887287D01*
X162190098Y-68905191D01*
X162160768Y-68940929D01*
X162077506Y-69042386D01*
X161976049Y-69125648D01*
X161940311Y-69154978D01*
X161940309Y-69154979D01*
X161783787Y-69238643D01*
X161736899Y-69252866D01*
X161613947Y-69290163D01*
X161547762Y-69296682D01*
X161481580Y-69303200D01*
X161393060Y-69303200D01*
X161326878Y-69296682D01*
X161260693Y-69290163D01*
X161137741Y-69252866D01*
X161090853Y-69238643D01*
X160934331Y-69154979D01*
X160934329Y-69154978D01*
X160898591Y-69125648D01*
X160797134Y-69042386D01*
X160713872Y-68940929D01*
X160684542Y-68905191D01*
X160674972Y-68887287D01*
X160600877Y-68748667D01*
X160583704Y-68692053D01*
X160549357Y-68578827D01*
X160531961Y-68402200D01*
X160549357Y-68225573D01*
X160600877Y-68055734D01*
X160600877Y-68055733D01*
X160684541Y-67899211D01*
X160684542Y-67899209D01*
X160713872Y-67863471D01*
X160797134Y-67762014D01*
X160898591Y-67678752D01*
X160934329Y-67649422D01*
X161043014Y-67591328D01*
X161090853Y-67565757D01*
X161147467Y-67548584D01*
X161260693Y-67514237D01*
X161326878Y-67507718D01*
X161393060Y-67501200D01*
X161481580Y-67501200D01*
X161547762Y-67507718D01*
X161547762Y-67507718D01*
G37*
G36*
X159007762Y-67507718D02*
X159073947Y-67514237D01*
X159187173Y-67548584D01*
X159243787Y-67565757D01*
X159291626Y-67591328D01*
X159400311Y-67649422D01*
X159436049Y-67678752D01*
X159537506Y-67762014D01*
X159620768Y-67863471D01*
X159650098Y-67899209D01*
X159650099Y-67899211D01*
X159733763Y-68055733D01*
X159733763Y-68055734D01*
X159785283Y-68225573D01*
X159802679Y-68402200D01*
X159785283Y-68578827D01*
X159750936Y-68692053D01*
X159733763Y-68748667D01*
X159659668Y-68887287D01*
X159650098Y-68905191D01*
X159620768Y-68940929D01*
X159537506Y-69042386D01*
X159436049Y-69125648D01*
X159400311Y-69154978D01*
X159400309Y-69154979D01*
X159243787Y-69238643D01*
X159196899Y-69252866D01*
X159073947Y-69290163D01*
X159007762Y-69296682D01*
X158941580Y-69303200D01*
X158853060Y-69303200D01*
X158786878Y-69296682D01*
X158720693Y-69290163D01*
X158597741Y-69252866D01*
X158550853Y-69238643D01*
X158394331Y-69154979D01*
X158394329Y-69154978D01*
X158358591Y-69125648D01*
X158257134Y-69042386D01*
X158173872Y-68940929D01*
X158144542Y-68905191D01*
X158134972Y-68887287D01*
X158060877Y-68748667D01*
X158043704Y-68692053D01*
X158009357Y-68578827D01*
X157991961Y-68402200D01*
X158009357Y-68225573D01*
X158060877Y-68055734D01*
X158060877Y-68055733D01*
X158144541Y-67899211D01*
X158144542Y-67899209D01*
X158173872Y-67863471D01*
X158257134Y-67762014D01*
X158358591Y-67678752D01*
X158394329Y-67649422D01*
X158503014Y-67591328D01*
X158550853Y-67565757D01*
X158607467Y-67548584D01*
X158720693Y-67514237D01*
X158786878Y-67507718D01*
X158853060Y-67501200D01*
X158941580Y-67501200D01*
X159007762Y-67507718D01*
X159007762Y-67507718D01*
G37*
G36*
X156467762Y-67507718D02*
X156533947Y-67514237D01*
X156647173Y-67548584D01*
X156703787Y-67565757D01*
X156751626Y-67591328D01*
X156860311Y-67649422D01*
X156896049Y-67678752D01*
X156997506Y-67762014D01*
X157080768Y-67863471D01*
X157110098Y-67899209D01*
X157110099Y-67899211D01*
X157193763Y-68055733D01*
X157193763Y-68055734D01*
X157245283Y-68225573D01*
X157262679Y-68402200D01*
X157245283Y-68578827D01*
X157210936Y-68692053D01*
X157193763Y-68748667D01*
X157119668Y-68887287D01*
X157110098Y-68905191D01*
X157080768Y-68940929D01*
X156997506Y-69042386D01*
X156896049Y-69125648D01*
X156860311Y-69154978D01*
X156860309Y-69154979D01*
X156703787Y-69238643D01*
X156656899Y-69252866D01*
X156533947Y-69290163D01*
X156467762Y-69296682D01*
X156401580Y-69303200D01*
X156313060Y-69303200D01*
X156246878Y-69296682D01*
X156180693Y-69290163D01*
X156057741Y-69252866D01*
X156010853Y-69238643D01*
X155854331Y-69154979D01*
X155854329Y-69154978D01*
X155818591Y-69125648D01*
X155717134Y-69042386D01*
X155633872Y-68940929D01*
X155604542Y-68905191D01*
X155594972Y-68887287D01*
X155520877Y-68748667D01*
X155503704Y-68692053D01*
X155469357Y-68578827D01*
X155451961Y-68402200D01*
X155469357Y-68225573D01*
X155520877Y-68055734D01*
X155520877Y-68055733D01*
X155604541Y-67899211D01*
X155604542Y-67899209D01*
X155633872Y-67863471D01*
X155717134Y-67762014D01*
X155818591Y-67678752D01*
X155854329Y-67649422D01*
X155963014Y-67591328D01*
X156010853Y-67565757D01*
X156067467Y-67548584D01*
X156180693Y-67514237D01*
X156246878Y-67507718D01*
X156313060Y-67501200D01*
X156401580Y-67501200D01*
X156467762Y-67507718D01*
X156467762Y-67507718D01*
G37*
G36*
X153927762Y-67507718D02*
X153993947Y-67514237D01*
X154107173Y-67548584D01*
X154163787Y-67565757D01*
X154211626Y-67591328D01*
X154320311Y-67649422D01*
X154356049Y-67678752D01*
X154457506Y-67762014D01*
X154540768Y-67863471D01*
X154570098Y-67899209D01*
X154570099Y-67899211D01*
X154653763Y-68055733D01*
X154653763Y-68055734D01*
X154705283Y-68225573D01*
X154722679Y-68402200D01*
X154705283Y-68578827D01*
X154670936Y-68692053D01*
X154653763Y-68748667D01*
X154579668Y-68887287D01*
X154570098Y-68905191D01*
X154540768Y-68940929D01*
X154457506Y-69042386D01*
X154356049Y-69125648D01*
X154320311Y-69154978D01*
X154320309Y-69154979D01*
X154163787Y-69238643D01*
X154116899Y-69252866D01*
X153993947Y-69290163D01*
X153927762Y-69296682D01*
X153861580Y-69303200D01*
X153773060Y-69303200D01*
X153706878Y-69296682D01*
X153640693Y-69290163D01*
X153517741Y-69252866D01*
X153470853Y-69238643D01*
X153314331Y-69154979D01*
X153314329Y-69154978D01*
X153278591Y-69125648D01*
X153177134Y-69042386D01*
X153093872Y-68940929D01*
X153064542Y-68905191D01*
X153054972Y-68887287D01*
X152980877Y-68748667D01*
X152963704Y-68692053D01*
X152929357Y-68578827D01*
X152911961Y-68402200D01*
X152929357Y-68225573D01*
X152980877Y-68055734D01*
X152980877Y-68055733D01*
X153064541Y-67899211D01*
X153064542Y-67899209D01*
X153093872Y-67863471D01*
X153177134Y-67762014D01*
X153278591Y-67678752D01*
X153314329Y-67649422D01*
X153423014Y-67591328D01*
X153470853Y-67565757D01*
X153527467Y-67548584D01*
X153640693Y-67514237D01*
X153706878Y-67507718D01*
X153773060Y-67501200D01*
X153861580Y-67501200D01*
X153927762Y-67507718D01*
X153927762Y-67507718D01*
G37*
G36*
X148847762Y-67507718D02*
X148913947Y-67514237D01*
X149027173Y-67548584D01*
X149083787Y-67565757D01*
X149131626Y-67591328D01*
X149240311Y-67649422D01*
X149276049Y-67678752D01*
X149377506Y-67762014D01*
X149460768Y-67863471D01*
X149490098Y-67899209D01*
X149490099Y-67899211D01*
X149573763Y-68055733D01*
X149573763Y-68055734D01*
X149625283Y-68225573D01*
X149642679Y-68402200D01*
X149625283Y-68578827D01*
X149590936Y-68692053D01*
X149573763Y-68748667D01*
X149499668Y-68887287D01*
X149490098Y-68905191D01*
X149460768Y-68940929D01*
X149377506Y-69042386D01*
X149276049Y-69125648D01*
X149240311Y-69154978D01*
X149240309Y-69154979D01*
X149083787Y-69238643D01*
X149036899Y-69252866D01*
X148913947Y-69290163D01*
X148847762Y-69296682D01*
X148781580Y-69303200D01*
X148693060Y-69303200D01*
X148626878Y-69296682D01*
X148560693Y-69290163D01*
X148437741Y-69252866D01*
X148390853Y-69238643D01*
X148234331Y-69154979D01*
X148234329Y-69154978D01*
X148198591Y-69125648D01*
X148097134Y-69042386D01*
X148013872Y-68940929D01*
X147984542Y-68905191D01*
X147974972Y-68887287D01*
X147900877Y-68748667D01*
X147883704Y-68692053D01*
X147849357Y-68578827D01*
X147831961Y-68402200D01*
X147849357Y-68225573D01*
X147900877Y-68055734D01*
X147900877Y-68055733D01*
X147984541Y-67899211D01*
X147984542Y-67899209D01*
X148013872Y-67863471D01*
X148097134Y-67762014D01*
X148198591Y-67678752D01*
X148234329Y-67649422D01*
X148343014Y-67591328D01*
X148390853Y-67565757D01*
X148447467Y-67548584D01*
X148560693Y-67514237D01*
X148626878Y-67507718D01*
X148693060Y-67501200D01*
X148781580Y-67501200D01*
X148847762Y-67507718D01*
X148847762Y-67507718D01*
G37*
G36*
X151387762Y-67507718D02*
X151453947Y-67514237D01*
X151567173Y-67548584D01*
X151623787Y-67565757D01*
X151671626Y-67591328D01*
X151780311Y-67649422D01*
X151816049Y-67678752D01*
X151917506Y-67762014D01*
X152000768Y-67863471D01*
X152030098Y-67899209D01*
X152030099Y-67899211D01*
X152113763Y-68055733D01*
X152113763Y-68055734D01*
X152165283Y-68225573D01*
X152182679Y-68402200D01*
X152165283Y-68578827D01*
X152130936Y-68692053D01*
X152113763Y-68748667D01*
X152039668Y-68887287D01*
X152030098Y-68905191D01*
X152000768Y-68940929D01*
X151917506Y-69042386D01*
X151816049Y-69125648D01*
X151780311Y-69154978D01*
X151780309Y-69154979D01*
X151623787Y-69238643D01*
X151576899Y-69252866D01*
X151453947Y-69290163D01*
X151387762Y-69296682D01*
X151321580Y-69303200D01*
X151233060Y-69303200D01*
X151166878Y-69296682D01*
X151100693Y-69290163D01*
X150977741Y-69252866D01*
X150930853Y-69238643D01*
X150774331Y-69154979D01*
X150774329Y-69154978D01*
X150738591Y-69125648D01*
X150637134Y-69042386D01*
X150553872Y-68940929D01*
X150524542Y-68905191D01*
X150514972Y-68887287D01*
X150440877Y-68748667D01*
X150423704Y-68692053D01*
X150389357Y-68578827D01*
X150371961Y-68402200D01*
X150389357Y-68225573D01*
X150440877Y-68055734D01*
X150440877Y-68055733D01*
X150524541Y-67899211D01*
X150524542Y-67899209D01*
X150553872Y-67863471D01*
X150637134Y-67762014D01*
X150738591Y-67678752D01*
X150774329Y-67649422D01*
X150883014Y-67591328D01*
X150930853Y-67565757D01*
X150987467Y-67548584D01*
X151100693Y-67514237D01*
X151166878Y-67507718D01*
X151233060Y-67501200D01*
X151321580Y-67501200D01*
X151387762Y-67507718D01*
X151387762Y-67507718D01*
G37*
M02*
