G04 #@! TF.GenerationSoftware,KiCad,Pcbnew,(5.0.2)-1*
G04 #@! TF.CreationDate,2019-05-19T15:52:53+03:00*
G04 #@! TF.ProjectId,Skanas_frekvences_noteiksana,536b616e-6173-45f6-9672-656b76656e63,rev?*
G04 #@! TF.SameCoordinates,Original*
G04 #@! TF.FileFunction,Copper,L1,Top*
G04 #@! TF.FilePolarity,Positive*
%FSLAX46Y46*%
G04 Gerber Fmt 4.6, Leading zero omitted, Abs format (unit mm)*
G04 Created by KiCad (PCBNEW (5.0.2)-1) date 5/19/2019 15:52:53*
%MOMM*%
%LPD*%
G01*
G04 APERTURE LIST*
G04 #@! TA.AperFunction,ComponentPad*
%ADD10O,1.600000X1.600000*%
G04 #@! TD*
G04 #@! TA.AperFunction,ComponentPad*
%ADD11C,1.600000*%
G04 #@! TD*
G04 #@! TA.AperFunction,ComponentPad*
%ADD12C,1.524000*%
G04 #@! TD*
G04 #@! TA.AperFunction,ComponentPad*
%ADD13R,1.524000X1.524000*%
G04 #@! TD*
G04 #@! TA.AperFunction,ComponentPad*
%ADD14C,1.550000*%
G04 #@! TD*
G04 #@! TA.AperFunction,ComponentPad*
%ADD15R,1.550000X1.550000*%
G04 #@! TD*
G04 #@! TA.AperFunction,ComponentPad*
%ADD16C,2.000000*%
G04 #@! TD*
G04 #@! TA.AperFunction,ComponentPad*
%ADD17O,1.700000X1.700000*%
G04 #@! TD*
G04 #@! TA.AperFunction,ComponentPad*
%ADD18R,1.700000X1.700000*%
G04 #@! TD*
G04 #@! TA.AperFunction,ComponentPad*
%ADD19R,1.600000X1.600000*%
G04 #@! TD*
G04 #@! TA.AperFunction,SMDPad,CuDef*
%ADD20R,1.700000X2.000000*%
G04 #@! TD*
G04 #@! TA.AperFunction,SMDPad,CuDef*
%ADD21R,2.000000X0.500000*%
G04 #@! TD*
G04 #@! TA.AperFunction,ComponentPad*
%ADD22C,1.500000*%
G04 #@! TD*
G04 #@! TA.AperFunction,ComponentPad*
%ADD23C,3.000000*%
G04 #@! TD*
G04 #@! TA.AperFunction,ViaPad*
%ADD24C,0.800000*%
G04 #@! TD*
G04 #@! TA.AperFunction,Conductor*
%ADD25C,0.250000*%
G04 #@! TD*
G04 #@! TA.AperFunction,Conductor*
%ADD26C,0.254000*%
G04 #@! TD*
G04 APERTURE END LIST*
D10*
G04 #@! TO.P,R3,2*
G04 #@! TO.N,Net-(R3-Pad2)*
X201551540Y-82643980D03*
D11*
G04 #@! TO.P,R3,1*
G04 #@! TO.N,VCC*
X201551540Y-72483980D03*
G04 #@! TD*
G04 #@! TO.P,R5,1*
G04 #@! TO.N,Net-(R2-Pad2)*
X190832740Y-82796380D03*
D10*
G04 #@! TO.P,R5,2*
G04 #@! TO.N,Net-(R5-Pad2)*
X190832740Y-72636380D03*
G04 #@! TD*
D12*
G04 #@! TO.P,MK1,2*
G04 #@! TO.N,Net-(C1-Pad2)*
X217450920Y-76448600D03*
D13*
G04 #@! TO.P,MK1,1*
G04 #@! TO.N,Earth*
X217450920Y-78948600D03*
G04 #@! TD*
D14*
G04 #@! TO.P,RV1,3*
G04 #@! TO.N,Earth*
X131497700Y-75487540D03*
D15*
G04 #@! TO.P,RV1,1*
G04 #@! TO.N,VCC*
X136497700Y-75487540D03*
D14*
G04 #@! TO.P,RV1,2*
G04 #@! TO.N,Net-(J3-Pad3)*
X133997700Y-70487540D03*
G04 #@! TD*
D16*
G04 #@! TO.P,SW1,2*
G04 #@! TO.N,Earth*
X131867520Y-93967300D03*
G04 #@! TO.P,SW1,1*
G04 #@! TO.N,RST*
X136367520Y-93967300D03*
G04 #@! TO.P,SW1,2*
G04 #@! TO.N,Earth*
X131867520Y-100467300D03*
G04 #@! TO.P,SW1,1*
G04 #@! TO.N,RST*
X136367520Y-100467300D03*
G04 #@! TD*
D17*
G04 #@! TO.P,J2,6*
G04 #@! TO.N,Earth*
X135313420Y-86032340D03*
G04 #@! TO.P,J2,5*
G04 #@! TO.N,RST*
X132773420Y-86032340D03*
G04 #@! TO.P,J2,4*
G04 #@! TO.N,Net-(J2-Pad4)*
X135313420Y-83492340D03*
G04 #@! TO.P,J2,3*
G04 #@! TO.N,Net-(J2-Pad3)*
X132773420Y-83492340D03*
G04 #@! TO.P,J2,2*
G04 #@! TO.N,VCC*
X135313420Y-80952340D03*
D18*
G04 #@! TO.P,J2,1*
G04 #@! TO.N,Net-(J2-Pad1)*
X132773420Y-80952340D03*
G04 #@! TD*
D10*
G04 #@! TO.P,R6,2*
G04 #@! TO.N,Net-(C6-Pad1)*
X185290460Y-82776060D03*
D11*
G04 #@! TO.P,R6,1*
G04 #@! TO.N,Net-(R5-Pad2)*
X185290460Y-72616060D03*
G04 #@! TD*
G04 #@! TO.P,C6,1*
G04 #@! TO.N,Net-(C6-Pad1)*
X181401720Y-82783680D03*
G04 #@! TO.P,C6,2*
G04 #@! TO.N,Earth*
X181401720Y-80283680D03*
G04 #@! TD*
D10*
G04 #@! TO.P,U2,28*
G04 #@! TO.N,Net-(U2-Pad28)*
X141198600Y-79870300D03*
G04 #@! TO.P,U2,14*
G04 #@! TO.N,Net-(U2-Pad14)*
X174218600Y-87490300D03*
G04 #@! TO.P,U2,27*
G04 #@! TO.N,Net-(U2-Pad27)*
X143738600Y-79870300D03*
G04 #@! TO.P,U2,13*
G04 #@! TO.N,Net-(J3-Pad14)*
X171678600Y-87490300D03*
G04 #@! TO.P,U2,26*
G04 #@! TO.N,Net-(U2-Pad26)*
X146278600Y-79870300D03*
G04 #@! TO.P,U2,12*
G04 #@! TO.N,Net-(J3-Pad13)*
X169138600Y-87490300D03*
G04 #@! TO.P,U2,25*
G04 #@! TO.N,Net-(U2-Pad25)*
X148818600Y-79870300D03*
G04 #@! TO.P,U2,11*
G04 #@! TO.N,Net-(J3-Pad12)*
X166598600Y-87490300D03*
G04 #@! TO.P,U2,24*
G04 #@! TO.N,Net-(U2-Pad24)*
X151358600Y-79870300D03*
G04 #@! TO.P,U2,10*
G04 #@! TO.N,Net-(C7-Pad2)*
X164058600Y-87490300D03*
G04 #@! TO.P,U2,23*
G04 #@! TO.N,Net-(C6-Pad1)*
X153898600Y-79870300D03*
G04 #@! TO.P,U2,9*
G04 #@! TO.N,Net-(C5-Pad2)*
X161518600Y-87490300D03*
G04 #@! TO.P,U2,22*
G04 #@! TO.N,Earth*
X156438600Y-79870300D03*
G04 #@! TO.P,U2,8*
X158978600Y-87490300D03*
G04 #@! TO.P,U2,21*
G04 #@! TO.N,Net-(U2-Pad21)*
X158978600Y-79870300D03*
G04 #@! TO.P,U2,7*
G04 #@! TO.N,VCC*
X156438600Y-87490300D03*
G04 #@! TO.P,U2,20*
G04 #@! TO.N,Net-(C3-Pad2)*
X161518600Y-79870300D03*
G04 #@! TO.P,U2,6*
G04 #@! TO.N,Net-(J3-Pad11)*
X153898600Y-87490300D03*
G04 #@! TO.P,U2,19*
G04 #@! TO.N,Net-(J2-Pad3)*
X164058600Y-79870300D03*
G04 #@! TO.P,U2,5*
G04 #@! TO.N,Net-(J3-Pad6)*
X151358600Y-87490300D03*
G04 #@! TO.P,U2,18*
G04 #@! TO.N,Net-(J2-Pad1)*
X166598600Y-79870300D03*
G04 #@! TO.P,U2,4*
G04 #@! TO.N,Net-(J3-Pad4)*
X148818600Y-87490300D03*
G04 #@! TO.P,U2,17*
G04 #@! TO.N,Net-(J2-Pad4)*
X169138600Y-79870300D03*
G04 #@! TO.P,U2,3*
G04 #@! TO.N,Net-(U2-Pad3)*
X146278600Y-87490300D03*
G04 #@! TO.P,U2,16*
G04 #@! TO.N,Net-(U2-Pad16)*
X171678600Y-79870300D03*
G04 #@! TO.P,U2,2*
G04 #@! TO.N,Net-(U2-Pad2)*
X143738600Y-87490300D03*
G04 #@! TO.P,U2,15*
G04 #@! TO.N,Net-(U2-Pad15)*
X174218600Y-79870300D03*
D19*
G04 #@! TO.P,U2,1*
G04 #@! TO.N,RST*
X141198600Y-87490300D03*
G04 #@! TD*
D10*
G04 #@! TO.P,R2,2*
G04 #@! TO.N,Net-(R2-Pad2)*
X196281040Y-82796380D03*
D11*
G04 #@! TO.P,R2,1*
G04 #@! TO.N,Net-(C1-Pad1)*
X196281040Y-72636380D03*
G04 #@! TD*
G04 #@! TO.P,C1,2*
G04 #@! TO.N,Net-(C1-Pad2)*
X203012680Y-68498720D03*
G04 #@! TO.P,C1,1*
G04 #@! TO.N,Net-(C1-Pad1)*
X200512680Y-68498720D03*
G04 #@! TD*
G04 #@! TO.P,C8,2*
G04 #@! TO.N,RST*
X139552040Y-93964760D03*
G04 #@! TO.P,C8,1*
G04 #@! TO.N,Earth*
X142052040Y-93964760D03*
G04 #@! TD*
G04 #@! TO.P,R8,1*
G04 #@! TO.N,VCC*
X149722840Y-90647520D03*
D10*
G04 #@! TO.P,R8,2*
G04 #@! TO.N,RST*
X139562840Y-90647520D03*
G04 #@! TD*
D11*
G04 #@! TO.P,R7,1*
G04 #@! TO.N,VCC*
X171602400Y-73030080D03*
D10*
G04 #@! TO.P,R7,2*
G04 #@! TO.N,Net-(J3-Pad15)*
X181762400Y-73030080D03*
G04 #@! TD*
D11*
G04 #@! TO.P,L1,1*
G04 #@! TO.N,VCC*
X148590000Y-76560680D03*
D10*
G04 #@! TO.P,L1,2*
G04 #@! TO.N,Net-(C3-Pad2)*
X158750000Y-76560680D03*
G04 #@! TD*
D11*
G04 #@! TO.P,C3,2*
G04 #@! TO.N,Net-(C3-Pad2)*
X161523680Y-76565760D03*
G04 #@! TO.P,C3,1*
G04 #@! TO.N,Earth*
X164023680Y-76565760D03*
G04 #@! TD*
D20*
G04 #@! TO.P,J1,6*
G04 #@! TO.N,Earth*
X216258260Y-86568360D03*
X210808260Y-86568360D03*
X216258260Y-95468360D03*
X210808260Y-95468360D03*
D21*
G04 #@! TO.P,J1,5*
X210708260Y-89418360D03*
G04 #@! TO.P,J1,4*
G04 #@! TO.N,Net-(J1-Pad4)*
X210708260Y-90218360D03*
G04 #@! TO.P,J1,3*
G04 #@! TO.N,Net-(J1-Pad3)*
X210708260Y-91018360D03*
G04 #@! TO.P,J1,2*
G04 #@! TO.N,Net-(J1-Pad2)*
X210708260Y-91818360D03*
G04 #@! TO.P,J1,1*
G04 #@! TO.N,VCC*
X210708260Y-92618360D03*
G04 #@! TD*
D22*
G04 #@! TO.P,Y1,1*
G04 #@! TO.N,Net-(C5-Pad2)*
X160345120Y-96626680D03*
G04 #@! TO.P,Y1,2*
G04 #@! TO.N,Net-(C7-Pad2)*
X165245120Y-96626680D03*
G04 #@! TD*
D11*
G04 #@! TO.P,C5,2*
G04 #@! TO.N,Net-(C5-Pad2)*
X161523680Y-90799920D03*
G04 #@! TO.P,C5,1*
G04 #@! TO.N,Earth*
X159023680Y-90799920D03*
G04 #@! TD*
G04 #@! TO.P,C7,1*
G04 #@! TO.N,Earth*
X166553520Y-90774520D03*
G04 #@! TO.P,C7,2*
G04 #@! TO.N,Net-(C7-Pad2)*
X164053520Y-90774520D03*
G04 #@! TD*
D17*
G04 #@! TO.P,J3,16*
G04 #@! TO.N,Earth*
X184297320Y-68402200D03*
G04 #@! TO.P,J3,15*
G04 #@! TO.N,Net-(J3-Pad15)*
X181757320Y-68402200D03*
G04 #@! TO.P,J3,14*
G04 #@! TO.N,Net-(J3-Pad14)*
X179217320Y-68402200D03*
G04 #@! TO.P,J3,13*
G04 #@! TO.N,Net-(J3-Pad13)*
X176677320Y-68402200D03*
G04 #@! TO.P,J3,12*
G04 #@! TO.N,Net-(J3-Pad12)*
X174137320Y-68402200D03*
G04 #@! TO.P,J3,11*
G04 #@! TO.N,Net-(J3-Pad11)*
X171597320Y-68402200D03*
G04 #@! TO.P,J3,10*
G04 #@! TO.N,Net-(J3-Pad10)*
X169057320Y-68402200D03*
G04 #@! TO.P,J3,9*
G04 #@! TO.N,Net-(J3-Pad9)*
X166517320Y-68402200D03*
G04 #@! TO.P,J3,8*
G04 #@! TO.N,Net-(J3-Pad8)*
X163977320Y-68402200D03*
G04 #@! TO.P,J3,7*
G04 #@! TO.N,Net-(J3-Pad7)*
X161437320Y-68402200D03*
G04 #@! TO.P,J3,6*
G04 #@! TO.N,Net-(J3-Pad6)*
X158897320Y-68402200D03*
G04 #@! TO.P,J3,5*
G04 #@! TO.N,Earth*
X156357320Y-68402200D03*
G04 #@! TO.P,J3,4*
G04 #@! TO.N,Net-(J3-Pad4)*
X153817320Y-68402200D03*
G04 #@! TO.P,J3,3*
G04 #@! TO.N,Net-(J3-Pad3)*
X151277320Y-68402200D03*
G04 #@! TO.P,J3,2*
G04 #@! TO.N,VCC*
X148737320Y-68402200D03*
D18*
G04 #@! TO.P,J3,1*
G04 #@! TO.N,Earth*
X146197320Y-68402200D03*
G04 #@! TD*
D11*
G04 #@! TO.P,C4,1*
G04 #@! TO.N,VCC*
X152847040Y-90093800D03*
G04 #@! TO.P,C4,2*
G04 #@! TO.N,Earth*
X152847040Y-92593800D03*
G04 #@! TD*
G04 #@! TO.P,C2,2*
G04 #@! TO.N,Earth*
X156215080Y-92593800D03*
G04 #@! TO.P,C2,1*
G04 #@! TO.N,VCC*
X156215080Y-90093800D03*
G04 #@! TD*
G04 #@! TO.P,R4,1*
G04 #@! TO.N,Net-(R3-Pad2)*
X212600540Y-82605880D03*
D10*
G04 #@! TO.P,R4,2*
G04 #@! TO.N,Earth*
X212600540Y-72445880D03*
G04 #@! TD*
D11*
G04 #@! TO.P,R1,1*
G04 #@! TO.N,VCC*
X206999840Y-82567780D03*
D10*
G04 #@! TO.P,R1,2*
G04 #@! TO.N,Net-(C1-Pad2)*
X206999840Y-72407780D03*
G04 #@! TD*
D23*
G04 #@! TO.P,,*
G04 #@! TO.N,*
X215696800Y-99314000D03*
G04 #@! TD*
G04 #@! TO.P,,*
G04 #@! TO.N,*
X215696800Y-68326000D03*
G04 #@! TD*
G04 #@! TO.P,,*
G04 #@! TO.N,*
X140716000Y-68326000D03*
G04 #@! TD*
G04 #@! TO.P,,*
G04 #@! TO.N,*
X140703300Y-99326700D03*
G04 #@! TD*
D11*
G04 #@! TO.P,C9,1*
G04 #@! TO.N,VCC*
X188709300Y-86309200D03*
G04 #@! TO.P,C9,2*
G04 #@! TO.N,Earth*
X186209300Y-86309200D03*
G04 #@! TD*
G04 #@! TO.P,C10,2*
G04 #@! TO.N,Earth*
X193723900Y-86321900D03*
G04 #@! TO.P,C10,1*
G04 #@! TO.N,VCC*
X191223900Y-86321900D03*
G04 #@! TD*
D19*
G04 #@! TO.P,U1,1*
G04 #@! TO.N,Net-(R5-Pad2)*
X198818500Y-89293700D03*
D10*
G04 #@! TO.P,U1,8*
G04 #@! TO.N,N/C*
X183578500Y-96913700D03*
G04 #@! TO.P,U1,2*
G04 #@! TO.N,Net-(R2-Pad2)*
X196278500Y-89293700D03*
G04 #@! TO.P,U1,9*
G04 #@! TO.N,N/C*
X186118500Y-96913700D03*
G04 #@! TO.P,U1,3*
G04 #@! TO.N,Net-(R3-Pad2)*
X193738500Y-89293700D03*
G04 #@! TO.P,U1,10*
G04 #@! TO.N,N/C*
X188658500Y-96913700D03*
G04 #@! TO.P,U1,4*
G04 #@! TO.N,VCC*
X191198500Y-89293700D03*
G04 #@! TO.P,U1,11*
G04 #@! TO.N,Earth*
X191198500Y-96913700D03*
G04 #@! TO.P,U1,5*
G04 #@! TO.N,N/C*
X188658500Y-89293700D03*
G04 #@! TO.P,U1,12*
X193738500Y-96913700D03*
G04 #@! TO.P,U1,6*
X186118500Y-89293700D03*
G04 #@! TO.P,U1,13*
X196278500Y-96913700D03*
G04 #@! TO.P,U1,7*
X183578500Y-89293700D03*
G04 #@! TO.P,U1,14*
X198818500Y-96913700D03*
G04 #@! TD*
D24*
G04 #@! TO.N,Earth*
X207688180Y-89402920D03*
G04 #@! TO.N,Net-(J2-Pad3)*
X159184340Y-84709000D03*
G04 #@! TD*
D25*
G04 #@! TO.N,Earth*
X216258260Y-86568360D02*
X210808260Y-86568360D01*
X210808260Y-89318360D02*
X210708260Y-89418360D01*
X210808260Y-86568360D02*
X210808260Y-89318360D01*
X210808260Y-95468360D02*
X216258260Y-95468360D01*
X216258260Y-94218360D02*
X216258260Y-86568360D01*
X216258260Y-95468360D02*
X216258260Y-94218360D01*
X207703620Y-89418360D02*
X207688180Y-89402920D01*
X210708260Y-89418360D02*
X207703620Y-89418360D01*
G04 #@! TO.N,Net-(C6-Pad1)*
X177048160Y-78430120D02*
X181401720Y-82783680D01*
X153898600Y-79870300D02*
X155338780Y-78430120D01*
X155338780Y-78430120D02*
X177048160Y-78430120D01*
G04 #@! TO.N,Net-(J2-Pad1)*
X132773420Y-80952340D02*
X134035721Y-82214641D01*
X165798601Y-80670299D02*
X166598600Y-79870300D01*
X164228780Y-82240120D02*
X165798601Y-80670299D01*
X134051040Y-82214641D02*
X134076519Y-82240120D01*
X134076519Y-82240120D02*
X164228780Y-82240120D01*
G04 #@! TO.N,Net-(J2-Pad3)*
X132773420Y-83492340D02*
X133990080Y-84709000D01*
X133990080Y-84709000D02*
X159184340Y-84709000D01*
G04 #@! TO.N,Net-(J2-Pad4)*
X168338601Y-80670299D02*
X169138600Y-79870300D01*
X165516560Y-83492340D02*
X165666420Y-83342480D01*
X165524180Y-83484720D02*
X165666420Y-83342480D01*
X165666420Y-83342480D02*
X168338601Y-80670299D01*
X135313420Y-83492340D02*
X165516560Y-83492340D01*
G04 #@! TD*
D26*
G04 #@! TO.N,VCC*
G36*
X219198000Y-102698000D02*
X129802000Y-102698000D01*
X129802000Y-100123778D01*
X130140520Y-100123778D01*
X130140520Y-100810822D01*
X130403440Y-101445567D01*
X130889253Y-101931380D01*
X131523998Y-102194300D01*
X132211042Y-102194300D01*
X132845787Y-101931380D01*
X133331600Y-101445567D01*
X133594520Y-100810822D01*
X133594520Y-100123778D01*
X134640520Y-100123778D01*
X134640520Y-100810822D01*
X134903440Y-101445567D01*
X135389253Y-101931380D01*
X136023998Y-102194300D01*
X136711042Y-102194300D01*
X137345787Y-101931380D01*
X137831600Y-101445567D01*
X138094520Y-100810822D01*
X138094520Y-100123778D01*
X137831600Y-99489033D01*
X137345787Y-99003220D01*
X137057294Y-98883722D01*
X138476300Y-98883722D01*
X138476300Y-99769678D01*
X138815340Y-100588194D01*
X139441806Y-101214660D01*
X140260322Y-101553700D01*
X141146278Y-101553700D01*
X141964794Y-101214660D01*
X142591260Y-100588194D01*
X142930300Y-99769678D01*
X142930300Y-98883722D01*
X142591260Y-98065206D01*
X141964794Y-97438740D01*
X141146278Y-97099700D01*
X140260322Y-97099700D01*
X139441806Y-97438740D01*
X138815340Y-98065206D01*
X138476300Y-98883722D01*
X137057294Y-98883722D01*
X136711042Y-98740300D01*
X136023998Y-98740300D01*
X135389253Y-99003220D01*
X134903440Y-99489033D01*
X134640520Y-100123778D01*
X133594520Y-100123778D01*
X133331600Y-99489033D01*
X132845787Y-99003220D01*
X132211042Y-98740300D01*
X131523998Y-98740300D01*
X130889253Y-99003220D01*
X130403440Y-99489033D01*
X130140520Y-100123778D01*
X129802000Y-100123778D01*
X129802000Y-96332886D01*
X158868120Y-96332886D01*
X158868120Y-96920474D01*
X159092980Y-97463333D01*
X159508467Y-97878820D01*
X160051326Y-98103680D01*
X160638914Y-98103680D01*
X161181773Y-97878820D01*
X161597260Y-97463333D01*
X161822120Y-96920474D01*
X161822120Y-96332886D01*
X163768120Y-96332886D01*
X163768120Y-96920474D01*
X163992980Y-97463333D01*
X164408467Y-97878820D01*
X164951326Y-98103680D01*
X165538914Y-98103680D01*
X166081773Y-97878820D01*
X166497260Y-97463333D01*
X166722120Y-96920474D01*
X166722120Y-96913700D01*
X182021585Y-96913700D01*
X182140098Y-97509506D01*
X182477595Y-98014605D01*
X182982694Y-98352102D01*
X183428107Y-98440700D01*
X183728893Y-98440700D01*
X184174306Y-98352102D01*
X184679405Y-98014605D01*
X184848500Y-97761537D01*
X185017595Y-98014605D01*
X185522694Y-98352102D01*
X185968107Y-98440700D01*
X186268893Y-98440700D01*
X186714306Y-98352102D01*
X187219405Y-98014605D01*
X187388500Y-97761537D01*
X187557595Y-98014605D01*
X188062694Y-98352102D01*
X188508107Y-98440700D01*
X188808893Y-98440700D01*
X189254306Y-98352102D01*
X189759405Y-98014605D01*
X189928500Y-97761537D01*
X190097595Y-98014605D01*
X190602694Y-98352102D01*
X191048107Y-98440700D01*
X191348893Y-98440700D01*
X191794306Y-98352102D01*
X192299405Y-98014605D01*
X192468500Y-97761537D01*
X192637595Y-98014605D01*
X193142694Y-98352102D01*
X193588107Y-98440700D01*
X193888893Y-98440700D01*
X194334306Y-98352102D01*
X194839405Y-98014605D01*
X195008500Y-97761537D01*
X195177595Y-98014605D01*
X195682694Y-98352102D01*
X196128107Y-98440700D01*
X196428893Y-98440700D01*
X196874306Y-98352102D01*
X197379405Y-98014605D01*
X197548500Y-97761537D01*
X197717595Y-98014605D01*
X198222694Y-98352102D01*
X198668107Y-98440700D01*
X198968893Y-98440700D01*
X199414306Y-98352102D01*
X199919405Y-98014605D01*
X200256902Y-97509506D01*
X200375415Y-96913700D01*
X200256902Y-96317894D01*
X199919405Y-95812795D01*
X199414306Y-95475298D01*
X198968893Y-95386700D01*
X198668107Y-95386700D01*
X198222694Y-95475298D01*
X197717595Y-95812795D01*
X197548500Y-96065863D01*
X197379405Y-95812795D01*
X196874306Y-95475298D01*
X196428893Y-95386700D01*
X196128107Y-95386700D01*
X195682694Y-95475298D01*
X195177595Y-95812795D01*
X195008500Y-96065863D01*
X194839405Y-95812795D01*
X194334306Y-95475298D01*
X193888893Y-95386700D01*
X193588107Y-95386700D01*
X193142694Y-95475298D01*
X192637595Y-95812795D01*
X192468500Y-96065863D01*
X192299405Y-95812795D01*
X191794306Y-95475298D01*
X191348893Y-95386700D01*
X191048107Y-95386700D01*
X190602694Y-95475298D01*
X190097595Y-95812795D01*
X189928500Y-96065863D01*
X189759405Y-95812795D01*
X189254306Y-95475298D01*
X188808893Y-95386700D01*
X188508107Y-95386700D01*
X188062694Y-95475298D01*
X187557595Y-95812795D01*
X187388500Y-96065863D01*
X187219405Y-95812795D01*
X186714306Y-95475298D01*
X186268893Y-95386700D01*
X185968107Y-95386700D01*
X185522694Y-95475298D01*
X185017595Y-95812795D01*
X184848500Y-96065863D01*
X184679405Y-95812795D01*
X184174306Y-95475298D01*
X183728893Y-95386700D01*
X183428107Y-95386700D01*
X182982694Y-95475298D01*
X182477595Y-95812795D01*
X182140098Y-96317894D01*
X182021585Y-96913700D01*
X166722120Y-96913700D01*
X166722120Y-96332886D01*
X166497260Y-95790027D01*
X166081773Y-95374540D01*
X165538914Y-95149680D01*
X164951326Y-95149680D01*
X164408467Y-95374540D01*
X163992980Y-95790027D01*
X163768120Y-96332886D01*
X161822120Y-96332886D01*
X161597260Y-95790027D01*
X161181773Y-95374540D01*
X160638914Y-95149680D01*
X160051326Y-95149680D01*
X159508467Y-95374540D01*
X159092980Y-95790027D01*
X158868120Y-96332886D01*
X129802000Y-96332886D01*
X129802000Y-93623778D01*
X130140520Y-93623778D01*
X130140520Y-94310822D01*
X130403440Y-94945567D01*
X130889253Y-95431380D01*
X131523998Y-95694300D01*
X132211042Y-95694300D01*
X132845787Y-95431380D01*
X133331600Y-94945567D01*
X133594520Y-94310822D01*
X133594520Y-93623778D01*
X134640520Y-93623778D01*
X134640520Y-94310822D01*
X134903440Y-94945567D01*
X135389253Y-95431380D01*
X136023998Y-95694300D01*
X136711042Y-95694300D01*
X137345787Y-95431380D01*
X137831600Y-94945567D01*
X138068545Y-94373530D01*
X138257512Y-94829736D01*
X138687064Y-95259288D01*
X139248301Y-95491760D01*
X139855779Y-95491760D01*
X140417016Y-95259288D01*
X140802040Y-94874264D01*
X141187064Y-95259288D01*
X141748301Y-95491760D01*
X142355779Y-95491760D01*
X142917016Y-95259288D01*
X143346568Y-94829736D01*
X143579040Y-94268499D01*
X143579040Y-93661021D01*
X143346568Y-93099784D01*
X142917016Y-92670232D01*
X142355779Y-92437760D01*
X141748301Y-92437760D01*
X141187064Y-92670232D01*
X140802040Y-93055256D01*
X140417016Y-92670232D01*
X139855779Y-92437760D01*
X139248301Y-92437760D01*
X138687064Y-92670232D01*
X138257512Y-93099784D01*
X138067493Y-93558530D01*
X137831600Y-92989033D01*
X137345787Y-92503220D01*
X136831176Y-92290061D01*
X151320040Y-92290061D01*
X151320040Y-92897539D01*
X151552512Y-93458776D01*
X151982064Y-93888328D01*
X152543301Y-94120800D01*
X153150779Y-94120800D01*
X153712016Y-93888328D01*
X154141568Y-93458776D01*
X154374040Y-92897539D01*
X154374040Y-92290061D01*
X154688080Y-92290061D01*
X154688080Y-92897539D01*
X154920552Y-93458776D01*
X155350104Y-93888328D01*
X155911341Y-94120800D01*
X156518819Y-94120800D01*
X157080056Y-93888328D01*
X157509608Y-93458776D01*
X157742080Y-92897539D01*
X157742080Y-92290061D01*
X157509608Y-91728824D01*
X157080056Y-91299272D01*
X156994354Y-91263773D01*
X157043219Y-91101545D01*
X156215080Y-90273405D01*
X155386941Y-91101545D01*
X155435806Y-91263773D01*
X155350104Y-91299272D01*
X154920552Y-91728824D01*
X154688080Y-92290061D01*
X154374040Y-92290061D01*
X154141568Y-91728824D01*
X153712016Y-91299272D01*
X153626314Y-91263773D01*
X153675179Y-91101545D01*
X152847040Y-90273405D01*
X152018901Y-91101545D01*
X152067766Y-91263773D01*
X151982064Y-91299272D01*
X151552512Y-91728824D01*
X151320040Y-92290061D01*
X136831176Y-92290061D01*
X136711042Y-92240300D01*
X136023998Y-92240300D01*
X135389253Y-92503220D01*
X134903440Y-92989033D01*
X134640520Y-93623778D01*
X133594520Y-93623778D01*
X133331600Y-92989033D01*
X132845787Y-92503220D01*
X132211042Y-92240300D01*
X131523998Y-92240300D01*
X130889253Y-92503220D01*
X130403440Y-92989033D01*
X130140520Y-93623778D01*
X129802000Y-93623778D01*
X129802000Y-90647520D01*
X138005925Y-90647520D01*
X138124438Y-91243326D01*
X138461935Y-91748425D01*
X138967034Y-92085922D01*
X139412447Y-92174520D01*
X139713233Y-92174520D01*
X140158646Y-92085922D01*
X140663745Y-91748425D01*
X140725992Y-91655265D01*
X148894701Y-91655265D01*
X148968835Y-91901384D01*
X149506063Y-92094485D01*
X150076294Y-92067298D01*
X150476845Y-91901384D01*
X150550979Y-91655265D01*
X149722840Y-90827125D01*
X148894701Y-91655265D01*
X140725992Y-91655265D01*
X141001242Y-91243326D01*
X141119755Y-90647520D01*
X141076636Y-90430743D01*
X148275875Y-90430743D01*
X148303062Y-91000974D01*
X148468976Y-91401525D01*
X148715095Y-91475659D01*
X149543235Y-90647520D01*
X149902445Y-90647520D01*
X150730585Y-91475659D01*
X150976704Y-91401525D01*
X151169805Y-90864297D01*
X151142618Y-90294066D01*
X150976704Y-89893515D01*
X150921952Y-89877023D01*
X151400075Y-89877023D01*
X151427262Y-90447254D01*
X151593176Y-90847805D01*
X151839295Y-90921939D01*
X152667435Y-90093800D01*
X153026645Y-90093800D01*
X153854785Y-90921939D01*
X154100904Y-90847805D01*
X154294005Y-90310577D01*
X154273335Y-89877023D01*
X154768115Y-89877023D01*
X154795302Y-90447254D01*
X154961216Y-90847805D01*
X155207335Y-90921939D01*
X156035475Y-90093800D01*
X156394685Y-90093800D01*
X157222825Y-90921939D01*
X157468944Y-90847805D01*
X157496680Y-90770640D01*
X157496680Y-91103659D01*
X157729152Y-91664896D01*
X158158704Y-92094448D01*
X158719941Y-92326920D01*
X159327419Y-92326920D01*
X159888656Y-92094448D01*
X160273680Y-91709424D01*
X160658704Y-92094448D01*
X161219941Y-92326920D01*
X161827419Y-92326920D01*
X162388656Y-92094448D01*
X162801300Y-91681804D01*
X163188544Y-92069048D01*
X163749781Y-92301520D01*
X164357259Y-92301520D01*
X164918496Y-92069048D01*
X165303520Y-91684024D01*
X165688544Y-92069048D01*
X166249781Y-92301520D01*
X166857259Y-92301520D01*
X167418496Y-92069048D01*
X167848048Y-91639496D01*
X168080520Y-91078259D01*
X168080520Y-90470781D01*
X167848048Y-89909544D01*
X167418496Y-89479992D01*
X166968748Y-89293700D01*
X182021585Y-89293700D01*
X182140098Y-89889506D01*
X182477595Y-90394605D01*
X182982694Y-90732102D01*
X183428107Y-90820700D01*
X183728893Y-90820700D01*
X184174306Y-90732102D01*
X184679405Y-90394605D01*
X184848500Y-90141537D01*
X185017595Y-90394605D01*
X185522694Y-90732102D01*
X185968107Y-90820700D01*
X186268893Y-90820700D01*
X186714306Y-90732102D01*
X187219405Y-90394605D01*
X187388500Y-90141537D01*
X187557595Y-90394605D01*
X188062694Y-90732102D01*
X188508107Y-90820700D01*
X188808893Y-90820700D01*
X189254306Y-90732102D01*
X189759405Y-90394605D01*
X189995325Y-90041527D01*
X190046111Y-90148834D01*
X190461077Y-90524741D01*
X190849461Y-90685604D01*
X191071500Y-90563615D01*
X191071500Y-89420700D01*
X191051500Y-89420700D01*
X191051500Y-89166700D01*
X191071500Y-89166700D01*
X191071500Y-88023785D01*
X191325500Y-88023785D01*
X191325500Y-89166700D01*
X191345500Y-89166700D01*
X191345500Y-89420700D01*
X191325500Y-89420700D01*
X191325500Y-90563615D01*
X191547539Y-90685604D01*
X191935923Y-90524741D01*
X192350889Y-90148834D01*
X192401675Y-90041527D01*
X192637595Y-90394605D01*
X193142694Y-90732102D01*
X193588107Y-90820700D01*
X193888893Y-90820700D01*
X194334306Y-90732102D01*
X194839405Y-90394605D01*
X195008500Y-90141537D01*
X195177595Y-90394605D01*
X195682694Y-90732102D01*
X196128107Y-90820700D01*
X196428893Y-90820700D01*
X196874306Y-90732102D01*
X197355760Y-90410404D01*
X197494363Y-90617837D01*
X197734839Y-90778518D01*
X198018500Y-90834942D01*
X199618500Y-90834942D01*
X199902161Y-90778518D01*
X200142637Y-90617837D01*
X200303318Y-90377361D01*
X200359742Y-90093700D01*
X200359742Y-89178746D01*
X206561180Y-89178746D01*
X206561180Y-89627094D01*
X206732756Y-90041314D01*
X207049786Y-90358344D01*
X207464006Y-90529920D01*
X207912354Y-90529920D01*
X208326574Y-90358344D01*
X208414558Y-90270360D01*
X208967018Y-90270360D01*
X208967018Y-90468360D01*
X208996855Y-90618360D01*
X208967018Y-90768360D01*
X208967018Y-91268360D01*
X208996855Y-91418360D01*
X208967018Y-91568360D01*
X208967018Y-92068360D01*
X209023442Y-92352021D01*
X209184123Y-92592497D01*
X209409905Y-92743360D01*
X209232010Y-92743360D01*
X209073260Y-92902110D01*
X209073260Y-92994669D01*
X209169933Y-93228058D01*
X209348561Y-93406687D01*
X209581950Y-93503360D01*
X210422510Y-93503360D01*
X210581260Y-93344610D01*
X210581260Y-92809602D01*
X210835260Y-92809602D01*
X210835260Y-93344610D01*
X210994010Y-93503360D01*
X211834570Y-93503360D01*
X212067959Y-93406687D01*
X212181260Y-93293385D01*
X212181260Y-93462425D01*
X212368060Y-93913399D01*
X212713221Y-94258560D01*
X213164195Y-94445360D01*
X213652325Y-94445360D01*
X214103299Y-94258560D01*
X214448460Y-93913399D01*
X214635260Y-93462425D01*
X214635260Y-92974295D01*
X214448460Y-92523321D01*
X214103299Y-92178160D01*
X213652325Y-91991360D01*
X213164195Y-91991360D01*
X212713221Y-92178160D01*
X212368060Y-92523321D01*
X212343260Y-92583193D01*
X212343260Y-92491358D01*
X212299976Y-92491358D01*
X212393078Y-92352021D01*
X212449502Y-92068360D01*
X212449502Y-91568360D01*
X212419665Y-91418360D01*
X212449502Y-91268360D01*
X212449502Y-90768360D01*
X212419665Y-90618360D01*
X212449502Y-90468360D01*
X212449502Y-89968360D01*
X212419665Y-89818360D01*
X212449502Y-89668360D01*
X212449502Y-89594841D01*
X212713221Y-89858560D01*
X213164195Y-90045360D01*
X213652325Y-90045360D01*
X214103299Y-89858560D01*
X214448460Y-89513399D01*
X214635260Y-89062425D01*
X214635260Y-88574295D01*
X214448460Y-88123321D01*
X214103299Y-87778160D01*
X213652325Y-87591360D01*
X213164195Y-87591360D01*
X212713221Y-87778160D01*
X212368060Y-88123321D01*
X212181260Y-88574295D01*
X212181260Y-88610054D01*
X211991921Y-88483542D01*
X211708260Y-88427118D01*
X211660260Y-88427118D01*
X211660260Y-88309204D01*
X211941921Y-88253178D01*
X212182397Y-88092497D01*
X212343078Y-87852021D01*
X212399502Y-87568360D01*
X212399502Y-87420360D01*
X214667018Y-87420360D01*
X214667018Y-87568360D01*
X214723442Y-87852021D01*
X214884123Y-88092497D01*
X215124599Y-88253178D01*
X215406261Y-88309204D01*
X215406260Y-93727516D01*
X215124599Y-93783542D01*
X214884123Y-93944223D01*
X214723442Y-94184699D01*
X214667018Y-94468360D01*
X214667018Y-94616360D01*
X212399502Y-94616360D01*
X212399502Y-94468360D01*
X212343078Y-94184699D01*
X212182397Y-93944223D01*
X211941921Y-93783542D01*
X211658260Y-93727118D01*
X209958260Y-93727118D01*
X209674599Y-93783542D01*
X209434123Y-93944223D01*
X209273442Y-94184699D01*
X209217018Y-94468360D01*
X209217018Y-96468360D01*
X209273442Y-96752021D01*
X209434123Y-96992497D01*
X209674599Y-97153178D01*
X209958260Y-97209602D01*
X211658260Y-97209602D01*
X211941921Y-97153178D01*
X212182397Y-96992497D01*
X212343078Y-96752021D01*
X212399502Y-96468360D01*
X212399502Y-96320360D01*
X214667018Y-96320360D01*
X214667018Y-96468360D01*
X214723442Y-96752021D01*
X214884123Y-96992497D01*
X215112910Y-97145368D01*
X214435306Y-97426040D01*
X213808840Y-98052506D01*
X213469800Y-98871022D01*
X213469800Y-99756978D01*
X213808840Y-100575494D01*
X214435306Y-101201960D01*
X215253822Y-101541000D01*
X216139778Y-101541000D01*
X216958294Y-101201960D01*
X217584760Y-100575494D01*
X217923800Y-99756978D01*
X217923800Y-98871022D01*
X217584760Y-98052506D01*
X216958294Y-97426040D01*
X216435766Y-97209602D01*
X217108260Y-97209602D01*
X217391921Y-97153178D01*
X217632397Y-96992497D01*
X217793078Y-96752021D01*
X217849502Y-96468360D01*
X217849502Y-94468360D01*
X217793078Y-94184699D01*
X217632397Y-93944223D01*
X217391921Y-93783542D01*
X217110260Y-93727516D01*
X217110260Y-88309204D01*
X217391921Y-88253178D01*
X217632397Y-88092497D01*
X217793078Y-87852021D01*
X217849502Y-87568360D01*
X217849502Y-85568360D01*
X217793078Y-85284699D01*
X217632397Y-85044223D01*
X217391921Y-84883542D01*
X217108260Y-84827118D01*
X215408260Y-84827118D01*
X215124599Y-84883542D01*
X214884123Y-85044223D01*
X214723442Y-85284699D01*
X214667018Y-85568360D01*
X214667018Y-85716360D01*
X212399502Y-85716360D01*
X212399502Y-85568360D01*
X212343078Y-85284699D01*
X212182397Y-85044223D01*
X211941921Y-84883542D01*
X211658260Y-84827118D01*
X209958260Y-84827118D01*
X209674599Y-84883542D01*
X209434123Y-85044223D01*
X209273442Y-85284699D01*
X209217018Y-85568360D01*
X209217018Y-87568360D01*
X209273442Y-87852021D01*
X209434123Y-88092497D01*
X209674599Y-88253178D01*
X209956261Y-88309204D01*
X209956261Y-88427118D01*
X209708260Y-88427118D01*
X209424599Y-88483542D01*
X209300653Y-88566360D01*
X208445438Y-88566360D01*
X208326574Y-88447496D01*
X207912354Y-88275920D01*
X207464006Y-88275920D01*
X207049786Y-88447496D01*
X206732756Y-88764526D01*
X206561180Y-89178746D01*
X200359742Y-89178746D01*
X200359742Y-88493700D01*
X200303318Y-88210039D01*
X200142637Y-87969563D01*
X199902161Y-87808882D01*
X199618500Y-87752458D01*
X198018500Y-87752458D01*
X197734839Y-87808882D01*
X197494363Y-87969563D01*
X197355760Y-88176996D01*
X196874306Y-87855298D01*
X196428893Y-87766700D01*
X196128107Y-87766700D01*
X195682694Y-87855298D01*
X195177595Y-88192795D01*
X195008500Y-88445863D01*
X194839405Y-88192795D01*
X194334306Y-87855298D01*
X194116694Y-87812012D01*
X194588876Y-87616428D01*
X195018428Y-87186876D01*
X195250900Y-86625639D01*
X195250900Y-86018161D01*
X195018428Y-85456924D01*
X194588876Y-85027372D01*
X194027639Y-84794900D01*
X193420161Y-84794900D01*
X192858924Y-85027372D01*
X192429372Y-85456924D01*
X192393873Y-85542626D01*
X192231645Y-85493761D01*
X191403505Y-86321900D01*
X192231645Y-87150039D01*
X192393873Y-87101174D01*
X192429372Y-87186876D01*
X192858924Y-87616428D01*
X193340579Y-87815936D01*
X193142694Y-87855298D01*
X192637595Y-88192795D01*
X192401675Y-88545873D01*
X192350889Y-88438566D01*
X191935923Y-88062659D01*
X191547539Y-87901796D01*
X191325500Y-88023785D01*
X191071500Y-88023785D01*
X190849461Y-87901796D01*
X190461077Y-88062659D01*
X190046111Y-88438566D01*
X189995325Y-88545873D01*
X189759405Y-88192795D01*
X189254306Y-87855298D01*
X188808893Y-87766700D01*
X188508107Y-87766700D01*
X188062694Y-87855298D01*
X187557595Y-88192795D01*
X187388500Y-88445863D01*
X187219405Y-88192795D01*
X186714306Y-87855298D01*
X186547186Y-87822056D01*
X187074276Y-87603728D01*
X187361059Y-87316945D01*
X187881161Y-87316945D01*
X187955295Y-87563064D01*
X188492523Y-87756165D01*
X189062754Y-87728978D01*
X189463305Y-87563064D01*
X189533613Y-87329645D01*
X190395761Y-87329645D01*
X190469895Y-87575764D01*
X191007123Y-87768865D01*
X191577354Y-87741678D01*
X191977905Y-87575764D01*
X192052039Y-87329645D01*
X191223900Y-86501505D01*
X190395761Y-87329645D01*
X189533613Y-87329645D01*
X189537439Y-87316945D01*
X188709300Y-86488805D01*
X187881161Y-87316945D01*
X187361059Y-87316945D01*
X187503828Y-87174176D01*
X187539327Y-87088474D01*
X187701555Y-87137339D01*
X188529695Y-86309200D01*
X188888905Y-86309200D01*
X189717045Y-87137339D01*
X189963164Y-87063205D01*
X189963913Y-87061122D01*
X189970036Y-87075905D01*
X190216155Y-87150039D01*
X191044295Y-86321900D01*
X190216155Y-85493761D01*
X189970036Y-85567895D01*
X189969287Y-85569978D01*
X189963164Y-85555195D01*
X189717045Y-85481061D01*
X188888905Y-86309200D01*
X188529695Y-86309200D01*
X187701555Y-85481061D01*
X187539327Y-85529926D01*
X187503828Y-85444224D01*
X187361059Y-85301455D01*
X187881161Y-85301455D01*
X188709300Y-86129595D01*
X189524739Y-85314155D01*
X190395761Y-85314155D01*
X191223900Y-86142295D01*
X192052039Y-85314155D01*
X191977905Y-85068036D01*
X191440677Y-84874935D01*
X190870446Y-84902122D01*
X190469895Y-85068036D01*
X190395761Y-85314155D01*
X189524739Y-85314155D01*
X189537439Y-85301455D01*
X189463305Y-85055336D01*
X188926077Y-84862235D01*
X188355846Y-84889422D01*
X187955295Y-85055336D01*
X187881161Y-85301455D01*
X187361059Y-85301455D01*
X187074276Y-85014672D01*
X186513039Y-84782200D01*
X185905561Y-84782200D01*
X185344324Y-85014672D01*
X184914772Y-85444224D01*
X184682300Y-86005461D01*
X184682300Y-86612939D01*
X184914772Y-87174176D01*
X185344324Y-87603728D01*
X185812499Y-87797652D01*
X185522694Y-87855298D01*
X185017595Y-88192795D01*
X184848500Y-88445863D01*
X184679405Y-88192795D01*
X184174306Y-87855298D01*
X183728893Y-87766700D01*
X183428107Y-87766700D01*
X182982694Y-87855298D01*
X182477595Y-88192795D01*
X182140098Y-88697894D01*
X182021585Y-89293700D01*
X166968748Y-89293700D01*
X166857259Y-89247520D01*
X166249781Y-89247520D01*
X165688544Y-89479992D01*
X165303520Y-89865016D01*
X164918496Y-89479992D01*
X164357259Y-89247520D01*
X163749781Y-89247520D01*
X163188544Y-89479992D01*
X162775900Y-89892636D01*
X162388656Y-89505392D01*
X161827419Y-89272920D01*
X161219941Y-89272920D01*
X160658704Y-89505392D01*
X160273680Y-89890416D01*
X159888656Y-89505392D01*
X159327419Y-89272920D01*
X158719941Y-89272920D01*
X158158704Y-89505392D01*
X157729152Y-89934944D01*
X157652911Y-90119005D01*
X157634858Y-89740346D01*
X157468944Y-89339795D01*
X157222825Y-89265661D01*
X156394685Y-90093800D01*
X156035475Y-90093800D01*
X155207335Y-89265661D01*
X154961216Y-89339795D01*
X154768115Y-89877023D01*
X154273335Y-89877023D01*
X154266818Y-89740346D01*
X154100904Y-89339795D01*
X153854785Y-89265661D01*
X153026645Y-90093800D01*
X152667435Y-90093800D01*
X151839295Y-89265661D01*
X151593176Y-89339795D01*
X151400075Y-89877023D01*
X150921952Y-89877023D01*
X150730585Y-89819381D01*
X149902445Y-90647520D01*
X149543235Y-90647520D01*
X148715095Y-89819381D01*
X148468976Y-89893515D01*
X148275875Y-90430743D01*
X141076636Y-90430743D01*
X141001242Y-90051714D01*
X140725993Y-89639775D01*
X148894701Y-89639775D01*
X149722840Y-90467915D01*
X150550979Y-89639775D01*
X150476845Y-89393656D01*
X149939617Y-89200555D01*
X149369386Y-89227742D01*
X148968835Y-89393656D01*
X148894701Y-89639775D01*
X140725993Y-89639775D01*
X140663745Y-89546615D01*
X140158646Y-89209118D01*
X139713233Y-89120520D01*
X139412447Y-89120520D01*
X138967034Y-89209118D01*
X138461935Y-89546615D01*
X138124438Y-90051714D01*
X138005925Y-90647520D01*
X129802000Y-90647520D01*
X129802000Y-83492340D01*
X131165525Y-83492340D01*
X131287919Y-84107655D01*
X131636467Y-84629293D01*
X131835586Y-84762340D01*
X131636467Y-84895387D01*
X131287919Y-85417025D01*
X131165525Y-86032340D01*
X131287919Y-86647655D01*
X131636467Y-87169293D01*
X132158105Y-87517841D01*
X132618101Y-87609340D01*
X132928739Y-87609340D01*
X133388735Y-87517841D01*
X133910373Y-87169293D01*
X134043420Y-86970174D01*
X134176467Y-87169293D01*
X134698105Y-87517841D01*
X135158101Y-87609340D01*
X135468739Y-87609340D01*
X135928735Y-87517841D01*
X136450373Y-87169293D01*
X136770426Y-86690300D01*
X139657358Y-86690300D01*
X139657358Y-88290300D01*
X139713782Y-88573961D01*
X139874463Y-88814437D01*
X140114939Y-88975118D01*
X140398600Y-89031542D01*
X141998600Y-89031542D01*
X142282261Y-88975118D01*
X142522737Y-88814437D01*
X142661340Y-88607004D01*
X143142794Y-88928702D01*
X143588207Y-89017300D01*
X143888993Y-89017300D01*
X144334406Y-88928702D01*
X144839505Y-88591205D01*
X145008600Y-88338137D01*
X145177695Y-88591205D01*
X145682794Y-88928702D01*
X146128207Y-89017300D01*
X146428993Y-89017300D01*
X146874406Y-88928702D01*
X147379505Y-88591205D01*
X147548600Y-88338137D01*
X147717695Y-88591205D01*
X148222794Y-88928702D01*
X148668207Y-89017300D01*
X148968993Y-89017300D01*
X149414406Y-88928702D01*
X149919505Y-88591205D01*
X150088600Y-88338137D01*
X150257695Y-88591205D01*
X150762794Y-88928702D01*
X151208207Y-89017300D01*
X151508993Y-89017300D01*
X151954406Y-88928702D01*
X152459505Y-88591205D01*
X152628600Y-88338137D01*
X152797695Y-88591205D01*
X152893130Y-88654973D01*
X152493586Y-88674022D01*
X152093035Y-88839936D01*
X152018901Y-89086055D01*
X152847040Y-89914195D01*
X153675179Y-89086055D01*
X153648495Y-88997466D01*
X153748207Y-89017300D01*
X154048993Y-89017300D01*
X154494406Y-88928702D01*
X154999505Y-88591205D01*
X155235425Y-88238127D01*
X155286211Y-88345434D01*
X155701177Y-88721341D01*
X155724283Y-88730911D01*
X155461075Y-88839936D01*
X155386941Y-89086055D01*
X156215080Y-89914195D01*
X157043219Y-89086055D01*
X156969085Y-88839936D01*
X156926578Y-88824657D01*
X157176023Y-88721341D01*
X157590989Y-88345434D01*
X157641775Y-88238127D01*
X157877695Y-88591205D01*
X158382794Y-88928702D01*
X158828207Y-89017300D01*
X159128993Y-89017300D01*
X159574406Y-88928702D01*
X160079505Y-88591205D01*
X160248600Y-88338137D01*
X160417695Y-88591205D01*
X160922794Y-88928702D01*
X161368207Y-89017300D01*
X161668993Y-89017300D01*
X162114406Y-88928702D01*
X162619505Y-88591205D01*
X162788600Y-88338137D01*
X162957695Y-88591205D01*
X163462794Y-88928702D01*
X163908207Y-89017300D01*
X164208993Y-89017300D01*
X164654406Y-88928702D01*
X165159505Y-88591205D01*
X165328600Y-88338137D01*
X165497695Y-88591205D01*
X166002794Y-88928702D01*
X166448207Y-89017300D01*
X166748993Y-89017300D01*
X167194406Y-88928702D01*
X167699505Y-88591205D01*
X167868600Y-88338137D01*
X168037695Y-88591205D01*
X168542794Y-88928702D01*
X168988207Y-89017300D01*
X169288993Y-89017300D01*
X169734406Y-88928702D01*
X170239505Y-88591205D01*
X170408600Y-88338137D01*
X170577695Y-88591205D01*
X171082794Y-88928702D01*
X171528207Y-89017300D01*
X171828993Y-89017300D01*
X172274406Y-88928702D01*
X172779505Y-88591205D01*
X172948600Y-88338137D01*
X173117695Y-88591205D01*
X173622794Y-88928702D01*
X174068207Y-89017300D01*
X174368993Y-89017300D01*
X174814406Y-88928702D01*
X175319505Y-88591205D01*
X175657002Y-88086106D01*
X175775515Y-87490300D01*
X175657002Y-86894494D01*
X175319505Y-86389395D01*
X174814406Y-86051898D01*
X174368993Y-85963300D01*
X174068207Y-85963300D01*
X173622794Y-86051898D01*
X173117695Y-86389395D01*
X172948600Y-86642463D01*
X172779505Y-86389395D01*
X172274406Y-86051898D01*
X171828993Y-85963300D01*
X171528207Y-85963300D01*
X171082794Y-86051898D01*
X170577695Y-86389395D01*
X170408600Y-86642463D01*
X170239505Y-86389395D01*
X169734406Y-86051898D01*
X169288993Y-85963300D01*
X168988207Y-85963300D01*
X168542794Y-86051898D01*
X168037695Y-86389395D01*
X167868600Y-86642463D01*
X167699505Y-86389395D01*
X167194406Y-86051898D01*
X166748993Y-85963300D01*
X166448207Y-85963300D01*
X166002794Y-86051898D01*
X165497695Y-86389395D01*
X165328600Y-86642463D01*
X165159505Y-86389395D01*
X164654406Y-86051898D01*
X164208993Y-85963300D01*
X163908207Y-85963300D01*
X163462794Y-86051898D01*
X162957695Y-86389395D01*
X162788600Y-86642463D01*
X162619505Y-86389395D01*
X162114406Y-86051898D01*
X161668993Y-85963300D01*
X161368207Y-85963300D01*
X160922794Y-86051898D01*
X160417695Y-86389395D01*
X160248600Y-86642463D01*
X160079505Y-86389395D01*
X159574406Y-86051898D01*
X159128993Y-85963300D01*
X158828207Y-85963300D01*
X158382794Y-86051898D01*
X157877695Y-86389395D01*
X157641775Y-86742473D01*
X157590989Y-86635166D01*
X157176023Y-86259259D01*
X156787639Y-86098396D01*
X156565600Y-86220385D01*
X156565600Y-87363300D01*
X156585600Y-87363300D01*
X156585600Y-87617300D01*
X156565600Y-87617300D01*
X156565600Y-87637300D01*
X156311600Y-87637300D01*
X156311600Y-87617300D01*
X156291600Y-87617300D01*
X156291600Y-87363300D01*
X156311600Y-87363300D01*
X156311600Y-86220385D01*
X156089561Y-86098396D01*
X155701177Y-86259259D01*
X155286211Y-86635166D01*
X155235425Y-86742473D01*
X154999505Y-86389395D01*
X154494406Y-86051898D01*
X154048993Y-85963300D01*
X153748207Y-85963300D01*
X153302794Y-86051898D01*
X152797695Y-86389395D01*
X152628600Y-86642463D01*
X152459505Y-86389395D01*
X151954406Y-86051898D01*
X151508993Y-85963300D01*
X151208207Y-85963300D01*
X150762794Y-86051898D01*
X150257695Y-86389395D01*
X150088600Y-86642463D01*
X149919505Y-86389395D01*
X149414406Y-86051898D01*
X148968993Y-85963300D01*
X148668207Y-85963300D01*
X148222794Y-86051898D01*
X147717695Y-86389395D01*
X147548600Y-86642463D01*
X147379505Y-86389395D01*
X146874406Y-86051898D01*
X146428993Y-85963300D01*
X146128207Y-85963300D01*
X145682794Y-86051898D01*
X145177695Y-86389395D01*
X145008600Y-86642463D01*
X144839505Y-86389395D01*
X144334406Y-86051898D01*
X143888993Y-85963300D01*
X143588207Y-85963300D01*
X143142794Y-86051898D01*
X142661340Y-86373596D01*
X142522737Y-86166163D01*
X142282261Y-86005482D01*
X141998600Y-85949058D01*
X140398600Y-85949058D01*
X140114939Y-86005482D01*
X139874463Y-86166163D01*
X139713782Y-86406639D01*
X139657358Y-86690300D01*
X136770426Y-86690300D01*
X136798921Y-86647655D01*
X136921315Y-86032340D01*
X136827559Y-85561000D01*
X158442522Y-85561000D01*
X158545946Y-85664424D01*
X158960166Y-85836000D01*
X159408514Y-85836000D01*
X159822734Y-85664424D01*
X160139764Y-85347394D01*
X160311340Y-84933174D01*
X160311340Y-84484826D01*
X160253149Y-84344340D01*
X165432652Y-84344340D01*
X165516560Y-84361030D01*
X165600468Y-84344340D01*
X165600472Y-84344340D01*
X165848994Y-84294906D01*
X166130817Y-84106597D01*
X166178350Y-84035459D01*
X168844995Y-81368814D01*
X168988207Y-81397300D01*
X169288993Y-81397300D01*
X169734406Y-81308702D01*
X170239505Y-80971205D01*
X170408600Y-80718137D01*
X170577695Y-80971205D01*
X171082794Y-81308702D01*
X171528207Y-81397300D01*
X171828993Y-81397300D01*
X172274406Y-81308702D01*
X172779505Y-80971205D01*
X172948600Y-80718137D01*
X173117695Y-80971205D01*
X173622794Y-81308702D01*
X174068207Y-81397300D01*
X174368993Y-81397300D01*
X174814406Y-81308702D01*
X175319505Y-80971205D01*
X175657002Y-80466106D01*
X175775515Y-79870300D01*
X175658519Y-79282120D01*
X176695251Y-79282120D01*
X179880095Y-82466965D01*
X179874720Y-82479941D01*
X179874720Y-83087419D01*
X180107192Y-83648656D01*
X180536744Y-84078208D01*
X181097981Y-84310680D01*
X181705459Y-84310680D01*
X182266696Y-84078208D01*
X182696248Y-83648656D01*
X182928720Y-83087419D01*
X182928720Y-82776060D01*
X183733545Y-82776060D01*
X183852058Y-83371866D01*
X184189555Y-83876965D01*
X184694654Y-84214462D01*
X185140067Y-84303060D01*
X185440853Y-84303060D01*
X185886266Y-84214462D01*
X186391365Y-83876965D01*
X186728862Y-83371866D01*
X186847375Y-82776060D01*
X186791000Y-82492641D01*
X189305740Y-82492641D01*
X189305740Y-83100119D01*
X189538212Y-83661356D01*
X189967764Y-84090908D01*
X190529001Y-84323380D01*
X191136479Y-84323380D01*
X191697716Y-84090908D01*
X192127268Y-83661356D01*
X192359740Y-83100119D01*
X192359740Y-82796380D01*
X194724125Y-82796380D01*
X194842638Y-83392186D01*
X195180135Y-83897285D01*
X195685234Y-84234782D01*
X196130647Y-84323380D01*
X196431433Y-84323380D01*
X196876846Y-84234782D01*
X197381945Y-83897285D01*
X197719442Y-83392186D01*
X197837955Y-82796380D01*
X197807641Y-82643980D01*
X199994625Y-82643980D01*
X200113138Y-83239786D01*
X200450635Y-83744885D01*
X200955734Y-84082382D01*
X201401147Y-84170980D01*
X201701933Y-84170980D01*
X202147346Y-84082382D01*
X202652445Y-83744885D01*
X202765607Y-83575525D01*
X206171701Y-83575525D01*
X206245835Y-83821644D01*
X206783063Y-84014745D01*
X207353294Y-83987558D01*
X207753845Y-83821644D01*
X207827979Y-83575525D01*
X206999840Y-82747385D01*
X206171701Y-83575525D01*
X202765607Y-83575525D01*
X202989942Y-83239786D01*
X203108455Y-82643980D01*
X203050179Y-82351003D01*
X205552875Y-82351003D01*
X205580062Y-82921234D01*
X205745976Y-83321785D01*
X205992095Y-83395919D01*
X206820235Y-82567780D01*
X207179445Y-82567780D01*
X208007585Y-83395919D01*
X208253704Y-83321785D01*
X208446805Y-82784557D01*
X208423805Y-82302141D01*
X211073540Y-82302141D01*
X211073540Y-82909619D01*
X211306012Y-83470856D01*
X211735564Y-83900408D01*
X212296801Y-84132880D01*
X212904279Y-84132880D01*
X213465516Y-83900408D01*
X213895068Y-83470856D01*
X214127540Y-82909619D01*
X214127540Y-82302141D01*
X213895068Y-81740904D01*
X213465516Y-81311352D01*
X212904279Y-81078880D01*
X212296801Y-81078880D01*
X211735564Y-81311352D01*
X211306012Y-81740904D01*
X211073540Y-82302141D01*
X208423805Y-82302141D01*
X208419618Y-82214326D01*
X208253704Y-81813775D01*
X208007585Y-81739641D01*
X207179445Y-82567780D01*
X206820235Y-82567780D01*
X205992095Y-81739641D01*
X205745976Y-81813775D01*
X205552875Y-82351003D01*
X203050179Y-82351003D01*
X202989942Y-82048174D01*
X202663778Y-81560035D01*
X206171701Y-81560035D01*
X206999840Y-82388175D01*
X207827979Y-81560035D01*
X207753845Y-81313916D01*
X207216617Y-81120815D01*
X206646386Y-81148002D01*
X206245835Y-81313916D01*
X206171701Y-81560035D01*
X202663778Y-81560035D01*
X202652445Y-81543075D01*
X202147346Y-81205578D01*
X201701933Y-81116980D01*
X201401147Y-81116980D01*
X200955734Y-81205578D01*
X200450635Y-81543075D01*
X200113138Y-82048174D01*
X199994625Y-82643980D01*
X197807641Y-82643980D01*
X197719442Y-82200574D01*
X197381945Y-81695475D01*
X196876846Y-81357978D01*
X196431433Y-81269380D01*
X196130647Y-81269380D01*
X195685234Y-81357978D01*
X195180135Y-81695475D01*
X194842638Y-82200574D01*
X194724125Y-82796380D01*
X192359740Y-82796380D01*
X192359740Y-82492641D01*
X192127268Y-81931404D01*
X191697716Y-81501852D01*
X191136479Y-81269380D01*
X190529001Y-81269380D01*
X189967764Y-81501852D01*
X189538212Y-81931404D01*
X189305740Y-82492641D01*
X186791000Y-82492641D01*
X186728862Y-82180254D01*
X186391365Y-81675155D01*
X185886266Y-81337658D01*
X185440853Y-81249060D01*
X185140067Y-81249060D01*
X184694654Y-81337658D01*
X184189555Y-81675155D01*
X183852058Y-82180254D01*
X183733545Y-82776060D01*
X182928720Y-82776060D01*
X182928720Y-82479941D01*
X182696248Y-81918704D01*
X182311224Y-81533680D01*
X182696248Y-81148656D01*
X182928720Y-80587419D01*
X182928720Y-79979941D01*
X182696248Y-79418704D01*
X182266696Y-78989152D01*
X181705459Y-78756680D01*
X181097981Y-78756680D01*
X180536744Y-78989152D01*
X180107192Y-79418704D01*
X179874720Y-79979941D01*
X179874720Y-80051770D01*
X178009550Y-78186600D01*
X215947678Y-78186600D01*
X215947678Y-79710600D01*
X216004102Y-79994261D01*
X216164783Y-80234737D01*
X216405259Y-80395418D01*
X216688920Y-80451842D01*
X218212920Y-80451842D01*
X218496581Y-80395418D01*
X218737057Y-80234737D01*
X218897738Y-79994261D01*
X218954162Y-79710600D01*
X218954162Y-78186600D01*
X218897738Y-77902939D01*
X218737057Y-77662463D01*
X218500730Y-77504554D01*
X218713233Y-77292051D01*
X218939920Y-76744780D01*
X218939920Y-76152420D01*
X218713233Y-75605149D01*
X218294371Y-75186287D01*
X217747100Y-74959600D01*
X217154740Y-74959600D01*
X216607469Y-75186287D01*
X216188607Y-75605149D01*
X215961920Y-76152420D01*
X215961920Y-76744780D01*
X216188607Y-77292051D01*
X216401110Y-77504554D01*
X216164783Y-77662463D01*
X216004102Y-77902939D01*
X215947678Y-78186600D01*
X178009550Y-78186600D01*
X177709950Y-77887001D01*
X177662417Y-77815863D01*
X177380594Y-77627554D01*
X177132072Y-77578120D01*
X177132068Y-77578120D01*
X177048160Y-77561430D01*
X176964252Y-77578120D01*
X165170824Y-77578120D01*
X165318208Y-77430736D01*
X165550680Y-76869499D01*
X165550680Y-76262021D01*
X165318208Y-75700784D01*
X164888656Y-75271232D01*
X164327419Y-75038760D01*
X163719941Y-75038760D01*
X163158704Y-75271232D01*
X162773680Y-75656256D01*
X162388656Y-75271232D01*
X161827419Y-75038760D01*
X161219941Y-75038760D01*
X160658704Y-75271232D01*
X160229152Y-75700784D01*
X160146030Y-75901459D01*
X159850905Y-75459775D01*
X159345806Y-75122278D01*
X158900393Y-75033680D01*
X158599607Y-75033680D01*
X158154194Y-75122278D01*
X157649095Y-75459775D01*
X157311598Y-75964874D01*
X157193085Y-76560680D01*
X157311598Y-77156486D01*
X157593325Y-77578120D01*
X155422687Y-77578120D01*
X155338779Y-77561430D01*
X155254871Y-77578120D01*
X155254868Y-77578120D01*
X155006346Y-77627554D01*
X154724523Y-77815863D01*
X154676992Y-77886999D01*
X154192204Y-78371786D01*
X154048993Y-78343300D01*
X153748207Y-78343300D01*
X153302794Y-78431898D01*
X152797695Y-78769395D01*
X152628600Y-79022463D01*
X152459505Y-78769395D01*
X151954406Y-78431898D01*
X151508993Y-78343300D01*
X151208207Y-78343300D01*
X150762794Y-78431898D01*
X150257695Y-78769395D01*
X150088600Y-79022463D01*
X149919505Y-78769395D01*
X149414406Y-78431898D01*
X148968993Y-78343300D01*
X148668207Y-78343300D01*
X148222794Y-78431898D01*
X147717695Y-78769395D01*
X147548600Y-79022463D01*
X147379505Y-78769395D01*
X146874406Y-78431898D01*
X146428993Y-78343300D01*
X146128207Y-78343300D01*
X145682794Y-78431898D01*
X145177695Y-78769395D01*
X145008600Y-79022463D01*
X144839505Y-78769395D01*
X144334406Y-78431898D01*
X143888993Y-78343300D01*
X143588207Y-78343300D01*
X143142794Y-78431898D01*
X142637695Y-78769395D01*
X142468600Y-79022463D01*
X142299505Y-78769395D01*
X141794406Y-78431898D01*
X141348993Y-78343300D01*
X141048207Y-78343300D01*
X140602794Y-78431898D01*
X140097695Y-78769395D01*
X139760198Y-79274494D01*
X139641685Y-79870300D01*
X139760198Y-80466106D01*
X140097695Y-80971205D01*
X140602794Y-81308702D01*
X141002056Y-81388120D01*
X136722221Y-81388120D01*
X136754896Y-81309230D01*
X136633575Y-81079340D01*
X135440420Y-81079340D01*
X135440420Y-81099340D01*
X135186420Y-81099340D01*
X135186420Y-81079340D01*
X135166420Y-81079340D01*
X135166420Y-80825340D01*
X135186420Y-80825340D01*
X135186420Y-79631521D01*
X135440420Y-79631521D01*
X135440420Y-80825340D01*
X136633575Y-80825340D01*
X136754896Y-80595450D01*
X136585065Y-80185416D01*
X136194778Y-79757157D01*
X135670312Y-79510854D01*
X135440420Y-79631521D01*
X135186420Y-79631521D01*
X134956528Y-79510854D01*
X134432062Y-79757157D01*
X134320377Y-79879708D01*
X134308238Y-79818679D01*
X134147557Y-79578203D01*
X133907081Y-79417522D01*
X133623420Y-79361098D01*
X131923420Y-79361098D01*
X131639759Y-79417522D01*
X131399283Y-79578203D01*
X131238602Y-79818679D01*
X131182178Y-80102340D01*
X131182178Y-81802340D01*
X131238602Y-82086001D01*
X131399283Y-82326477D01*
X131576613Y-82444965D01*
X131287919Y-82877025D01*
X131165525Y-83492340D01*
X129802000Y-83492340D01*
X129802000Y-77568425D01*
X147761861Y-77568425D01*
X147835995Y-77814544D01*
X148373223Y-78007645D01*
X148943454Y-77980458D01*
X149344005Y-77814544D01*
X149418139Y-77568425D01*
X148590000Y-76740285D01*
X147761861Y-77568425D01*
X129802000Y-77568425D01*
X129802000Y-75188774D01*
X129995700Y-75188774D01*
X129995700Y-75786306D01*
X130224366Y-76338355D01*
X130646885Y-76760874D01*
X131198934Y-76989540D01*
X131796466Y-76989540D01*
X132348515Y-76760874D01*
X132771034Y-76338355D01*
X132999700Y-75786306D01*
X132999700Y-75773290D01*
X135087700Y-75773290D01*
X135087700Y-76388850D01*
X135184373Y-76622239D01*
X135363002Y-76800867D01*
X135596391Y-76897540D01*
X136211950Y-76897540D01*
X136370700Y-76738790D01*
X136370700Y-75614540D01*
X136624700Y-75614540D01*
X136624700Y-76738790D01*
X136783450Y-76897540D01*
X137399009Y-76897540D01*
X137632398Y-76800867D01*
X137811027Y-76622239D01*
X137907700Y-76388850D01*
X137907700Y-76343903D01*
X147143035Y-76343903D01*
X147170222Y-76914134D01*
X147336136Y-77314685D01*
X147582255Y-77388819D01*
X148410395Y-76560680D01*
X148769605Y-76560680D01*
X149597745Y-77388819D01*
X149843864Y-77314685D01*
X150036965Y-76777457D01*
X150009778Y-76207226D01*
X149843864Y-75806675D01*
X149597745Y-75732541D01*
X148769605Y-76560680D01*
X148410395Y-76560680D01*
X147582255Y-75732541D01*
X147336136Y-75806675D01*
X147143035Y-76343903D01*
X137907700Y-76343903D01*
X137907700Y-75773290D01*
X137748950Y-75614540D01*
X136624700Y-75614540D01*
X136370700Y-75614540D01*
X135246450Y-75614540D01*
X135087700Y-75773290D01*
X132999700Y-75773290D01*
X132999700Y-75552935D01*
X147761861Y-75552935D01*
X148590000Y-76381075D01*
X149418139Y-75552935D01*
X149344005Y-75306816D01*
X148806777Y-75113715D01*
X148236546Y-75140902D01*
X147835995Y-75306816D01*
X147761861Y-75552935D01*
X132999700Y-75552935D01*
X132999700Y-75188774D01*
X132771034Y-74636725D01*
X132720539Y-74586230D01*
X135087700Y-74586230D01*
X135087700Y-75201790D01*
X135246450Y-75360540D01*
X136370700Y-75360540D01*
X136370700Y-74236290D01*
X136624700Y-74236290D01*
X136624700Y-75360540D01*
X137748950Y-75360540D01*
X137907700Y-75201790D01*
X137907700Y-74586230D01*
X137811027Y-74352841D01*
X137632398Y-74174213D01*
X137399009Y-74077540D01*
X136783450Y-74077540D01*
X136624700Y-74236290D01*
X136370700Y-74236290D01*
X136211950Y-74077540D01*
X135596391Y-74077540D01*
X135363002Y-74174213D01*
X135184373Y-74352841D01*
X135087700Y-74586230D01*
X132720539Y-74586230D01*
X132348515Y-74214206D01*
X131922694Y-74037825D01*
X170774261Y-74037825D01*
X170848395Y-74283944D01*
X171385623Y-74477045D01*
X171955854Y-74449858D01*
X172356405Y-74283944D01*
X172430539Y-74037825D01*
X171602400Y-73209685D01*
X170774261Y-74037825D01*
X131922694Y-74037825D01*
X131796466Y-73985540D01*
X131198934Y-73985540D01*
X130646885Y-74214206D01*
X130224366Y-74636725D01*
X129995700Y-75188774D01*
X129802000Y-75188774D01*
X129802000Y-72813303D01*
X170155435Y-72813303D01*
X170182622Y-73383534D01*
X170348536Y-73784085D01*
X170594655Y-73858219D01*
X171422795Y-73030080D01*
X171782005Y-73030080D01*
X172610145Y-73858219D01*
X172856264Y-73784085D01*
X173049365Y-73246857D01*
X173039030Y-73030080D01*
X180205485Y-73030080D01*
X180323998Y-73625886D01*
X180661495Y-74130985D01*
X181166594Y-74468482D01*
X181612007Y-74557080D01*
X181912793Y-74557080D01*
X182358206Y-74468482D01*
X182863305Y-74130985D01*
X183200802Y-73625886D01*
X183319315Y-73030080D01*
X183200802Y-72434274D01*
X183119316Y-72312321D01*
X183763460Y-72312321D01*
X183763460Y-72919799D01*
X183995932Y-73481036D01*
X184425484Y-73910588D01*
X184986721Y-74143060D01*
X185594199Y-74143060D01*
X186155436Y-73910588D01*
X186584988Y-73481036D01*
X186817460Y-72919799D01*
X186817460Y-72636380D01*
X189275825Y-72636380D01*
X189394338Y-73232186D01*
X189731835Y-73737285D01*
X190236934Y-74074782D01*
X190682347Y-74163380D01*
X190983133Y-74163380D01*
X191428546Y-74074782D01*
X191933645Y-73737285D01*
X192271142Y-73232186D01*
X192389655Y-72636380D01*
X192329238Y-72332641D01*
X194754040Y-72332641D01*
X194754040Y-72940119D01*
X194986512Y-73501356D01*
X195416064Y-73930908D01*
X195977301Y-74163380D01*
X196584779Y-74163380D01*
X197146016Y-73930908D01*
X197575568Y-73501356D01*
X197579557Y-73491725D01*
X200723401Y-73491725D01*
X200797535Y-73737844D01*
X201334763Y-73930945D01*
X201904994Y-73903758D01*
X202305545Y-73737844D01*
X202379679Y-73491725D01*
X201551540Y-72663585D01*
X200723401Y-73491725D01*
X197579557Y-73491725D01*
X197808040Y-72940119D01*
X197808040Y-72332641D01*
X197780935Y-72267203D01*
X200104575Y-72267203D01*
X200131762Y-72837434D01*
X200297676Y-73237985D01*
X200543795Y-73312119D01*
X201371935Y-72483980D01*
X201731145Y-72483980D01*
X202559285Y-73312119D01*
X202805404Y-73237985D01*
X202998505Y-72700757D01*
X202984537Y-72407780D01*
X205442925Y-72407780D01*
X205561438Y-73003586D01*
X205898935Y-73508685D01*
X206404034Y-73846182D01*
X206849447Y-73934780D01*
X207150233Y-73934780D01*
X207595646Y-73846182D01*
X208100745Y-73508685D01*
X208438242Y-73003586D01*
X208549176Y-72445880D01*
X211043625Y-72445880D01*
X211162138Y-73041686D01*
X211499635Y-73546785D01*
X212004734Y-73884282D01*
X212450147Y-73972880D01*
X212750933Y-73972880D01*
X213196346Y-73884282D01*
X213701445Y-73546785D01*
X214038942Y-73041686D01*
X214157455Y-72445880D01*
X214038942Y-71850074D01*
X213701445Y-71344975D01*
X213196346Y-71007478D01*
X212750933Y-70918880D01*
X212450147Y-70918880D01*
X212004734Y-71007478D01*
X211499635Y-71344975D01*
X211162138Y-71850074D01*
X211043625Y-72445880D01*
X208549176Y-72445880D01*
X208556755Y-72407780D01*
X208438242Y-71811974D01*
X208100745Y-71306875D01*
X207595646Y-70969378D01*
X207150233Y-70880780D01*
X206849447Y-70880780D01*
X206404034Y-70969378D01*
X205898935Y-71306875D01*
X205561438Y-71811974D01*
X205442925Y-72407780D01*
X202984537Y-72407780D01*
X202971318Y-72130526D01*
X202805404Y-71729975D01*
X202559285Y-71655841D01*
X201731145Y-72483980D01*
X201371935Y-72483980D01*
X200543795Y-71655841D01*
X200297676Y-71729975D01*
X200104575Y-72267203D01*
X197780935Y-72267203D01*
X197575568Y-71771404D01*
X197280399Y-71476235D01*
X200723401Y-71476235D01*
X201551540Y-72304375D01*
X202379679Y-71476235D01*
X202305545Y-71230116D01*
X201768317Y-71037015D01*
X201198086Y-71064202D01*
X200797535Y-71230116D01*
X200723401Y-71476235D01*
X197280399Y-71476235D01*
X197146016Y-71341852D01*
X196584779Y-71109380D01*
X195977301Y-71109380D01*
X195416064Y-71341852D01*
X194986512Y-71771404D01*
X194754040Y-72332641D01*
X192329238Y-72332641D01*
X192271142Y-72040574D01*
X191933645Y-71535475D01*
X191428546Y-71197978D01*
X190983133Y-71109380D01*
X190682347Y-71109380D01*
X190236934Y-71197978D01*
X189731835Y-71535475D01*
X189394338Y-72040574D01*
X189275825Y-72636380D01*
X186817460Y-72636380D01*
X186817460Y-72312321D01*
X186584988Y-71751084D01*
X186155436Y-71321532D01*
X185594199Y-71089060D01*
X184986721Y-71089060D01*
X184425484Y-71321532D01*
X183995932Y-71751084D01*
X183763460Y-72312321D01*
X183119316Y-72312321D01*
X182863305Y-71929175D01*
X182358206Y-71591678D01*
X181912793Y-71503080D01*
X181612007Y-71503080D01*
X181166594Y-71591678D01*
X180661495Y-71929175D01*
X180323998Y-72434274D01*
X180205485Y-73030080D01*
X173039030Y-73030080D01*
X173022178Y-72676626D01*
X172856264Y-72276075D01*
X172610145Y-72201941D01*
X171782005Y-73030080D01*
X171422795Y-73030080D01*
X170594655Y-72201941D01*
X170348536Y-72276075D01*
X170155435Y-72813303D01*
X129802000Y-72813303D01*
X129802000Y-72022335D01*
X170774261Y-72022335D01*
X171602400Y-72850475D01*
X172430539Y-72022335D01*
X172356405Y-71776216D01*
X171819177Y-71583115D01*
X171248946Y-71610302D01*
X170848395Y-71776216D01*
X170774261Y-72022335D01*
X129802000Y-72022335D01*
X129802000Y-70188774D01*
X132495700Y-70188774D01*
X132495700Y-70786306D01*
X132724366Y-71338355D01*
X133146885Y-71760874D01*
X133698934Y-71989540D01*
X134296466Y-71989540D01*
X134848515Y-71760874D01*
X135271034Y-71338355D01*
X135499700Y-70786306D01*
X135499700Y-70188774D01*
X135271034Y-69636725D01*
X134848515Y-69214206D01*
X134296466Y-68985540D01*
X133698934Y-68985540D01*
X133146885Y-69214206D01*
X132724366Y-69636725D01*
X132495700Y-70188774D01*
X129802000Y-70188774D01*
X129802000Y-67883022D01*
X138489000Y-67883022D01*
X138489000Y-68768978D01*
X138828040Y-69587494D01*
X139454506Y-70213960D01*
X140273022Y-70553000D01*
X141158978Y-70553000D01*
X141977494Y-70213960D01*
X142603960Y-69587494D01*
X142943000Y-68768978D01*
X142943000Y-67883022D01*
X142805970Y-67552200D01*
X144606078Y-67552200D01*
X144606078Y-69252200D01*
X144662502Y-69535861D01*
X144823183Y-69776337D01*
X145063659Y-69937018D01*
X145347320Y-69993442D01*
X147047320Y-69993442D01*
X147330981Y-69937018D01*
X147571457Y-69776337D01*
X147732138Y-69535861D01*
X147745466Y-69468858D01*
X147970396Y-69673845D01*
X148380430Y-69843676D01*
X148610320Y-69722355D01*
X148610320Y-68529200D01*
X148590320Y-68529200D01*
X148590320Y-68275200D01*
X148610320Y-68275200D01*
X148610320Y-67082045D01*
X148864320Y-67082045D01*
X148864320Y-68275200D01*
X148884320Y-68275200D01*
X148884320Y-68529200D01*
X148864320Y-68529200D01*
X148864320Y-69722355D01*
X149094210Y-69843676D01*
X149504244Y-69673845D01*
X149932503Y-69283558D01*
X149947808Y-69250968D01*
X150140367Y-69539153D01*
X150662005Y-69887701D01*
X151122001Y-69979200D01*
X151432639Y-69979200D01*
X151892635Y-69887701D01*
X152414273Y-69539153D01*
X152547320Y-69340034D01*
X152680367Y-69539153D01*
X153202005Y-69887701D01*
X153662001Y-69979200D01*
X153972639Y-69979200D01*
X154432635Y-69887701D01*
X154954273Y-69539153D01*
X155087320Y-69340034D01*
X155220367Y-69539153D01*
X155742005Y-69887701D01*
X156202001Y-69979200D01*
X156512639Y-69979200D01*
X156972635Y-69887701D01*
X157494273Y-69539153D01*
X157627320Y-69340034D01*
X157760367Y-69539153D01*
X158282005Y-69887701D01*
X158742001Y-69979200D01*
X159052639Y-69979200D01*
X159512635Y-69887701D01*
X160034273Y-69539153D01*
X160167320Y-69340034D01*
X160300367Y-69539153D01*
X160822005Y-69887701D01*
X161282001Y-69979200D01*
X161592639Y-69979200D01*
X162052635Y-69887701D01*
X162574273Y-69539153D01*
X162707320Y-69340034D01*
X162840367Y-69539153D01*
X163362005Y-69887701D01*
X163822001Y-69979200D01*
X164132639Y-69979200D01*
X164592635Y-69887701D01*
X165114273Y-69539153D01*
X165247320Y-69340034D01*
X165380367Y-69539153D01*
X165902005Y-69887701D01*
X166362001Y-69979200D01*
X166672639Y-69979200D01*
X167132635Y-69887701D01*
X167654273Y-69539153D01*
X167787320Y-69340034D01*
X167920367Y-69539153D01*
X168442005Y-69887701D01*
X168902001Y-69979200D01*
X169212639Y-69979200D01*
X169672635Y-69887701D01*
X170194273Y-69539153D01*
X170327320Y-69340034D01*
X170460367Y-69539153D01*
X170982005Y-69887701D01*
X171442001Y-69979200D01*
X171752639Y-69979200D01*
X172212635Y-69887701D01*
X172734273Y-69539153D01*
X172867320Y-69340034D01*
X173000367Y-69539153D01*
X173522005Y-69887701D01*
X173982001Y-69979200D01*
X174292639Y-69979200D01*
X174752635Y-69887701D01*
X175274273Y-69539153D01*
X175407320Y-69340034D01*
X175540367Y-69539153D01*
X176062005Y-69887701D01*
X176522001Y-69979200D01*
X176832639Y-69979200D01*
X177292635Y-69887701D01*
X177814273Y-69539153D01*
X177947320Y-69340034D01*
X178080367Y-69539153D01*
X178602005Y-69887701D01*
X179062001Y-69979200D01*
X179372639Y-69979200D01*
X179832635Y-69887701D01*
X180354273Y-69539153D01*
X180487320Y-69340034D01*
X180620367Y-69539153D01*
X181142005Y-69887701D01*
X181602001Y-69979200D01*
X181912639Y-69979200D01*
X182372635Y-69887701D01*
X182894273Y-69539153D01*
X183027320Y-69340034D01*
X183160367Y-69539153D01*
X183682005Y-69887701D01*
X184142001Y-69979200D01*
X184452639Y-69979200D01*
X184912635Y-69887701D01*
X185434273Y-69539153D01*
X185782821Y-69017515D01*
X185905215Y-68402200D01*
X185863997Y-68194981D01*
X198985680Y-68194981D01*
X198985680Y-68802459D01*
X199218152Y-69363696D01*
X199647704Y-69793248D01*
X200208941Y-70025720D01*
X200816419Y-70025720D01*
X201377656Y-69793248D01*
X201762680Y-69408224D01*
X202147704Y-69793248D01*
X202708941Y-70025720D01*
X203316419Y-70025720D01*
X203877656Y-69793248D01*
X204307208Y-69363696D01*
X204539680Y-68802459D01*
X204539680Y-68194981D01*
X204410463Y-67883022D01*
X213469800Y-67883022D01*
X213469800Y-68768978D01*
X213808840Y-69587494D01*
X214435306Y-70213960D01*
X215253822Y-70553000D01*
X216139778Y-70553000D01*
X216958294Y-70213960D01*
X217584760Y-69587494D01*
X217923800Y-68768978D01*
X217923800Y-67883022D01*
X217584760Y-67064506D01*
X216958294Y-66438040D01*
X216139778Y-66099000D01*
X215253822Y-66099000D01*
X214435306Y-66438040D01*
X213808840Y-67064506D01*
X213469800Y-67883022D01*
X204410463Y-67883022D01*
X204307208Y-67633744D01*
X203877656Y-67204192D01*
X203316419Y-66971720D01*
X202708941Y-66971720D01*
X202147704Y-67204192D01*
X201762680Y-67589216D01*
X201377656Y-67204192D01*
X200816419Y-66971720D01*
X200208941Y-66971720D01*
X199647704Y-67204192D01*
X199218152Y-67633744D01*
X198985680Y-68194981D01*
X185863997Y-68194981D01*
X185782821Y-67786885D01*
X185434273Y-67265247D01*
X184912635Y-66916699D01*
X184452639Y-66825200D01*
X184142001Y-66825200D01*
X183682005Y-66916699D01*
X183160367Y-67265247D01*
X183027320Y-67464366D01*
X182894273Y-67265247D01*
X182372635Y-66916699D01*
X181912639Y-66825200D01*
X181602001Y-66825200D01*
X181142005Y-66916699D01*
X180620367Y-67265247D01*
X180487320Y-67464366D01*
X180354273Y-67265247D01*
X179832635Y-66916699D01*
X179372639Y-66825200D01*
X179062001Y-66825200D01*
X178602005Y-66916699D01*
X178080367Y-67265247D01*
X177947320Y-67464366D01*
X177814273Y-67265247D01*
X177292635Y-66916699D01*
X176832639Y-66825200D01*
X176522001Y-66825200D01*
X176062005Y-66916699D01*
X175540367Y-67265247D01*
X175407320Y-67464366D01*
X175274273Y-67265247D01*
X174752635Y-66916699D01*
X174292639Y-66825200D01*
X173982001Y-66825200D01*
X173522005Y-66916699D01*
X173000367Y-67265247D01*
X172867320Y-67464366D01*
X172734273Y-67265247D01*
X172212635Y-66916699D01*
X171752639Y-66825200D01*
X171442001Y-66825200D01*
X170982005Y-66916699D01*
X170460367Y-67265247D01*
X170327320Y-67464366D01*
X170194273Y-67265247D01*
X169672635Y-66916699D01*
X169212639Y-66825200D01*
X168902001Y-66825200D01*
X168442005Y-66916699D01*
X167920367Y-67265247D01*
X167787320Y-67464366D01*
X167654273Y-67265247D01*
X167132635Y-66916699D01*
X166672639Y-66825200D01*
X166362001Y-66825200D01*
X165902005Y-66916699D01*
X165380367Y-67265247D01*
X165247320Y-67464366D01*
X165114273Y-67265247D01*
X164592635Y-66916699D01*
X164132639Y-66825200D01*
X163822001Y-66825200D01*
X163362005Y-66916699D01*
X162840367Y-67265247D01*
X162707320Y-67464366D01*
X162574273Y-67265247D01*
X162052635Y-66916699D01*
X161592639Y-66825200D01*
X161282001Y-66825200D01*
X160822005Y-66916699D01*
X160300367Y-67265247D01*
X160167320Y-67464366D01*
X160034273Y-67265247D01*
X159512635Y-66916699D01*
X159052639Y-66825200D01*
X158742001Y-66825200D01*
X158282005Y-66916699D01*
X157760367Y-67265247D01*
X157627320Y-67464366D01*
X157494273Y-67265247D01*
X156972635Y-66916699D01*
X156512639Y-66825200D01*
X156202001Y-66825200D01*
X155742005Y-66916699D01*
X155220367Y-67265247D01*
X155087320Y-67464366D01*
X154954273Y-67265247D01*
X154432635Y-66916699D01*
X153972639Y-66825200D01*
X153662001Y-66825200D01*
X153202005Y-66916699D01*
X152680367Y-67265247D01*
X152547320Y-67464366D01*
X152414273Y-67265247D01*
X151892635Y-66916699D01*
X151432639Y-66825200D01*
X151122001Y-66825200D01*
X150662005Y-66916699D01*
X150140367Y-67265247D01*
X149947808Y-67553432D01*
X149932503Y-67520842D01*
X149504244Y-67130555D01*
X149094210Y-66960724D01*
X148864320Y-67082045D01*
X148610320Y-67082045D01*
X148380430Y-66960724D01*
X147970396Y-67130555D01*
X147745466Y-67335542D01*
X147732138Y-67268539D01*
X147571457Y-67028063D01*
X147330981Y-66867382D01*
X147047320Y-66810958D01*
X145347320Y-66810958D01*
X145063659Y-66867382D01*
X144823183Y-67028063D01*
X144662502Y-67268539D01*
X144606078Y-67552200D01*
X142805970Y-67552200D01*
X142603960Y-67064506D01*
X141977494Y-66438040D01*
X141158978Y-66099000D01*
X140273022Y-66099000D01*
X139454506Y-66438040D01*
X138828040Y-67064506D01*
X138489000Y-67883022D01*
X129802000Y-67883022D01*
X129802000Y-64802000D01*
X219198001Y-64802000D01*
X219198000Y-102698000D01*
X219198000Y-102698000D01*
G37*
X219198000Y-102698000D02*
X129802000Y-102698000D01*
X129802000Y-100123778D01*
X130140520Y-100123778D01*
X130140520Y-100810822D01*
X130403440Y-101445567D01*
X130889253Y-101931380D01*
X131523998Y-102194300D01*
X132211042Y-102194300D01*
X132845787Y-101931380D01*
X133331600Y-101445567D01*
X133594520Y-100810822D01*
X133594520Y-100123778D01*
X134640520Y-100123778D01*
X134640520Y-100810822D01*
X134903440Y-101445567D01*
X135389253Y-101931380D01*
X136023998Y-102194300D01*
X136711042Y-102194300D01*
X137345787Y-101931380D01*
X137831600Y-101445567D01*
X138094520Y-100810822D01*
X138094520Y-100123778D01*
X137831600Y-99489033D01*
X137345787Y-99003220D01*
X137057294Y-98883722D01*
X138476300Y-98883722D01*
X138476300Y-99769678D01*
X138815340Y-100588194D01*
X139441806Y-101214660D01*
X140260322Y-101553700D01*
X141146278Y-101553700D01*
X141964794Y-101214660D01*
X142591260Y-100588194D01*
X142930300Y-99769678D01*
X142930300Y-98883722D01*
X142591260Y-98065206D01*
X141964794Y-97438740D01*
X141146278Y-97099700D01*
X140260322Y-97099700D01*
X139441806Y-97438740D01*
X138815340Y-98065206D01*
X138476300Y-98883722D01*
X137057294Y-98883722D01*
X136711042Y-98740300D01*
X136023998Y-98740300D01*
X135389253Y-99003220D01*
X134903440Y-99489033D01*
X134640520Y-100123778D01*
X133594520Y-100123778D01*
X133331600Y-99489033D01*
X132845787Y-99003220D01*
X132211042Y-98740300D01*
X131523998Y-98740300D01*
X130889253Y-99003220D01*
X130403440Y-99489033D01*
X130140520Y-100123778D01*
X129802000Y-100123778D01*
X129802000Y-96332886D01*
X158868120Y-96332886D01*
X158868120Y-96920474D01*
X159092980Y-97463333D01*
X159508467Y-97878820D01*
X160051326Y-98103680D01*
X160638914Y-98103680D01*
X161181773Y-97878820D01*
X161597260Y-97463333D01*
X161822120Y-96920474D01*
X161822120Y-96332886D01*
X163768120Y-96332886D01*
X163768120Y-96920474D01*
X163992980Y-97463333D01*
X164408467Y-97878820D01*
X164951326Y-98103680D01*
X165538914Y-98103680D01*
X166081773Y-97878820D01*
X166497260Y-97463333D01*
X166722120Y-96920474D01*
X166722120Y-96913700D01*
X182021585Y-96913700D01*
X182140098Y-97509506D01*
X182477595Y-98014605D01*
X182982694Y-98352102D01*
X183428107Y-98440700D01*
X183728893Y-98440700D01*
X184174306Y-98352102D01*
X184679405Y-98014605D01*
X184848500Y-97761537D01*
X185017595Y-98014605D01*
X185522694Y-98352102D01*
X185968107Y-98440700D01*
X186268893Y-98440700D01*
X186714306Y-98352102D01*
X187219405Y-98014605D01*
X187388500Y-97761537D01*
X187557595Y-98014605D01*
X188062694Y-98352102D01*
X188508107Y-98440700D01*
X188808893Y-98440700D01*
X189254306Y-98352102D01*
X189759405Y-98014605D01*
X189928500Y-97761537D01*
X190097595Y-98014605D01*
X190602694Y-98352102D01*
X191048107Y-98440700D01*
X191348893Y-98440700D01*
X191794306Y-98352102D01*
X192299405Y-98014605D01*
X192468500Y-97761537D01*
X192637595Y-98014605D01*
X193142694Y-98352102D01*
X193588107Y-98440700D01*
X193888893Y-98440700D01*
X194334306Y-98352102D01*
X194839405Y-98014605D01*
X195008500Y-97761537D01*
X195177595Y-98014605D01*
X195682694Y-98352102D01*
X196128107Y-98440700D01*
X196428893Y-98440700D01*
X196874306Y-98352102D01*
X197379405Y-98014605D01*
X197548500Y-97761537D01*
X197717595Y-98014605D01*
X198222694Y-98352102D01*
X198668107Y-98440700D01*
X198968893Y-98440700D01*
X199414306Y-98352102D01*
X199919405Y-98014605D01*
X200256902Y-97509506D01*
X200375415Y-96913700D01*
X200256902Y-96317894D01*
X199919405Y-95812795D01*
X199414306Y-95475298D01*
X198968893Y-95386700D01*
X198668107Y-95386700D01*
X198222694Y-95475298D01*
X197717595Y-95812795D01*
X197548500Y-96065863D01*
X197379405Y-95812795D01*
X196874306Y-95475298D01*
X196428893Y-95386700D01*
X196128107Y-95386700D01*
X195682694Y-95475298D01*
X195177595Y-95812795D01*
X195008500Y-96065863D01*
X194839405Y-95812795D01*
X194334306Y-95475298D01*
X193888893Y-95386700D01*
X193588107Y-95386700D01*
X193142694Y-95475298D01*
X192637595Y-95812795D01*
X192468500Y-96065863D01*
X192299405Y-95812795D01*
X191794306Y-95475298D01*
X191348893Y-95386700D01*
X191048107Y-95386700D01*
X190602694Y-95475298D01*
X190097595Y-95812795D01*
X189928500Y-96065863D01*
X189759405Y-95812795D01*
X189254306Y-95475298D01*
X188808893Y-95386700D01*
X188508107Y-95386700D01*
X188062694Y-95475298D01*
X187557595Y-95812795D01*
X187388500Y-96065863D01*
X187219405Y-95812795D01*
X186714306Y-95475298D01*
X186268893Y-95386700D01*
X185968107Y-95386700D01*
X185522694Y-95475298D01*
X185017595Y-95812795D01*
X184848500Y-96065863D01*
X184679405Y-95812795D01*
X184174306Y-95475298D01*
X183728893Y-95386700D01*
X183428107Y-95386700D01*
X182982694Y-95475298D01*
X182477595Y-95812795D01*
X182140098Y-96317894D01*
X182021585Y-96913700D01*
X166722120Y-96913700D01*
X166722120Y-96332886D01*
X166497260Y-95790027D01*
X166081773Y-95374540D01*
X165538914Y-95149680D01*
X164951326Y-95149680D01*
X164408467Y-95374540D01*
X163992980Y-95790027D01*
X163768120Y-96332886D01*
X161822120Y-96332886D01*
X161597260Y-95790027D01*
X161181773Y-95374540D01*
X160638914Y-95149680D01*
X160051326Y-95149680D01*
X159508467Y-95374540D01*
X159092980Y-95790027D01*
X158868120Y-96332886D01*
X129802000Y-96332886D01*
X129802000Y-93623778D01*
X130140520Y-93623778D01*
X130140520Y-94310822D01*
X130403440Y-94945567D01*
X130889253Y-95431380D01*
X131523998Y-95694300D01*
X132211042Y-95694300D01*
X132845787Y-95431380D01*
X133331600Y-94945567D01*
X133594520Y-94310822D01*
X133594520Y-93623778D01*
X134640520Y-93623778D01*
X134640520Y-94310822D01*
X134903440Y-94945567D01*
X135389253Y-95431380D01*
X136023998Y-95694300D01*
X136711042Y-95694300D01*
X137345787Y-95431380D01*
X137831600Y-94945567D01*
X138068545Y-94373530D01*
X138257512Y-94829736D01*
X138687064Y-95259288D01*
X139248301Y-95491760D01*
X139855779Y-95491760D01*
X140417016Y-95259288D01*
X140802040Y-94874264D01*
X141187064Y-95259288D01*
X141748301Y-95491760D01*
X142355779Y-95491760D01*
X142917016Y-95259288D01*
X143346568Y-94829736D01*
X143579040Y-94268499D01*
X143579040Y-93661021D01*
X143346568Y-93099784D01*
X142917016Y-92670232D01*
X142355779Y-92437760D01*
X141748301Y-92437760D01*
X141187064Y-92670232D01*
X140802040Y-93055256D01*
X140417016Y-92670232D01*
X139855779Y-92437760D01*
X139248301Y-92437760D01*
X138687064Y-92670232D01*
X138257512Y-93099784D01*
X138067493Y-93558530D01*
X137831600Y-92989033D01*
X137345787Y-92503220D01*
X136831176Y-92290061D01*
X151320040Y-92290061D01*
X151320040Y-92897539D01*
X151552512Y-93458776D01*
X151982064Y-93888328D01*
X152543301Y-94120800D01*
X153150779Y-94120800D01*
X153712016Y-93888328D01*
X154141568Y-93458776D01*
X154374040Y-92897539D01*
X154374040Y-92290061D01*
X154688080Y-92290061D01*
X154688080Y-92897539D01*
X154920552Y-93458776D01*
X155350104Y-93888328D01*
X155911341Y-94120800D01*
X156518819Y-94120800D01*
X157080056Y-93888328D01*
X157509608Y-93458776D01*
X157742080Y-92897539D01*
X157742080Y-92290061D01*
X157509608Y-91728824D01*
X157080056Y-91299272D01*
X156994354Y-91263773D01*
X157043219Y-91101545D01*
X156215080Y-90273405D01*
X155386941Y-91101545D01*
X155435806Y-91263773D01*
X155350104Y-91299272D01*
X154920552Y-91728824D01*
X154688080Y-92290061D01*
X154374040Y-92290061D01*
X154141568Y-91728824D01*
X153712016Y-91299272D01*
X153626314Y-91263773D01*
X153675179Y-91101545D01*
X152847040Y-90273405D01*
X152018901Y-91101545D01*
X152067766Y-91263773D01*
X151982064Y-91299272D01*
X151552512Y-91728824D01*
X151320040Y-92290061D01*
X136831176Y-92290061D01*
X136711042Y-92240300D01*
X136023998Y-92240300D01*
X135389253Y-92503220D01*
X134903440Y-92989033D01*
X134640520Y-93623778D01*
X133594520Y-93623778D01*
X133331600Y-92989033D01*
X132845787Y-92503220D01*
X132211042Y-92240300D01*
X131523998Y-92240300D01*
X130889253Y-92503220D01*
X130403440Y-92989033D01*
X130140520Y-93623778D01*
X129802000Y-93623778D01*
X129802000Y-90647520D01*
X138005925Y-90647520D01*
X138124438Y-91243326D01*
X138461935Y-91748425D01*
X138967034Y-92085922D01*
X139412447Y-92174520D01*
X139713233Y-92174520D01*
X140158646Y-92085922D01*
X140663745Y-91748425D01*
X140725992Y-91655265D01*
X148894701Y-91655265D01*
X148968835Y-91901384D01*
X149506063Y-92094485D01*
X150076294Y-92067298D01*
X150476845Y-91901384D01*
X150550979Y-91655265D01*
X149722840Y-90827125D01*
X148894701Y-91655265D01*
X140725992Y-91655265D01*
X141001242Y-91243326D01*
X141119755Y-90647520D01*
X141076636Y-90430743D01*
X148275875Y-90430743D01*
X148303062Y-91000974D01*
X148468976Y-91401525D01*
X148715095Y-91475659D01*
X149543235Y-90647520D01*
X149902445Y-90647520D01*
X150730585Y-91475659D01*
X150976704Y-91401525D01*
X151169805Y-90864297D01*
X151142618Y-90294066D01*
X150976704Y-89893515D01*
X150921952Y-89877023D01*
X151400075Y-89877023D01*
X151427262Y-90447254D01*
X151593176Y-90847805D01*
X151839295Y-90921939D01*
X152667435Y-90093800D01*
X153026645Y-90093800D01*
X153854785Y-90921939D01*
X154100904Y-90847805D01*
X154294005Y-90310577D01*
X154273335Y-89877023D01*
X154768115Y-89877023D01*
X154795302Y-90447254D01*
X154961216Y-90847805D01*
X155207335Y-90921939D01*
X156035475Y-90093800D01*
X156394685Y-90093800D01*
X157222825Y-90921939D01*
X157468944Y-90847805D01*
X157496680Y-90770640D01*
X157496680Y-91103659D01*
X157729152Y-91664896D01*
X158158704Y-92094448D01*
X158719941Y-92326920D01*
X159327419Y-92326920D01*
X159888656Y-92094448D01*
X160273680Y-91709424D01*
X160658704Y-92094448D01*
X161219941Y-92326920D01*
X161827419Y-92326920D01*
X162388656Y-92094448D01*
X162801300Y-91681804D01*
X163188544Y-92069048D01*
X163749781Y-92301520D01*
X164357259Y-92301520D01*
X164918496Y-92069048D01*
X165303520Y-91684024D01*
X165688544Y-92069048D01*
X166249781Y-92301520D01*
X166857259Y-92301520D01*
X167418496Y-92069048D01*
X167848048Y-91639496D01*
X168080520Y-91078259D01*
X168080520Y-90470781D01*
X167848048Y-89909544D01*
X167418496Y-89479992D01*
X166968748Y-89293700D01*
X182021585Y-89293700D01*
X182140098Y-89889506D01*
X182477595Y-90394605D01*
X182982694Y-90732102D01*
X183428107Y-90820700D01*
X183728893Y-90820700D01*
X184174306Y-90732102D01*
X184679405Y-90394605D01*
X184848500Y-90141537D01*
X185017595Y-90394605D01*
X185522694Y-90732102D01*
X185968107Y-90820700D01*
X186268893Y-90820700D01*
X186714306Y-90732102D01*
X187219405Y-90394605D01*
X187388500Y-90141537D01*
X187557595Y-90394605D01*
X188062694Y-90732102D01*
X188508107Y-90820700D01*
X188808893Y-90820700D01*
X189254306Y-90732102D01*
X189759405Y-90394605D01*
X189995325Y-90041527D01*
X190046111Y-90148834D01*
X190461077Y-90524741D01*
X190849461Y-90685604D01*
X191071500Y-90563615D01*
X191071500Y-89420700D01*
X191051500Y-89420700D01*
X191051500Y-89166700D01*
X191071500Y-89166700D01*
X191071500Y-88023785D01*
X191325500Y-88023785D01*
X191325500Y-89166700D01*
X191345500Y-89166700D01*
X191345500Y-89420700D01*
X191325500Y-89420700D01*
X191325500Y-90563615D01*
X191547539Y-90685604D01*
X191935923Y-90524741D01*
X192350889Y-90148834D01*
X192401675Y-90041527D01*
X192637595Y-90394605D01*
X193142694Y-90732102D01*
X193588107Y-90820700D01*
X193888893Y-90820700D01*
X194334306Y-90732102D01*
X194839405Y-90394605D01*
X195008500Y-90141537D01*
X195177595Y-90394605D01*
X195682694Y-90732102D01*
X196128107Y-90820700D01*
X196428893Y-90820700D01*
X196874306Y-90732102D01*
X197355760Y-90410404D01*
X197494363Y-90617837D01*
X197734839Y-90778518D01*
X198018500Y-90834942D01*
X199618500Y-90834942D01*
X199902161Y-90778518D01*
X200142637Y-90617837D01*
X200303318Y-90377361D01*
X200359742Y-90093700D01*
X200359742Y-89178746D01*
X206561180Y-89178746D01*
X206561180Y-89627094D01*
X206732756Y-90041314D01*
X207049786Y-90358344D01*
X207464006Y-90529920D01*
X207912354Y-90529920D01*
X208326574Y-90358344D01*
X208414558Y-90270360D01*
X208967018Y-90270360D01*
X208967018Y-90468360D01*
X208996855Y-90618360D01*
X208967018Y-90768360D01*
X208967018Y-91268360D01*
X208996855Y-91418360D01*
X208967018Y-91568360D01*
X208967018Y-92068360D01*
X209023442Y-92352021D01*
X209184123Y-92592497D01*
X209409905Y-92743360D01*
X209232010Y-92743360D01*
X209073260Y-92902110D01*
X209073260Y-92994669D01*
X209169933Y-93228058D01*
X209348561Y-93406687D01*
X209581950Y-93503360D01*
X210422510Y-93503360D01*
X210581260Y-93344610D01*
X210581260Y-92809602D01*
X210835260Y-92809602D01*
X210835260Y-93344610D01*
X210994010Y-93503360D01*
X211834570Y-93503360D01*
X212067959Y-93406687D01*
X212181260Y-93293385D01*
X212181260Y-93462425D01*
X212368060Y-93913399D01*
X212713221Y-94258560D01*
X213164195Y-94445360D01*
X213652325Y-94445360D01*
X214103299Y-94258560D01*
X214448460Y-93913399D01*
X214635260Y-93462425D01*
X214635260Y-92974295D01*
X214448460Y-92523321D01*
X214103299Y-92178160D01*
X213652325Y-91991360D01*
X213164195Y-91991360D01*
X212713221Y-92178160D01*
X212368060Y-92523321D01*
X212343260Y-92583193D01*
X212343260Y-92491358D01*
X212299976Y-92491358D01*
X212393078Y-92352021D01*
X212449502Y-92068360D01*
X212449502Y-91568360D01*
X212419665Y-91418360D01*
X212449502Y-91268360D01*
X212449502Y-90768360D01*
X212419665Y-90618360D01*
X212449502Y-90468360D01*
X212449502Y-89968360D01*
X212419665Y-89818360D01*
X212449502Y-89668360D01*
X212449502Y-89594841D01*
X212713221Y-89858560D01*
X213164195Y-90045360D01*
X213652325Y-90045360D01*
X214103299Y-89858560D01*
X214448460Y-89513399D01*
X214635260Y-89062425D01*
X214635260Y-88574295D01*
X214448460Y-88123321D01*
X214103299Y-87778160D01*
X213652325Y-87591360D01*
X213164195Y-87591360D01*
X212713221Y-87778160D01*
X212368060Y-88123321D01*
X212181260Y-88574295D01*
X212181260Y-88610054D01*
X211991921Y-88483542D01*
X211708260Y-88427118D01*
X211660260Y-88427118D01*
X211660260Y-88309204D01*
X211941921Y-88253178D01*
X212182397Y-88092497D01*
X212343078Y-87852021D01*
X212399502Y-87568360D01*
X212399502Y-87420360D01*
X214667018Y-87420360D01*
X214667018Y-87568360D01*
X214723442Y-87852021D01*
X214884123Y-88092497D01*
X215124599Y-88253178D01*
X215406261Y-88309204D01*
X215406260Y-93727516D01*
X215124599Y-93783542D01*
X214884123Y-93944223D01*
X214723442Y-94184699D01*
X214667018Y-94468360D01*
X214667018Y-94616360D01*
X212399502Y-94616360D01*
X212399502Y-94468360D01*
X212343078Y-94184699D01*
X212182397Y-93944223D01*
X211941921Y-93783542D01*
X211658260Y-93727118D01*
X209958260Y-93727118D01*
X209674599Y-93783542D01*
X209434123Y-93944223D01*
X209273442Y-94184699D01*
X209217018Y-94468360D01*
X209217018Y-96468360D01*
X209273442Y-96752021D01*
X209434123Y-96992497D01*
X209674599Y-97153178D01*
X209958260Y-97209602D01*
X211658260Y-97209602D01*
X211941921Y-97153178D01*
X212182397Y-96992497D01*
X212343078Y-96752021D01*
X212399502Y-96468360D01*
X212399502Y-96320360D01*
X214667018Y-96320360D01*
X214667018Y-96468360D01*
X214723442Y-96752021D01*
X214884123Y-96992497D01*
X215112910Y-97145368D01*
X214435306Y-97426040D01*
X213808840Y-98052506D01*
X213469800Y-98871022D01*
X213469800Y-99756978D01*
X213808840Y-100575494D01*
X214435306Y-101201960D01*
X215253822Y-101541000D01*
X216139778Y-101541000D01*
X216958294Y-101201960D01*
X217584760Y-100575494D01*
X217923800Y-99756978D01*
X217923800Y-98871022D01*
X217584760Y-98052506D01*
X216958294Y-97426040D01*
X216435766Y-97209602D01*
X217108260Y-97209602D01*
X217391921Y-97153178D01*
X217632397Y-96992497D01*
X217793078Y-96752021D01*
X217849502Y-96468360D01*
X217849502Y-94468360D01*
X217793078Y-94184699D01*
X217632397Y-93944223D01*
X217391921Y-93783542D01*
X217110260Y-93727516D01*
X217110260Y-88309204D01*
X217391921Y-88253178D01*
X217632397Y-88092497D01*
X217793078Y-87852021D01*
X217849502Y-87568360D01*
X217849502Y-85568360D01*
X217793078Y-85284699D01*
X217632397Y-85044223D01*
X217391921Y-84883542D01*
X217108260Y-84827118D01*
X215408260Y-84827118D01*
X215124599Y-84883542D01*
X214884123Y-85044223D01*
X214723442Y-85284699D01*
X214667018Y-85568360D01*
X214667018Y-85716360D01*
X212399502Y-85716360D01*
X212399502Y-85568360D01*
X212343078Y-85284699D01*
X212182397Y-85044223D01*
X211941921Y-84883542D01*
X211658260Y-84827118D01*
X209958260Y-84827118D01*
X209674599Y-84883542D01*
X209434123Y-85044223D01*
X209273442Y-85284699D01*
X209217018Y-85568360D01*
X209217018Y-87568360D01*
X209273442Y-87852021D01*
X209434123Y-88092497D01*
X209674599Y-88253178D01*
X209956261Y-88309204D01*
X209956261Y-88427118D01*
X209708260Y-88427118D01*
X209424599Y-88483542D01*
X209300653Y-88566360D01*
X208445438Y-88566360D01*
X208326574Y-88447496D01*
X207912354Y-88275920D01*
X207464006Y-88275920D01*
X207049786Y-88447496D01*
X206732756Y-88764526D01*
X206561180Y-89178746D01*
X200359742Y-89178746D01*
X200359742Y-88493700D01*
X200303318Y-88210039D01*
X200142637Y-87969563D01*
X199902161Y-87808882D01*
X199618500Y-87752458D01*
X198018500Y-87752458D01*
X197734839Y-87808882D01*
X197494363Y-87969563D01*
X197355760Y-88176996D01*
X196874306Y-87855298D01*
X196428893Y-87766700D01*
X196128107Y-87766700D01*
X195682694Y-87855298D01*
X195177595Y-88192795D01*
X195008500Y-88445863D01*
X194839405Y-88192795D01*
X194334306Y-87855298D01*
X194116694Y-87812012D01*
X194588876Y-87616428D01*
X195018428Y-87186876D01*
X195250900Y-86625639D01*
X195250900Y-86018161D01*
X195018428Y-85456924D01*
X194588876Y-85027372D01*
X194027639Y-84794900D01*
X193420161Y-84794900D01*
X192858924Y-85027372D01*
X192429372Y-85456924D01*
X192393873Y-85542626D01*
X192231645Y-85493761D01*
X191403505Y-86321900D01*
X192231645Y-87150039D01*
X192393873Y-87101174D01*
X192429372Y-87186876D01*
X192858924Y-87616428D01*
X193340579Y-87815936D01*
X193142694Y-87855298D01*
X192637595Y-88192795D01*
X192401675Y-88545873D01*
X192350889Y-88438566D01*
X191935923Y-88062659D01*
X191547539Y-87901796D01*
X191325500Y-88023785D01*
X191071500Y-88023785D01*
X190849461Y-87901796D01*
X190461077Y-88062659D01*
X190046111Y-88438566D01*
X189995325Y-88545873D01*
X189759405Y-88192795D01*
X189254306Y-87855298D01*
X188808893Y-87766700D01*
X188508107Y-87766700D01*
X188062694Y-87855298D01*
X187557595Y-88192795D01*
X187388500Y-88445863D01*
X187219405Y-88192795D01*
X186714306Y-87855298D01*
X186547186Y-87822056D01*
X187074276Y-87603728D01*
X187361059Y-87316945D01*
X187881161Y-87316945D01*
X187955295Y-87563064D01*
X188492523Y-87756165D01*
X189062754Y-87728978D01*
X189463305Y-87563064D01*
X189533613Y-87329645D01*
X190395761Y-87329645D01*
X190469895Y-87575764D01*
X191007123Y-87768865D01*
X191577354Y-87741678D01*
X191977905Y-87575764D01*
X192052039Y-87329645D01*
X191223900Y-86501505D01*
X190395761Y-87329645D01*
X189533613Y-87329645D01*
X189537439Y-87316945D01*
X188709300Y-86488805D01*
X187881161Y-87316945D01*
X187361059Y-87316945D01*
X187503828Y-87174176D01*
X187539327Y-87088474D01*
X187701555Y-87137339D01*
X188529695Y-86309200D01*
X188888905Y-86309200D01*
X189717045Y-87137339D01*
X189963164Y-87063205D01*
X189963913Y-87061122D01*
X189970036Y-87075905D01*
X190216155Y-87150039D01*
X191044295Y-86321900D01*
X190216155Y-85493761D01*
X189970036Y-85567895D01*
X189969287Y-85569978D01*
X189963164Y-85555195D01*
X189717045Y-85481061D01*
X188888905Y-86309200D01*
X188529695Y-86309200D01*
X187701555Y-85481061D01*
X187539327Y-85529926D01*
X187503828Y-85444224D01*
X187361059Y-85301455D01*
X187881161Y-85301455D01*
X188709300Y-86129595D01*
X189524739Y-85314155D01*
X190395761Y-85314155D01*
X191223900Y-86142295D01*
X192052039Y-85314155D01*
X191977905Y-85068036D01*
X191440677Y-84874935D01*
X190870446Y-84902122D01*
X190469895Y-85068036D01*
X190395761Y-85314155D01*
X189524739Y-85314155D01*
X189537439Y-85301455D01*
X189463305Y-85055336D01*
X188926077Y-84862235D01*
X188355846Y-84889422D01*
X187955295Y-85055336D01*
X187881161Y-85301455D01*
X187361059Y-85301455D01*
X187074276Y-85014672D01*
X186513039Y-84782200D01*
X185905561Y-84782200D01*
X185344324Y-85014672D01*
X184914772Y-85444224D01*
X184682300Y-86005461D01*
X184682300Y-86612939D01*
X184914772Y-87174176D01*
X185344324Y-87603728D01*
X185812499Y-87797652D01*
X185522694Y-87855298D01*
X185017595Y-88192795D01*
X184848500Y-88445863D01*
X184679405Y-88192795D01*
X184174306Y-87855298D01*
X183728893Y-87766700D01*
X183428107Y-87766700D01*
X182982694Y-87855298D01*
X182477595Y-88192795D01*
X182140098Y-88697894D01*
X182021585Y-89293700D01*
X166968748Y-89293700D01*
X166857259Y-89247520D01*
X166249781Y-89247520D01*
X165688544Y-89479992D01*
X165303520Y-89865016D01*
X164918496Y-89479992D01*
X164357259Y-89247520D01*
X163749781Y-89247520D01*
X163188544Y-89479992D01*
X162775900Y-89892636D01*
X162388656Y-89505392D01*
X161827419Y-89272920D01*
X161219941Y-89272920D01*
X160658704Y-89505392D01*
X160273680Y-89890416D01*
X159888656Y-89505392D01*
X159327419Y-89272920D01*
X158719941Y-89272920D01*
X158158704Y-89505392D01*
X157729152Y-89934944D01*
X157652911Y-90119005D01*
X157634858Y-89740346D01*
X157468944Y-89339795D01*
X157222825Y-89265661D01*
X156394685Y-90093800D01*
X156035475Y-90093800D01*
X155207335Y-89265661D01*
X154961216Y-89339795D01*
X154768115Y-89877023D01*
X154273335Y-89877023D01*
X154266818Y-89740346D01*
X154100904Y-89339795D01*
X153854785Y-89265661D01*
X153026645Y-90093800D01*
X152667435Y-90093800D01*
X151839295Y-89265661D01*
X151593176Y-89339795D01*
X151400075Y-89877023D01*
X150921952Y-89877023D01*
X150730585Y-89819381D01*
X149902445Y-90647520D01*
X149543235Y-90647520D01*
X148715095Y-89819381D01*
X148468976Y-89893515D01*
X148275875Y-90430743D01*
X141076636Y-90430743D01*
X141001242Y-90051714D01*
X140725993Y-89639775D01*
X148894701Y-89639775D01*
X149722840Y-90467915D01*
X150550979Y-89639775D01*
X150476845Y-89393656D01*
X149939617Y-89200555D01*
X149369386Y-89227742D01*
X148968835Y-89393656D01*
X148894701Y-89639775D01*
X140725993Y-89639775D01*
X140663745Y-89546615D01*
X140158646Y-89209118D01*
X139713233Y-89120520D01*
X139412447Y-89120520D01*
X138967034Y-89209118D01*
X138461935Y-89546615D01*
X138124438Y-90051714D01*
X138005925Y-90647520D01*
X129802000Y-90647520D01*
X129802000Y-83492340D01*
X131165525Y-83492340D01*
X131287919Y-84107655D01*
X131636467Y-84629293D01*
X131835586Y-84762340D01*
X131636467Y-84895387D01*
X131287919Y-85417025D01*
X131165525Y-86032340D01*
X131287919Y-86647655D01*
X131636467Y-87169293D01*
X132158105Y-87517841D01*
X132618101Y-87609340D01*
X132928739Y-87609340D01*
X133388735Y-87517841D01*
X133910373Y-87169293D01*
X134043420Y-86970174D01*
X134176467Y-87169293D01*
X134698105Y-87517841D01*
X135158101Y-87609340D01*
X135468739Y-87609340D01*
X135928735Y-87517841D01*
X136450373Y-87169293D01*
X136770426Y-86690300D01*
X139657358Y-86690300D01*
X139657358Y-88290300D01*
X139713782Y-88573961D01*
X139874463Y-88814437D01*
X140114939Y-88975118D01*
X140398600Y-89031542D01*
X141998600Y-89031542D01*
X142282261Y-88975118D01*
X142522737Y-88814437D01*
X142661340Y-88607004D01*
X143142794Y-88928702D01*
X143588207Y-89017300D01*
X143888993Y-89017300D01*
X144334406Y-88928702D01*
X144839505Y-88591205D01*
X145008600Y-88338137D01*
X145177695Y-88591205D01*
X145682794Y-88928702D01*
X146128207Y-89017300D01*
X146428993Y-89017300D01*
X146874406Y-88928702D01*
X147379505Y-88591205D01*
X147548600Y-88338137D01*
X147717695Y-88591205D01*
X148222794Y-88928702D01*
X148668207Y-89017300D01*
X148968993Y-89017300D01*
X149414406Y-88928702D01*
X149919505Y-88591205D01*
X150088600Y-88338137D01*
X150257695Y-88591205D01*
X150762794Y-88928702D01*
X151208207Y-89017300D01*
X151508993Y-89017300D01*
X151954406Y-88928702D01*
X152459505Y-88591205D01*
X152628600Y-88338137D01*
X152797695Y-88591205D01*
X152893130Y-88654973D01*
X152493586Y-88674022D01*
X152093035Y-88839936D01*
X152018901Y-89086055D01*
X152847040Y-89914195D01*
X153675179Y-89086055D01*
X153648495Y-88997466D01*
X153748207Y-89017300D01*
X154048993Y-89017300D01*
X154494406Y-88928702D01*
X154999505Y-88591205D01*
X155235425Y-88238127D01*
X155286211Y-88345434D01*
X155701177Y-88721341D01*
X155724283Y-88730911D01*
X155461075Y-88839936D01*
X155386941Y-89086055D01*
X156215080Y-89914195D01*
X157043219Y-89086055D01*
X156969085Y-88839936D01*
X156926578Y-88824657D01*
X157176023Y-88721341D01*
X157590989Y-88345434D01*
X157641775Y-88238127D01*
X157877695Y-88591205D01*
X158382794Y-88928702D01*
X158828207Y-89017300D01*
X159128993Y-89017300D01*
X159574406Y-88928702D01*
X160079505Y-88591205D01*
X160248600Y-88338137D01*
X160417695Y-88591205D01*
X160922794Y-88928702D01*
X161368207Y-89017300D01*
X161668993Y-89017300D01*
X162114406Y-88928702D01*
X162619505Y-88591205D01*
X162788600Y-88338137D01*
X162957695Y-88591205D01*
X163462794Y-88928702D01*
X163908207Y-89017300D01*
X164208993Y-89017300D01*
X164654406Y-88928702D01*
X165159505Y-88591205D01*
X165328600Y-88338137D01*
X165497695Y-88591205D01*
X166002794Y-88928702D01*
X166448207Y-89017300D01*
X166748993Y-89017300D01*
X167194406Y-88928702D01*
X167699505Y-88591205D01*
X167868600Y-88338137D01*
X168037695Y-88591205D01*
X168542794Y-88928702D01*
X168988207Y-89017300D01*
X169288993Y-89017300D01*
X169734406Y-88928702D01*
X170239505Y-88591205D01*
X170408600Y-88338137D01*
X170577695Y-88591205D01*
X171082794Y-88928702D01*
X171528207Y-89017300D01*
X171828993Y-89017300D01*
X172274406Y-88928702D01*
X172779505Y-88591205D01*
X172948600Y-88338137D01*
X173117695Y-88591205D01*
X173622794Y-88928702D01*
X174068207Y-89017300D01*
X174368993Y-89017300D01*
X174814406Y-88928702D01*
X175319505Y-88591205D01*
X175657002Y-88086106D01*
X175775515Y-87490300D01*
X175657002Y-86894494D01*
X175319505Y-86389395D01*
X174814406Y-86051898D01*
X174368993Y-85963300D01*
X174068207Y-85963300D01*
X173622794Y-86051898D01*
X173117695Y-86389395D01*
X172948600Y-86642463D01*
X172779505Y-86389395D01*
X172274406Y-86051898D01*
X171828993Y-85963300D01*
X171528207Y-85963300D01*
X171082794Y-86051898D01*
X170577695Y-86389395D01*
X170408600Y-86642463D01*
X170239505Y-86389395D01*
X169734406Y-86051898D01*
X169288993Y-85963300D01*
X168988207Y-85963300D01*
X168542794Y-86051898D01*
X168037695Y-86389395D01*
X167868600Y-86642463D01*
X167699505Y-86389395D01*
X167194406Y-86051898D01*
X166748993Y-85963300D01*
X166448207Y-85963300D01*
X166002794Y-86051898D01*
X165497695Y-86389395D01*
X165328600Y-86642463D01*
X165159505Y-86389395D01*
X164654406Y-86051898D01*
X164208993Y-85963300D01*
X163908207Y-85963300D01*
X163462794Y-86051898D01*
X162957695Y-86389395D01*
X162788600Y-86642463D01*
X162619505Y-86389395D01*
X162114406Y-86051898D01*
X161668993Y-85963300D01*
X161368207Y-85963300D01*
X160922794Y-86051898D01*
X160417695Y-86389395D01*
X160248600Y-86642463D01*
X160079505Y-86389395D01*
X159574406Y-86051898D01*
X159128993Y-85963300D01*
X158828207Y-85963300D01*
X158382794Y-86051898D01*
X157877695Y-86389395D01*
X157641775Y-86742473D01*
X157590989Y-86635166D01*
X157176023Y-86259259D01*
X156787639Y-86098396D01*
X156565600Y-86220385D01*
X156565600Y-87363300D01*
X156585600Y-87363300D01*
X156585600Y-87617300D01*
X156565600Y-87617300D01*
X156565600Y-87637300D01*
X156311600Y-87637300D01*
X156311600Y-87617300D01*
X156291600Y-87617300D01*
X156291600Y-87363300D01*
X156311600Y-87363300D01*
X156311600Y-86220385D01*
X156089561Y-86098396D01*
X155701177Y-86259259D01*
X155286211Y-86635166D01*
X155235425Y-86742473D01*
X154999505Y-86389395D01*
X154494406Y-86051898D01*
X154048993Y-85963300D01*
X153748207Y-85963300D01*
X153302794Y-86051898D01*
X152797695Y-86389395D01*
X152628600Y-86642463D01*
X152459505Y-86389395D01*
X151954406Y-86051898D01*
X151508993Y-85963300D01*
X151208207Y-85963300D01*
X150762794Y-86051898D01*
X150257695Y-86389395D01*
X150088600Y-86642463D01*
X149919505Y-86389395D01*
X149414406Y-86051898D01*
X148968993Y-85963300D01*
X148668207Y-85963300D01*
X148222794Y-86051898D01*
X147717695Y-86389395D01*
X147548600Y-86642463D01*
X147379505Y-86389395D01*
X146874406Y-86051898D01*
X146428993Y-85963300D01*
X146128207Y-85963300D01*
X145682794Y-86051898D01*
X145177695Y-86389395D01*
X145008600Y-86642463D01*
X144839505Y-86389395D01*
X144334406Y-86051898D01*
X143888993Y-85963300D01*
X143588207Y-85963300D01*
X143142794Y-86051898D01*
X142661340Y-86373596D01*
X142522737Y-86166163D01*
X142282261Y-86005482D01*
X141998600Y-85949058D01*
X140398600Y-85949058D01*
X140114939Y-86005482D01*
X139874463Y-86166163D01*
X139713782Y-86406639D01*
X139657358Y-86690300D01*
X136770426Y-86690300D01*
X136798921Y-86647655D01*
X136921315Y-86032340D01*
X136827559Y-85561000D01*
X158442522Y-85561000D01*
X158545946Y-85664424D01*
X158960166Y-85836000D01*
X159408514Y-85836000D01*
X159822734Y-85664424D01*
X160139764Y-85347394D01*
X160311340Y-84933174D01*
X160311340Y-84484826D01*
X160253149Y-84344340D01*
X165432652Y-84344340D01*
X165516560Y-84361030D01*
X165600468Y-84344340D01*
X165600472Y-84344340D01*
X165848994Y-84294906D01*
X166130817Y-84106597D01*
X166178350Y-84035459D01*
X168844995Y-81368814D01*
X168988207Y-81397300D01*
X169288993Y-81397300D01*
X169734406Y-81308702D01*
X170239505Y-80971205D01*
X170408600Y-80718137D01*
X170577695Y-80971205D01*
X171082794Y-81308702D01*
X171528207Y-81397300D01*
X171828993Y-81397300D01*
X172274406Y-81308702D01*
X172779505Y-80971205D01*
X172948600Y-80718137D01*
X173117695Y-80971205D01*
X173622794Y-81308702D01*
X174068207Y-81397300D01*
X174368993Y-81397300D01*
X174814406Y-81308702D01*
X175319505Y-80971205D01*
X175657002Y-80466106D01*
X175775515Y-79870300D01*
X175658519Y-79282120D01*
X176695251Y-79282120D01*
X179880095Y-82466965D01*
X179874720Y-82479941D01*
X179874720Y-83087419D01*
X180107192Y-83648656D01*
X180536744Y-84078208D01*
X181097981Y-84310680D01*
X181705459Y-84310680D01*
X182266696Y-84078208D01*
X182696248Y-83648656D01*
X182928720Y-83087419D01*
X182928720Y-82776060D01*
X183733545Y-82776060D01*
X183852058Y-83371866D01*
X184189555Y-83876965D01*
X184694654Y-84214462D01*
X185140067Y-84303060D01*
X185440853Y-84303060D01*
X185886266Y-84214462D01*
X186391365Y-83876965D01*
X186728862Y-83371866D01*
X186847375Y-82776060D01*
X186791000Y-82492641D01*
X189305740Y-82492641D01*
X189305740Y-83100119D01*
X189538212Y-83661356D01*
X189967764Y-84090908D01*
X190529001Y-84323380D01*
X191136479Y-84323380D01*
X191697716Y-84090908D01*
X192127268Y-83661356D01*
X192359740Y-83100119D01*
X192359740Y-82796380D01*
X194724125Y-82796380D01*
X194842638Y-83392186D01*
X195180135Y-83897285D01*
X195685234Y-84234782D01*
X196130647Y-84323380D01*
X196431433Y-84323380D01*
X196876846Y-84234782D01*
X197381945Y-83897285D01*
X197719442Y-83392186D01*
X197837955Y-82796380D01*
X197807641Y-82643980D01*
X199994625Y-82643980D01*
X200113138Y-83239786D01*
X200450635Y-83744885D01*
X200955734Y-84082382D01*
X201401147Y-84170980D01*
X201701933Y-84170980D01*
X202147346Y-84082382D01*
X202652445Y-83744885D01*
X202765607Y-83575525D01*
X206171701Y-83575525D01*
X206245835Y-83821644D01*
X206783063Y-84014745D01*
X207353294Y-83987558D01*
X207753845Y-83821644D01*
X207827979Y-83575525D01*
X206999840Y-82747385D01*
X206171701Y-83575525D01*
X202765607Y-83575525D01*
X202989942Y-83239786D01*
X203108455Y-82643980D01*
X203050179Y-82351003D01*
X205552875Y-82351003D01*
X205580062Y-82921234D01*
X205745976Y-83321785D01*
X205992095Y-83395919D01*
X206820235Y-82567780D01*
X207179445Y-82567780D01*
X208007585Y-83395919D01*
X208253704Y-83321785D01*
X208446805Y-82784557D01*
X208423805Y-82302141D01*
X211073540Y-82302141D01*
X211073540Y-82909619D01*
X211306012Y-83470856D01*
X211735564Y-83900408D01*
X212296801Y-84132880D01*
X212904279Y-84132880D01*
X213465516Y-83900408D01*
X213895068Y-83470856D01*
X214127540Y-82909619D01*
X214127540Y-82302141D01*
X213895068Y-81740904D01*
X213465516Y-81311352D01*
X212904279Y-81078880D01*
X212296801Y-81078880D01*
X211735564Y-81311352D01*
X211306012Y-81740904D01*
X211073540Y-82302141D01*
X208423805Y-82302141D01*
X208419618Y-82214326D01*
X208253704Y-81813775D01*
X208007585Y-81739641D01*
X207179445Y-82567780D01*
X206820235Y-82567780D01*
X205992095Y-81739641D01*
X205745976Y-81813775D01*
X205552875Y-82351003D01*
X203050179Y-82351003D01*
X202989942Y-82048174D01*
X202663778Y-81560035D01*
X206171701Y-81560035D01*
X206999840Y-82388175D01*
X207827979Y-81560035D01*
X207753845Y-81313916D01*
X207216617Y-81120815D01*
X206646386Y-81148002D01*
X206245835Y-81313916D01*
X206171701Y-81560035D01*
X202663778Y-81560035D01*
X202652445Y-81543075D01*
X202147346Y-81205578D01*
X201701933Y-81116980D01*
X201401147Y-81116980D01*
X200955734Y-81205578D01*
X200450635Y-81543075D01*
X200113138Y-82048174D01*
X199994625Y-82643980D01*
X197807641Y-82643980D01*
X197719442Y-82200574D01*
X197381945Y-81695475D01*
X196876846Y-81357978D01*
X196431433Y-81269380D01*
X196130647Y-81269380D01*
X195685234Y-81357978D01*
X195180135Y-81695475D01*
X194842638Y-82200574D01*
X194724125Y-82796380D01*
X192359740Y-82796380D01*
X192359740Y-82492641D01*
X192127268Y-81931404D01*
X191697716Y-81501852D01*
X191136479Y-81269380D01*
X190529001Y-81269380D01*
X189967764Y-81501852D01*
X189538212Y-81931404D01*
X189305740Y-82492641D01*
X186791000Y-82492641D01*
X186728862Y-82180254D01*
X186391365Y-81675155D01*
X185886266Y-81337658D01*
X185440853Y-81249060D01*
X185140067Y-81249060D01*
X184694654Y-81337658D01*
X184189555Y-81675155D01*
X183852058Y-82180254D01*
X183733545Y-82776060D01*
X182928720Y-82776060D01*
X182928720Y-82479941D01*
X182696248Y-81918704D01*
X182311224Y-81533680D01*
X182696248Y-81148656D01*
X182928720Y-80587419D01*
X182928720Y-79979941D01*
X182696248Y-79418704D01*
X182266696Y-78989152D01*
X181705459Y-78756680D01*
X181097981Y-78756680D01*
X180536744Y-78989152D01*
X180107192Y-79418704D01*
X179874720Y-79979941D01*
X179874720Y-80051770D01*
X178009550Y-78186600D01*
X215947678Y-78186600D01*
X215947678Y-79710600D01*
X216004102Y-79994261D01*
X216164783Y-80234737D01*
X216405259Y-80395418D01*
X216688920Y-80451842D01*
X218212920Y-80451842D01*
X218496581Y-80395418D01*
X218737057Y-80234737D01*
X218897738Y-79994261D01*
X218954162Y-79710600D01*
X218954162Y-78186600D01*
X218897738Y-77902939D01*
X218737057Y-77662463D01*
X218500730Y-77504554D01*
X218713233Y-77292051D01*
X218939920Y-76744780D01*
X218939920Y-76152420D01*
X218713233Y-75605149D01*
X218294371Y-75186287D01*
X217747100Y-74959600D01*
X217154740Y-74959600D01*
X216607469Y-75186287D01*
X216188607Y-75605149D01*
X215961920Y-76152420D01*
X215961920Y-76744780D01*
X216188607Y-77292051D01*
X216401110Y-77504554D01*
X216164783Y-77662463D01*
X216004102Y-77902939D01*
X215947678Y-78186600D01*
X178009550Y-78186600D01*
X177709950Y-77887001D01*
X177662417Y-77815863D01*
X177380594Y-77627554D01*
X177132072Y-77578120D01*
X177132068Y-77578120D01*
X177048160Y-77561430D01*
X176964252Y-77578120D01*
X165170824Y-77578120D01*
X165318208Y-77430736D01*
X165550680Y-76869499D01*
X165550680Y-76262021D01*
X165318208Y-75700784D01*
X164888656Y-75271232D01*
X164327419Y-75038760D01*
X163719941Y-75038760D01*
X163158704Y-75271232D01*
X162773680Y-75656256D01*
X162388656Y-75271232D01*
X161827419Y-75038760D01*
X161219941Y-75038760D01*
X160658704Y-75271232D01*
X160229152Y-75700784D01*
X160146030Y-75901459D01*
X159850905Y-75459775D01*
X159345806Y-75122278D01*
X158900393Y-75033680D01*
X158599607Y-75033680D01*
X158154194Y-75122278D01*
X157649095Y-75459775D01*
X157311598Y-75964874D01*
X157193085Y-76560680D01*
X157311598Y-77156486D01*
X157593325Y-77578120D01*
X155422687Y-77578120D01*
X155338779Y-77561430D01*
X155254871Y-77578120D01*
X155254868Y-77578120D01*
X155006346Y-77627554D01*
X154724523Y-77815863D01*
X154676992Y-77886999D01*
X154192204Y-78371786D01*
X154048993Y-78343300D01*
X153748207Y-78343300D01*
X153302794Y-78431898D01*
X152797695Y-78769395D01*
X152628600Y-79022463D01*
X152459505Y-78769395D01*
X151954406Y-78431898D01*
X151508993Y-78343300D01*
X151208207Y-78343300D01*
X150762794Y-78431898D01*
X150257695Y-78769395D01*
X150088600Y-79022463D01*
X149919505Y-78769395D01*
X149414406Y-78431898D01*
X148968993Y-78343300D01*
X148668207Y-78343300D01*
X148222794Y-78431898D01*
X147717695Y-78769395D01*
X147548600Y-79022463D01*
X147379505Y-78769395D01*
X146874406Y-78431898D01*
X146428993Y-78343300D01*
X146128207Y-78343300D01*
X145682794Y-78431898D01*
X145177695Y-78769395D01*
X145008600Y-79022463D01*
X144839505Y-78769395D01*
X144334406Y-78431898D01*
X143888993Y-78343300D01*
X143588207Y-78343300D01*
X143142794Y-78431898D01*
X142637695Y-78769395D01*
X142468600Y-79022463D01*
X142299505Y-78769395D01*
X141794406Y-78431898D01*
X141348993Y-78343300D01*
X141048207Y-78343300D01*
X140602794Y-78431898D01*
X140097695Y-78769395D01*
X139760198Y-79274494D01*
X139641685Y-79870300D01*
X139760198Y-80466106D01*
X140097695Y-80971205D01*
X140602794Y-81308702D01*
X141002056Y-81388120D01*
X136722221Y-81388120D01*
X136754896Y-81309230D01*
X136633575Y-81079340D01*
X135440420Y-81079340D01*
X135440420Y-81099340D01*
X135186420Y-81099340D01*
X135186420Y-81079340D01*
X135166420Y-81079340D01*
X135166420Y-80825340D01*
X135186420Y-80825340D01*
X135186420Y-79631521D01*
X135440420Y-79631521D01*
X135440420Y-80825340D01*
X136633575Y-80825340D01*
X136754896Y-80595450D01*
X136585065Y-80185416D01*
X136194778Y-79757157D01*
X135670312Y-79510854D01*
X135440420Y-79631521D01*
X135186420Y-79631521D01*
X134956528Y-79510854D01*
X134432062Y-79757157D01*
X134320377Y-79879708D01*
X134308238Y-79818679D01*
X134147557Y-79578203D01*
X133907081Y-79417522D01*
X133623420Y-79361098D01*
X131923420Y-79361098D01*
X131639759Y-79417522D01*
X131399283Y-79578203D01*
X131238602Y-79818679D01*
X131182178Y-80102340D01*
X131182178Y-81802340D01*
X131238602Y-82086001D01*
X131399283Y-82326477D01*
X131576613Y-82444965D01*
X131287919Y-82877025D01*
X131165525Y-83492340D01*
X129802000Y-83492340D01*
X129802000Y-77568425D01*
X147761861Y-77568425D01*
X147835995Y-77814544D01*
X148373223Y-78007645D01*
X148943454Y-77980458D01*
X149344005Y-77814544D01*
X149418139Y-77568425D01*
X148590000Y-76740285D01*
X147761861Y-77568425D01*
X129802000Y-77568425D01*
X129802000Y-75188774D01*
X129995700Y-75188774D01*
X129995700Y-75786306D01*
X130224366Y-76338355D01*
X130646885Y-76760874D01*
X131198934Y-76989540D01*
X131796466Y-76989540D01*
X132348515Y-76760874D01*
X132771034Y-76338355D01*
X132999700Y-75786306D01*
X132999700Y-75773290D01*
X135087700Y-75773290D01*
X135087700Y-76388850D01*
X135184373Y-76622239D01*
X135363002Y-76800867D01*
X135596391Y-76897540D01*
X136211950Y-76897540D01*
X136370700Y-76738790D01*
X136370700Y-75614540D01*
X136624700Y-75614540D01*
X136624700Y-76738790D01*
X136783450Y-76897540D01*
X137399009Y-76897540D01*
X137632398Y-76800867D01*
X137811027Y-76622239D01*
X137907700Y-76388850D01*
X137907700Y-76343903D01*
X147143035Y-76343903D01*
X147170222Y-76914134D01*
X147336136Y-77314685D01*
X147582255Y-77388819D01*
X148410395Y-76560680D01*
X148769605Y-76560680D01*
X149597745Y-77388819D01*
X149843864Y-77314685D01*
X150036965Y-76777457D01*
X150009778Y-76207226D01*
X149843864Y-75806675D01*
X149597745Y-75732541D01*
X148769605Y-76560680D01*
X148410395Y-76560680D01*
X147582255Y-75732541D01*
X147336136Y-75806675D01*
X147143035Y-76343903D01*
X137907700Y-76343903D01*
X137907700Y-75773290D01*
X137748950Y-75614540D01*
X136624700Y-75614540D01*
X136370700Y-75614540D01*
X135246450Y-75614540D01*
X135087700Y-75773290D01*
X132999700Y-75773290D01*
X132999700Y-75552935D01*
X147761861Y-75552935D01*
X148590000Y-76381075D01*
X149418139Y-75552935D01*
X149344005Y-75306816D01*
X148806777Y-75113715D01*
X148236546Y-75140902D01*
X147835995Y-75306816D01*
X147761861Y-75552935D01*
X132999700Y-75552935D01*
X132999700Y-75188774D01*
X132771034Y-74636725D01*
X132720539Y-74586230D01*
X135087700Y-74586230D01*
X135087700Y-75201790D01*
X135246450Y-75360540D01*
X136370700Y-75360540D01*
X136370700Y-74236290D01*
X136624700Y-74236290D01*
X136624700Y-75360540D01*
X137748950Y-75360540D01*
X137907700Y-75201790D01*
X137907700Y-74586230D01*
X137811027Y-74352841D01*
X137632398Y-74174213D01*
X137399009Y-74077540D01*
X136783450Y-74077540D01*
X136624700Y-74236290D01*
X136370700Y-74236290D01*
X136211950Y-74077540D01*
X135596391Y-74077540D01*
X135363002Y-74174213D01*
X135184373Y-74352841D01*
X135087700Y-74586230D01*
X132720539Y-74586230D01*
X132348515Y-74214206D01*
X131922694Y-74037825D01*
X170774261Y-74037825D01*
X170848395Y-74283944D01*
X171385623Y-74477045D01*
X171955854Y-74449858D01*
X172356405Y-74283944D01*
X172430539Y-74037825D01*
X171602400Y-73209685D01*
X170774261Y-74037825D01*
X131922694Y-74037825D01*
X131796466Y-73985540D01*
X131198934Y-73985540D01*
X130646885Y-74214206D01*
X130224366Y-74636725D01*
X129995700Y-75188774D01*
X129802000Y-75188774D01*
X129802000Y-72813303D01*
X170155435Y-72813303D01*
X170182622Y-73383534D01*
X170348536Y-73784085D01*
X170594655Y-73858219D01*
X171422795Y-73030080D01*
X171782005Y-73030080D01*
X172610145Y-73858219D01*
X172856264Y-73784085D01*
X173049365Y-73246857D01*
X173039030Y-73030080D01*
X180205485Y-73030080D01*
X180323998Y-73625886D01*
X180661495Y-74130985D01*
X181166594Y-74468482D01*
X181612007Y-74557080D01*
X181912793Y-74557080D01*
X182358206Y-74468482D01*
X182863305Y-74130985D01*
X183200802Y-73625886D01*
X183319315Y-73030080D01*
X183200802Y-72434274D01*
X183119316Y-72312321D01*
X183763460Y-72312321D01*
X183763460Y-72919799D01*
X183995932Y-73481036D01*
X184425484Y-73910588D01*
X184986721Y-74143060D01*
X185594199Y-74143060D01*
X186155436Y-73910588D01*
X186584988Y-73481036D01*
X186817460Y-72919799D01*
X186817460Y-72636380D01*
X189275825Y-72636380D01*
X189394338Y-73232186D01*
X189731835Y-73737285D01*
X190236934Y-74074782D01*
X190682347Y-74163380D01*
X190983133Y-74163380D01*
X191428546Y-74074782D01*
X191933645Y-73737285D01*
X192271142Y-73232186D01*
X192389655Y-72636380D01*
X192329238Y-72332641D01*
X194754040Y-72332641D01*
X194754040Y-72940119D01*
X194986512Y-73501356D01*
X195416064Y-73930908D01*
X195977301Y-74163380D01*
X196584779Y-74163380D01*
X197146016Y-73930908D01*
X197575568Y-73501356D01*
X197579557Y-73491725D01*
X200723401Y-73491725D01*
X200797535Y-73737844D01*
X201334763Y-73930945D01*
X201904994Y-73903758D01*
X202305545Y-73737844D01*
X202379679Y-73491725D01*
X201551540Y-72663585D01*
X200723401Y-73491725D01*
X197579557Y-73491725D01*
X197808040Y-72940119D01*
X197808040Y-72332641D01*
X197780935Y-72267203D01*
X200104575Y-72267203D01*
X200131762Y-72837434D01*
X200297676Y-73237985D01*
X200543795Y-73312119D01*
X201371935Y-72483980D01*
X201731145Y-72483980D01*
X202559285Y-73312119D01*
X202805404Y-73237985D01*
X202998505Y-72700757D01*
X202984537Y-72407780D01*
X205442925Y-72407780D01*
X205561438Y-73003586D01*
X205898935Y-73508685D01*
X206404034Y-73846182D01*
X206849447Y-73934780D01*
X207150233Y-73934780D01*
X207595646Y-73846182D01*
X208100745Y-73508685D01*
X208438242Y-73003586D01*
X208549176Y-72445880D01*
X211043625Y-72445880D01*
X211162138Y-73041686D01*
X211499635Y-73546785D01*
X212004734Y-73884282D01*
X212450147Y-73972880D01*
X212750933Y-73972880D01*
X213196346Y-73884282D01*
X213701445Y-73546785D01*
X214038942Y-73041686D01*
X214157455Y-72445880D01*
X214038942Y-71850074D01*
X213701445Y-71344975D01*
X213196346Y-71007478D01*
X212750933Y-70918880D01*
X212450147Y-70918880D01*
X212004734Y-71007478D01*
X211499635Y-71344975D01*
X211162138Y-71850074D01*
X211043625Y-72445880D01*
X208549176Y-72445880D01*
X208556755Y-72407780D01*
X208438242Y-71811974D01*
X208100745Y-71306875D01*
X207595646Y-70969378D01*
X207150233Y-70880780D01*
X206849447Y-70880780D01*
X206404034Y-70969378D01*
X205898935Y-71306875D01*
X205561438Y-71811974D01*
X205442925Y-72407780D01*
X202984537Y-72407780D01*
X202971318Y-72130526D01*
X202805404Y-71729975D01*
X202559285Y-71655841D01*
X201731145Y-72483980D01*
X201371935Y-72483980D01*
X200543795Y-71655841D01*
X200297676Y-71729975D01*
X200104575Y-72267203D01*
X197780935Y-72267203D01*
X197575568Y-71771404D01*
X197280399Y-71476235D01*
X200723401Y-71476235D01*
X201551540Y-72304375D01*
X202379679Y-71476235D01*
X202305545Y-71230116D01*
X201768317Y-71037015D01*
X201198086Y-71064202D01*
X200797535Y-71230116D01*
X200723401Y-71476235D01*
X197280399Y-71476235D01*
X197146016Y-71341852D01*
X196584779Y-71109380D01*
X195977301Y-71109380D01*
X195416064Y-71341852D01*
X194986512Y-71771404D01*
X194754040Y-72332641D01*
X192329238Y-72332641D01*
X192271142Y-72040574D01*
X191933645Y-71535475D01*
X191428546Y-71197978D01*
X190983133Y-71109380D01*
X190682347Y-71109380D01*
X190236934Y-71197978D01*
X189731835Y-71535475D01*
X189394338Y-72040574D01*
X189275825Y-72636380D01*
X186817460Y-72636380D01*
X186817460Y-72312321D01*
X186584988Y-71751084D01*
X186155436Y-71321532D01*
X185594199Y-71089060D01*
X184986721Y-71089060D01*
X184425484Y-71321532D01*
X183995932Y-71751084D01*
X183763460Y-72312321D01*
X183119316Y-72312321D01*
X182863305Y-71929175D01*
X182358206Y-71591678D01*
X181912793Y-71503080D01*
X181612007Y-71503080D01*
X181166594Y-71591678D01*
X180661495Y-71929175D01*
X180323998Y-72434274D01*
X180205485Y-73030080D01*
X173039030Y-73030080D01*
X173022178Y-72676626D01*
X172856264Y-72276075D01*
X172610145Y-72201941D01*
X171782005Y-73030080D01*
X171422795Y-73030080D01*
X170594655Y-72201941D01*
X170348536Y-72276075D01*
X170155435Y-72813303D01*
X129802000Y-72813303D01*
X129802000Y-72022335D01*
X170774261Y-72022335D01*
X171602400Y-72850475D01*
X172430539Y-72022335D01*
X172356405Y-71776216D01*
X171819177Y-71583115D01*
X171248946Y-71610302D01*
X170848395Y-71776216D01*
X170774261Y-72022335D01*
X129802000Y-72022335D01*
X129802000Y-70188774D01*
X132495700Y-70188774D01*
X132495700Y-70786306D01*
X132724366Y-71338355D01*
X133146885Y-71760874D01*
X133698934Y-71989540D01*
X134296466Y-71989540D01*
X134848515Y-71760874D01*
X135271034Y-71338355D01*
X135499700Y-70786306D01*
X135499700Y-70188774D01*
X135271034Y-69636725D01*
X134848515Y-69214206D01*
X134296466Y-68985540D01*
X133698934Y-68985540D01*
X133146885Y-69214206D01*
X132724366Y-69636725D01*
X132495700Y-70188774D01*
X129802000Y-70188774D01*
X129802000Y-67883022D01*
X138489000Y-67883022D01*
X138489000Y-68768978D01*
X138828040Y-69587494D01*
X139454506Y-70213960D01*
X140273022Y-70553000D01*
X141158978Y-70553000D01*
X141977494Y-70213960D01*
X142603960Y-69587494D01*
X142943000Y-68768978D01*
X142943000Y-67883022D01*
X142805970Y-67552200D01*
X144606078Y-67552200D01*
X144606078Y-69252200D01*
X144662502Y-69535861D01*
X144823183Y-69776337D01*
X145063659Y-69937018D01*
X145347320Y-69993442D01*
X147047320Y-69993442D01*
X147330981Y-69937018D01*
X147571457Y-69776337D01*
X147732138Y-69535861D01*
X147745466Y-69468858D01*
X147970396Y-69673845D01*
X148380430Y-69843676D01*
X148610320Y-69722355D01*
X148610320Y-68529200D01*
X148590320Y-68529200D01*
X148590320Y-68275200D01*
X148610320Y-68275200D01*
X148610320Y-67082045D01*
X148864320Y-67082045D01*
X148864320Y-68275200D01*
X148884320Y-68275200D01*
X148884320Y-68529200D01*
X148864320Y-68529200D01*
X148864320Y-69722355D01*
X149094210Y-69843676D01*
X149504244Y-69673845D01*
X149932503Y-69283558D01*
X149947808Y-69250968D01*
X150140367Y-69539153D01*
X150662005Y-69887701D01*
X151122001Y-69979200D01*
X151432639Y-69979200D01*
X151892635Y-69887701D01*
X152414273Y-69539153D01*
X152547320Y-69340034D01*
X152680367Y-69539153D01*
X153202005Y-69887701D01*
X153662001Y-69979200D01*
X153972639Y-69979200D01*
X154432635Y-69887701D01*
X154954273Y-69539153D01*
X155087320Y-69340034D01*
X155220367Y-69539153D01*
X155742005Y-69887701D01*
X156202001Y-69979200D01*
X156512639Y-69979200D01*
X156972635Y-69887701D01*
X157494273Y-69539153D01*
X157627320Y-69340034D01*
X157760367Y-69539153D01*
X158282005Y-69887701D01*
X158742001Y-69979200D01*
X159052639Y-69979200D01*
X159512635Y-69887701D01*
X160034273Y-69539153D01*
X160167320Y-69340034D01*
X160300367Y-69539153D01*
X160822005Y-69887701D01*
X161282001Y-69979200D01*
X161592639Y-69979200D01*
X162052635Y-69887701D01*
X162574273Y-69539153D01*
X162707320Y-69340034D01*
X162840367Y-69539153D01*
X163362005Y-69887701D01*
X163822001Y-69979200D01*
X164132639Y-69979200D01*
X164592635Y-69887701D01*
X165114273Y-69539153D01*
X165247320Y-69340034D01*
X165380367Y-69539153D01*
X165902005Y-69887701D01*
X166362001Y-69979200D01*
X166672639Y-69979200D01*
X167132635Y-69887701D01*
X167654273Y-69539153D01*
X167787320Y-69340034D01*
X167920367Y-69539153D01*
X168442005Y-69887701D01*
X168902001Y-69979200D01*
X169212639Y-69979200D01*
X169672635Y-69887701D01*
X170194273Y-69539153D01*
X170327320Y-69340034D01*
X170460367Y-69539153D01*
X170982005Y-69887701D01*
X171442001Y-69979200D01*
X171752639Y-69979200D01*
X172212635Y-69887701D01*
X172734273Y-69539153D01*
X172867320Y-69340034D01*
X173000367Y-69539153D01*
X173522005Y-69887701D01*
X173982001Y-69979200D01*
X174292639Y-69979200D01*
X174752635Y-69887701D01*
X175274273Y-69539153D01*
X175407320Y-69340034D01*
X175540367Y-69539153D01*
X176062005Y-69887701D01*
X176522001Y-69979200D01*
X176832639Y-69979200D01*
X177292635Y-69887701D01*
X177814273Y-69539153D01*
X177947320Y-69340034D01*
X178080367Y-69539153D01*
X178602005Y-69887701D01*
X179062001Y-69979200D01*
X179372639Y-69979200D01*
X179832635Y-69887701D01*
X180354273Y-69539153D01*
X180487320Y-69340034D01*
X180620367Y-69539153D01*
X181142005Y-69887701D01*
X181602001Y-69979200D01*
X181912639Y-69979200D01*
X182372635Y-69887701D01*
X182894273Y-69539153D01*
X183027320Y-69340034D01*
X183160367Y-69539153D01*
X183682005Y-69887701D01*
X184142001Y-69979200D01*
X184452639Y-69979200D01*
X184912635Y-69887701D01*
X185434273Y-69539153D01*
X185782821Y-69017515D01*
X185905215Y-68402200D01*
X185863997Y-68194981D01*
X198985680Y-68194981D01*
X198985680Y-68802459D01*
X199218152Y-69363696D01*
X199647704Y-69793248D01*
X200208941Y-70025720D01*
X200816419Y-70025720D01*
X201377656Y-69793248D01*
X201762680Y-69408224D01*
X202147704Y-69793248D01*
X202708941Y-70025720D01*
X203316419Y-70025720D01*
X203877656Y-69793248D01*
X204307208Y-69363696D01*
X204539680Y-68802459D01*
X204539680Y-68194981D01*
X204410463Y-67883022D01*
X213469800Y-67883022D01*
X213469800Y-68768978D01*
X213808840Y-69587494D01*
X214435306Y-70213960D01*
X215253822Y-70553000D01*
X216139778Y-70553000D01*
X216958294Y-70213960D01*
X217584760Y-69587494D01*
X217923800Y-68768978D01*
X217923800Y-67883022D01*
X217584760Y-67064506D01*
X216958294Y-66438040D01*
X216139778Y-66099000D01*
X215253822Y-66099000D01*
X214435306Y-66438040D01*
X213808840Y-67064506D01*
X213469800Y-67883022D01*
X204410463Y-67883022D01*
X204307208Y-67633744D01*
X203877656Y-67204192D01*
X203316419Y-66971720D01*
X202708941Y-66971720D01*
X202147704Y-67204192D01*
X201762680Y-67589216D01*
X201377656Y-67204192D01*
X200816419Y-66971720D01*
X200208941Y-66971720D01*
X199647704Y-67204192D01*
X199218152Y-67633744D01*
X198985680Y-68194981D01*
X185863997Y-68194981D01*
X185782821Y-67786885D01*
X185434273Y-67265247D01*
X184912635Y-66916699D01*
X184452639Y-66825200D01*
X184142001Y-66825200D01*
X183682005Y-66916699D01*
X183160367Y-67265247D01*
X183027320Y-67464366D01*
X182894273Y-67265247D01*
X182372635Y-66916699D01*
X181912639Y-66825200D01*
X181602001Y-66825200D01*
X181142005Y-66916699D01*
X180620367Y-67265247D01*
X180487320Y-67464366D01*
X180354273Y-67265247D01*
X179832635Y-66916699D01*
X179372639Y-66825200D01*
X179062001Y-66825200D01*
X178602005Y-66916699D01*
X178080367Y-67265247D01*
X177947320Y-67464366D01*
X177814273Y-67265247D01*
X177292635Y-66916699D01*
X176832639Y-66825200D01*
X176522001Y-66825200D01*
X176062005Y-66916699D01*
X175540367Y-67265247D01*
X175407320Y-67464366D01*
X175274273Y-67265247D01*
X174752635Y-66916699D01*
X174292639Y-66825200D01*
X173982001Y-66825200D01*
X173522005Y-66916699D01*
X173000367Y-67265247D01*
X172867320Y-67464366D01*
X172734273Y-67265247D01*
X172212635Y-66916699D01*
X171752639Y-66825200D01*
X171442001Y-66825200D01*
X170982005Y-66916699D01*
X170460367Y-67265247D01*
X170327320Y-67464366D01*
X170194273Y-67265247D01*
X169672635Y-66916699D01*
X169212639Y-66825200D01*
X168902001Y-66825200D01*
X168442005Y-66916699D01*
X167920367Y-67265247D01*
X167787320Y-67464366D01*
X167654273Y-67265247D01*
X167132635Y-66916699D01*
X166672639Y-66825200D01*
X166362001Y-66825200D01*
X165902005Y-66916699D01*
X165380367Y-67265247D01*
X165247320Y-67464366D01*
X165114273Y-67265247D01*
X164592635Y-66916699D01*
X164132639Y-66825200D01*
X163822001Y-66825200D01*
X163362005Y-66916699D01*
X162840367Y-67265247D01*
X162707320Y-67464366D01*
X162574273Y-67265247D01*
X162052635Y-66916699D01*
X161592639Y-66825200D01*
X161282001Y-66825200D01*
X160822005Y-66916699D01*
X160300367Y-67265247D01*
X160167320Y-67464366D01*
X160034273Y-67265247D01*
X159512635Y-66916699D01*
X159052639Y-66825200D01*
X158742001Y-66825200D01*
X158282005Y-66916699D01*
X157760367Y-67265247D01*
X157627320Y-67464366D01*
X157494273Y-67265247D01*
X156972635Y-66916699D01*
X156512639Y-66825200D01*
X156202001Y-66825200D01*
X155742005Y-66916699D01*
X155220367Y-67265247D01*
X155087320Y-67464366D01*
X154954273Y-67265247D01*
X154432635Y-66916699D01*
X153972639Y-66825200D01*
X153662001Y-66825200D01*
X153202005Y-66916699D01*
X152680367Y-67265247D01*
X152547320Y-67464366D01*
X152414273Y-67265247D01*
X151892635Y-66916699D01*
X151432639Y-66825200D01*
X151122001Y-66825200D01*
X150662005Y-66916699D01*
X150140367Y-67265247D01*
X149947808Y-67553432D01*
X149932503Y-67520842D01*
X149504244Y-67130555D01*
X149094210Y-66960724D01*
X148864320Y-67082045D01*
X148610320Y-67082045D01*
X148380430Y-66960724D01*
X147970396Y-67130555D01*
X147745466Y-67335542D01*
X147732138Y-67268539D01*
X147571457Y-67028063D01*
X147330981Y-66867382D01*
X147047320Y-66810958D01*
X145347320Y-66810958D01*
X145063659Y-66867382D01*
X144823183Y-67028063D01*
X144662502Y-67268539D01*
X144606078Y-67552200D01*
X142805970Y-67552200D01*
X142603960Y-67064506D01*
X141977494Y-66438040D01*
X141158978Y-66099000D01*
X140273022Y-66099000D01*
X139454506Y-66438040D01*
X138828040Y-67064506D01*
X138489000Y-67883022D01*
X129802000Y-67883022D01*
X129802000Y-64802000D01*
X219198001Y-64802000D01*
X219198000Y-102698000D01*
G04 #@! TD*
M02*
