G04 #@! TF.GenerationSoftware,KiCad,Pcbnew,(5.0.2)-1*
G04 #@! TF.CreationDate,2019-05-19T15:52:53+03:00*
G04 #@! TF.ProjectId,Skanas_frekvences_noteiksana,536b616e-6173-45f6-9672-656b76656e63,rev?*
G04 #@! TF.SameCoordinates,Original*
G04 #@! TF.FileFunction,Copper,L2,Bot*
G04 #@! TF.FilePolarity,Positive*
%FSLAX46Y46*%
G04 Gerber Fmt 4.6, Leading zero omitted, Abs format (unit mm)*
G04 Created by KiCad (PCBNEW (5.0.2)-1) date 5/19/2019 15:52:53*
%MOMM*%
%LPD*%
G01*
G04 APERTURE LIST*
G04 #@! TA.AperFunction,ComponentPad*
%ADD10O,1.600000X1.600000*%
G04 #@! TD*
G04 #@! TA.AperFunction,ComponentPad*
%ADD11C,1.600000*%
G04 #@! TD*
G04 #@! TA.AperFunction,ComponentPad*
%ADD12C,1.524000*%
G04 #@! TD*
G04 #@! TA.AperFunction,ComponentPad*
%ADD13R,1.524000X1.524000*%
G04 #@! TD*
G04 #@! TA.AperFunction,ComponentPad*
%ADD14C,1.550000*%
G04 #@! TD*
G04 #@! TA.AperFunction,ComponentPad*
%ADD15R,1.550000X1.550000*%
G04 #@! TD*
G04 #@! TA.AperFunction,ComponentPad*
%ADD16C,2.000000*%
G04 #@! TD*
G04 #@! TA.AperFunction,ComponentPad*
%ADD17O,1.700000X1.700000*%
G04 #@! TD*
G04 #@! TA.AperFunction,ComponentPad*
%ADD18R,1.700000X1.700000*%
G04 #@! TD*
G04 #@! TA.AperFunction,ComponentPad*
%ADD19R,1.600000X1.600000*%
G04 #@! TD*
G04 #@! TA.AperFunction,ComponentPad*
%ADD20C,1.500000*%
G04 #@! TD*
G04 #@! TA.AperFunction,ComponentPad*
%ADD21C,3.000000*%
G04 #@! TD*
G04 #@! TA.AperFunction,ViaPad*
%ADD22C,0.800000*%
G04 #@! TD*
G04 #@! TA.AperFunction,Conductor*
%ADD23C,0.250000*%
G04 #@! TD*
G04 #@! TA.AperFunction,Conductor*
%ADD24C,0.254000*%
G04 #@! TD*
G04 APERTURE END LIST*
D10*
G04 #@! TO.P,R3,2*
G04 #@! TO.N,Net-(R3-Pad2)*
X201551540Y-82643980D03*
D11*
G04 #@! TO.P,R3,1*
G04 #@! TO.N,VCC*
X201551540Y-72483980D03*
G04 #@! TD*
G04 #@! TO.P,R5,1*
G04 #@! TO.N,Net-(R2-Pad2)*
X190832740Y-82796380D03*
D10*
G04 #@! TO.P,R5,2*
G04 #@! TO.N,Net-(R5-Pad2)*
X190832740Y-72636380D03*
G04 #@! TD*
D12*
G04 #@! TO.P,MK1,2*
G04 #@! TO.N,Net-(C1-Pad2)*
X217450920Y-76448600D03*
D13*
G04 #@! TO.P,MK1,1*
G04 #@! TO.N,Earth*
X217450920Y-78948600D03*
G04 #@! TD*
D14*
G04 #@! TO.P,RV1,3*
G04 #@! TO.N,Earth*
X131497700Y-75487540D03*
D15*
G04 #@! TO.P,RV1,1*
G04 #@! TO.N,VCC*
X136497700Y-75487540D03*
D14*
G04 #@! TO.P,RV1,2*
G04 #@! TO.N,Net-(J3-Pad3)*
X133997700Y-70487540D03*
G04 #@! TD*
D16*
G04 #@! TO.P,SW1,2*
G04 #@! TO.N,Earth*
X131867520Y-93967300D03*
G04 #@! TO.P,SW1,1*
G04 #@! TO.N,RST*
X136367520Y-93967300D03*
G04 #@! TO.P,SW1,2*
G04 #@! TO.N,Earth*
X131867520Y-100467300D03*
G04 #@! TO.P,SW1,1*
G04 #@! TO.N,RST*
X136367520Y-100467300D03*
G04 #@! TD*
D17*
G04 #@! TO.P,J2,6*
G04 #@! TO.N,Earth*
X135313420Y-86032340D03*
G04 #@! TO.P,J2,5*
G04 #@! TO.N,RST*
X132773420Y-86032340D03*
G04 #@! TO.P,J2,4*
G04 #@! TO.N,Net-(J2-Pad4)*
X135313420Y-83492340D03*
G04 #@! TO.P,J2,3*
G04 #@! TO.N,Net-(J2-Pad3)*
X132773420Y-83492340D03*
G04 #@! TO.P,J2,2*
G04 #@! TO.N,VCC*
X135313420Y-80952340D03*
D18*
G04 #@! TO.P,J2,1*
G04 #@! TO.N,Net-(J2-Pad1)*
X132773420Y-80952340D03*
G04 #@! TD*
D10*
G04 #@! TO.P,R6,2*
G04 #@! TO.N,Net-(C6-Pad1)*
X185290460Y-82776060D03*
D11*
G04 #@! TO.P,R6,1*
G04 #@! TO.N,Net-(R5-Pad2)*
X185290460Y-72616060D03*
G04 #@! TD*
G04 #@! TO.P,C6,1*
G04 #@! TO.N,Net-(C6-Pad1)*
X181401720Y-82783680D03*
G04 #@! TO.P,C6,2*
G04 #@! TO.N,Earth*
X181401720Y-80283680D03*
G04 #@! TD*
D10*
G04 #@! TO.P,U2,28*
G04 #@! TO.N,Net-(U2-Pad28)*
X141198600Y-79870300D03*
G04 #@! TO.P,U2,14*
G04 #@! TO.N,Net-(U2-Pad14)*
X174218600Y-87490300D03*
G04 #@! TO.P,U2,27*
G04 #@! TO.N,Net-(U2-Pad27)*
X143738600Y-79870300D03*
G04 #@! TO.P,U2,13*
G04 #@! TO.N,Net-(J3-Pad14)*
X171678600Y-87490300D03*
G04 #@! TO.P,U2,26*
G04 #@! TO.N,Net-(U2-Pad26)*
X146278600Y-79870300D03*
G04 #@! TO.P,U2,12*
G04 #@! TO.N,Net-(J3-Pad13)*
X169138600Y-87490300D03*
G04 #@! TO.P,U2,25*
G04 #@! TO.N,Net-(U2-Pad25)*
X148818600Y-79870300D03*
G04 #@! TO.P,U2,11*
G04 #@! TO.N,Net-(J3-Pad12)*
X166598600Y-87490300D03*
G04 #@! TO.P,U2,24*
G04 #@! TO.N,Net-(U2-Pad24)*
X151358600Y-79870300D03*
G04 #@! TO.P,U2,10*
G04 #@! TO.N,Net-(C7-Pad2)*
X164058600Y-87490300D03*
G04 #@! TO.P,U2,23*
G04 #@! TO.N,Net-(C6-Pad1)*
X153898600Y-79870300D03*
G04 #@! TO.P,U2,9*
G04 #@! TO.N,Net-(C5-Pad2)*
X161518600Y-87490300D03*
G04 #@! TO.P,U2,22*
G04 #@! TO.N,Earth*
X156438600Y-79870300D03*
G04 #@! TO.P,U2,8*
X158978600Y-87490300D03*
G04 #@! TO.P,U2,21*
G04 #@! TO.N,Net-(U2-Pad21)*
X158978600Y-79870300D03*
G04 #@! TO.P,U2,7*
G04 #@! TO.N,VCC*
X156438600Y-87490300D03*
G04 #@! TO.P,U2,20*
G04 #@! TO.N,Net-(C3-Pad2)*
X161518600Y-79870300D03*
G04 #@! TO.P,U2,6*
G04 #@! TO.N,Net-(J3-Pad11)*
X153898600Y-87490300D03*
G04 #@! TO.P,U2,19*
G04 #@! TO.N,Net-(J2-Pad3)*
X164058600Y-79870300D03*
G04 #@! TO.P,U2,5*
G04 #@! TO.N,Net-(J3-Pad6)*
X151358600Y-87490300D03*
G04 #@! TO.P,U2,18*
G04 #@! TO.N,Net-(J2-Pad1)*
X166598600Y-79870300D03*
G04 #@! TO.P,U2,4*
G04 #@! TO.N,Net-(J3-Pad4)*
X148818600Y-87490300D03*
G04 #@! TO.P,U2,17*
G04 #@! TO.N,Net-(J2-Pad4)*
X169138600Y-79870300D03*
G04 #@! TO.P,U2,3*
G04 #@! TO.N,Net-(U2-Pad3)*
X146278600Y-87490300D03*
G04 #@! TO.P,U2,16*
G04 #@! TO.N,Net-(U2-Pad16)*
X171678600Y-79870300D03*
G04 #@! TO.P,U2,2*
G04 #@! TO.N,Net-(U2-Pad2)*
X143738600Y-87490300D03*
G04 #@! TO.P,U2,15*
G04 #@! TO.N,Net-(U2-Pad15)*
X174218600Y-79870300D03*
D19*
G04 #@! TO.P,U2,1*
G04 #@! TO.N,RST*
X141198600Y-87490300D03*
G04 #@! TD*
D10*
G04 #@! TO.P,R2,2*
G04 #@! TO.N,Net-(R2-Pad2)*
X196281040Y-82796380D03*
D11*
G04 #@! TO.P,R2,1*
G04 #@! TO.N,Net-(C1-Pad1)*
X196281040Y-72636380D03*
G04 #@! TD*
G04 #@! TO.P,C1,2*
G04 #@! TO.N,Net-(C1-Pad2)*
X203012680Y-68498720D03*
G04 #@! TO.P,C1,1*
G04 #@! TO.N,Net-(C1-Pad1)*
X200512680Y-68498720D03*
G04 #@! TD*
G04 #@! TO.P,C8,2*
G04 #@! TO.N,RST*
X139552040Y-93964760D03*
G04 #@! TO.P,C8,1*
G04 #@! TO.N,Earth*
X142052040Y-93964760D03*
G04 #@! TD*
G04 #@! TO.P,R8,1*
G04 #@! TO.N,VCC*
X149722840Y-90647520D03*
D10*
G04 #@! TO.P,R8,2*
G04 #@! TO.N,RST*
X139562840Y-90647520D03*
G04 #@! TD*
D11*
G04 #@! TO.P,R7,1*
G04 #@! TO.N,VCC*
X171602400Y-73030080D03*
D10*
G04 #@! TO.P,R7,2*
G04 #@! TO.N,Net-(J3-Pad15)*
X181762400Y-73030080D03*
G04 #@! TD*
D11*
G04 #@! TO.P,L1,1*
G04 #@! TO.N,VCC*
X148590000Y-76560680D03*
D10*
G04 #@! TO.P,L1,2*
G04 #@! TO.N,Net-(C3-Pad2)*
X158750000Y-76560680D03*
G04 #@! TD*
D11*
G04 #@! TO.P,C3,2*
G04 #@! TO.N,Net-(C3-Pad2)*
X161523680Y-76565760D03*
G04 #@! TO.P,C3,1*
G04 #@! TO.N,Earth*
X164023680Y-76565760D03*
G04 #@! TD*
D20*
G04 #@! TO.P,Y1,1*
G04 #@! TO.N,Net-(C5-Pad2)*
X160345120Y-96626680D03*
G04 #@! TO.P,Y1,2*
G04 #@! TO.N,Net-(C7-Pad2)*
X165245120Y-96626680D03*
G04 #@! TD*
D11*
G04 #@! TO.P,C5,2*
G04 #@! TO.N,Net-(C5-Pad2)*
X161523680Y-90799920D03*
G04 #@! TO.P,C5,1*
G04 #@! TO.N,Earth*
X159023680Y-90799920D03*
G04 #@! TD*
G04 #@! TO.P,C7,1*
G04 #@! TO.N,Earth*
X166553520Y-90774520D03*
G04 #@! TO.P,C7,2*
G04 #@! TO.N,Net-(C7-Pad2)*
X164053520Y-90774520D03*
G04 #@! TD*
D17*
G04 #@! TO.P,J3,16*
G04 #@! TO.N,Earth*
X184297320Y-68402200D03*
G04 #@! TO.P,J3,15*
G04 #@! TO.N,Net-(J3-Pad15)*
X181757320Y-68402200D03*
G04 #@! TO.P,J3,14*
G04 #@! TO.N,Net-(J3-Pad14)*
X179217320Y-68402200D03*
G04 #@! TO.P,J3,13*
G04 #@! TO.N,Net-(J3-Pad13)*
X176677320Y-68402200D03*
G04 #@! TO.P,J3,12*
G04 #@! TO.N,Net-(J3-Pad12)*
X174137320Y-68402200D03*
G04 #@! TO.P,J3,11*
G04 #@! TO.N,Net-(J3-Pad11)*
X171597320Y-68402200D03*
G04 #@! TO.P,J3,10*
G04 #@! TO.N,Net-(J3-Pad10)*
X169057320Y-68402200D03*
G04 #@! TO.P,J3,9*
G04 #@! TO.N,Net-(J3-Pad9)*
X166517320Y-68402200D03*
G04 #@! TO.P,J3,8*
G04 #@! TO.N,Net-(J3-Pad8)*
X163977320Y-68402200D03*
G04 #@! TO.P,J3,7*
G04 #@! TO.N,Net-(J3-Pad7)*
X161437320Y-68402200D03*
G04 #@! TO.P,J3,6*
G04 #@! TO.N,Net-(J3-Pad6)*
X158897320Y-68402200D03*
G04 #@! TO.P,J3,5*
G04 #@! TO.N,Earth*
X156357320Y-68402200D03*
G04 #@! TO.P,J3,4*
G04 #@! TO.N,Net-(J3-Pad4)*
X153817320Y-68402200D03*
G04 #@! TO.P,J3,3*
G04 #@! TO.N,Net-(J3-Pad3)*
X151277320Y-68402200D03*
G04 #@! TO.P,J3,2*
G04 #@! TO.N,VCC*
X148737320Y-68402200D03*
D18*
G04 #@! TO.P,J3,1*
G04 #@! TO.N,Earth*
X146197320Y-68402200D03*
G04 #@! TD*
D11*
G04 #@! TO.P,C4,1*
G04 #@! TO.N,VCC*
X152847040Y-90093800D03*
G04 #@! TO.P,C4,2*
G04 #@! TO.N,Earth*
X152847040Y-92593800D03*
G04 #@! TD*
G04 #@! TO.P,C2,2*
G04 #@! TO.N,Earth*
X156215080Y-92593800D03*
G04 #@! TO.P,C2,1*
G04 #@! TO.N,VCC*
X156215080Y-90093800D03*
G04 #@! TD*
G04 #@! TO.P,R4,1*
G04 #@! TO.N,Net-(R3-Pad2)*
X212600540Y-82605880D03*
D10*
G04 #@! TO.P,R4,2*
G04 #@! TO.N,Earth*
X212600540Y-72445880D03*
G04 #@! TD*
D11*
G04 #@! TO.P,R1,1*
G04 #@! TO.N,VCC*
X206999840Y-82567780D03*
D10*
G04 #@! TO.P,R1,2*
G04 #@! TO.N,Net-(C1-Pad2)*
X206999840Y-72407780D03*
G04 #@! TD*
D21*
G04 #@! TO.P,,*
G04 #@! TO.N,*
X215696800Y-99314000D03*
G04 #@! TD*
G04 #@! TO.P,,*
G04 #@! TO.N,*
X215696800Y-68326000D03*
G04 #@! TD*
G04 #@! TO.P,,*
G04 #@! TO.N,*
X140716000Y-68326000D03*
G04 #@! TD*
G04 #@! TO.P,,*
G04 #@! TO.N,*
X140703300Y-99326700D03*
G04 #@! TD*
D11*
G04 #@! TO.P,C9,1*
G04 #@! TO.N,VCC*
X188709300Y-86309200D03*
G04 #@! TO.P,C9,2*
G04 #@! TO.N,Earth*
X186209300Y-86309200D03*
G04 #@! TD*
G04 #@! TO.P,C10,2*
G04 #@! TO.N,Earth*
X193723900Y-86321900D03*
G04 #@! TO.P,C10,1*
G04 #@! TO.N,VCC*
X191223900Y-86321900D03*
G04 #@! TD*
D19*
G04 #@! TO.P,U1,1*
G04 #@! TO.N,Net-(R5-Pad2)*
X198818500Y-89293700D03*
D10*
G04 #@! TO.P,U1,8*
G04 #@! TO.N,N/C*
X183578500Y-96913700D03*
G04 #@! TO.P,U1,2*
G04 #@! TO.N,Net-(R2-Pad2)*
X196278500Y-89293700D03*
G04 #@! TO.P,U1,9*
G04 #@! TO.N,N/C*
X186118500Y-96913700D03*
G04 #@! TO.P,U1,3*
G04 #@! TO.N,Net-(R3-Pad2)*
X193738500Y-89293700D03*
G04 #@! TO.P,U1,10*
G04 #@! TO.N,N/C*
X188658500Y-96913700D03*
G04 #@! TO.P,U1,4*
G04 #@! TO.N,VCC*
X191198500Y-89293700D03*
G04 #@! TO.P,U1,11*
G04 #@! TO.N,Earth*
X191198500Y-96913700D03*
G04 #@! TO.P,U1,5*
G04 #@! TO.N,N/C*
X188658500Y-89293700D03*
G04 #@! TO.P,U1,12*
X193738500Y-96913700D03*
G04 #@! TO.P,U1,6*
X186118500Y-89293700D03*
G04 #@! TO.P,U1,13*
X196278500Y-96913700D03*
G04 #@! TO.P,U1,7*
X183578500Y-89293700D03*
G04 #@! TO.P,U1,14*
X198818500Y-96913700D03*
G04 #@! TD*
D22*
G04 #@! TO.N,Earth*
X207688180Y-89402920D03*
G04 #@! TO.N,Net-(J2-Pad3)*
X159184340Y-84709000D03*
G04 #@! TD*
D23*
G04 #@! TO.N,Net-(C1-Pad2)*
X207037940Y-72483980D02*
X207037940Y-72496680D01*
X203090780Y-68498720D02*
X203012680Y-68498720D01*
X206999840Y-72407780D02*
X203090780Y-68498720D01*
X211040660Y-76448600D02*
X217450920Y-76448600D01*
X206999840Y-72407780D02*
X211040660Y-76448600D01*
G04 #@! TO.N,Net-(C1-Pad1)*
X200418700Y-68498720D02*
X200512680Y-68498720D01*
X196281040Y-72636380D02*
X200418700Y-68498720D01*
G04 #@! TO.N,Net-(C3-Pad2)*
X161533200Y-79855700D02*
X161518600Y-79870300D01*
X161518600Y-76570840D02*
X161523680Y-76565760D01*
X161518600Y-79870300D02*
X161518600Y-76570840D01*
X158755080Y-76565760D02*
X158750000Y-76560680D01*
X161523680Y-76565760D02*
X158755080Y-76565760D01*
G04 #@! TO.N,Net-(C5-Pad2)*
X161518600Y-87490300D02*
X161518600Y-87492840D01*
X161518600Y-90794840D02*
X161523680Y-90799920D01*
X161518600Y-87490300D02*
X161518600Y-90794840D01*
X161523680Y-95448120D02*
X161523680Y-90799920D01*
X160345120Y-96626680D02*
X161523680Y-95448120D01*
G04 #@! TO.N,Net-(C6-Pad1)*
X184164170Y-82783680D02*
X181401720Y-82783680D01*
X185295540Y-82783680D02*
X184164170Y-82783680D01*
G04 #@! TO.N,Net-(C7-Pad2)*
X164058600Y-90769440D02*
X164053520Y-90774520D01*
X164058600Y-87490300D02*
X164058600Y-90769440D01*
X164053520Y-95435080D02*
X165245120Y-96626680D01*
X164053520Y-90774520D02*
X164053520Y-95435080D01*
G04 #@! TO.N,RST*
X141236700Y-87490300D02*
X141198600Y-87490300D01*
X141109700Y-87490300D02*
X141198600Y-87490300D01*
X139562840Y-93953960D02*
X139552040Y-93964760D01*
X139562840Y-90647520D02*
X139562840Y-93953960D01*
X141198600Y-89011760D02*
X139562840Y-90647520D01*
X141198600Y-87490300D02*
X141198600Y-89011760D01*
X139549500Y-93967300D02*
X139552040Y-93964760D01*
X136367520Y-95381513D02*
X136367520Y-100467300D01*
X136367520Y-93967300D02*
X136367520Y-95381513D01*
X136367520Y-93967300D02*
X139549500Y-93967300D01*
X134231380Y-87490300D02*
X141198600Y-87490300D01*
X132773420Y-86032340D02*
X134231380Y-87490300D01*
G04 #@! TO.N,Net-(J2-Pad3)*
X164023040Y-79870300D02*
X164058600Y-79870300D01*
X159184340Y-84709000D02*
X164023040Y-79870300D01*
G04 #@! TO.N,Net-(R2-Pad2)*
X190832740Y-82796380D02*
X196281040Y-82796380D01*
X196278500Y-82798920D02*
X196281040Y-82796380D01*
X196278500Y-89293700D02*
X196278500Y-82798920D01*
G04 #@! TO.N,Net-(R3-Pad2)*
X201551540Y-82643980D02*
X203377800Y-80817720D01*
X210812380Y-80817720D02*
X212600540Y-82605880D01*
X203377800Y-80817720D02*
X210812380Y-80817720D01*
X201551540Y-89913460D02*
X201551540Y-82643980D01*
X200380600Y-91084400D02*
X201551540Y-89913460D01*
X193738500Y-89293700D02*
X195529200Y-91084400D01*
X195529200Y-91084400D02*
X200380600Y-91084400D01*
G04 #@! TO.N,Net-(R5-Pad2)*
X185295540Y-72623680D02*
X190820040Y-72623680D01*
X198818500Y-80622140D02*
X198818500Y-81394300D01*
X190832740Y-72636380D02*
X198818500Y-80622140D01*
X198818500Y-89293700D02*
X198818500Y-81394300D01*
G04 #@! TO.N,Net-(J3-Pad15)*
X181757320Y-73025000D02*
X181762400Y-73030080D01*
X181757320Y-68402200D02*
X181757320Y-73025000D01*
G04 #@! TO.N,Net-(J3-Pad3)*
X150427321Y-69252199D02*
X151277320Y-68402200D01*
X149191980Y-70487540D02*
X151277320Y-68402200D01*
X133997700Y-70487540D02*
X149191980Y-70487540D01*
G04 #@! TO.N,Net-(J3-Pad4)*
X150063200Y-72156320D02*
X153817320Y-68402200D01*
X148818600Y-87490300D02*
X150063200Y-86245700D01*
X150063200Y-86245700D02*
X150063200Y-72156320D01*
G04 #@! TO.N,Net-(J3-Pad6)*
X151358600Y-87490300D02*
X152641300Y-86207600D01*
X152641300Y-86207600D02*
X152641300Y-74658220D01*
X152641300Y-74658220D02*
X158897320Y-68402200D01*
G04 #@! TO.N,Net-(J3-Pad11)*
X155181300Y-75133200D02*
X159715200Y-70599300D01*
X153898600Y-87490300D02*
X155181300Y-86207600D01*
X155181300Y-86207600D02*
X155181300Y-75133200D01*
X159715200Y-70599300D02*
X169400220Y-70599300D01*
X169400220Y-70599300D02*
X171597320Y-68402200D01*
G04 #@! TO.N,Net-(J3-Pad12)*
X167843200Y-86245700D02*
X166598600Y-87490300D01*
X174137320Y-68402200D02*
X167843200Y-74696320D01*
X167843200Y-74696320D02*
X167843200Y-86245700D01*
G04 #@! TO.N,Net-(J3-Pad13)*
X176677320Y-79951580D02*
X176677320Y-68402200D01*
X169138600Y-87490300D02*
X176677320Y-79951580D01*
G04 #@! TO.N,Net-(J3-Pad14)*
X179217320Y-79913480D02*
X179217320Y-68402200D01*
X171678600Y-87490300D02*
X171678600Y-87452200D01*
X171678600Y-87452200D02*
X179217320Y-79913480D01*
G04 #@! TD*
D24*
G04 #@! TO.N,Earth*
G36*
X219198000Y-102698000D02*
X129802000Y-102698000D01*
X129802000Y-101619832D01*
X130894593Y-101619832D01*
X130993256Y-101886687D01*
X131602981Y-102113208D01*
X132252980Y-102089156D01*
X132741784Y-101886687D01*
X132840447Y-101619832D01*
X131867520Y-100646905D01*
X130894593Y-101619832D01*
X129802000Y-101619832D01*
X129802000Y-100202761D01*
X130221612Y-100202761D01*
X130245664Y-100852760D01*
X130448133Y-101341564D01*
X130714988Y-101440227D01*
X131687915Y-100467300D01*
X132047125Y-100467300D01*
X133020052Y-101440227D01*
X133286907Y-101341564D01*
X133513428Y-100731839D01*
X133489376Y-100081840D01*
X133286907Y-99593036D01*
X133020052Y-99494373D01*
X132047125Y-100467300D01*
X131687915Y-100467300D01*
X130714988Y-99494373D01*
X130448133Y-99593036D01*
X130221612Y-100202761D01*
X129802000Y-100202761D01*
X129802000Y-99314768D01*
X130894593Y-99314768D01*
X131867520Y-100287695D01*
X132840447Y-99314768D01*
X132741784Y-99047913D01*
X132132059Y-98821392D01*
X131482060Y-98845444D01*
X130993256Y-99047913D01*
X130894593Y-99314768D01*
X129802000Y-99314768D01*
X129802000Y-95119832D01*
X130894593Y-95119832D01*
X130993256Y-95386687D01*
X131602981Y-95613208D01*
X132252980Y-95589156D01*
X132741784Y-95386687D01*
X132840447Y-95119832D01*
X131867520Y-94146905D01*
X130894593Y-95119832D01*
X129802000Y-95119832D01*
X129802000Y-93702761D01*
X130221612Y-93702761D01*
X130245664Y-94352760D01*
X130448133Y-94841564D01*
X130714988Y-94940227D01*
X131687915Y-93967300D01*
X132047125Y-93967300D01*
X133020052Y-94940227D01*
X133286907Y-94841564D01*
X133513428Y-94231839D01*
X133489376Y-93581840D01*
X133286907Y-93093036D01*
X133020052Y-92994373D01*
X132047125Y-93967300D01*
X131687915Y-93967300D01*
X130714988Y-92994373D01*
X130448133Y-93093036D01*
X130221612Y-93702761D01*
X129802000Y-93702761D01*
X129802000Y-92814768D01*
X130894593Y-92814768D01*
X131867520Y-93787695D01*
X132840447Y-92814768D01*
X132741784Y-92547913D01*
X132132059Y-92321392D01*
X131482060Y-92345444D01*
X130993256Y-92547913D01*
X130894593Y-92814768D01*
X129802000Y-92814768D01*
X129802000Y-83492340D01*
X131165525Y-83492340D01*
X131287919Y-84107655D01*
X131636467Y-84629293D01*
X131835586Y-84762340D01*
X131636467Y-84895387D01*
X131287919Y-85417025D01*
X131165525Y-86032340D01*
X131287919Y-86647655D01*
X131636467Y-87169293D01*
X132158105Y-87517841D01*
X132618101Y-87609340D01*
X132928739Y-87609340D01*
X133109546Y-87573375D01*
X133569592Y-88033421D01*
X133617123Y-88104557D01*
X133688258Y-88152088D01*
X133688259Y-88152089D01*
X133774987Y-88210039D01*
X133898946Y-88292866D01*
X134147468Y-88342300D01*
X134147472Y-88342300D01*
X134231380Y-88358990D01*
X134315288Y-88342300D01*
X139667702Y-88342300D01*
X139713782Y-88573961D01*
X139874463Y-88814437D01*
X140064221Y-88941229D01*
X139856444Y-89149006D01*
X139713233Y-89120520D01*
X139412447Y-89120520D01*
X138967034Y-89209118D01*
X138461935Y-89546615D01*
X138124438Y-90051714D01*
X138005925Y-90647520D01*
X138124438Y-91243326D01*
X138461935Y-91748425D01*
X138710840Y-91914739D01*
X138710841Y-92660383D01*
X138687064Y-92670232D01*
X138257512Y-93099784D01*
X138251085Y-93115300D01*
X137883902Y-93115300D01*
X137831600Y-92989033D01*
X137345787Y-92503220D01*
X136711042Y-92240300D01*
X136023998Y-92240300D01*
X135389253Y-92503220D01*
X134903440Y-92989033D01*
X134640520Y-93623778D01*
X134640520Y-94310822D01*
X134903440Y-94945567D01*
X135389253Y-95431380D01*
X135515520Y-95483682D01*
X135515521Y-98950918D01*
X135389253Y-99003220D01*
X134903440Y-99489033D01*
X134640520Y-100123778D01*
X134640520Y-100810822D01*
X134903440Y-101445567D01*
X135389253Y-101931380D01*
X136023998Y-102194300D01*
X136711042Y-102194300D01*
X137345787Y-101931380D01*
X137831600Y-101445567D01*
X138094520Y-100810822D01*
X138094520Y-100123778D01*
X137831600Y-99489033D01*
X137345787Y-99003220D01*
X137219520Y-98950918D01*
X137219520Y-98883722D01*
X138476300Y-98883722D01*
X138476300Y-99769678D01*
X138815340Y-100588194D01*
X139441806Y-101214660D01*
X140260322Y-101553700D01*
X141146278Y-101553700D01*
X141964794Y-101214660D01*
X142591260Y-100588194D01*
X142930300Y-99769678D01*
X142930300Y-98883722D01*
X142925040Y-98871022D01*
X213469800Y-98871022D01*
X213469800Y-99756978D01*
X213808840Y-100575494D01*
X214435306Y-101201960D01*
X215253822Y-101541000D01*
X216139778Y-101541000D01*
X216958294Y-101201960D01*
X217584760Y-100575494D01*
X217923800Y-99756978D01*
X217923800Y-98871022D01*
X217584760Y-98052506D01*
X216958294Y-97426040D01*
X216139778Y-97087000D01*
X215253822Y-97087000D01*
X214435306Y-97426040D01*
X213808840Y-98052506D01*
X213469800Y-98871022D01*
X142925040Y-98871022D01*
X142591260Y-98065206D01*
X141964794Y-97438740D01*
X141146278Y-97099700D01*
X140260322Y-97099700D01*
X139441806Y-97438740D01*
X138815340Y-98065206D01*
X138476300Y-98883722D01*
X137219520Y-98883722D01*
X137219520Y-95483682D01*
X137345787Y-95431380D01*
X137831600Y-94945567D01*
X137883902Y-94819300D01*
X138253189Y-94819300D01*
X138257512Y-94829736D01*
X138687064Y-95259288D01*
X139248301Y-95491760D01*
X139855779Y-95491760D01*
X140417016Y-95259288D01*
X140703799Y-94972505D01*
X141223901Y-94972505D01*
X141298035Y-95218624D01*
X141835263Y-95411725D01*
X142405494Y-95384538D01*
X142806045Y-95218624D01*
X142880179Y-94972505D01*
X142052040Y-94144365D01*
X141223901Y-94972505D01*
X140703799Y-94972505D01*
X140846568Y-94829736D01*
X140882067Y-94744034D01*
X141044295Y-94792899D01*
X141872435Y-93964760D01*
X142231645Y-93964760D01*
X143059785Y-94792899D01*
X143305904Y-94718765D01*
X143499005Y-94181537D01*
X143471818Y-93611306D01*
X143467775Y-93601545D01*
X152018901Y-93601545D01*
X152093035Y-93847664D01*
X152630263Y-94040765D01*
X153200494Y-94013578D01*
X153601045Y-93847664D01*
X153675179Y-93601545D01*
X155386941Y-93601545D01*
X155461075Y-93847664D01*
X155998303Y-94040765D01*
X156568534Y-94013578D01*
X156969085Y-93847664D01*
X157043219Y-93601545D01*
X156215080Y-92773405D01*
X155386941Y-93601545D01*
X153675179Y-93601545D01*
X152847040Y-92773405D01*
X152018901Y-93601545D01*
X143467775Y-93601545D01*
X143305904Y-93210755D01*
X143059785Y-93136621D01*
X142231645Y-93964760D01*
X141872435Y-93964760D01*
X141044295Y-93136621D01*
X140882067Y-93185486D01*
X140846568Y-93099784D01*
X140703799Y-92957015D01*
X141223901Y-92957015D01*
X142052040Y-93785155D01*
X142880179Y-92957015D01*
X142806045Y-92710896D01*
X142268817Y-92517795D01*
X141698586Y-92544982D01*
X141298035Y-92710896D01*
X141223901Y-92957015D01*
X140703799Y-92957015D01*
X140417016Y-92670232D01*
X140414840Y-92669331D01*
X140414840Y-92377023D01*
X151400075Y-92377023D01*
X151427262Y-92947254D01*
X151593176Y-93347805D01*
X151839295Y-93421939D01*
X152667435Y-92593800D01*
X153026645Y-92593800D01*
X153854785Y-93421939D01*
X154100904Y-93347805D01*
X154294005Y-92810577D01*
X154273335Y-92377023D01*
X154768115Y-92377023D01*
X154795302Y-92947254D01*
X154961216Y-93347805D01*
X155207335Y-93421939D01*
X156035475Y-92593800D01*
X156394685Y-92593800D01*
X157222825Y-93421939D01*
X157468944Y-93347805D01*
X157662045Y-92810577D01*
X157634858Y-92240346D01*
X157468944Y-91839795D01*
X157362275Y-91807665D01*
X158195541Y-91807665D01*
X158269675Y-92053784D01*
X158806903Y-92246885D01*
X159377134Y-92219698D01*
X159777685Y-92053784D01*
X159851819Y-91807665D01*
X159023680Y-90979525D01*
X158195541Y-91807665D01*
X157362275Y-91807665D01*
X157222825Y-91765661D01*
X156394685Y-92593800D01*
X156035475Y-92593800D01*
X155207335Y-91765661D01*
X154961216Y-91839795D01*
X154768115Y-92377023D01*
X154273335Y-92377023D01*
X154266818Y-92240346D01*
X154100904Y-91839795D01*
X153854785Y-91765661D01*
X153026645Y-92593800D01*
X152667435Y-92593800D01*
X151839295Y-91765661D01*
X151593176Y-91839795D01*
X151400075Y-92377023D01*
X140414840Y-92377023D01*
X140414840Y-91914738D01*
X140663745Y-91748425D01*
X141001242Y-91243326D01*
X141119755Y-90647520D01*
X141061354Y-90353916D01*
X141071488Y-90343781D01*
X148195840Y-90343781D01*
X148195840Y-90951259D01*
X148428312Y-91512496D01*
X148857864Y-91942048D01*
X149419101Y-92174520D01*
X150026579Y-92174520D01*
X150587816Y-91942048D01*
X151017368Y-91512496D01*
X151249840Y-90951259D01*
X151249840Y-90343781D01*
X151017368Y-89782544D01*
X150587816Y-89352992D01*
X150026579Y-89120520D01*
X149419101Y-89120520D01*
X148857864Y-89352992D01*
X148428312Y-89782544D01*
X148195840Y-90343781D01*
X141071488Y-90343781D01*
X141741721Y-89673548D01*
X141812857Y-89626017D01*
X141866286Y-89546056D01*
X142001166Y-89344194D01*
X142019570Y-89251671D01*
X142050600Y-89095672D01*
X142050600Y-89095668D01*
X142066023Y-89018131D01*
X142282261Y-88975118D01*
X142522737Y-88814437D01*
X142661340Y-88607004D01*
X143142794Y-88928702D01*
X143588207Y-89017300D01*
X143888993Y-89017300D01*
X144334406Y-88928702D01*
X144839505Y-88591205D01*
X145008600Y-88338137D01*
X145177695Y-88591205D01*
X145682794Y-88928702D01*
X146128207Y-89017300D01*
X146428993Y-89017300D01*
X146874406Y-88928702D01*
X147379505Y-88591205D01*
X147548600Y-88338137D01*
X147717695Y-88591205D01*
X148222794Y-88928702D01*
X148668207Y-89017300D01*
X148968993Y-89017300D01*
X149414406Y-88928702D01*
X149919505Y-88591205D01*
X150088600Y-88338137D01*
X150257695Y-88591205D01*
X150762794Y-88928702D01*
X151208207Y-89017300D01*
X151508993Y-89017300D01*
X151827364Y-88953972D01*
X151552512Y-89228824D01*
X151320040Y-89790061D01*
X151320040Y-90397539D01*
X151552512Y-90958776D01*
X151982064Y-91388328D01*
X152067766Y-91423827D01*
X152018901Y-91586055D01*
X152847040Y-92414195D01*
X153675179Y-91586055D01*
X153626314Y-91423827D01*
X153712016Y-91388328D01*
X154141568Y-90958776D01*
X154374040Y-90397539D01*
X154374040Y-89790061D01*
X154141568Y-89228824D01*
X153930044Y-89017300D01*
X154048993Y-89017300D01*
X154494406Y-88928702D01*
X154999505Y-88591205D01*
X155168600Y-88338137D01*
X155337695Y-88591205D01*
X155534672Y-88722821D01*
X155350104Y-88799272D01*
X154920552Y-89228824D01*
X154688080Y-89790061D01*
X154688080Y-90397539D01*
X154920552Y-90958776D01*
X155350104Y-91388328D01*
X155435806Y-91423827D01*
X155386941Y-91586055D01*
X156215080Y-92414195D01*
X157043219Y-91586055D01*
X156994354Y-91423827D01*
X157080056Y-91388328D01*
X157509608Y-90958776D01*
X157585849Y-90774715D01*
X157603902Y-91153374D01*
X157769816Y-91553925D01*
X158015935Y-91628059D01*
X158844075Y-90799920D01*
X158015935Y-89971781D01*
X157769816Y-90045915D01*
X157742080Y-90123080D01*
X157742080Y-89792175D01*
X158195541Y-89792175D01*
X159023680Y-90620315D01*
X159851819Y-89792175D01*
X159777685Y-89546056D01*
X159240457Y-89352955D01*
X158670226Y-89380142D01*
X158269675Y-89546056D01*
X158195541Y-89792175D01*
X157742080Y-89792175D01*
X157742080Y-89790061D01*
X157509608Y-89228824D01*
X157139359Y-88858575D01*
X157539505Y-88591205D01*
X157775425Y-88238127D01*
X157826211Y-88345434D01*
X158241177Y-88721341D01*
X158629561Y-88882204D01*
X158851600Y-88760215D01*
X158851600Y-87617300D01*
X158831600Y-87617300D01*
X158831600Y-87363300D01*
X158851600Y-87363300D01*
X158851600Y-86220385D01*
X158629561Y-86098396D01*
X158241177Y-86259259D01*
X157826211Y-86635166D01*
X157775425Y-86742473D01*
X157539505Y-86389395D01*
X157034406Y-86051898D01*
X156588993Y-85963300D01*
X156288207Y-85963300D01*
X156033300Y-86014004D01*
X156033300Y-81238902D01*
X156089561Y-81262204D01*
X156311600Y-81140215D01*
X156311600Y-79997300D01*
X156291600Y-79997300D01*
X156291600Y-79743300D01*
X156311600Y-79743300D01*
X156311600Y-78600385D01*
X156089561Y-78478396D01*
X156033300Y-78501698D01*
X156033300Y-75486109D01*
X160068110Y-71451300D01*
X169316312Y-71451300D01*
X169400220Y-71467990D01*
X169484128Y-71451300D01*
X169484132Y-71451300D01*
X169732654Y-71401866D01*
X170014477Y-71213557D01*
X170062010Y-71142419D01*
X171261194Y-69943235D01*
X171369777Y-69964834D01*
X167300081Y-74034530D01*
X167228943Y-74082063D01*
X167040634Y-74363887D01*
X166991200Y-74612409D01*
X166991200Y-74612412D01*
X166974510Y-74696320D01*
X166991200Y-74780228D01*
X166991200Y-78391478D01*
X166748993Y-78343300D01*
X166448207Y-78343300D01*
X166002794Y-78431898D01*
X165497695Y-78769395D01*
X165328600Y-79022463D01*
X165159505Y-78769395D01*
X164654406Y-78431898D01*
X164208993Y-78343300D01*
X163908207Y-78343300D01*
X163462794Y-78431898D01*
X162957695Y-78769395D01*
X162788600Y-79022463D01*
X162619505Y-78769395D01*
X162370600Y-78603082D01*
X162370600Y-77867767D01*
X162388656Y-77860288D01*
X162675439Y-77573505D01*
X163195541Y-77573505D01*
X163269675Y-77819624D01*
X163806903Y-78012725D01*
X164377134Y-77985538D01*
X164777685Y-77819624D01*
X164851819Y-77573505D01*
X164023680Y-76745365D01*
X163195541Y-77573505D01*
X162675439Y-77573505D01*
X162818208Y-77430736D01*
X162853707Y-77345034D01*
X163015935Y-77393899D01*
X163844075Y-76565760D01*
X164203285Y-76565760D01*
X165031425Y-77393899D01*
X165277544Y-77319765D01*
X165470645Y-76782537D01*
X165443458Y-76212306D01*
X165277544Y-75811755D01*
X165031425Y-75737621D01*
X164203285Y-76565760D01*
X163844075Y-76565760D01*
X163015935Y-75737621D01*
X162853707Y-75786486D01*
X162818208Y-75700784D01*
X162675439Y-75558015D01*
X163195541Y-75558015D01*
X164023680Y-76386155D01*
X164851819Y-75558015D01*
X164777685Y-75311896D01*
X164240457Y-75118795D01*
X163670226Y-75145982D01*
X163269675Y-75311896D01*
X163195541Y-75558015D01*
X162675439Y-75558015D01*
X162388656Y-75271232D01*
X161827419Y-75038760D01*
X161219941Y-75038760D01*
X160658704Y-75271232D01*
X160229152Y-75700784D01*
X160223777Y-75713760D01*
X160020613Y-75713760D01*
X159850905Y-75459775D01*
X159345806Y-75122278D01*
X158900393Y-75033680D01*
X158599607Y-75033680D01*
X158154194Y-75122278D01*
X157649095Y-75459775D01*
X157311598Y-75964874D01*
X157193085Y-76560680D01*
X157311598Y-77156486D01*
X157649095Y-77661585D01*
X158154194Y-77999082D01*
X158599607Y-78087680D01*
X158900393Y-78087680D01*
X159345806Y-77999082D01*
X159850905Y-77661585D01*
X160013824Y-77417760D01*
X160223777Y-77417760D01*
X160229152Y-77430736D01*
X160658704Y-77860288D01*
X160666601Y-77863559D01*
X160666600Y-78603081D01*
X160417695Y-78769395D01*
X160248600Y-79022463D01*
X160079505Y-78769395D01*
X159574406Y-78431898D01*
X159128993Y-78343300D01*
X158828207Y-78343300D01*
X158382794Y-78431898D01*
X157877695Y-78769395D01*
X157641775Y-79122473D01*
X157590989Y-79015166D01*
X157176023Y-78639259D01*
X156787639Y-78478396D01*
X156565600Y-78600385D01*
X156565600Y-79743300D01*
X156585600Y-79743300D01*
X156585600Y-79997300D01*
X156565600Y-79997300D01*
X156565600Y-81140215D01*
X156787639Y-81262204D01*
X157176023Y-81101341D01*
X157590989Y-80725434D01*
X157641775Y-80618127D01*
X157877695Y-80971205D01*
X158382794Y-81308702D01*
X158828207Y-81397300D01*
X159128993Y-81397300D01*
X159574406Y-81308702D01*
X160079505Y-80971205D01*
X160248600Y-80718137D01*
X160417695Y-80971205D01*
X160922794Y-81308702D01*
X161303918Y-81384512D01*
X159106431Y-83582000D01*
X158960166Y-83582000D01*
X158545946Y-83753576D01*
X158228916Y-84070606D01*
X158057340Y-84484826D01*
X158057340Y-84933174D01*
X158228916Y-85347394D01*
X158545946Y-85664424D01*
X158960166Y-85836000D01*
X159408514Y-85836000D01*
X159822734Y-85664424D01*
X160139764Y-85347394D01*
X160311340Y-84933174D01*
X160311340Y-84786909D01*
X163735336Y-81362914D01*
X163908207Y-81397300D01*
X164208993Y-81397300D01*
X164654406Y-81308702D01*
X165159505Y-80971205D01*
X165328600Y-80718137D01*
X165497695Y-80971205D01*
X166002794Y-81308702D01*
X166448207Y-81397300D01*
X166748993Y-81397300D01*
X166991201Y-81349122D01*
X166991201Y-85892789D01*
X166892204Y-85991786D01*
X166748993Y-85963300D01*
X166448207Y-85963300D01*
X166002794Y-86051898D01*
X165497695Y-86389395D01*
X165328600Y-86642463D01*
X165159505Y-86389395D01*
X164654406Y-86051898D01*
X164208993Y-85963300D01*
X163908207Y-85963300D01*
X163462794Y-86051898D01*
X162957695Y-86389395D01*
X162788600Y-86642463D01*
X162619505Y-86389395D01*
X162114406Y-86051898D01*
X161668993Y-85963300D01*
X161368207Y-85963300D01*
X160922794Y-86051898D01*
X160417695Y-86389395D01*
X160181775Y-86742473D01*
X160130989Y-86635166D01*
X159716023Y-86259259D01*
X159327639Y-86098396D01*
X159105600Y-86220385D01*
X159105600Y-87363300D01*
X159125600Y-87363300D01*
X159125600Y-87617300D01*
X159105600Y-87617300D01*
X159105600Y-88760215D01*
X159327639Y-88882204D01*
X159716023Y-88721341D01*
X160130989Y-88345434D01*
X160181775Y-88238127D01*
X160417695Y-88591205D01*
X160666600Y-88757519D01*
X160666601Y-89502121D01*
X160658704Y-89505392D01*
X160229152Y-89934944D01*
X160193653Y-90020646D01*
X160031425Y-89971781D01*
X159203285Y-90799920D01*
X160031425Y-91628059D01*
X160193653Y-91579194D01*
X160229152Y-91664896D01*
X160658704Y-92094448D01*
X160671681Y-92099823D01*
X160671680Y-95095210D01*
X160617210Y-95149680D01*
X160051326Y-95149680D01*
X159508467Y-95374540D01*
X159092980Y-95790027D01*
X158868120Y-96332886D01*
X158868120Y-96920474D01*
X159092980Y-97463333D01*
X159508467Y-97878820D01*
X160051326Y-98103680D01*
X160638914Y-98103680D01*
X161181773Y-97878820D01*
X161597260Y-97463333D01*
X161822120Y-96920474D01*
X161822120Y-96354590D01*
X162066802Y-96109908D01*
X162137937Y-96062377D01*
X162185468Y-95991242D01*
X162185470Y-95991240D01*
X162326246Y-95780554D01*
X162364317Y-95589156D01*
X162375680Y-95532032D01*
X162375680Y-95532028D01*
X162392370Y-95448120D01*
X162375680Y-95364212D01*
X162375680Y-92099823D01*
X162388656Y-92094448D01*
X162801300Y-91681804D01*
X163188544Y-92069048D01*
X163201520Y-92074423D01*
X163201521Y-95351168D01*
X163184830Y-95435080D01*
X163250954Y-95767513D01*
X163391731Y-95978200D01*
X163391733Y-95978202D01*
X163439264Y-96049337D01*
X163510399Y-96096868D01*
X163768120Y-96354589D01*
X163768120Y-96920474D01*
X163992980Y-97463333D01*
X164408467Y-97878820D01*
X164951326Y-98103680D01*
X165538914Y-98103680D01*
X166081773Y-97878820D01*
X166497260Y-97463333D01*
X166722120Y-96920474D01*
X166722120Y-96913700D01*
X182021585Y-96913700D01*
X182140098Y-97509506D01*
X182477595Y-98014605D01*
X182982694Y-98352102D01*
X183428107Y-98440700D01*
X183728893Y-98440700D01*
X184174306Y-98352102D01*
X184679405Y-98014605D01*
X184848500Y-97761537D01*
X185017595Y-98014605D01*
X185522694Y-98352102D01*
X185968107Y-98440700D01*
X186268893Y-98440700D01*
X186714306Y-98352102D01*
X187219405Y-98014605D01*
X187388500Y-97761537D01*
X187557595Y-98014605D01*
X188062694Y-98352102D01*
X188508107Y-98440700D01*
X188808893Y-98440700D01*
X189254306Y-98352102D01*
X189759405Y-98014605D01*
X189995325Y-97661527D01*
X190046111Y-97768834D01*
X190461077Y-98144741D01*
X190849461Y-98305604D01*
X191071500Y-98183615D01*
X191071500Y-97040700D01*
X191051500Y-97040700D01*
X191051500Y-96786700D01*
X191071500Y-96786700D01*
X191071500Y-95643785D01*
X191325500Y-95643785D01*
X191325500Y-96786700D01*
X191345500Y-96786700D01*
X191345500Y-97040700D01*
X191325500Y-97040700D01*
X191325500Y-98183615D01*
X191547539Y-98305604D01*
X191935923Y-98144741D01*
X192350889Y-97768834D01*
X192401675Y-97661527D01*
X192637595Y-98014605D01*
X193142694Y-98352102D01*
X193588107Y-98440700D01*
X193888893Y-98440700D01*
X194334306Y-98352102D01*
X194839405Y-98014605D01*
X195008500Y-97761537D01*
X195177595Y-98014605D01*
X195682694Y-98352102D01*
X196128107Y-98440700D01*
X196428893Y-98440700D01*
X196874306Y-98352102D01*
X197379405Y-98014605D01*
X197548500Y-97761537D01*
X197717595Y-98014605D01*
X198222694Y-98352102D01*
X198668107Y-98440700D01*
X198968893Y-98440700D01*
X199414306Y-98352102D01*
X199919405Y-98014605D01*
X200256902Y-97509506D01*
X200375415Y-96913700D01*
X200256902Y-96317894D01*
X199919405Y-95812795D01*
X199414306Y-95475298D01*
X198968893Y-95386700D01*
X198668107Y-95386700D01*
X198222694Y-95475298D01*
X197717595Y-95812795D01*
X197548500Y-96065863D01*
X197379405Y-95812795D01*
X196874306Y-95475298D01*
X196428893Y-95386700D01*
X196128107Y-95386700D01*
X195682694Y-95475298D01*
X195177595Y-95812795D01*
X195008500Y-96065863D01*
X194839405Y-95812795D01*
X194334306Y-95475298D01*
X193888893Y-95386700D01*
X193588107Y-95386700D01*
X193142694Y-95475298D01*
X192637595Y-95812795D01*
X192401675Y-96165873D01*
X192350889Y-96058566D01*
X191935923Y-95682659D01*
X191547539Y-95521796D01*
X191325500Y-95643785D01*
X191071500Y-95643785D01*
X190849461Y-95521796D01*
X190461077Y-95682659D01*
X190046111Y-96058566D01*
X189995325Y-96165873D01*
X189759405Y-95812795D01*
X189254306Y-95475298D01*
X188808893Y-95386700D01*
X188508107Y-95386700D01*
X188062694Y-95475298D01*
X187557595Y-95812795D01*
X187388500Y-96065863D01*
X187219405Y-95812795D01*
X186714306Y-95475298D01*
X186268893Y-95386700D01*
X185968107Y-95386700D01*
X185522694Y-95475298D01*
X185017595Y-95812795D01*
X184848500Y-96065863D01*
X184679405Y-95812795D01*
X184174306Y-95475298D01*
X183728893Y-95386700D01*
X183428107Y-95386700D01*
X182982694Y-95475298D01*
X182477595Y-95812795D01*
X182140098Y-96317894D01*
X182021585Y-96913700D01*
X166722120Y-96913700D01*
X166722120Y-96332886D01*
X166497260Y-95790027D01*
X166081773Y-95374540D01*
X165538914Y-95149680D01*
X164973029Y-95149680D01*
X164905520Y-95082171D01*
X164905520Y-92974295D01*
X212181260Y-92974295D01*
X212181260Y-93462425D01*
X212368060Y-93913399D01*
X212713221Y-94258560D01*
X213164195Y-94445360D01*
X213652325Y-94445360D01*
X214103299Y-94258560D01*
X214448460Y-93913399D01*
X214635260Y-93462425D01*
X214635260Y-92974295D01*
X214448460Y-92523321D01*
X214103299Y-92178160D01*
X213652325Y-91991360D01*
X213164195Y-91991360D01*
X212713221Y-92178160D01*
X212368060Y-92523321D01*
X212181260Y-92974295D01*
X164905520Y-92974295D01*
X164905520Y-92074423D01*
X164918496Y-92069048D01*
X165205279Y-91782265D01*
X165725381Y-91782265D01*
X165799515Y-92028384D01*
X166336743Y-92221485D01*
X166906974Y-92194298D01*
X167307525Y-92028384D01*
X167381659Y-91782265D01*
X166553520Y-90954125D01*
X165725381Y-91782265D01*
X165205279Y-91782265D01*
X165348048Y-91639496D01*
X165383547Y-91553794D01*
X165545775Y-91602659D01*
X166373915Y-90774520D01*
X166733125Y-90774520D01*
X167561265Y-91602659D01*
X167807384Y-91528525D01*
X168000485Y-90991297D01*
X167973298Y-90421066D01*
X167807384Y-90020515D01*
X167561265Y-89946381D01*
X166733125Y-90774520D01*
X166373915Y-90774520D01*
X165545775Y-89946381D01*
X165383547Y-89995246D01*
X165348048Y-89909544D01*
X165205279Y-89766775D01*
X165725381Y-89766775D01*
X166553520Y-90594915D01*
X167381659Y-89766775D01*
X167307525Y-89520656D01*
X166770297Y-89327555D01*
X166200066Y-89354742D01*
X165799515Y-89520656D01*
X165725381Y-89766775D01*
X165205279Y-89766775D01*
X164918496Y-89479992D01*
X164910600Y-89476721D01*
X164910600Y-89293700D01*
X182021585Y-89293700D01*
X182140098Y-89889506D01*
X182477595Y-90394605D01*
X182982694Y-90732102D01*
X183428107Y-90820700D01*
X183728893Y-90820700D01*
X184174306Y-90732102D01*
X184679405Y-90394605D01*
X184848500Y-90141537D01*
X185017595Y-90394605D01*
X185522694Y-90732102D01*
X185968107Y-90820700D01*
X186268893Y-90820700D01*
X186714306Y-90732102D01*
X187219405Y-90394605D01*
X187388500Y-90141537D01*
X187557595Y-90394605D01*
X188062694Y-90732102D01*
X188508107Y-90820700D01*
X188808893Y-90820700D01*
X189254306Y-90732102D01*
X189759405Y-90394605D01*
X189928500Y-90141537D01*
X190097595Y-90394605D01*
X190602694Y-90732102D01*
X191048107Y-90820700D01*
X191348893Y-90820700D01*
X191794306Y-90732102D01*
X192299405Y-90394605D01*
X192468500Y-90141537D01*
X192637595Y-90394605D01*
X193142694Y-90732102D01*
X193588107Y-90820700D01*
X193888893Y-90820700D01*
X194032104Y-90792214D01*
X194867412Y-91627521D01*
X194914943Y-91698657D01*
X194986078Y-91746188D01*
X194986079Y-91746189D01*
X195078084Y-91807665D01*
X195196766Y-91886966D01*
X195445288Y-91936400D01*
X195445291Y-91936400D01*
X195529199Y-91953090D01*
X195613107Y-91936400D01*
X200296692Y-91936400D01*
X200380600Y-91953090D01*
X200464508Y-91936400D01*
X200464512Y-91936400D01*
X200713034Y-91886966D01*
X200994857Y-91698657D01*
X201042390Y-91627519D01*
X202094662Y-90575248D01*
X202165797Y-90527717D01*
X202220088Y-90446466D01*
X202354106Y-90245894D01*
X202371139Y-90160263D01*
X202403540Y-89997372D01*
X202403540Y-89997369D01*
X202420230Y-89913461D01*
X202403540Y-89829553D01*
X202403540Y-88574295D01*
X212181260Y-88574295D01*
X212181260Y-89062425D01*
X212368060Y-89513399D01*
X212713221Y-89858560D01*
X213164195Y-90045360D01*
X213652325Y-90045360D01*
X214103299Y-89858560D01*
X214448460Y-89513399D01*
X214635260Y-89062425D01*
X214635260Y-88574295D01*
X214448460Y-88123321D01*
X214103299Y-87778160D01*
X213652325Y-87591360D01*
X213164195Y-87591360D01*
X212713221Y-87778160D01*
X212368060Y-88123321D01*
X212181260Y-88574295D01*
X202403540Y-88574295D01*
X202403540Y-83911198D01*
X202652445Y-83744885D01*
X202989942Y-83239786D01*
X203108455Y-82643980D01*
X203050054Y-82350375D01*
X203730709Y-81669720D01*
X205738396Y-81669720D01*
X205705312Y-81702804D01*
X205472840Y-82264041D01*
X205472840Y-82871519D01*
X205705312Y-83432756D01*
X206134864Y-83862308D01*
X206696101Y-84094780D01*
X207303579Y-84094780D01*
X207864816Y-83862308D01*
X208294368Y-83432756D01*
X208526840Y-82871519D01*
X208526840Y-82264041D01*
X208294368Y-81702804D01*
X208261284Y-81669720D01*
X210459471Y-81669720D01*
X211078915Y-82289165D01*
X211073540Y-82302141D01*
X211073540Y-82909619D01*
X211306012Y-83470856D01*
X211735564Y-83900408D01*
X212296801Y-84132880D01*
X212904279Y-84132880D01*
X213465516Y-83900408D01*
X213895068Y-83470856D01*
X214127540Y-82909619D01*
X214127540Y-82302141D01*
X213895068Y-81740904D01*
X213465516Y-81311352D01*
X212904279Y-81078880D01*
X212296801Y-81078880D01*
X212283825Y-81084255D01*
X211474170Y-80274601D01*
X211426637Y-80203463D01*
X211144814Y-80015154D01*
X210896292Y-79965720D01*
X210896288Y-79965720D01*
X210812380Y-79949030D01*
X210728472Y-79965720D01*
X203461708Y-79965720D01*
X203377800Y-79949030D01*
X203293892Y-79965720D01*
X203293888Y-79965720D01*
X203045366Y-80015154D01*
X202763543Y-80203463D01*
X202716010Y-80274601D01*
X201845145Y-81145466D01*
X201701933Y-81116980D01*
X201401147Y-81116980D01*
X200955734Y-81205578D01*
X200450635Y-81543075D01*
X200113138Y-82048174D01*
X199994625Y-82643980D01*
X200113138Y-83239786D01*
X200450635Y-83744885D01*
X200699541Y-83911199D01*
X200699540Y-89560550D01*
X200359742Y-89900349D01*
X200359742Y-88493700D01*
X200303318Y-88210039D01*
X200142637Y-87969563D01*
X199902161Y-87808882D01*
X199670500Y-87762802D01*
X199670500Y-80706047D01*
X199687190Y-80622139D01*
X199670500Y-80538229D01*
X199670500Y-80538228D01*
X199621066Y-80289706D01*
X199553197Y-80188133D01*
X199480289Y-80079019D01*
X199480288Y-80079018D01*
X199432757Y-80007883D01*
X199361622Y-79960352D01*
X198635620Y-79234350D01*
X216053920Y-79234350D01*
X216053920Y-79836910D01*
X216150593Y-80070299D01*
X216329222Y-80248927D01*
X216562611Y-80345600D01*
X217165170Y-80345600D01*
X217323920Y-80186850D01*
X217323920Y-79075600D01*
X217577920Y-79075600D01*
X217577920Y-80186850D01*
X217736670Y-80345600D01*
X218339229Y-80345600D01*
X218572618Y-80248927D01*
X218751247Y-80070299D01*
X218847920Y-79836910D01*
X218847920Y-79234350D01*
X218689170Y-79075600D01*
X217577920Y-79075600D01*
X217323920Y-79075600D01*
X216212670Y-79075600D01*
X216053920Y-79234350D01*
X198635620Y-79234350D01*
X192331254Y-72929984D01*
X192389655Y-72636380D01*
X192329238Y-72332641D01*
X194754040Y-72332641D01*
X194754040Y-72940119D01*
X194986512Y-73501356D01*
X195416064Y-73930908D01*
X195977301Y-74163380D01*
X196584779Y-74163380D01*
X197146016Y-73930908D01*
X197575568Y-73501356D01*
X197808040Y-72940119D01*
X197808040Y-72332641D01*
X197802665Y-72319664D01*
X197942088Y-72180241D01*
X200024540Y-72180241D01*
X200024540Y-72787719D01*
X200257012Y-73348956D01*
X200686564Y-73778508D01*
X201247801Y-74010980D01*
X201855279Y-74010980D01*
X202416516Y-73778508D01*
X202846068Y-73348956D01*
X203078540Y-72787719D01*
X203078540Y-72180241D01*
X202846068Y-71619004D01*
X202416516Y-71189452D01*
X201855279Y-70956980D01*
X201247801Y-70956980D01*
X200686564Y-71189452D01*
X200257012Y-71619004D01*
X200024540Y-72180241D01*
X197942088Y-72180241D01*
X200129511Y-69992819D01*
X200208941Y-70025720D01*
X200816419Y-70025720D01*
X201377656Y-69793248D01*
X201762680Y-69408224D01*
X202147704Y-69793248D01*
X202708941Y-70025720D01*
X203316419Y-70025720D01*
X203384621Y-69997470D01*
X205501326Y-72114175D01*
X205442925Y-72407780D01*
X205561438Y-73003586D01*
X205898935Y-73508685D01*
X206404034Y-73846182D01*
X206849447Y-73934780D01*
X207150233Y-73934780D01*
X207293444Y-73906294D01*
X210378872Y-76991722D01*
X210426403Y-77062857D01*
X210708226Y-77251166D01*
X210956748Y-77300600D01*
X210956753Y-77300600D01*
X211040659Y-77317290D01*
X211124566Y-77300600D01*
X216197156Y-77300600D01*
X216481679Y-77585123D01*
X216329222Y-77648273D01*
X216150593Y-77826901D01*
X216053920Y-78060290D01*
X216053920Y-78662850D01*
X216212670Y-78821600D01*
X217323920Y-78821600D01*
X217323920Y-78801600D01*
X217577920Y-78801600D01*
X217577920Y-78821600D01*
X218689170Y-78821600D01*
X218847920Y-78662850D01*
X218847920Y-78060290D01*
X218751247Y-77826901D01*
X218572618Y-77648273D01*
X218420161Y-77585123D01*
X218713233Y-77292051D01*
X218939920Y-76744780D01*
X218939920Y-76152420D01*
X218713233Y-75605149D01*
X218294371Y-75186287D01*
X217747100Y-74959600D01*
X217154740Y-74959600D01*
X216607469Y-75186287D01*
X216197156Y-75596600D01*
X211393570Y-75596600D01*
X208591891Y-72794921D01*
X211208626Y-72794921D01*
X211448151Y-73301014D01*
X211863117Y-73676921D01*
X212251501Y-73837784D01*
X212473540Y-73715795D01*
X212473540Y-72572880D01*
X212727540Y-72572880D01*
X212727540Y-73715795D01*
X212949579Y-73837784D01*
X213337963Y-73676921D01*
X213752929Y-73301014D01*
X213992454Y-72794921D01*
X213871169Y-72572880D01*
X212727540Y-72572880D01*
X212473540Y-72572880D01*
X211329911Y-72572880D01*
X211208626Y-72794921D01*
X208591891Y-72794921D01*
X208498354Y-72701384D01*
X208556755Y-72407780D01*
X208494906Y-72096839D01*
X211208626Y-72096839D01*
X211329911Y-72318880D01*
X212473540Y-72318880D01*
X212473540Y-71175965D01*
X212727540Y-71175965D01*
X212727540Y-72318880D01*
X213871169Y-72318880D01*
X213992454Y-72096839D01*
X213752929Y-71590746D01*
X213337963Y-71214839D01*
X212949579Y-71053976D01*
X212727540Y-71175965D01*
X212473540Y-71175965D01*
X212251501Y-71053976D01*
X211863117Y-71214839D01*
X211448151Y-71590746D01*
X211208626Y-72096839D01*
X208494906Y-72096839D01*
X208438242Y-71811974D01*
X208100745Y-71306875D01*
X207595646Y-70969378D01*
X207150233Y-70880780D01*
X206849447Y-70880780D01*
X206706235Y-70909266D01*
X204539680Y-68742711D01*
X204539680Y-68194981D01*
X204410463Y-67883022D01*
X213469800Y-67883022D01*
X213469800Y-68768978D01*
X213808840Y-69587494D01*
X214435306Y-70213960D01*
X215253822Y-70553000D01*
X216139778Y-70553000D01*
X216958294Y-70213960D01*
X217584760Y-69587494D01*
X217923800Y-68768978D01*
X217923800Y-67883022D01*
X217584760Y-67064506D01*
X216958294Y-66438040D01*
X216139778Y-66099000D01*
X215253822Y-66099000D01*
X214435306Y-66438040D01*
X213808840Y-67064506D01*
X213469800Y-67883022D01*
X204410463Y-67883022D01*
X204307208Y-67633744D01*
X203877656Y-67204192D01*
X203316419Y-66971720D01*
X202708941Y-66971720D01*
X202147704Y-67204192D01*
X201762680Y-67589216D01*
X201377656Y-67204192D01*
X200816419Y-66971720D01*
X200208941Y-66971720D01*
X199647704Y-67204192D01*
X199218152Y-67633744D01*
X198985680Y-68194981D01*
X198985680Y-68726830D01*
X196597756Y-71114755D01*
X196584779Y-71109380D01*
X195977301Y-71109380D01*
X195416064Y-71341852D01*
X194986512Y-71771404D01*
X194754040Y-72332641D01*
X192329238Y-72332641D01*
X192271142Y-72040574D01*
X191933645Y-71535475D01*
X191428546Y-71197978D01*
X190983133Y-71109380D01*
X190682347Y-71109380D01*
X190236934Y-71197978D01*
X189731835Y-71535475D01*
X189574008Y-71771680D01*
X186593519Y-71771680D01*
X186584988Y-71751084D01*
X186155436Y-71321532D01*
X185594199Y-71089060D01*
X184986721Y-71089060D01*
X184425484Y-71321532D01*
X183995932Y-71751084D01*
X183763460Y-72312321D01*
X183763460Y-72919799D01*
X183995932Y-73481036D01*
X184425484Y-73910588D01*
X184986721Y-74143060D01*
X185594199Y-74143060D01*
X186155436Y-73910588D01*
X186584988Y-73481036D01*
X186587207Y-73475680D01*
X189557036Y-73475680D01*
X189731835Y-73737285D01*
X190236934Y-74074782D01*
X190682347Y-74163380D01*
X190983133Y-74163380D01*
X191126344Y-74134894D01*
X197966500Y-80975050D01*
X197966500Y-81478212D01*
X197966501Y-81478217D01*
X197966500Y-87762801D01*
X197734839Y-87808882D01*
X197494363Y-87969563D01*
X197355760Y-88176996D01*
X197130500Y-88026482D01*
X197130500Y-84065295D01*
X197381945Y-83897285D01*
X197719442Y-83392186D01*
X197837955Y-82796380D01*
X197719442Y-82200574D01*
X197381945Y-81695475D01*
X196876846Y-81357978D01*
X196431433Y-81269380D01*
X196130647Y-81269380D01*
X195685234Y-81357978D01*
X195180135Y-81695475D01*
X195013822Y-81944380D01*
X192132643Y-81944380D01*
X192127268Y-81931404D01*
X191697716Y-81501852D01*
X191136479Y-81269380D01*
X190529001Y-81269380D01*
X189967764Y-81501852D01*
X189538212Y-81931404D01*
X189305740Y-82492641D01*
X189305740Y-83100119D01*
X189538212Y-83661356D01*
X189967764Y-84090908D01*
X190529001Y-84323380D01*
X191136479Y-84323380D01*
X191697716Y-84090908D01*
X192127268Y-83661356D01*
X192132643Y-83648380D01*
X195013822Y-83648380D01*
X195180135Y-83897285D01*
X195426501Y-84061902D01*
X195426500Y-88026482D01*
X195177595Y-88192795D01*
X195008500Y-88445863D01*
X194839405Y-88192795D01*
X194334306Y-87855298D01*
X193888893Y-87766700D01*
X193588107Y-87766700D01*
X193142694Y-87855298D01*
X192637595Y-88192795D01*
X192468500Y-88445863D01*
X192299405Y-88192795D01*
X191794306Y-87855298D01*
X191603717Y-87817388D01*
X192088876Y-87616428D01*
X192375659Y-87329645D01*
X192895761Y-87329645D01*
X192969895Y-87575764D01*
X193507123Y-87768865D01*
X194077354Y-87741678D01*
X194477905Y-87575764D01*
X194552039Y-87329645D01*
X193723900Y-86501505D01*
X192895761Y-87329645D01*
X192375659Y-87329645D01*
X192518428Y-87186876D01*
X192553927Y-87101174D01*
X192716155Y-87150039D01*
X193544295Y-86321900D01*
X193903505Y-86321900D01*
X194731645Y-87150039D01*
X194977764Y-87075905D01*
X195170865Y-86538677D01*
X195143678Y-85968446D01*
X194977764Y-85567895D01*
X194731645Y-85493761D01*
X193903505Y-86321900D01*
X193544295Y-86321900D01*
X192716155Y-85493761D01*
X192553927Y-85542626D01*
X192518428Y-85456924D01*
X192375659Y-85314155D01*
X192895761Y-85314155D01*
X193723900Y-86142295D01*
X194552039Y-85314155D01*
X194477905Y-85068036D01*
X193940677Y-84874935D01*
X193370446Y-84902122D01*
X192969895Y-85068036D01*
X192895761Y-85314155D01*
X192375659Y-85314155D01*
X192088876Y-85027372D01*
X191527639Y-84794900D01*
X190920161Y-84794900D01*
X190358924Y-85027372D01*
X189972950Y-85413346D01*
X189574276Y-85014672D01*
X189013039Y-84782200D01*
X188405561Y-84782200D01*
X187844324Y-85014672D01*
X187414772Y-85444224D01*
X187379273Y-85529926D01*
X187217045Y-85481061D01*
X186388905Y-86309200D01*
X187217045Y-87137339D01*
X187379273Y-87088474D01*
X187414772Y-87174176D01*
X187844324Y-87603728D01*
X188325476Y-87803028D01*
X188062694Y-87855298D01*
X187557595Y-88192795D01*
X187388500Y-88445863D01*
X187219405Y-88192795D01*
X186714306Y-87855298D01*
X186268893Y-87766700D01*
X185968107Y-87766700D01*
X185522694Y-87855298D01*
X185017595Y-88192795D01*
X184848500Y-88445863D01*
X184679405Y-88192795D01*
X184174306Y-87855298D01*
X183728893Y-87766700D01*
X183428107Y-87766700D01*
X182982694Y-87855298D01*
X182477595Y-88192795D01*
X182140098Y-88697894D01*
X182021585Y-89293700D01*
X164910600Y-89293700D01*
X164910600Y-88757518D01*
X165159505Y-88591205D01*
X165328600Y-88338137D01*
X165497695Y-88591205D01*
X166002794Y-88928702D01*
X166448207Y-89017300D01*
X166748993Y-89017300D01*
X167194406Y-88928702D01*
X167699505Y-88591205D01*
X167868600Y-88338137D01*
X168037695Y-88591205D01*
X168542794Y-88928702D01*
X168988207Y-89017300D01*
X169288993Y-89017300D01*
X169734406Y-88928702D01*
X170239505Y-88591205D01*
X170408600Y-88338137D01*
X170577695Y-88591205D01*
X171082794Y-88928702D01*
X171528207Y-89017300D01*
X171828993Y-89017300D01*
X172274406Y-88928702D01*
X172779505Y-88591205D01*
X172948600Y-88338137D01*
X173117695Y-88591205D01*
X173622794Y-88928702D01*
X174068207Y-89017300D01*
X174368993Y-89017300D01*
X174814406Y-88928702D01*
X175319505Y-88591205D01*
X175657002Y-88086106D01*
X175775515Y-87490300D01*
X175741033Y-87316945D01*
X185381161Y-87316945D01*
X185455295Y-87563064D01*
X185992523Y-87756165D01*
X186562754Y-87728978D01*
X186963305Y-87563064D01*
X187037439Y-87316945D01*
X186209300Y-86488805D01*
X185381161Y-87316945D01*
X175741033Y-87316945D01*
X175657002Y-86894494D01*
X175319505Y-86389395D01*
X174875056Y-86092423D01*
X184762335Y-86092423D01*
X184789522Y-86662654D01*
X184955436Y-87063205D01*
X185201555Y-87137339D01*
X186029695Y-86309200D01*
X185201555Y-85481061D01*
X184955436Y-85555195D01*
X184762335Y-86092423D01*
X174875056Y-86092423D01*
X174814406Y-86051898D01*
X174371842Y-85963867D01*
X175034254Y-85301455D01*
X185381161Y-85301455D01*
X186209300Y-86129595D01*
X187037439Y-85301455D01*
X186963305Y-85055336D01*
X186426077Y-84862235D01*
X185855846Y-84889422D01*
X185455295Y-85055336D01*
X185381161Y-85301455D01*
X175034254Y-85301455D01*
X177855768Y-82479941D01*
X179874720Y-82479941D01*
X179874720Y-83087419D01*
X180107192Y-83648656D01*
X180536744Y-84078208D01*
X181097981Y-84310680D01*
X181705459Y-84310680D01*
X182266696Y-84078208D01*
X182696248Y-83648656D01*
X182701623Y-83635680D01*
X184028333Y-83635680D01*
X184189555Y-83876965D01*
X184694654Y-84214462D01*
X185140067Y-84303060D01*
X185440853Y-84303060D01*
X185886266Y-84214462D01*
X186391365Y-83876965D01*
X186728862Y-83371866D01*
X186847375Y-82776060D01*
X186728862Y-82180254D01*
X186391365Y-81675155D01*
X185886266Y-81337658D01*
X185440853Y-81249060D01*
X185140067Y-81249060D01*
X184694654Y-81337658D01*
X184189555Y-81675155D01*
X184018150Y-81931680D01*
X182701623Y-81931680D01*
X182696248Y-81918704D01*
X182266696Y-81489152D01*
X182180994Y-81453653D01*
X182229859Y-81291425D01*
X181401720Y-80463285D01*
X180573581Y-81291425D01*
X180622446Y-81453653D01*
X180536744Y-81489152D01*
X180107192Y-81918704D01*
X179874720Y-82479941D01*
X177855768Y-82479941D01*
X179760442Y-80575268D01*
X179831577Y-80527737D01*
X179967059Y-80324975D01*
X179981942Y-80637134D01*
X180147856Y-81037685D01*
X180393975Y-81111819D01*
X181222115Y-80283680D01*
X181581325Y-80283680D01*
X182409465Y-81111819D01*
X182655584Y-81037685D01*
X182848685Y-80500457D01*
X182821498Y-79930226D01*
X182655584Y-79529675D01*
X182409465Y-79455541D01*
X181581325Y-80283680D01*
X181222115Y-80283680D01*
X180393975Y-79455541D01*
X180147856Y-79529675D01*
X180069320Y-79748171D01*
X180069320Y-79275935D01*
X180573581Y-79275935D01*
X181401720Y-80104075D01*
X182229859Y-79275935D01*
X182155725Y-79029816D01*
X181618497Y-78836715D01*
X181048266Y-78863902D01*
X180647715Y-79029816D01*
X180573581Y-79275935D01*
X180069320Y-79275935D01*
X180069320Y-69729553D01*
X180354273Y-69539153D01*
X180487320Y-69340034D01*
X180620367Y-69539153D01*
X180905320Y-69729553D01*
X180905321Y-71766256D01*
X180661495Y-71929175D01*
X180323998Y-72434274D01*
X180205485Y-73030080D01*
X180323998Y-73625886D01*
X180661495Y-74130985D01*
X181166594Y-74468482D01*
X181612007Y-74557080D01*
X181912793Y-74557080D01*
X182358206Y-74468482D01*
X182863305Y-74130985D01*
X183200802Y-73625886D01*
X183319315Y-73030080D01*
X183200802Y-72434274D01*
X182863305Y-71929175D01*
X182609320Y-71759467D01*
X182609320Y-69729553D01*
X182894273Y-69539153D01*
X183086832Y-69250968D01*
X183102137Y-69283558D01*
X183530396Y-69673845D01*
X183940430Y-69843676D01*
X184170320Y-69722355D01*
X184170320Y-68529200D01*
X184424320Y-68529200D01*
X184424320Y-69722355D01*
X184654210Y-69843676D01*
X185064244Y-69673845D01*
X185492503Y-69283558D01*
X185738806Y-68759092D01*
X185618139Y-68529200D01*
X184424320Y-68529200D01*
X184170320Y-68529200D01*
X184150320Y-68529200D01*
X184150320Y-68275200D01*
X184170320Y-68275200D01*
X184170320Y-67082045D01*
X184424320Y-67082045D01*
X184424320Y-68275200D01*
X185618139Y-68275200D01*
X185738806Y-68045308D01*
X185492503Y-67520842D01*
X185064244Y-67130555D01*
X184654210Y-66960724D01*
X184424320Y-67082045D01*
X184170320Y-67082045D01*
X183940430Y-66960724D01*
X183530396Y-67130555D01*
X183102137Y-67520842D01*
X183086832Y-67553432D01*
X182894273Y-67265247D01*
X182372635Y-66916699D01*
X181912639Y-66825200D01*
X181602001Y-66825200D01*
X181142005Y-66916699D01*
X180620367Y-67265247D01*
X180487320Y-67464366D01*
X180354273Y-67265247D01*
X179832635Y-66916699D01*
X179372639Y-66825200D01*
X179062001Y-66825200D01*
X178602005Y-66916699D01*
X178080367Y-67265247D01*
X177947320Y-67464366D01*
X177814273Y-67265247D01*
X177292635Y-66916699D01*
X176832639Y-66825200D01*
X176522001Y-66825200D01*
X176062005Y-66916699D01*
X175540367Y-67265247D01*
X175407320Y-67464366D01*
X175274273Y-67265247D01*
X174752635Y-66916699D01*
X174292639Y-66825200D01*
X173982001Y-66825200D01*
X173522005Y-66916699D01*
X173000367Y-67265247D01*
X172867320Y-67464366D01*
X172734273Y-67265247D01*
X172212635Y-66916699D01*
X171752639Y-66825200D01*
X171442001Y-66825200D01*
X170982005Y-66916699D01*
X170460367Y-67265247D01*
X170327320Y-67464366D01*
X170194273Y-67265247D01*
X169672635Y-66916699D01*
X169212639Y-66825200D01*
X168902001Y-66825200D01*
X168442005Y-66916699D01*
X167920367Y-67265247D01*
X167787320Y-67464366D01*
X167654273Y-67265247D01*
X167132635Y-66916699D01*
X166672639Y-66825200D01*
X166362001Y-66825200D01*
X165902005Y-66916699D01*
X165380367Y-67265247D01*
X165247320Y-67464366D01*
X165114273Y-67265247D01*
X164592635Y-66916699D01*
X164132639Y-66825200D01*
X163822001Y-66825200D01*
X163362005Y-66916699D01*
X162840367Y-67265247D01*
X162707320Y-67464366D01*
X162574273Y-67265247D01*
X162052635Y-66916699D01*
X161592639Y-66825200D01*
X161282001Y-66825200D01*
X160822005Y-66916699D01*
X160300367Y-67265247D01*
X160167320Y-67464366D01*
X160034273Y-67265247D01*
X159512635Y-66916699D01*
X159052639Y-66825200D01*
X158742001Y-66825200D01*
X158282005Y-66916699D01*
X157760367Y-67265247D01*
X157567808Y-67553432D01*
X157552503Y-67520842D01*
X157124244Y-67130555D01*
X156714210Y-66960724D01*
X156484320Y-67082045D01*
X156484320Y-68275200D01*
X156504320Y-68275200D01*
X156504320Y-68529200D01*
X156484320Y-68529200D01*
X156484320Y-68549200D01*
X156230320Y-68549200D01*
X156230320Y-68529200D01*
X156210320Y-68529200D01*
X156210320Y-68275200D01*
X156230320Y-68275200D01*
X156230320Y-67082045D01*
X156000430Y-66960724D01*
X155590396Y-67130555D01*
X155162137Y-67520842D01*
X155146832Y-67553432D01*
X154954273Y-67265247D01*
X154432635Y-66916699D01*
X153972639Y-66825200D01*
X153662001Y-66825200D01*
X153202005Y-66916699D01*
X152680367Y-67265247D01*
X152547320Y-67464366D01*
X152414273Y-67265247D01*
X151892635Y-66916699D01*
X151432639Y-66825200D01*
X151122001Y-66825200D01*
X150662005Y-66916699D01*
X150140367Y-67265247D01*
X150007320Y-67464366D01*
X149874273Y-67265247D01*
X149352635Y-66916699D01*
X148892639Y-66825200D01*
X148582001Y-66825200D01*
X148122005Y-66916699D01*
X147612438Y-67257181D01*
X147585647Y-67192502D01*
X147407019Y-67013873D01*
X147173630Y-66917200D01*
X146483070Y-66917200D01*
X146324320Y-67075950D01*
X146324320Y-68275200D01*
X146344320Y-68275200D01*
X146344320Y-68529200D01*
X146324320Y-68529200D01*
X146324320Y-68549200D01*
X146070320Y-68549200D01*
X146070320Y-68529200D01*
X144871070Y-68529200D01*
X144712320Y-68687950D01*
X144712320Y-69378509D01*
X144808993Y-69611898D01*
X144832635Y-69635540D01*
X142555914Y-69635540D01*
X142603960Y-69587494D01*
X142943000Y-68768978D01*
X142943000Y-67883022D01*
X142753651Y-67425891D01*
X144712320Y-67425891D01*
X144712320Y-68116450D01*
X144871070Y-68275200D01*
X146070320Y-68275200D01*
X146070320Y-67075950D01*
X145911570Y-66917200D01*
X145221010Y-66917200D01*
X144987621Y-67013873D01*
X144808993Y-67192502D01*
X144712320Y-67425891D01*
X142753651Y-67425891D01*
X142603960Y-67064506D01*
X141977494Y-66438040D01*
X141158978Y-66099000D01*
X140273022Y-66099000D01*
X139454506Y-66438040D01*
X138828040Y-67064506D01*
X138489000Y-67883022D01*
X138489000Y-68768978D01*
X138828040Y-69587494D01*
X138876086Y-69635540D01*
X135269849Y-69635540D01*
X134848515Y-69214206D01*
X134296466Y-68985540D01*
X133698934Y-68985540D01*
X133146885Y-69214206D01*
X132724366Y-69636725D01*
X132495700Y-70188774D01*
X132495700Y-70786306D01*
X132724366Y-71338355D01*
X133146885Y-71760874D01*
X133698934Y-71989540D01*
X134296466Y-71989540D01*
X134848515Y-71760874D01*
X135269849Y-71339540D01*
X149108072Y-71339540D01*
X149191980Y-71356230D01*
X149275888Y-71339540D01*
X149275892Y-71339540D01*
X149524414Y-71290106D01*
X149806237Y-71101797D01*
X149853770Y-71030659D01*
X150941194Y-69943235D01*
X151049777Y-69964834D01*
X149520079Y-71494532D01*
X149448944Y-71542063D01*
X149401413Y-71613198D01*
X149401411Y-71613200D01*
X149260634Y-71823887D01*
X149194510Y-72156320D01*
X149211201Y-72240233D01*
X149211201Y-75165177D01*
X148893739Y-75033680D01*
X148286261Y-75033680D01*
X147725024Y-75266152D01*
X147295472Y-75695704D01*
X147063000Y-76256941D01*
X147063000Y-76864419D01*
X147295472Y-77425656D01*
X147725024Y-77855208D01*
X148286261Y-78087680D01*
X148893739Y-78087680D01*
X149211201Y-77956183D01*
X149211201Y-78391478D01*
X148968993Y-78343300D01*
X148668207Y-78343300D01*
X148222794Y-78431898D01*
X147717695Y-78769395D01*
X147548600Y-79022463D01*
X147379505Y-78769395D01*
X146874406Y-78431898D01*
X146428993Y-78343300D01*
X146128207Y-78343300D01*
X145682794Y-78431898D01*
X145177695Y-78769395D01*
X145008600Y-79022463D01*
X144839505Y-78769395D01*
X144334406Y-78431898D01*
X143888993Y-78343300D01*
X143588207Y-78343300D01*
X143142794Y-78431898D01*
X142637695Y-78769395D01*
X142468600Y-79022463D01*
X142299505Y-78769395D01*
X141794406Y-78431898D01*
X141348993Y-78343300D01*
X141048207Y-78343300D01*
X140602794Y-78431898D01*
X140097695Y-78769395D01*
X139760198Y-79274494D01*
X139641685Y-79870300D01*
X139760198Y-80466106D01*
X140097695Y-80971205D01*
X140602794Y-81308702D01*
X141048207Y-81397300D01*
X141348993Y-81397300D01*
X141794406Y-81308702D01*
X142299505Y-80971205D01*
X142468600Y-80718137D01*
X142637695Y-80971205D01*
X143142794Y-81308702D01*
X143588207Y-81397300D01*
X143888993Y-81397300D01*
X144334406Y-81308702D01*
X144839505Y-80971205D01*
X145008600Y-80718137D01*
X145177695Y-80971205D01*
X145682794Y-81308702D01*
X146128207Y-81397300D01*
X146428993Y-81397300D01*
X146874406Y-81308702D01*
X147379505Y-80971205D01*
X147548600Y-80718137D01*
X147717695Y-80971205D01*
X148222794Y-81308702D01*
X148668207Y-81397300D01*
X148968993Y-81397300D01*
X149211200Y-81349122D01*
X149211200Y-85892790D01*
X149112204Y-85991786D01*
X148968993Y-85963300D01*
X148668207Y-85963300D01*
X148222794Y-86051898D01*
X147717695Y-86389395D01*
X147548600Y-86642463D01*
X147379505Y-86389395D01*
X146874406Y-86051898D01*
X146428993Y-85963300D01*
X146128207Y-85963300D01*
X145682794Y-86051898D01*
X145177695Y-86389395D01*
X145008600Y-86642463D01*
X144839505Y-86389395D01*
X144334406Y-86051898D01*
X143888993Y-85963300D01*
X143588207Y-85963300D01*
X143142794Y-86051898D01*
X142661340Y-86373596D01*
X142522737Y-86166163D01*
X142282261Y-86005482D01*
X141998600Y-85949058D01*
X140398600Y-85949058D01*
X140114939Y-86005482D01*
X139874463Y-86166163D01*
X139713782Y-86406639D01*
X139667702Y-86638300D01*
X136651734Y-86638300D01*
X136754896Y-86389230D01*
X136633575Y-86159340D01*
X135440420Y-86159340D01*
X135440420Y-86179340D01*
X135186420Y-86179340D01*
X135186420Y-86159340D01*
X135166420Y-86159340D01*
X135166420Y-85905340D01*
X135186420Y-85905340D01*
X135186420Y-85885340D01*
X135440420Y-85885340D01*
X135440420Y-85905340D01*
X136633575Y-85905340D01*
X136754896Y-85675450D01*
X136585065Y-85265416D01*
X136194778Y-84837157D01*
X136162188Y-84821852D01*
X136450373Y-84629293D01*
X136798921Y-84107655D01*
X136921315Y-83492340D01*
X136798921Y-82877025D01*
X136450373Y-82355387D01*
X136251254Y-82222340D01*
X136450373Y-82089293D01*
X136798921Y-81567655D01*
X136921315Y-80952340D01*
X136798921Y-80337025D01*
X136450373Y-79815387D01*
X135928735Y-79466839D01*
X135468739Y-79375340D01*
X135158101Y-79375340D01*
X134698105Y-79466839D01*
X134266045Y-79755533D01*
X134147557Y-79578203D01*
X133907081Y-79417522D01*
X133623420Y-79361098D01*
X131923420Y-79361098D01*
X131639759Y-79417522D01*
X131399283Y-79578203D01*
X131238602Y-79818679D01*
X131182178Y-80102340D01*
X131182178Y-81802340D01*
X131238602Y-82086001D01*
X131399283Y-82326477D01*
X131576613Y-82444965D01*
X131287919Y-82877025D01*
X131165525Y-83492340D01*
X129802000Y-83492340D01*
X129802000Y-76477173D01*
X130687672Y-76477173D01*
X130758735Y-76720703D01*
X131286897Y-76909624D01*
X131847151Y-76882046D01*
X132236665Y-76720703D01*
X132307728Y-76477173D01*
X131497700Y-75667145D01*
X130687672Y-76477173D01*
X129802000Y-76477173D01*
X129802000Y-75276737D01*
X130075616Y-75276737D01*
X130103194Y-75836991D01*
X130264537Y-76226505D01*
X130508067Y-76297568D01*
X131318095Y-75487540D01*
X131677305Y-75487540D01*
X132487333Y-76297568D01*
X132730863Y-76226505D01*
X132919784Y-75698343D01*
X132892206Y-75138089D01*
X132730863Y-74748575D01*
X132607373Y-74712540D01*
X134981458Y-74712540D01*
X134981458Y-76262540D01*
X135037882Y-76546201D01*
X135198563Y-76786677D01*
X135439039Y-76947358D01*
X135722700Y-77003782D01*
X137272700Y-77003782D01*
X137556361Y-76947358D01*
X137796837Y-76786677D01*
X137957518Y-76546201D01*
X138013942Y-76262540D01*
X138013942Y-74712540D01*
X137957518Y-74428879D01*
X137796837Y-74188403D01*
X137556361Y-74027722D01*
X137272700Y-73971298D01*
X135722700Y-73971298D01*
X135439039Y-74027722D01*
X135198563Y-74188403D01*
X135037882Y-74428879D01*
X134981458Y-74712540D01*
X132607373Y-74712540D01*
X132487333Y-74677512D01*
X131677305Y-75487540D01*
X131318095Y-75487540D01*
X130508067Y-74677512D01*
X130264537Y-74748575D01*
X130075616Y-75276737D01*
X129802000Y-75276737D01*
X129802000Y-74497907D01*
X130687672Y-74497907D01*
X131497700Y-75307935D01*
X132307728Y-74497907D01*
X132236665Y-74254377D01*
X131708503Y-74065456D01*
X131148249Y-74093034D01*
X130758735Y-74254377D01*
X130687672Y-74497907D01*
X129802000Y-74497907D01*
X129802000Y-64802000D01*
X219198001Y-64802000D01*
X219198000Y-102698000D01*
X219198000Y-102698000D01*
G37*
X219198000Y-102698000D02*
X129802000Y-102698000D01*
X129802000Y-101619832D01*
X130894593Y-101619832D01*
X130993256Y-101886687D01*
X131602981Y-102113208D01*
X132252980Y-102089156D01*
X132741784Y-101886687D01*
X132840447Y-101619832D01*
X131867520Y-100646905D01*
X130894593Y-101619832D01*
X129802000Y-101619832D01*
X129802000Y-100202761D01*
X130221612Y-100202761D01*
X130245664Y-100852760D01*
X130448133Y-101341564D01*
X130714988Y-101440227D01*
X131687915Y-100467300D01*
X132047125Y-100467300D01*
X133020052Y-101440227D01*
X133286907Y-101341564D01*
X133513428Y-100731839D01*
X133489376Y-100081840D01*
X133286907Y-99593036D01*
X133020052Y-99494373D01*
X132047125Y-100467300D01*
X131687915Y-100467300D01*
X130714988Y-99494373D01*
X130448133Y-99593036D01*
X130221612Y-100202761D01*
X129802000Y-100202761D01*
X129802000Y-99314768D01*
X130894593Y-99314768D01*
X131867520Y-100287695D01*
X132840447Y-99314768D01*
X132741784Y-99047913D01*
X132132059Y-98821392D01*
X131482060Y-98845444D01*
X130993256Y-99047913D01*
X130894593Y-99314768D01*
X129802000Y-99314768D01*
X129802000Y-95119832D01*
X130894593Y-95119832D01*
X130993256Y-95386687D01*
X131602981Y-95613208D01*
X132252980Y-95589156D01*
X132741784Y-95386687D01*
X132840447Y-95119832D01*
X131867520Y-94146905D01*
X130894593Y-95119832D01*
X129802000Y-95119832D01*
X129802000Y-93702761D01*
X130221612Y-93702761D01*
X130245664Y-94352760D01*
X130448133Y-94841564D01*
X130714988Y-94940227D01*
X131687915Y-93967300D01*
X132047125Y-93967300D01*
X133020052Y-94940227D01*
X133286907Y-94841564D01*
X133513428Y-94231839D01*
X133489376Y-93581840D01*
X133286907Y-93093036D01*
X133020052Y-92994373D01*
X132047125Y-93967300D01*
X131687915Y-93967300D01*
X130714988Y-92994373D01*
X130448133Y-93093036D01*
X130221612Y-93702761D01*
X129802000Y-93702761D01*
X129802000Y-92814768D01*
X130894593Y-92814768D01*
X131867520Y-93787695D01*
X132840447Y-92814768D01*
X132741784Y-92547913D01*
X132132059Y-92321392D01*
X131482060Y-92345444D01*
X130993256Y-92547913D01*
X130894593Y-92814768D01*
X129802000Y-92814768D01*
X129802000Y-83492340D01*
X131165525Y-83492340D01*
X131287919Y-84107655D01*
X131636467Y-84629293D01*
X131835586Y-84762340D01*
X131636467Y-84895387D01*
X131287919Y-85417025D01*
X131165525Y-86032340D01*
X131287919Y-86647655D01*
X131636467Y-87169293D01*
X132158105Y-87517841D01*
X132618101Y-87609340D01*
X132928739Y-87609340D01*
X133109546Y-87573375D01*
X133569592Y-88033421D01*
X133617123Y-88104557D01*
X133688258Y-88152088D01*
X133688259Y-88152089D01*
X133774987Y-88210039D01*
X133898946Y-88292866D01*
X134147468Y-88342300D01*
X134147472Y-88342300D01*
X134231380Y-88358990D01*
X134315288Y-88342300D01*
X139667702Y-88342300D01*
X139713782Y-88573961D01*
X139874463Y-88814437D01*
X140064221Y-88941229D01*
X139856444Y-89149006D01*
X139713233Y-89120520D01*
X139412447Y-89120520D01*
X138967034Y-89209118D01*
X138461935Y-89546615D01*
X138124438Y-90051714D01*
X138005925Y-90647520D01*
X138124438Y-91243326D01*
X138461935Y-91748425D01*
X138710840Y-91914739D01*
X138710841Y-92660383D01*
X138687064Y-92670232D01*
X138257512Y-93099784D01*
X138251085Y-93115300D01*
X137883902Y-93115300D01*
X137831600Y-92989033D01*
X137345787Y-92503220D01*
X136711042Y-92240300D01*
X136023998Y-92240300D01*
X135389253Y-92503220D01*
X134903440Y-92989033D01*
X134640520Y-93623778D01*
X134640520Y-94310822D01*
X134903440Y-94945567D01*
X135389253Y-95431380D01*
X135515520Y-95483682D01*
X135515521Y-98950918D01*
X135389253Y-99003220D01*
X134903440Y-99489033D01*
X134640520Y-100123778D01*
X134640520Y-100810822D01*
X134903440Y-101445567D01*
X135389253Y-101931380D01*
X136023998Y-102194300D01*
X136711042Y-102194300D01*
X137345787Y-101931380D01*
X137831600Y-101445567D01*
X138094520Y-100810822D01*
X138094520Y-100123778D01*
X137831600Y-99489033D01*
X137345787Y-99003220D01*
X137219520Y-98950918D01*
X137219520Y-98883722D01*
X138476300Y-98883722D01*
X138476300Y-99769678D01*
X138815340Y-100588194D01*
X139441806Y-101214660D01*
X140260322Y-101553700D01*
X141146278Y-101553700D01*
X141964794Y-101214660D01*
X142591260Y-100588194D01*
X142930300Y-99769678D01*
X142930300Y-98883722D01*
X142925040Y-98871022D01*
X213469800Y-98871022D01*
X213469800Y-99756978D01*
X213808840Y-100575494D01*
X214435306Y-101201960D01*
X215253822Y-101541000D01*
X216139778Y-101541000D01*
X216958294Y-101201960D01*
X217584760Y-100575494D01*
X217923800Y-99756978D01*
X217923800Y-98871022D01*
X217584760Y-98052506D01*
X216958294Y-97426040D01*
X216139778Y-97087000D01*
X215253822Y-97087000D01*
X214435306Y-97426040D01*
X213808840Y-98052506D01*
X213469800Y-98871022D01*
X142925040Y-98871022D01*
X142591260Y-98065206D01*
X141964794Y-97438740D01*
X141146278Y-97099700D01*
X140260322Y-97099700D01*
X139441806Y-97438740D01*
X138815340Y-98065206D01*
X138476300Y-98883722D01*
X137219520Y-98883722D01*
X137219520Y-95483682D01*
X137345787Y-95431380D01*
X137831600Y-94945567D01*
X137883902Y-94819300D01*
X138253189Y-94819300D01*
X138257512Y-94829736D01*
X138687064Y-95259288D01*
X139248301Y-95491760D01*
X139855779Y-95491760D01*
X140417016Y-95259288D01*
X140703799Y-94972505D01*
X141223901Y-94972505D01*
X141298035Y-95218624D01*
X141835263Y-95411725D01*
X142405494Y-95384538D01*
X142806045Y-95218624D01*
X142880179Y-94972505D01*
X142052040Y-94144365D01*
X141223901Y-94972505D01*
X140703799Y-94972505D01*
X140846568Y-94829736D01*
X140882067Y-94744034D01*
X141044295Y-94792899D01*
X141872435Y-93964760D01*
X142231645Y-93964760D01*
X143059785Y-94792899D01*
X143305904Y-94718765D01*
X143499005Y-94181537D01*
X143471818Y-93611306D01*
X143467775Y-93601545D01*
X152018901Y-93601545D01*
X152093035Y-93847664D01*
X152630263Y-94040765D01*
X153200494Y-94013578D01*
X153601045Y-93847664D01*
X153675179Y-93601545D01*
X155386941Y-93601545D01*
X155461075Y-93847664D01*
X155998303Y-94040765D01*
X156568534Y-94013578D01*
X156969085Y-93847664D01*
X157043219Y-93601545D01*
X156215080Y-92773405D01*
X155386941Y-93601545D01*
X153675179Y-93601545D01*
X152847040Y-92773405D01*
X152018901Y-93601545D01*
X143467775Y-93601545D01*
X143305904Y-93210755D01*
X143059785Y-93136621D01*
X142231645Y-93964760D01*
X141872435Y-93964760D01*
X141044295Y-93136621D01*
X140882067Y-93185486D01*
X140846568Y-93099784D01*
X140703799Y-92957015D01*
X141223901Y-92957015D01*
X142052040Y-93785155D01*
X142880179Y-92957015D01*
X142806045Y-92710896D01*
X142268817Y-92517795D01*
X141698586Y-92544982D01*
X141298035Y-92710896D01*
X141223901Y-92957015D01*
X140703799Y-92957015D01*
X140417016Y-92670232D01*
X140414840Y-92669331D01*
X140414840Y-92377023D01*
X151400075Y-92377023D01*
X151427262Y-92947254D01*
X151593176Y-93347805D01*
X151839295Y-93421939D01*
X152667435Y-92593800D01*
X153026645Y-92593800D01*
X153854785Y-93421939D01*
X154100904Y-93347805D01*
X154294005Y-92810577D01*
X154273335Y-92377023D01*
X154768115Y-92377023D01*
X154795302Y-92947254D01*
X154961216Y-93347805D01*
X155207335Y-93421939D01*
X156035475Y-92593800D01*
X156394685Y-92593800D01*
X157222825Y-93421939D01*
X157468944Y-93347805D01*
X157662045Y-92810577D01*
X157634858Y-92240346D01*
X157468944Y-91839795D01*
X157362275Y-91807665D01*
X158195541Y-91807665D01*
X158269675Y-92053784D01*
X158806903Y-92246885D01*
X159377134Y-92219698D01*
X159777685Y-92053784D01*
X159851819Y-91807665D01*
X159023680Y-90979525D01*
X158195541Y-91807665D01*
X157362275Y-91807665D01*
X157222825Y-91765661D01*
X156394685Y-92593800D01*
X156035475Y-92593800D01*
X155207335Y-91765661D01*
X154961216Y-91839795D01*
X154768115Y-92377023D01*
X154273335Y-92377023D01*
X154266818Y-92240346D01*
X154100904Y-91839795D01*
X153854785Y-91765661D01*
X153026645Y-92593800D01*
X152667435Y-92593800D01*
X151839295Y-91765661D01*
X151593176Y-91839795D01*
X151400075Y-92377023D01*
X140414840Y-92377023D01*
X140414840Y-91914738D01*
X140663745Y-91748425D01*
X141001242Y-91243326D01*
X141119755Y-90647520D01*
X141061354Y-90353916D01*
X141071488Y-90343781D01*
X148195840Y-90343781D01*
X148195840Y-90951259D01*
X148428312Y-91512496D01*
X148857864Y-91942048D01*
X149419101Y-92174520D01*
X150026579Y-92174520D01*
X150587816Y-91942048D01*
X151017368Y-91512496D01*
X151249840Y-90951259D01*
X151249840Y-90343781D01*
X151017368Y-89782544D01*
X150587816Y-89352992D01*
X150026579Y-89120520D01*
X149419101Y-89120520D01*
X148857864Y-89352992D01*
X148428312Y-89782544D01*
X148195840Y-90343781D01*
X141071488Y-90343781D01*
X141741721Y-89673548D01*
X141812857Y-89626017D01*
X141866286Y-89546056D01*
X142001166Y-89344194D01*
X142019570Y-89251671D01*
X142050600Y-89095672D01*
X142050600Y-89095668D01*
X142066023Y-89018131D01*
X142282261Y-88975118D01*
X142522737Y-88814437D01*
X142661340Y-88607004D01*
X143142794Y-88928702D01*
X143588207Y-89017300D01*
X143888993Y-89017300D01*
X144334406Y-88928702D01*
X144839505Y-88591205D01*
X145008600Y-88338137D01*
X145177695Y-88591205D01*
X145682794Y-88928702D01*
X146128207Y-89017300D01*
X146428993Y-89017300D01*
X146874406Y-88928702D01*
X147379505Y-88591205D01*
X147548600Y-88338137D01*
X147717695Y-88591205D01*
X148222794Y-88928702D01*
X148668207Y-89017300D01*
X148968993Y-89017300D01*
X149414406Y-88928702D01*
X149919505Y-88591205D01*
X150088600Y-88338137D01*
X150257695Y-88591205D01*
X150762794Y-88928702D01*
X151208207Y-89017300D01*
X151508993Y-89017300D01*
X151827364Y-88953972D01*
X151552512Y-89228824D01*
X151320040Y-89790061D01*
X151320040Y-90397539D01*
X151552512Y-90958776D01*
X151982064Y-91388328D01*
X152067766Y-91423827D01*
X152018901Y-91586055D01*
X152847040Y-92414195D01*
X153675179Y-91586055D01*
X153626314Y-91423827D01*
X153712016Y-91388328D01*
X154141568Y-90958776D01*
X154374040Y-90397539D01*
X154374040Y-89790061D01*
X154141568Y-89228824D01*
X153930044Y-89017300D01*
X154048993Y-89017300D01*
X154494406Y-88928702D01*
X154999505Y-88591205D01*
X155168600Y-88338137D01*
X155337695Y-88591205D01*
X155534672Y-88722821D01*
X155350104Y-88799272D01*
X154920552Y-89228824D01*
X154688080Y-89790061D01*
X154688080Y-90397539D01*
X154920552Y-90958776D01*
X155350104Y-91388328D01*
X155435806Y-91423827D01*
X155386941Y-91586055D01*
X156215080Y-92414195D01*
X157043219Y-91586055D01*
X156994354Y-91423827D01*
X157080056Y-91388328D01*
X157509608Y-90958776D01*
X157585849Y-90774715D01*
X157603902Y-91153374D01*
X157769816Y-91553925D01*
X158015935Y-91628059D01*
X158844075Y-90799920D01*
X158015935Y-89971781D01*
X157769816Y-90045915D01*
X157742080Y-90123080D01*
X157742080Y-89792175D01*
X158195541Y-89792175D01*
X159023680Y-90620315D01*
X159851819Y-89792175D01*
X159777685Y-89546056D01*
X159240457Y-89352955D01*
X158670226Y-89380142D01*
X158269675Y-89546056D01*
X158195541Y-89792175D01*
X157742080Y-89792175D01*
X157742080Y-89790061D01*
X157509608Y-89228824D01*
X157139359Y-88858575D01*
X157539505Y-88591205D01*
X157775425Y-88238127D01*
X157826211Y-88345434D01*
X158241177Y-88721341D01*
X158629561Y-88882204D01*
X158851600Y-88760215D01*
X158851600Y-87617300D01*
X158831600Y-87617300D01*
X158831600Y-87363300D01*
X158851600Y-87363300D01*
X158851600Y-86220385D01*
X158629561Y-86098396D01*
X158241177Y-86259259D01*
X157826211Y-86635166D01*
X157775425Y-86742473D01*
X157539505Y-86389395D01*
X157034406Y-86051898D01*
X156588993Y-85963300D01*
X156288207Y-85963300D01*
X156033300Y-86014004D01*
X156033300Y-81238902D01*
X156089561Y-81262204D01*
X156311600Y-81140215D01*
X156311600Y-79997300D01*
X156291600Y-79997300D01*
X156291600Y-79743300D01*
X156311600Y-79743300D01*
X156311600Y-78600385D01*
X156089561Y-78478396D01*
X156033300Y-78501698D01*
X156033300Y-75486109D01*
X160068110Y-71451300D01*
X169316312Y-71451300D01*
X169400220Y-71467990D01*
X169484128Y-71451300D01*
X169484132Y-71451300D01*
X169732654Y-71401866D01*
X170014477Y-71213557D01*
X170062010Y-71142419D01*
X171261194Y-69943235D01*
X171369777Y-69964834D01*
X167300081Y-74034530D01*
X167228943Y-74082063D01*
X167040634Y-74363887D01*
X166991200Y-74612409D01*
X166991200Y-74612412D01*
X166974510Y-74696320D01*
X166991200Y-74780228D01*
X166991200Y-78391478D01*
X166748993Y-78343300D01*
X166448207Y-78343300D01*
X166002794Y-78431898D01*
X165497695Y-78769395D01*
X165328600Y-79022463D01*
X165159505Y-78769395D01*
X164654406Y-78431898D01*
X164208993Y-78343300D01*
X163908207Y-78343300D01*
X163462794Y-78431898D01*
X162957695Y-78769395D01*
X162788600Y-79022463D01*
X162619505Y-78769395D01*
X162370600Y-78603082D01*
X162370600Y-77867767D01*
X162388656Y-77860288D01*
X162675439Y-77573505D01*
X163195541Y-77573505D01*
X163269675Y-77819624D01*
X163806903Y-78012725D01*
X164377134Y-77985538D01*
X164777685Y-77819624D01*
X164851819Y-77573505D01*
X164023680Y-76745365D01*
X163195541Y-77573505D01*
X162675439Y-77573505D01*
X162818208Y-77430736D01*
X162853707Y-77345034D01*
X163015935Y-77393899D01*
X163844075Y-76565760D01*
X164203285Y-76565760D01*
X165031425Y-77393899D01*
X165277544Y-77319765D01*
X165470645Y-76782537D01*
X165443458Y-76212306D01*
X165277544Y-75811755D01*
X165031425Y-75737621D01*
X164203285Y-76565760D01*
X163844075Y-76565760D01*
X163015935Y-75737621D01*
X162853707Y-75786486D01*
X162818208Y-75700784D01*
X162675439Y-75558015D01*
X163195541Y-75558015D01*
X164023680Y-76386155D01*
X164851819Y-75558015D01*
X164777685Y-75311896D01*
X164240457Y-75118795D01*
X163670226Y-75145982D01*
X163269675Y-75311896D01*
X163195541Y-75558015D01*
X162675439Y-75558015D01*
X162388656Y-75271232D01*
X161827419Y-75038760D01*
X161219941Y-75038760D01*
X160658704Y-75271232D01*
X160229152Y-75700784D01*
X160223777Y-75713760D01*
X160020613Y-75713760D01*
X159850905Y-75459775D01*
X159345806Y-75122278D01*
X158900393Y-75033680D01*
X158599607Y-75033680D01*
X158154194Y-75122278D01*
X157649095Y-75459775D01*
X157311598Y-75964874D01*
X157193085Y-76560680D01*
X157311598Y-77156486D01*
X157649095Y-77661585D01*
X158154194Y-77999082D01*
X158599607Y-78087680D01*
X158900393Y-78087680D01*
X159345806Y-77999082D01*
X159850905Y-77661585D01*
X160013824Y-77417760D01*
X160223777Y-77417760D01*
X160229152Y-77430736D01*
X160658704Y-77860288D01*
X160666601Y-77863559D01*
X160666600Y-78603081D01*
X160417695Y-78769395D01*
X160248600Y-79022463D01*
X160079505Y-78769395D01*
X159574406Y-78431898D01*
X159128993Y-78343300D01*
X158828207Y-78343300D01*
X158382794Y-78431898D01*
X157877695Y-78769395D01*
X157641775Y-79122473D01*
X157590989Y-79015166D01*
X157176023Y-78639259D01*
X156787639Y-78478396D01*
X156565600Y-78600385D01*
X156565600Y-79743300D01*
X156585600Y-79743300D01*
X156585600Y-79997300D01*
X156565600Y-79997300D01*
X156565600Y-81140215D01*
X156787639Y-81262204D01*
X157176023Y-81101341D01*
X157590989Y-80725434D01*
X157641775Y-80618127D01*
X157877695Y-80971205D01*
X158382794Y-81308702D01*
X158828207Y-81397300D01*
X159128993Y-81397300D01*
X159574406Y-81308702D01*
X160079505Y-80971205D01*
X160248600Y-80718137D01*
X160417695Y-80971205D01*
X160922794Y-81308702D01*
X161303918Y-81384512D01*
X159106431Y-83582000D01*
X158960166Y-83582000D01*
X158545946Y-83753576D01*
X158228916Y-84070606D01*
X158057340Y-84484826D01*
X158057340Y-84933174D01*
X158228916Y-85347394D01*
X158545946Y-85664424D01*
X158960166Y-85836000D01*
X159408514Y-85836000D01*
X159822734Y-85664424D01*
X160139764Y-85347394D01*
X160311340Y-84933174D01*
X160311340Y-84786909D01*
X163735336Y-81362914D01*
X163908207Y-81397300D01*
X164208993Y-81397300D01*
X164654406Y-81308702D01*
X165159505Y-80971205D01*
X165328600Y-80718137D01*
X165497695Y-80971205D01*
X166002794Y-81308702D01*
X166448207Y-81397300D01*
X166748993Y-81397300D01*
X166991201Y-81349122D01*
X166991201Y-85892789D01*
X166892204Y-85991786D01*
X166748993Y-85963300D01*
X166448207Y-85963300D01*
X166002794Y-86051898D01*
X165497695Y-86389395D01*
X165328600Y-86642463D01*
X165159505Y-86389395D01*
X164654406Y-86051898D01*
X164208993Y-85963300D01*
X163908207Y-85963300D01*
X163462794Y-86051898D01*
X162957695Y-86389395D01*
X162788600Y-86642463D01*
X162619505Y-86389395D01*
X162114406Y-86051898D01*
X161668993Y-85963300D01*
X161368207Y-85963300D01*
X160922794Y-86051898D01*
X160417695Y-86389395D01*
X160181775Y-86742473D01*
X160130989Y-86635166D01*
X159716023Y-86259259D01*
X159327639Y-86098396D01*
X159105600Y-86220385D01*
X159105600Y-87363300D01*
X159125600Y-87363300D01*
X159125600Y-87617300D01*
X159105600Y-87617300D01*
X159105600Y-88760215D01*
X159327639Y-88882204D01*
X159716023Y-88721341D01*
X160130989Y-88345434D01*
X160181775Y-88238127D01*
X160417695Y-88591205D01*
X160666600Y-88757519D01*
X160666601Y-89502121D01*
X160658704Y-89505392D01*
X160229152Y-89934944D01*
X160193653Y-90020646D01*
X160031425Y-89971781D01*
X159203285Y-90799920D01*
X160031425Y-91628059D01*
X160193653Y-91579194D01*
X160229152Y-91664896D01*
X160658704Y-92094448D01*
X160671681Y-92099823D01*
X160671680Y-95095210D01*
X160617210Y-95149680D01*
X160051326Y-95149680D01*
X159508467Y-95374540D01*
X159092980Y-95790027D01*
X158868120Y-96332886D01*
X158868120Y-96920474D01*
X159092980Y-97463333D01*
X159508467Y-97878820D01*
X160051326Y-98103680D01*
X160638914Y-98103680D01*
X161181773Y-97878820D01*
X161597260Y-97463333D01*
X161822120Y-96920474D01*
X161822120Y-96354590D01*
X162066802Y-96109908D01*
X162137937Y-96062377D01*
X162185468Y-95991242D01*
X162185470Y-95991240D01*
X162326246Y-95780554D01*
X162364317Y-95589156D01*
X162375680Y-95532032D01*
X162375680Y-95532028D01*
X162392370Y-95448120D01*
X162375680Y-95364212D01*
X162375680Y-92099823D01*
X162388656Y-92094448D01*
X162801300Y-91681804D01*
X163188544Y-92069048D01*
X163201520Y-92074423D01*
X163201521Y-95351168D01*
X163184830Y-95435080D01*
X163250954Y-95767513D01*
X163391731Y-95978200D01*
X163391733Y-95978202D01*
X163439264Y-96049337D01*
X163510399Y-96096868D01*
X163768120Y-96354589D01*
X163768120Y-96920474D01*
X163992980Y-97463333D01*
X164408467Y-97878820D01*
X164951326Y-98103680D01*
X165538914Y-98103680D01*
X166081773Y-97878820D01*
X166497260Y-97463333D01*
X166722120Y-96920474D01*
X166722120Y-96913700D01*
X182021585Y-96913700D01*
X182140098Y-97509506D01*
X182477595Y-98014605D01*
X182982694Y-98352102D01*
X183428107Y-98440700D01*
X183728893Y-98440700D01*
X184174306Y-98352102D01*
X184679405Y-98014605D01*
X184848500Y-97761537D01*
X185017595Y-98014605D01*
X185522694Y-98352102D01*
X185968107Y-98440700D01*
X186268893Y-98440700D01*
X186714306Y-98352102D01*
X187219405Y-98014605D01*
X187388500Y-97761537D01*
X187557595Y-98014605D01*
X188062694Y-98352102D01*
X188508107Y-98440700D01*
X188808893Y-98440700D01*
X189254306Y-98352102D01*
X189759405Y-98014605D01*
X189995325Y-97661527D01*
X190046111Y-97768834D01*
X190461077Y-98144741D01*
X190849461Y-98305604D01*
X191071500Y-98183615D01*
X191071500Y-97040700D01*
X191051500Y-97040700D01*
X191051500Y-96786700D01*
X191071500Y-96786700D01*
X191071500Y-95643785D01*
X191325500Y-95643785D01*
X191325500Y-96786700D01*
X191345500Y-96786700D01*
X191345500Y-97040700D01*
X191325500Y-97040700D01*
X191325500Y-98183615D01*
X191547539Y-98305604D01*
X191935923Y-98144741D01*
X192350889Y-97768834D01*
X192401675Y-97661527D01*
X192637595Y-98014605D01*
X193142694Y-98352102D01*
X193588107Y-98440700D01*
X193888893Y-98440700D01*
X194334306Y-98352102D01*
X194839405Y-98014605D01*
X195008500Y-97761537D01*
X195177595Y-98014605D01*
X195682694Y-98352102D01*
X196128107Y-98440700D01*
X196428893Y-98440700D01*
X196874306Y-98352102D01*
X197379405Y-98014605D01*
X197548500Y-97761537D01*
X197717595Y-98014605D01*
X198222694Y-98352102D01*
X198668107Y-98440700D01*
X198968893Y-98440700D01*
X199414306Y-98352102D01*
X199919405Y-98014605D01*
X200256902Y-97509506D01*
X200375415Y-96913700D01*
X200256902Y-96317894D01*
X199919405Y-95812795D01*
X199414306Y-95475298D01*
X198968893Y-95386700D01*
X198668107Y-95386700D01*
X198222694Y-95475298D01*
X197717595Y-95812795D01*
X197548500Y-96065863D01*
X197379405Y-95812795D01*
X196874306Y-95475298D01*
X196428893Y-95386700D01*
X196128107Y-95386700D01*
X195682694Y-95475298D01*
X195177595Y-95812795D01*
X195008500Y-96065863D01*
X194839405Y-95812795D01*
X194334306Y-95475298D01*
X193888893Y-95386700D01*
X193588107Y-95386700D01*
X193142694Y-95475298D01*
X192637595Y-95812795D01*
X192401675Y-96165873D01*
X192350889Y-96058566D01*
X191935923Y-95682659D01*
X191547539Y-95521796D01*
X191325500Y-95643785D01*
X191071500Y-95643785D01*
X190849461Y-95521796D01*
X190461077Y-95682659D01*
X190046111Y-96058566D01*
X189995325Y-96165873D01*
X189759405Y-95812795D01*
X189254306Y-95475298D01*
X188808893Y-95386700D01*
X188508107Y-95386700D01*
X188062694Y-95475298D01*
X187557595Y-95812795D01*
X187388500Y-96065863D01*
X187219405Y-95812795D01*
X186714306Y-95475298D01*
X186268893Y-95386700D01*
X185968107Y-95386700D01*
X185522694Y-95475298D01*
X185017595Y-95812795D01*
X184848500Y-96065863D01*
X184679405Y-95812795D01*
X184174306Y-95475298D01*
X183728893Y-95386700D01*
X183428107Y-95386700D01*
X182982694Y-95475298D01*
X182477595Y-95812795D01*
X182140098Y-96317894D01*
X182021585Y-96913700D01*
X166722120Y-96913700D01*
X166722120Y-96332886D01*
X166497260Y-95790027D01*
X166081773Y-95374540D01*
X165538914Y-95149680D01*
X164973029Y-95149680D01*
X164905520Y-95082171D01*
X164905520Y-92974295D01*
X212181260Y-92974295D01*
X212181260Y-93462425D01*
X212368060Y-93913399D01*
X212713221Y-94258560D01*
X213164195Y-94445360D01*
X213652325Y-94445360D01*
X214103299Y-94258560D01*
X214448460Y-93913399D01*
X214635260Y-93462425D01*
X214635260Y-92974295D01*
X214448460Y-92523321D01*
X214103299Y-92178160D01*
X213652325Y-91991360D01*
X213164195Y-91991360D01*
X212713221Y-92178160D01*
X212368060Y-92523321D01*
X212181260Y-92974295D01*
X164905520Y-92974295D01*
X164905520Y-92074423D01*
X164918496Y-92069048D01*
X165205279Y-91782265D01*
X165725381Y-91782265D01*
X165799515Y-92028384D01*
X166336743Y-92221485D01*
X166906974Y-92194298D01*
X167307525Y-92028384D01*
X167381659Y-91782265D01*
X166553520Y-90954125D01*
X165725381Y-91782265D01*
X165205279Y-91782265D01*
X165348048Y-91639496D01*
X165383547Y-91553794D01*
X165545775Y-91602659D01*
X166373915Y-90774520D01*
X166733125Y-90774520D01*
X167561265Y-91602659D01*
X167807384Y-91528525D01*
X168000485Y-90991297D01*
X167973298Y-90421066D01*
X167807384Y-90020515D01*
X167561265Y-89946381D01*
X166733125Y-90774520D01*
X166373915Y-90774520D01*
X165545775Y-89946381D01*
X165383547Y-89995246D01*
X165348048Y-89909544D01*
X165205279Y-89766775D01*
X165725381Y-89766775D01*
X166553520Y-90594915D01*
X167381659Y-89766775D01*
X167307525Y-89520656D01*
X166770297Y-89327555D01*
X166200066Y-89354742D01*
X165799515Y-89520656D01*
X165725381Y-89766775D01*
X165205279Y-89766775D01*
X164918496Y-89479992D01*
X164910600Y-89476721D01*
X164910600Y-89293700D01*
X182021585Y-89293700D01*
X182140098Y-89889506D01*
X182477595Y-90394605D01*
X182982694Y-90732102D01*
X183428107Y-90820700D01*
X183728893Y-90820700D01*
X184174306Y-90732102D01*
X184679405Y-90394605D01*
X184848500Y-90141537D01*
X185017595Y-90394605D01*
X185522694Y-90732102D01*
X185968107Y-90820700D01*
X186268893Y-90820700D01*
X186714306Y-90732102D01*
X187219405Y-90394605D01*
X187388500Y-90141537D01*
X187557595Y-90394605D01*
X188062694Y-90732102D01*
X188508107Y-90820700D01*
X188808893Y-90820700D01*
X189254306Y-90732102D01*
X189759405Y-90394605D01*
X189928500Y-90141537D01*
X190097595Y-90394605D01*
X190602694Y-90732102D01*
X191048107Y-90820700D01*
X191348893Y-90820700D01*
X191794306Y-90732102D01*
X192299405Y-90394605D01*
X192468500Y-90141537D01*
X192637595Y-90394605D01*
X193142694Y-90732102D01*
X193588107Y-90820700D01*
X193888893Y-90820700D01*
X194032104Y-90792214D01*
X194867412Y-91627521D01*
X194914943Y-91698657D01*
X194986078Y-91746188D01*
X194986079Y-91746189D01*
X195078084Y-91807665D01*
X195196766Y-91886966D01*
X195445288Y-91936400D01*
X195445291Y-91936400D01*
X195529199Y-91953090D01*
X195613107Y-91936400D01*
X200296692Y-91936400D01*
X200380600Y-91953090D01*
X200464508Y-91936400D01*
X200464512Y-91936400D01*
X200713034Y-91886966D01*
X200994857Y-91698657D01*
X201042390Y-91627519D01*
X202094662Y-90575248D01*
X202165797Y-90527717D01*
X202220088Y-90446466D01*
X202354106Y-90245894D01*
X202371139Y-90160263D01*
X202403540Y-89997372D01*
X202403540Y-89997369D01*
X202420230Y-89913461D01*
X202403540Y-89829553D01*
X202403540Y-88574295D01*
X212181260Y-88574295D01*
X212181260Y-89062425D01*
X212368060Y-89513399D01*
X212713221Y-89858560D01*
X213164195Y-90045360D01*
X213652325Y-90045360D01*
X214103299Y-89858560D01*
X214448460Y-89513399D01*
X214635260Y-89062425D01*
X214635260Y-88574295D01*
X214448460Y-88123321D01*
X214103299Y-87778160D01*
X213652325Y-87591360D01*
X213164195Y-87591360D01*
X212713221Y-87778160D01*
X212368060Y-88123321D01*
X212181260Y-88574295D01*
X202403540Y-88574295D01*
X202403540Y-83911198D01*
X202652445Y-83744885D01*
X202989942Y-83239786D01*
X203108455Y-82643980D01*
X203050054Y-82350375D01*
X203730709Y-81669720D01*
X205738396Y-81669720D01*
X205705312Y-81702804D01*
X205472840Y-82264041D01*
X205472840Y-82871519D01*
X205705312Y-83432756D01*
X206134864Y-83862308D01*
X206696101Y-84094780D01*
X207303579Y-84094780D01*
X207864816Y-83862308D01*
X208294368Y-83432756D01*
X208526840Y-82871519D01*
X208526840Y-82264041D01*
X208294368Y-81702804D01*
X208261284Y-81669720D01*
X210459471Y-81669720D01*
X211078915Y-82289165D01*
X211073540Y-82302141D01*
X211073540Y-82909619D01*
X211306012Y-83470856D01*
X211735564Y-83900408D01*
X212296801Y-84132880D01*
X212904279Y-84132880D01*
X213465516Y-83900408D01*
X213895068Y-83470856D01*
X214127540Y-82909619D01*
X214127540Y-82302141D01*
X213895068Y-81740904D01*
X213465516Y-81311352D01*
X212904279Y-81078880D01*
X212296801Y-81078880D01*
X212283825Y-81084255D01*
X211474170Y-80274601D01*
X211426637Y-80203463D01*
X211144814Y-80015154D01*
X210896292Y-79965720D01*
X210896288Y-79965720D01*
X210812380Y-79949030D01*
X210728472Y-79965720D01*
X203461708Y-79965720D01*
X203377800Y-79949030D01*
X203293892Y-79965720D01*
X203293888Y-79965720D01*
X203045366Y-80015154D01*
X202763543Y-80203463D01*
X202716010Y-80274601D01*
X201845145Y-81145466D01*
X201701933Y-81116980D01*
X201401147Y-81116980D01*
X200955734Y-81205578D01*
X200450635Y-81543075D01*
X200113138Y-82048174D01*
X199994625Y-82643980D01*
X200113138Y-83239786D01*
X200450635Y-83744885D01*
X200699541Y-83911199D01*
X200699540Y-89560550D01*
X200359742Y-89900349D01*
X200359742Y-88493700D01*
X200303318Y-88210039D01*
X200142637Y-87969563D01*
X199902161Y-87808882D01*
X199670500Y-87762802D01*
X199670500Y-80706047D01*
X199687190Y-80622139D01*
X199670500Y-80538229D01*
X199670500Y-80538228D01*
X199621066Y-80289706D01*
X199553197Y-80188133D01*
X199480289Y-80079019D01*
X199480288Y-80079018D01*
X199432757Y-80007883D01*
X199361622Y-79960352D01*
X198635620Y-79234350D01*
X216053920Y-79234350D01*
X216053920Y-79836910D01*
X216150593Y-80070299D01*
X216329222Y-80248927D01*
X216562611Y-80345600D01*
X217165170Y-80345600D01*
X217323920Y-80186850D01*
X217323920Y-79075600D01*
X217577920Y-79075600D01*
X217577920Y-80186850D01*
X217736670Y-80345600D01*
X218339229Y-80345600D01*
X218572618Y-80248927D01*
X218751247Y-80070299D01*
X218847920Y-79836910D01*
X218847920Y-79234350D01*
X218689170Y-79075600D01*
X217577920Y-79075600D01*
X217323920Y-79075600D01*
X216212670Y-79075600D01*
X216053920Y-79234350D01*
X198635620Y-79234350D01*
X192331254Y-72929984D01*
X192389655Y-72636380D01*
X192329238Y-72332641D01*
X194754040Y-72332641D01*
X194754040Y-72940119D01*
X194986512Y-73501356D01*
X195416064Y-73930908D01*
X195977301Y-74163380D01*
X196584779Y-74163380D01*
X197146016Y-73930908D01*
X197575568Y-73501356D01*
X197808040Y-72940119D01*
X197808040Y-72332641D01*
X197802665Y-72319664D01*
X197942088Y-72180241D01*
X200024540Y-72180241D01*
X200024540Y-72787719D01*
X200257012Y-73348956D01*
X200686564Y-73778508D01*
X201247801Y-74010980D01*
X201855279Y-74010980D01*
X202416516Y-73778508D01*
X202846068Y-73348956D01*
X203078540Y-72787719D01*
X203078540Y-72180241D01*
X202846068Y-71619004D01*
X202416516Y-71189452D01*
X201855279Y-70956980D01*
X201247801Y-70956980D01*
X200686564Y-71189452D01*
X200257012Y-71619004D01*
X200024540Y-72180241D01*
X197942088Y-72180241D01*
X200129511Y-69992819D01*
X200208941Y-70025720D01*
X200816419Y-70025720D01*
X201377656Y-69793248D01*
X201762680Y-69408224D01*
X202147704Y-69793248D01*
X202708941Y-70025720D01*
X203316419Y-70025720D01*
X203384621Y-69997470D01*
X205501326Y-72114175D01*
X205442925Y-72407780D01*
X205561438Y-73003586D01*
X205898935Y-73508685D01*
X206404034Y-73846182D01*
X206849447Y-73934780D01*
X207150233Y-73934780D01*
X207293444Y-73906294D01*
X210378872Y-76991722D01*
X210426403Y-77062857D01*
X210708226Y-77251166D01*
X210956748Y-77300600D01*
X210956753Y-77300600D01*
X211040659Y-77317290D01*
X211124566Y-77300600D01*
X216197156Y-77300600D01*
X216481679Y-77585123D01*
X216329222Y-77648273D01*
X216150593Y-77826901D01*
X216053920Y-78060290D01*
X216053920Y-78662850D01*
X216212670Y-78821600D01*
X217323920Y-78821600D01*
X217323920Y-78801600D01*
X217577920Y-78801600D01*
X217577920Y-78821600D01*
X218689170Y-78821600D01*
X218847920Y-78662850D01*
X218847920Y-78060290D01*
X218751247Y-77826901D01*
X218572618Y-77648273D01*
X218420161Y-77585123D01*
X218713233Y-77292051D01*
X218939920Y-76744780D01*
X218939920Y-76152420D01*
X218713233Y-75605149D01*
X218294371Y-75186287D01*
X217747100Y-74959600D01*
X217154740Y-74959600D01*
X216607469Y-75186287D01*
X216197156Y-75596600D01*
X211393570Y-75596600D01*
X208591891Y-72794921D01*
X211208626Y-72794921D01*
X211448151Y-73301014D01*
X211863117Y-73676921D01*
X212251501Y-73837784D01*
X212473540Y-73715795D01*
X212473540Y-72572880D01*
X212727540Y-72572880D01*
X212727540Y-73715795D01*
X212949579Y-73837784D01*
X213337963Y-73676921D01*
X213752929Y-73301014D01*
X213992454Y-72794921D01*
X213871169Y-72572880D01*
X212727540Y-72572880D01*
X212473540Y-72572880D01*
X211329911Y-72572880D01*
X211208626Y-72794921D01*
X208591891Y-72794921D01*
X208498354Y-72701384D01*
X208556755Y-72407780D01*
X208494906Y-72096839D01*
X211208626Y-72096839D01*
X211329911Y-72318880D01*
X212473540Y-72318880D01*
X212473540Y-71175965D01*
X212727540Y-71175965D01*
X212727540Y-72318880D01*
X213871169Y-72318880D01*
X213992454Y-72096839D01*
X213752929Y-71590746D01*
X213337963Y-71214839D01*
X212949579Y-71053976D01*
X212727540Y-71175965D01*
X212473540Y-71175965D01*
X212251501Y-71053976D01*
X211863117Y-71214839D01*
X211448151Y-71590746D01*
X211208626Y-72096839D01*
X208494906Y-72096839D01*
X208438242Y-71811974D01*
X208100745Y-71306875D01*
X207595646Y-70969378D01*
X207150233Y-70880780D01*
X206849447Y-70880780D01*
X206706235Y-70909266D01*
X204539680Y-68742711D01*
X204539680Y-68194981D01*
X204410463Y-67883022D01*
X213469800Y-67883022D01*
X213469800Y-68768978D01*
X213808840Y-69587494D01*
X214435306Y-70213960D01*
X215253822Y-70553000D01*
X216139778Y-70553000D01*
X216958294Y-70213960D01*
X217584760Y-69587494D01*
X217923800Y-68768978D01*
X217923800Y-67883022D01*
X217584760Y-67064506D01*
X216958294Y-66438040D01*
X216139778Y-66099000D01*
X215253822Y-66099000D01*
X214435306Y-66438040D01*
X213808840Y-67064506D01*
X213469800Y-67883022D01*
X204410463Y-67883022D01*
X204307208Y-67633744D01*
X203877656Y-67204192D01*
X203316419Y-66971720D01*
X202708941Y-66971720D01*
X202147704Y-67204192D01*
X201762680Y-67589216D01*
X201377656Y-67204192D01*
X200816419Y-66971720D01*
X200208941Y-66971720D01*
X199647704Y-67204192D01*
X199218152Y-67633744D01*
X198985680Y-68194981D01*
X198985680Y-68726830D01*
X196597756Y-71114755D01*
X196584779Y-71109380D01*
X195977301Y-71109380D01*
X195416064Y-71341852D01*
X194986512Y-71771404D01*
X194754040Y-72332641D01*
X192329238Y-72332641D01*
X192271142Y-72040574D01*
X191933645Y-71535475D01*
X191428546Y-71197978D01*
X190983133Y-71109380D01*
X190682347Y-71109380D01*
X190236934Y-71197978D01*
X189731835Y-71535475D01*
X189574008Y-71771680D01*
X186593519Y-71771680D01*
X186584988Y-71751084D01*
X186155436Y-71321532D01*
X185594199Y-71089060D01*
X184986721Y-71089060D01*
X184425484Y-71321532D01*
X183995932Y-71751084D01*
X183763460Y-72312321D01*
X183763460Y-72919799D01*
X183995932Y-73481036D01*
X184425484Y-73910588D01*
X184986721Y-74143060D01*
X185594199Y-74143060D01*
X186155436Y-73910588D01*
X186584988Y-73481036D01*
X186587207Y-73475680D01*
X189557036Y-73475680D01*
X189731835Y-73737285D01*
X190236934Y-74074782D01*
X190682347Y-74163380D01*
X190983133Y-74163380D01*
X191126344Y-74134894D01*
X197966500Y-80975050D01*
X197966500Y-81478212D01*
X197966501Y-81478217D01*
X197966500Y-87762801D01*
X197734839Y-87808882D01*
X197494363Y-87969563D01*
X197355760Y-88176996D01*
X197130500Y-88026482D01*
X197130500Y-84065295D01*
X197381945Y-83897285D01*
X197719442Y-83392186D01*
X197837955Y-82796380D01*
X197719442Y-82200574D01*
X197381945Y-81695475D01*
X196876846Y-81357978D01*
X196431433Y-81269380D01*
X196130647Y-81269380D01*
X195685234Y-81357978D01*
X195180135Y-81695475D01*
X195013822Y-81944380D01*
X192132643Y-81944380D01*
X192127268Y-81931404D01*
X191697716Y-81501852D01*
X191136479Y-81269380D01*
X190529001Y-81269380D01*
X189967764Y-81501852D01*
X189538212Y-81931404D01*
X189305740Y-82492641D01*
X189305740Y-83100119D01*
X189538212Y-83661356D01*
X189967764Y-84090908D01*
X190529001Y-84323380D01*
X191136479Y-84323380D01*
X191697716Y-84090908D01*
X192127268Y-83661356D01*
X192132643Y-83648380D01*
X195013822Y-83648380D01*
X195180135Y-83897285D01*
X195426501Y-84061902D01*
X195426500Y-88026482D01*
X195177595Y-88192795D01*
X195008500Y-88445863D01*
X194839405Y-88192795D01*
X194334306Y-87855298D01*
X193888893Y-87766700D01*
X193588107Y-87766700D01*
X193142694Y-87855298D01*
X192637595Y-88192795D01*
X192468500Y-88445863D01*
X192299405Y-88192795D01*
X191794306Y-87855298D01*
X191603717Y-87817388D01*
X192088876Y-87616428D01*
X192375659Y-87329645D01*
X192895761Y-87329645D01*
X192969895Y-87575764D01*
X193507123Y-87768865D01*
X194077354Y-87741678D01*
X194477905Y-87575764D01*
X194552039Y-87329645D01*
X193723900Y-86501505D01*
X192895761Y-87329645D01*
X192375659Y-87329645D01*
X192518428Y-87186876D01*
X192553927Y-87101174D01*
X192716155Y-87150039D01*
X193544295Y-86321900D01*
X193903505Y-86321900D01*
X194731645Y-87150039D01*
X194977764Y-87075905D01*
X195170865Y-86538677D01*
X195143678Y-85968446D01*
X194977764Y-85567895D01*
X194731645Y-85493761D01*
X193903505Y-86321900D01*
X193544295Y-86321900D01*
X192716155Y-85493761D01*
X192553927Y-85542626D01*
X192518428Y-85456924D01*
X192375659Y-85314155D01*
X192895761Y-85314155D01*
X193723900Y-86142295D01*
X194552039Y-85314155D01*
X194477905Y-85068036D01*
X193940677Y-84874935D01*
X193370446Y-84902122D01*
X192969895Y-85068036D01*
X192895761Y-85314155D01*
X192375659Y-85314155D01*
X192088876Y-85027372D01*
X191527639Y-84794900D01*
X190920161Y-84794900D01*
X190358924Y-85027372D01*
X189972950Y-85413346D01*
X189574276Y-85014672D01*
X189013039Y-84782200D01*
X188405561Y-84782200D01*
X187844324Y-85014672D01*
X187414772Y-85444224D01*
X187379273Y-85529926D01*
X187217045Y-85481061D01*
X186388905Y-86309200D01*
X187217045Y-87137339D01*
X187379273Y-87088474D01*
X187414772Y-87174176D01*
X187844324Y-87603728D01*
X188325476Y-87803028D01*
X188062694Y-87855298D01*
X187557595Y-88192795D01*
X187388500Y-88445863D01*
X187219405Y-88192795D01*
X186714306Y-87855298D01*
X186268893Y-87766700D01*
X185968107Y-87766700D01*
X185522694Y-87855298D01*
X185017595Y-88192795D01*
X184848500Y-88445863D01*
X184679405Y-88192795D01*
X184174306Y-87855298D01*
X183728893Y-87766700D01*
X183428107Y-87766700D01*
X182982694Y-87855298D01*
X182477595Y-88192795D01*
X182140098Y-88697894D01*
X182021585Y-89293700D01*
X164910600Y-89293700D01*
X164910600Y-88757518D01*
X165159505Y-88591205D01*
X165328600Y-88338137D01*
X165497695Y-88591205D01*
X166002794Y-88928702D01*
X166448207Y-89017300D01*
X166748993Y-89017300D01*
X167194406Y-88928702D01*
X167699505Y-88591205D01*
X167868600Y-88338137D01*
X168037695Y-88591205D01*
X168542794Y-88928702D01*
X168988207Y-89017300D01*
X169288993Y-89017300D01*
X169734406Y-88928702D01*
X170239505Y-88591205D01*
X170408600Y-88338137D01*
X170577695Y-88591205D01*
X171082794Y-88928702D01*
X171528207Y-89017300D01*
X171828993Y-89017300D01*
X172274406Y-88928702D01*
X172779505Y-88591205D01*
X172948600Y-88338137D01*
X173117695Y-88591205D01*
X173622794Y-88928702D01*
X174068207Y-89017300D01*
X174368993Y-89017300D01*
X174814406Y-88928702D01*
X175319505Y-88591205D01*
X175657002Y-88086106D01*
X175775515Y-87490300D01*
X175741033Y-87316945D01*
X185381161Y-87316945D01*
X185455295Y-87563064D01*
X185992523Y-87756165D01*
X186562754Y-87728978D01*
X186963305Y-87563064D01*
X187037439Y-87316945D01*
X186209300Y-86488805D01*
X185381161Y-87316945D01*
X175741033Y-87316945D01*
X175657002Y-86894494D01*
X175319505Y-86389395D01*
X174875056Y-86092423D01*
X184762335Y-86092423D01*
X184789522Y-86662654D01*
X184955436Y-87063205D01*
X185201555Y-87137339D01*
X186029695Y-86309200D01*
X185201555Y-85481061D01*
X184955436Y-85555195D01*
X184762335Y-86092423D01*
X174875056Y-86092423D01*
X174814406Y-86051898D01*
X174371842Y-85963867D01*
X175034254Y-85301455D01*
X185381161Y-85301455D01*
X186209300Y-86129595D01*
X187037439Y-85301455D01*
X186963305Y-85055336D01*
X186426077Y-84862235D01*
X185855846Y-84889422D01*
X185455295Y-85055336D01*
X185381161Y-85301455D01*
X175034254Y-85301455D01*
X177855768Y-82479941D01*
X179874720Y-82479941D01*
X179874720Y-83087419D01*
X180107192Y-83648656D01*
X180536744Y-84078208D01*
X181097981Y-84310680D01*
X181705459Y-84310680D01*
X182266696Y-84078208D01*
X182696248Y-83648656D01*
X182701623Y-83635680D01*
X184028333Y-83635680D01*
X184189555Y-83876965D01*
X184694654Y-84214462D01*
X185140067Y-84303060D01*
X185440853Y-84303060D01*
X185886266Y-84214462D01*
X186391365Y-83876965D01*
X186728862Y-83371866D01*
X186847375Y-82776060D01*
X186728862Y-82180254D01*
X186391365Y-81675155D01*
X185886266Y-81337658D01*
X185440853Y-81249060D01*
X185140067Y-81249060D01*
X184694654Y-81337658D01*
X184189555Y-81675155D01*
X184018150Y-81931680D01*
X182701623Y-81931680D01*
X182696248Y-81918704D01*
X182266696Y-81489152D01*
X182180994Y-81453653D01*
X182229859Y-81291425D01*
X181401720Y-80463285D01*
X180573581Y-81291425D01*
X180622446Y-81453653D01*
X180536744Y-81489152D01*
X180107192Y-81918704D01*
X179874720Y-82479941D01*
X177855768Y-82479941D01*
X179760442Y-80575268D01*
X179831577Y-80527737D01*
X179967059Y-80324975D01*
X179981942Y-80637134D01*
X180147856Y-81037685D01*
X180393975Y-81111819D01*
X181222115Y-80283680D01*
X181581325Y-80283680D01*
X182409465Y-81111819D01*
X182655584Y-81037685D01*
X182848685Y-80500457D01*
X182821498Y-79930226D01*
X182655584Y-79529675D01*
X182409465Y-79455541D01*
X181581325Y-80283680D01*
X181222115Y-80283680D01*
X180393975Y-79455541D01*
X180147856Y-79529675D01*
X180069320Y-79748171D01*
X180069320Y-79275935D01*
X180573581Y-79275935D01*
X181401720Y-80104075D01*
X182229859Y-79275935D01*
X182155725Y-79029816D01*
X181618497Y-78836715D01*
X181048266Y-78863902D01*
X180647715Y-79029816D01*
X180573581Y-79275935D01*
X180069320Y-79275935D01*
X180069320Y-69729553D01*
X180354273Y-69539153D01*
X180487320Y-69340034D01*
X180620367Y-69539153D01*
X180905320Y-69729553D01*
X180905321Y-71766256D01*
X180661495Y-71929175D01*
X180323998Y-72434274D01*
X180205485Y-73030080D01*
X180323998Y-73625886D01*
X180661495Y-74130985D01*
X181166594Y-74468482D01*
X181612007Y-74557080D01*
X181912793Y-74557080D01*
X182358206Y-74468482D01*
X182863305Y-74130985D01*
X183200802Y-73625886D01*
X183319315Y-73030080D01*
X183200802Y-72434274D01*
X182863305Y-71929175D01*
X182609320Y-71759467D01*
X182609320Y-69729553D01*
X182894273Y-69539153D01*
X183086832Y-69250968D01*
X183102137Y-69283558D01*
X183530396Y-69673845D01*
X183940430Y-69843676D01*
X184170320Y-69722355D01*
X184170320Y-68529200D01*
X184424320Y-68529200D01*
X184424320Y-69722355D01*
X184654210Y-69843676D01*
X185064244Y-69673845D01*
X185492503Y-69283558D01*
X185738806Y-68759092D01*
X185618139Y-68529200D01*
X184424320Y-68529200D01*
X184170320Y-68529200D01*
X184150320Y-68529200D01*
X184150320Y-68275200D01*
X184170320Y-68275200D01*
X184170320Y-67082045D01*
X184424320Y-67082045D01*
X184424320Y-68275200D01*
X185618139Y-68275200D01*
X185738806Y-68045308D01*
X185492503Y-67520842D01*
X185064244Y-67130555D01*
X184654210Y-66960724D01*
X184424320Y-67082045D01*
X184170320Y-67082045D01*
X183940430Y-66960724D01*
X183530396Y-67130555D01*
X183102137Y-67520842D01*
X183086832Y-67553432D01*
X182894273Y-67265247D01*
X182372635Y-66916699D01*
X181912639Y-66825200D01*
X181602001Y-66825200D01*
X181142005Y-66916699D01*
X180620367Y-67265247D01*
X180487320Y-67464366D01*
X180354273Y-67265247D01*
X179832635Y-66916699D01*
X179372639Y-66825200D01*
X179062001Y-66825200D01*
X178602005Y-66916699D01*
X178080367Y-67265247D01*
X177947320Y-67464366D01*
X177814273Y-67265247D01*
X177292635Y-66916699D01*
X176832639Y-66825200D01*
X176522001Y-66825200D01*
X176062005Y-66916699D01*
X175540367Y-67265247D01*
X175407320Y-67464366D01*
X175274273Y-67265247D01*
X174752635Y-66916699D01*
X174292639Y-66825200D01*
X173982001Y-66825200D01*
X173522005Y-66916699D01*
X173000367Y-67265247D01*
X172867320Y-67464366D01*
X172734273Y-67265247D01*
X172212635Y-66916699D01*
X171752639Y-66825200D01*
X171442001Y-66825200D01*
X170982005Y-66916699D01*
X170460367Y-67265247D01*
X170327320Y-67464366D01*
X170194273Y-67265247D01*
X169672635Y-66916699D01*
X169212639Y-66825200D01*
X168902001Y-66825200D01*
X168442005Y-66916699D01*
X167920367Y-67265247D01*
X167787320Y-67464366D01*
X167654273Y-67265247D01*
X167132635Y-66916699D01*
X166672639Y-66825200D01*
X166362001Y-66825200D01*
X165902005Y-66916699D01*
X165380367Y-67265247D01*
X165247320Y-67464366D01*
X165114273Y-67265247D01*
X164592635Y-66916699D01*
X164132639Y-66825200D01*
X163822001Y-66825200D01*
X163362005Y-66916699D01*
X162840367Y-67265247D01*
X162707320Y-67464366D01*
X162574273Y-67265247D01*
X162052635Y-66916699D01*
X161592639Y-66825200D01*
X161282001Y-66825200D01*
X160822005Y-66916699D01*
X160300367Y-67265247D01*
X160167320Y-67464366D01*
X160034273Y-67265247D01*
X159512635Y-66916699D01*
X159052639Y-66825200D01*
X158742001Y-66825200D01*
X158282005Y-66916699D01*
X157760367Y-67265247D01*
X157567808Y-67553432D01*
X157552503Y-67520842D01*
X157124244Y-67130555D01*
X156714210Y-66960724D01*
X156484320Y-67082045D01*
X156484320Y-68275200D01*
X156504320Y-68275200D01*
X156504320Y-68529200D01*
X156484320Y-68529200D01*
X156484320Y-68549200D01*
X156230320Y-68549200D01*
X156230320Y-68529200D01*
X156210320Y-68529200D01*
X156210320Y-68275200D01*
X156230320Y-68275200D01*
X156230320Y-67082045D01*
X156000430Y-66960724D01*
X155590396Y-67130555D01*
X155162137Y-67520842D01*
X155146832Y-67553432D01*
X154954273Y-67265247D01*
X154432635Y-66916699D01*
X153972639Y-66825200D01*
X153662001Y-66825200D01*
X153202005Y-66916699D01*
X152680367Y-67265247D01*
X152547320Y-67464366D01*
X152414273Y-67265247D01*
X151892635Y-66916699D01*
X151432639Y-66825200D01*
X151122001Y-66825200D01*
X150662005Y-66916699D01*
X150140367Y-67265247D01*
X150007320Y-67464366D01*
X149874273Y-67265247D01*
X149352635Y-66916699D01*
X148892639Y-66825200D01*
X148582001Y-66825200D01*
X148122005Y-66916699D01*
X147612438Y-67257181D01*
X147585647Y-67192502D01*
X147407019Y-67013873D01*
X147173630Y-66917200D01*
X146483070Y-66917200D01*
X146324320Y-67075950D01*
X146324320Y-68275200D01*
X146344320Y-68275200D01*
X146344320Y-68529200D01*
X146324320Y-68529200D01*
X146324320Y-68549200D01*
X146070320Y-68549200D01*
X146070320Y-68529200D01*
X144871070Y-68529200D01*
X144712320Y-68687950D01*
X144712320Y-69378509D01*
X144808993Y-69611898D01*
X144832635Y-69635540D01*
X142555914Y-69635540D01*
X142603960Y-69587494D01*
X142943000Y-68768978D01*
X142943000Y-67883022D01*
X142753651Y-67425891D01*
X144712320Y-67425891D01*
X144712320Y-68116450D01*
X144871070Y-68275200D01*
X146070320Y-68275200D01*
X146070320Y-67075950D01*
X145911570Y-66917200D01*
X145221010Y-66917200D01*
X144987621Y-67013873D01*
X144808993Y-67192502D01*
X144712320Y-67425891D01*
X142753651Y-67425891D01*
X142603960Y-67064506D01*
X141977494Y-66438040D01*
X141158978Y-66099000D01*
X140273022Y-66099000D01*
X139454506Y-66438040D01*
X138828040Y-67064506D01*
X138489000Y-67883022D01*
X138489000Y-68768978D01*
X138828040Y-69587494D01*
X138876086Y-69635540D01*
X135269849Y-69635540D01*
X134848515Y-69214206D01*
X134296466Y-68985540D01*
X133698934Y-68985540D01*
X133146885Y-69214206D01*
X132724366Y-69636725D01*
X132495700Y-70188774D01*
X132495700Y-70786306D01*
X132724366Y-71338355D01*
X133146885Y-71760874D01*
X133698934Y-71989540D01*
X134296466Y-71989540D01*
X134848515Y-71760874D01*
X135269849Y-71339540D01*
X149108072Y-71339540D01*
X149191980Y-71356230D01*
X149275888Y-71339540D01*
X149275892Y-71339540D01*
X149524414Y-71290106D01*
X149806237Y-71101797D01*
X149853770Y-71030659D01*
X150941194Y-69943235D01*
X151049777Y-69964834D01*
X149520079Y-71494532D01*
X149448944Y-71542063D01*
X149401413Y-71613198D01*
X149401411Y-71613200D01*
X149260634Y-71823887D01*
X149194510Y-72156320D01*
X149211201Y-72240233D01*
X149211201Y-75165177D01*
X148893739Y-75033680D01*
X148286261Y-75033680D01*
X147725024Y-75266152D01*
X147295472Y-75695704D01*
X147063000Y-76256941D01*
X147063000Y-76864419D01*
X147295472Y-77425656D01*
X147725024Y-77855208D01*
X148286261Y-78087680D01*
X148893739Y-78087680D01*
X149211201Y-77956183D01*
X149211201Y-78391478D01*
X148968993Y-78343300D01*
X148668207Y-78343300D01*
X148222794Y-78431898D01*
X147717695Y-78769395D01*
X147548600Y-79022463D01*
X147379505Y-78769395D01*
X146874406Y-78431898D01*
X146428993Y-78343300D01*
X146128207Y-78343300D01*
X145682794Y-78431898D01*
X145177695Y-78769395D01*
X145008600Y-79022463D01*
X144839505Y-78769395D01*
X144334406Y-78431898D01*
X143888993Y-78343300D01*
X143588207Y-78343300D01*
X143142794Y-78431898D01*
X142637695Y-78769395D01*
X142468600Y-79022463D01*
X142299505Y-78769395D01*
X141794406Y-78431898D01*
X141348993Y-78343300D01*
X141048207Y-78343300D01*
X140602794Y-78431898D01*
X140097695Y-78769395D01*
X139760198Y-79274494D01*
X139641685Y-79870300D01*
X139760198Y-80466106D01*
X140097695Y-80971205D01*
X140602794Y-81308702D01*
X141048207Y-81397300D01*
X141348993Y-81397300D01*
X141794406Y-81308702D01*
X142299505Y-80971205D01*
X142468600Y-80718137D01*
X142637695Y-80971205D01*
X143142794Y-81308702D01*
X143588207Y-81397300D01*
X143888993Y-81397300D01*
X144334406Y-81308702D01*
X144839505Y-80971205D01*
X145008600Y-80718137D01*
X145177695Y-80971205D01*
X145682794Y-81308702D01*
X146128207Y-81397300D01*
X146428993Y-81397300D01*
X146874406Y-81308702D01*
X147379505Y-80971205D01*
X147548600Y-80718137D01*
X147717695Y-80971205D01*
X148222794Y-81308702D01*
X148668207Y-81397300D01*
X148968993Y-81397300D01*
X149211200Y-81349122D01*
X149211200Y-85892790D01*
X149112204Y-85991786D01*
X148968993Y-85963300D01*
X148668207Y-85963300D01*
X148222794Y-86051898D01*
X147717695Y-86389395D01*
X147548600Y-86642463D01*
X147379505Y-86389395D01*
X146874406Y-86051898D01*
X146428993Y-85963300D01*
X146128207Y-85963300D01*
X145682794Y-86051898D01*
X145177695Y-86389395D01*
X145008600Y-86642463D01*
X144839505Y-86389395D01*
X144334406Y-86051898D01*
X143888993Y-85963300D01*
X143588207Y-85963300D01*
X143142794Y-86051898D01*
X142661340Y-86373596D01*
X142522737Y-86166163D01*
X142282261Y-86005482D01*
X141998600Y-85949058D01*
X140398600Y-85949058D01*
X140114939Y-86005482D01*
X139874463Y-86166163D01*
X139713782Y-86406639D01*
X139667702Y-86638300D01*
X136651734Y-86638300D01*
X136754896Y-86389230D01*
X136633575Y-86159340D01*
X135440420Y-86159340D01*
X135440420Y-86179340D01*
X135186420Y-86179340D01*
X135186420Y-86159340D01*
X135166420Y-86159340D01*
X135166420Y-85905340D01*
X135186420Y-85905340D01*
X135186420Y-85885340D01*
X135440420Y-85885340D01*
X135440420Y-85905340D01*
X136633575Y-85905340D01*
X136754896Y-85675450D01*
X136585065Y-85265416D01*
X136194778Y-84837157D01*
X136162188Y-84821852D01*
X136450373Y-84629293D01*
X136798921Y-84107655D01*
X136921315Y-83492340D01*
X136798921Y-82877025D01*
X136450373Y-82355387D01*
X136251254Y-82222340D01*
X136450373Y-82089293D01*
X136798921Y-81567655D01*
X136921315Y-80952340D01*
X136798921Y-80337025D01*
X136450373Y-79815387D01*
X135928735Y-79466839D01*
X135468739Y-79375340D01*
X135158101Y-79375340D01*
X134698105Y-79466839D01*
X134266045Y-79755533D01*
X134147557Y-79578203D01*
X133907081Y-79417522D01*
X133623420Y-79361098D01*
X131923420Y-79361098D01*
X131639759Y-79417522D01*
X131399283Y-79578203D01*
X131238602Y-79818679D01*
X131182178Y-80102340D01*
X131182178Y-81802340D01*
X131238602Y-82086001D01*
X131399283Y-82326477D01*
X131576613Y-82444965D01*
X131287919Y-82877025D01*
X131165525Y-83492340D01*
X129802000Y-83492340D01*
X129802000Y-76477173D01*
X130687672Y-76477173D01*
X130758735Y-76720703D01*
X131286897Y-76909624D01*
X131847151Y-76882046D01*
X132236665Y-76720703D01*
X132307728Y-76477173D01*
X131497700Y-75667145D01*
X130687672Y-76477173D01*
X129802000Y-76477173D01*
X129802000Y-75276737D01*
X130075616Y-75276737D01*
X130103194Y-75836991D01*
X130264537Y-76226505D01*
X130508067Y-76297568D01*
X131318095Y-75487540D01*
X131677305Y-75487540D01*
X132487333Y-76297568D01*
X132730863Y-76226505D01*
X132919784Y-75698343D01*
X132892206Y-75138089D01*
X132730863Y-74748575D01*
X132607373Y-74712540D01*
X134981458Y-74712540D01*
X134981458Y-76262540D01*
X135037882Y-76546201D01*
X135198563Y-76786677D01*
X135439039Y-76947358D01*
X135722700Y-77003782D01*
X137272700Y-77003782D01*
X137556361Y-76947358D01*
X137796837Y-76786677D01*
X137957518Y-76546201D01*
X138013942Y-76262540D01*
X138013942Y-74712540D01*
X137957518Y-74428879D01*
X137796837Y-74188403D01*
X137556361Y-74027722D01*
X137272700Y-73971298D01*
X135722700Y-73971298D01*
X135439039Y-74027722D01*
X135198563Y-74188403D01*
X135037882Y-74428879D01*
X134981458Y-74712540D01*
X132607373Y-74712540D01*
X132487333Y-74677512D01*
X131677305Y-75487540D01*
X131318095Y-75487540D01*
X130508067Y-74677512D01*
X130264537Y-74748575D01*
X130075616Y-75276737D01*
X129802000Y-75276737D01*
X129802000Y-74497907D01*
X130687672Y-74497907D01*
X131497700Y-75307935D01*
X132307728Y-74497907D01*
X132236665Y-74254377D01*
X131708503Y-74065456D01*
X131148249Y-74093034D01*
X130758735Y-74254377D01*
X130687672Y-74497907D01*
X129802000Y-74497907D01*
X129802000Y-64802000D01*
X219198001Y-64802000D01*
X219198000Y-102698000D01*
G04 #@! TD*
M02*
